<svg xmlns="http://www.w3.org/2000/svg" width="372.293" height="443.21" viewBox="0 0 372.293 443.21">
  <g id="그룹_632" data-name="그룹 632" transform="translate(-84 -1361.5)">
    <g id="그룹_631" data-name="그룹 631" transform="translate(-73.066 764.501)">
      <g id="그룹_630" data-name="그룹 630" transform="translate(166.076 596.999)">
        <path id="패스_9618" data-name="패스 9618" d="M308.015,646.975a12.818,12.818,0,0,0-2.719-.963c.337-.1.65-.193.962-.313.072-.024.144-.024.216-.048.265-.1.505-.192.77-.313a2.936,2.936,0,0,0,.409-.168c.216-.1.433-.217.65-.313.144-.1.265-.168.409-.265a6.478,6.478,0,0,0,.818-.6c.144-.12.313-.24.457-.385a3.3,3.3,0,0,0,.385-.433c.12-.12.216-.265.337-.409a4.621,4.621,0,0,0,.337-.505c.1-.144.192-.313.289-.481.072-.144.168-.313.241-.481h.938l.914-.048c1.155,2.6,3.032,3.946,6.328,4.788-4.259,1.059-6.159,3.008-7.218,7.41,0-.048-.024-.072-.024-.12a15.3,15.3,0,0,0-.914-2.695.717.717,0,0,1-.1-.193,7.938,7.938,0,0,0-.529-.89,2.176,2.176,0,0,1-.12-.192,8.462,8.462,0,0,0-.7-.866c-.024,0-.024-.024-.048-.024a7.2,7.2,0,0,0-2-1.444C308.087,647,308.039,647,308.015,646.975Z" transform="translate(29.668 -534.783)" fill="#fff"/>
        <rect id="사각형_350" data-name="사각형 350" width="5.887" height="5.887" transform="translate(285.232 422.205) rotate(-45)" fill="#fff"/>
        <path id="패스_9619" data-name="패스 9619" d="M289.907,635.191A26.725,26.725,0,0,0,287,624.99l.674-.361a1.235,1.235,0,0,0,1.107.7H309.4A27.782,27.782,0,0,1,337.041,652.3c-.024.385-.048.722-.072,1.058A30.292,30.292,0,0,0,309.4,635.191Z" transform="translate(3.938 -558.151)" fill="#fff"/>
        <path id="패스_9620" data-name="패스 9620" d="M409.491,778.567c.12.529.265,1.035.337,1.564l-5.149,5.173a.855.855,0,0,0-.265.385,1.2,1.2,0,0,0,0,.914.854.854,0,0,0,.265.385l4.138,4.162a21.224,21.224,0,0,1-4.788,7.434,20.844,20.844,0,0,1-14.821,6.159H218.07a20.922,20.922,0,0,1-19.609-13.618l4.138-4.138a1.205,1.205,0,0,0,0-1.684l-5.173-5.173c.1-.529.217-1.035.361-1.564a12.243,12.243,0,0,1,.337-1.347c.193-.626.481-1.2.722-1.8.192-.409.337-.818.529-1.2a20.546,20.546,0,0,1,1.107-1.829c.217-.313.385-.65.6-.938a21.366,21.366,0,0,1,2.141-2.5l.024-.024a20.844,20.844,0,0,1,14.821-6.159H389.209a20.869,20.869,0,0,1,11.693,3.585.5.5,0,0,0,.144.1,21.947,21.947,0,0,1,2.983,2.5,19.472,19.472,0,0,1,2.165,2.5c.192.289.361.6.553.89.385.6.818,1.227,1.155,1.877.192.385.313.794.481,1.179a17.111,17.111,0,0,1,.746,1.829C409.275,777.652,409.371,778.109,409.491,778.567Z" transform="translate(-121.998 -363.94)" fill="#fff"/>
        <path id="패스_9621" data-name="패스 9621" d="M273.253,624.751a19.706,19.706,0,0,0-2.887-10.273l.505-.289a1.57,1.57,0,0,0,.241.361,1.165,1.165,0,0,0,.866.385h14.268a24.962,24.962,0,0,1,24.71,23.916,1.409,1.409,0,0,0,.1.457l-.674.361A27.376,27.376,0,0,0,286.246,624.8H273.253Z" transform="translate(-19.444 -572.83)" fill="#fff"/>
        <path id="패스_9622" data-name="패스 9622" d="M247.71,598.6l13.738,17.107L247.71,632.836l-4.884-6.111,8.83-11-8.83-11.02v-.024Z" transform="translate(-58.165 -594.75)" fill="#fff"/>
        <path id="패스_9623" data-name="패스 9623" d="M246.46,601.929l7.29,9.119-7.29,9.095-7.314-9.095Z" transform="translate(-63.339 -590.068)" fill="#fff"/>
        <path id="패스_9624" data-name="패스 9624" d="M247.534,598.589l4.908,6.135-8.854,11.02,8.854,11-4.908,6.111L233.8,615.719Z" transform="translate(-70.861 -594.764)" fill="#fff"/>
        <path id="패스_9625" data-name="패스 9625" d="M264.926,623.7a17.528,17.528,0,0,1,17.516-17.492h31.446l15.856,19.777,6.448-8.012,6.424,8.012,15.88-19.777h28.487A17.5,17.5,0,0,1,404.474,623.7c0,.265-.024.505-.024.746l-.048.433a.994.994,0,0,0,.1.529l-.505.289a20.956,20.956,0,0,0-2.935-3.777,19.888,19.888,0,0,0-14.075-5.847h-15.35a1.206,1.206,0,0,0-1.2,1.2,1.191,1.191,0,0,0,1.2,1.2h15.35a17.538,17.538,0,0,1,17.492,17.491c0,.265-.024.505-.024.746l-.048.457a1.156,1.156,0,0,0,.337.89,1.143,1.143,0,0,0,.866.361h14.268a24.962,24.962,0,0,1,24.71,23.916,1.2,1.2,0,0,0,1.2,1.155H466.4a27.873,27.873,0,0,1,27,21.654c-1.083,7.531-3.513,8.012-14.436,8.926a1.187,1.187,0,0,0-1.011.77.976.976,0,0,0-.1.457,1.183,1.183,0,0,0,1.107,1.179c13.618,1.131,14.051,1.588,15.11,16.192v185.6l-.313,3.9-9.744-7.242,7.242,9.744-17.034,1.781,17.034,1.78-7.242,9.744,9.744-7.242.313,3.8v63.206a27.7,27.7,0,0,1-27.669,27.669H449.177l-5.847-5.871-.072-.072-.072-.217a22.82,22.82,0,0,0-.77-2.935c-.048-.168-.12-.313-.168-.457a22.273,22.273,0,0,0-1.227-2.791,2.618,2.618,0,0,0-.193-.361,23.417,23.417,0,0,0-1.684-2.647c-.048-.072-.12-.144-.168-.217a24.22,24.22,0,0,0-2.189-2.526l-.144-.144a24.886,24.886,0,0,0-3.2-2.647,1.791,1.791,0,0,0-.289-.168,22.852,22.852,0,0,0-12.872-3.922H249.142a23.148,23.148,0,0,0-16.529,6.881.637.637,0,0,0-.12.144l-.12.12a24.053,24.053,0,0,0-2.045,2.406.5.5,0,0,0-.1.144,20.291,20.291,0,0,0-1.66,2.647l-.217.361a25.954,25.954,0,0,0-1.2,2.767c-.048.144-.1.289-.168.457a23.952,23.952,0,0,0-.77,2.863c-.024.1-.048.168-.072.241,0,.024-.024.048-.048.072l-5.871,5.871H203a27.7,27.7,0,0,1-27.669-27.669v-.987c1.059-14.629,1.492-15.086,15.11-16.24a1.179,1.179,0,0,0,1.107-1.2,1.206,1.206,0,0,0-1.107-1.2c-7.122-.577-10.635-1.01-12.511-3.344-1.708-2.141-2.093-5.871-2.6-12.824v-210.6l.842-10.081,9.744,7.242-7.242-9.744,16.529-2.454L178.67,715.2l7.242-9.744-9.744,7.242-.842-10.37V691.165A27.7,27.7,0,0,1,203,663.5h20.644a1.2,1.2,0,0,0,1.2-1.155,24.907,24.907,0,0,1,24.686-23.916h14.268a1.143,1.143,0,0,0,.866-.361,1.156,1.156,0,0,0,.337-.89l-.024-.433c-.024-.241-.048-.505-.048-.77a17.543,17.543,0,0,1,17.516-17.491h17.444a1.191,1.191,0,0,0,1.2-1.2,1.206,1.206,0,0,0-1.2-1.2H282.441a20,20,0,0,0-17.034,9.576l-.505-.24a.993.993,0,0,0,.1-.529l-.024-.409C264.95,624.206,264.926,623.965,264.926,623.7Z" transform="translate(-153.07 -584.05)" fill="#fff"/>
        <path id="패스_9626" data-name="패스 9626" d="M203.371,774.911l-4.162,4.162-4.162-4.162,2.165-2.165,2-2Z" transform="translate(-125.344 -352.706)" fill="#fff"/>
        <path id="패스_9627" data-name="패스 9627" d="M195.962,638.851a24.907,24.907,0,0,1,24.686-23.916h14.268a1.164,1.164,0,0,0,.866-.385,1.569,1.569,0,0,0,.241-.361l.505.24a19.881,19.881,0,0,0-2.887,10.322v.048H220.648a27.311,27.311,0,0,0-24.108,14.869l-.674-.361A1.408,1.408,0,0,0,195.962,638.851Z" transform="translate(-124.191 -572.83)" fill="#fff"/>
        <path id="패스_9628" data-name="패스 9628" d="M175.326,653A27.7,27.7,0,0,1,203,625.327h20.644a1.235,1.235,0,0,0,1.107-.7l.674.361a26.723,26.723,0,0,0-2.911,10.2H203a30.134,30.134,0,0,0-27.669,18.31Z" transform="translate(-153.07 -558.151)" fill="#fff"/>
        <path id="패스_9629" data-name="패스 9629" d="M179.573,762.954a6.634,6.634,0,0,0-.192.65,8.737,8.737,0,0,0-.265.938l-.072.217c-1.035-4.427-2.959-6.352-7.218-7.435,4.259-1.083,6.183-3.007,7.218-7.435a.567.567,0,0,1,.048.193c.1.361.192.7.313,1.035a4.155,4.155,0,0,0,.168.505c.12.337.241.674.385.986a4.172,4.172,0,0,0,.241.457c.1.193.217.385.313.577.1.144.217.313.313.457.12.144.241.313.385.457a4.807,4.807,0,0,0,.337.385,9.643,9.643,0,0,0,.746.65,5.734,5.734,0,0,0,.505.313c.144.1.289.193.457.289.192.1.409.193.626.289a2.6,2.6,0,0,0,.457.192l.722.289c.1.024.217.048.313.072.289.1.577.193.89.289a10.953,10.953,0,0,0-1.42.433.341.341,0,0,0-.144.048,10.752,10.752,0,0,0-1.059.457c-.072.024-.168.072-.241.1a8.014,8.014,0,0,0-.89.553.5.5,0,0,0-.144.1,6.267,6.267,0,0,0-.866.722c-.072.072-.12.144-.192.217-.168.217-.361.433-.505.65a3.127,3.127,0,0,0-.241.361c-.144.216-.265.433-.385.649l-.217.433C179.814,762.328,179.694,762.641,179.573,762.954Z" transform="translate(-157.992 -382.035)" fill="#fff"/>
        <path id="패스_9630" data-name="패스 9630" d="M503.759,709.191c.024.024.072.024.1.048a7.2,7.2,0,0,1,2,1.444c.024,0,.024.024.048.024a8.462,8.462,0,0,1,.7.866,2.176,2.176,0,0,0,.12.192,7.938,7.938,0,0,1,.529.89.717.717,0,0,0,.1.193,15.3,15.3,0,0,1,.914,2.695c0,.048.024.072.024.12,1.059-4.4,2.959-6.352,7.218-7.41-3.3-.842-5.173-2.189-6.328-4.788l-.914.048h-.938c-.072.168-.168.337-.241.481-.1.168-.192.337-.289.481a4.621,4.621,0,0,1-.337.505c-.12.144-.217.289-.337.409a3.3,3.3,0,0,1-.385.433c-.144.144-.313.265-.457.385a6.478,6.478,0,0,1-.818.6c-.144.1-.265.168-.409.265-.217.1-.433.216-.65.313a2.936,2.936,0,0,1-.409.168c-.265.12-.505.217-.77.313-.072.024-.144.024-.216.048-.313.12-.626.217-.962.313A12.818,12.818,0,0,1,503.759,709.191ZM459.633,1019.2l-4.162-4.162-4.162,4.162,4.162,4.162ZM350.737,606.96l8.83,11.02-8.83,11,4.884,6.111,13.738-17.131-13.738-17.107-4.884,6.087ZM338.8,617.979l8.854-11.02-4.908-6.135-13.738,17.131,13.738,17.131,4.908-6.111Zm17.684,0-7.29-9.119-7.314,9.119,7.314,9.095ZM262.148,995.818a20.845,20.845,0,0,0-14.821,6.159l-.024.024a21.366,21.366,0,0,0-2.141,2.5c-.217.289-.385.626-.6.938a20.546,20.546,0,0,0-1.107,1.829c-.192.385-.337.794-.529,1.2-.241.6-.529,1.179-.722,1.8a12.243,12.243,0,0,0-.337,1.347c-.144.529-.265,1.035-.361,1.564l5.173,5.173a1.205,1.205,0,0,1,0,1.684l-4.138,4.138a20.922,20.922,0,0,0,19.609,13.618H433.287a20.844,20.844,0,0,0,14.821-6.159,21.224,21.224,0,0,0,4.788-7.434l-4.138-4.162a.854.854,0,0,1-.265-.385,1.2,1.2,0,0,1,0-.914.855.855,0,0,1,.265-.385l5.149-5.173c-.072-.529-.217-1.035-.337-1.564-.12-.457-.216-.914-.361-1.347a17.111,17.111,0,0,0-.746-1.829c-.168-.385-.289-.794-.481-1.179-.337-.65-.77-1.275-1.155-1.877-.192-.289-.361-.6-.553-.89a19.472,19.472,0,0,0-2.165-2.5,21.947,21.947,0,0,0-2.983-2.5.5.5,0,0,1-.144-.1,20.869,20.869,0,0,0-11.693-3.585Zm-22.207,19.224-2,2-2.165,2.165,4.162,4.162,4.162-4.162ZM216,664.175a27.7,27.7,0,0,0-27.669,27.669v.505A30.134,30.134,0,0,1,216,674.039h19.513a26.723,26.723,0,0,1,2.911-10.2,27.311,27.311,0,0,1,24.108-14.869h12.992v-.048a19.9,19.9,0,0,1,19.922-19.9H312.89a1.206,1.206,0,0,1,1.2,1.2,1.191,1.191,0,0,1-1.2,1.2H295.447a17.543,17.543,0,0,0-17.516,17.491c0,.265.024.529.048.77l.024.433a1.156,1.156,0,0,1-.337.89,1.143,1.143,0,0,1-.866.361H262.533a24.907,24.907,0,0,0-24.686,23.916,1.2,1.2,0,0,1-1.2,1.155H216a27.7,27.7,0,0,0-27.669,27.669v11.164l.842,10.37,9.744-7.242-7.242,9.744,16.529,1.107-16.529,2.454,7.242,9.744-9.744-7.242-.842,10.081v210.6c.505,6.953.89,10.683,2.6,12.824,1.877,2.334,5.389,2.767,12.511,3.344a1.206,1.206,0,0,1,1.107,1.2,1.179,1.179,0,0,1-1.107,1.2c-13.618,1.155-14.051,1.612-15.11,16.24v.987A27.7,27.7,0,0,0,216,1018.363h17.227l5.871-5.871c.024-.024.048-.048.048-.072.024-.072.048-.144.072-.241a23.952,23.952,0,0,1,.77-2.863c.072-.168.12-.313.168-.457a25.954,25.954,0,0,1,1.2-2.767l.217-.361a20.291,20.291,0,0,1,1.66-2.647.5.5,0,0,1,.1-.144,24.053,24.053,0,0,1,2.045-2.406l.12-.12a.637.637,0,0,1,.12-.144,23.148,23.148,0,0,1,16.529-6.881H433.287a22.852,22.852,0,0,1,12.872,3.922,1.791,1.791,0,0,1,.289.168,24.886,24.886,0,0,1,3.2,2.647l.144.144a24.22,24.22,0,0,1,2.189,2.526c.048.072.12.144.168.217a23.417,23.417,0,0,1,1.684,2.647,2.618,2.618,0,0,1,.193.361,22.273,22.273,0,0,1,1.227,2.791c.048.144.12.289.168.457a22.82,22.82,0,0,1,.77,2.935l.072.217.072.072,5.847,5.871H479.41a27.7,27.7,0,0,0,27.669-27.669V927.488l-.313-3.8-9.744,7.242,7.242-9.744-17.034-1.78,17.034-1.781-7.242-9.744,9.744,7.242.313-3.9v-185.6c-1.059-14.6-1.492-15.062-15.11-16.192a1.183,1.183,0,0,1-1.107-1.179.976.976,0,0,1,.1-.457,1.187,1.187,0,0,1,1.011-.77c10.923-.914,13.353-1.4,14.436-8.926a27.873,27.873,0,0,0-27-21.654H458.79a1.2,1.2,0,0,1-1.2-1.155,24.962,24.962,0,0,0-24.71-23.916H418.61a1.143,1.143,0,0,1-.866-.361,1.156,1.156,0,0,1-.337-.89l.048-.457c0-.24.024-.481.024-.746a17.538,17.538,0,0,0-17.492-17.491h-15.35a1.191,1.191,0,0,1-1.2-1.2,1.206,1.206,0,0,1,1.2-1.2h15.35a19.888,19.888,0,0,1,14.075,5.847A20.956,20.956,0,0,1,417,638.647a19.706,19.706,0,0,1,2.887,10.273v.048h12.992a27.376,27.376,0,0,1,24.132,14.869,26.725,26.725,0,0,1,2.911,10.2H479.41A30.292,30.292,0,0,1,506.983,692.2c.024-.337.048-.674.072-1.058a27.782,27.782,0,0,0-27.645-26.971H458.79a1.235,1.235,0,0,1-1.107-.7,1.409,1.409,0,0,1-.1-.457,24.962,24.962,0,0,0-24.71-23.916H418.61a1.165,1.165,0,0,1-.866-.385,1.57,1.57,0,0,1-.241-.361.994.994,0,0,1-.1-.529l.048-.433c0-.24.024-.481.024-.746a17.5,17.5,0,0,0-17.492-17.492H371.5l-15.88,19.777-6.424-8.012-6.448,8.012-15.856-19.777H295.447a17.528,17.528,0,0,0-17.516,17.492c0,.265.024.505.048.77l.024.409a.993.993,0,0,1-.1.529,1.57,1.57,0,0,1-.241.361,1.165,1.165,0,0,1-.866.385H262.533a24.907,24.907,0,0,0-24.686,23.916,1.408,1.408,0,0,1-.1.457,1.235,1.235,0,0,1-1.107.7ZM185.926,989.683c-1.059-14.6-1.492-15.062-15.11-16.216a1.206,1.206,0,0,1-1.107-1.2,1.184,1.184,0,0,1,1.107-1.179c13.618-1.131,14.051-1.588,15.11-16.216V738.039l-.313-3.826-9.744,7.242,7.242-9.744-17.035-1.78,17.035-1.781-7.242-9.744,9.744,7.242.313-3.922V691.844A30.117,30.117,0,0,1,216,661.769h19.513a27.328,27.328,0,0,1,27.019-25.07h12.992v-.048a19.941,19.941,0,0,1,19.922-19.9h31.471L342.749,597l6.448,8.012L355.621,597l15.856,19.753h28.511a19.92,19.92,0,0,1,19.9,19.9v.048h12.992a27.368,27.368,0,0,1,27.044,25.07H479.41a30.215,30.215,0,0,1,30,28.824c.024.1.072.144.072.241,1.059,14.628,1.492,15.086,15.11,16.216a1.194,1.194,0,0,1,0,2.382c-13.618,1.131-14.051,1.588-15.11,16.192v179.1l.842,10.394,9.744-7.242-7.242,9.744,16.529,1.131-16.529,2.43,7.242,9.744-9.744-7.242-.842,10.105v56.9a30.117,30.117,0,0,1-30.075,30.075H461.485l-5.149,5.149a1.221,1.221,0,0,1-.866.361,1.16,1.16,0,0,1-.722-.265,23.911,23.911,0,0,1-4.932,7.314,23.19,23.19,0,0,1-16.529,6.881H262.148a23.336,23.336,0,0,1-21.486-14.2,1.111,1.111,0,0,1-.722.265,1.129,1.129,0,0,1-.842-.361l-5.173-5.149H216a30.117,30.117,0,0,1-30.075-30.075Zm1.54-11.116a6.634,6.634,0,0,1,.192-.65c.12-.313.241-.625.385-.914l.217-.433c.12-.216.241-.433.385-.649a3.127,3.127,0,0,1,.241-.361c.144-.217.337-.433.505-.65.072-.072.12-.144.192-.217a6.267,6.267,0,0,1,.866-.722.5.5,0,0,1,.144-.1,8.014,8.014,0,0,1,.89-.553c.072-.024.168-.072.241-.1a10.752,10.752,0,0,1,1.059-.457.341.341,0,0,1,.144-.048,10.953,10.953,0,0,1,1.42-.433c-.313-.1-.6-.193-.89-.289-.1-.024-.217-.048-.313-.072l-.722-.289a2.6,2.6,0,0,1-.457-.192c-.217-.1-.433-.193-.626-.289-.168-.1-.313-.192-.457-.289a5.734,5.734,0,0,1-.505-.313,9.643,9.643,0,0,1-.746-.65,4.807,4.807,0,0,1-.337-.385c-.144-.144-.265-.313-.385-.457-.1-.144-.217-.313-.313-.457-.1-.192-.217-.385-.313-.577a4.172,4.172,0,0,1-.241-.457c-.144-.313-.265-.65-.385-.986a4.155,4.155,0,0,1-.168-.505c-.12-.337-.217-.674-.313-1.035a.567.567,0,0,0-.048-.193c-1.035,4.427-2.959,6.352-7.218,7.435,4.259,1.083,6.183,3.008,7.218,7.435l.072-.217A8.737,8.737,0,0,1,187.465,978.567Z" transform="translate(-166.076 -596.999)" fill="#fff"/>
      </g>
    </g>
    <g id="그룹_629" data-name="그룹 629" transform="translate(92.18 758.933)">
      <g id="그룹_627" data-name="그룹 627" transform="translate(-8.18 609.067)">
        <g id="그룹_626" data-name="그룹 626">
          <path id="패스_9600" data-name="패스 9600" d="M344.447,921.384,328.4,923.743l7.03,9.458-9.458-7.03-.817,9.809v55.233a29.234,29.234,0,0,1-29.193,29.193h-17.4l-5,5a1.185,1.185,0,0,1-.841.35,1.126,1.126,0,0,1-.7-.257,23.208,23.208,0,0,1-4.788,7.1,22.509,22.509,0,0,1-16.044,6.679H85.074A22.652,22.652,0,0,1,64.218,1025.5a1.078,1.078,0,0,1-.7.257,1.1,1.1,0,0,1-.817-.35l-5.021-5H40.28a29.234,29.234,0,0,1-29.193-29.193v-.981c-1.028-14.176-1.448-14.62-14.667-15.741a1.17,1.17,0,0,1-1.074-1.168,1.149,1.149,0,0,1,1.074-1.144c13.219-1.1,13.639-1.541,14.667-15.741V745.97l-.3-3.713-9.459,7.03,7.03-9.458L-8.18,738.1l16.535-1.728-7.03-9.459,9.459,7.03.3-3.807V701.13A29.233,29.233,0,0,1,40.28,671.937h18.94A26.526,26.526,0,0,1,85.447,647.6H98.059v-.047A19.356,19.356,0,0,1,117.4,628.241h30.547l15.367-19.174,6.259,7.777,6.236-7.777L191.2,628.241h27.675a19.336,19.336,0,0,1,19.314,19.314v.047H250.8a26.565,26.565,0,0,1,26.25,24.335h18.917a29.329,29.329,0,0,1,29.123,27.978c.023.094.07.14.07.234,1.028,14.2,1.448,14.643,14.667,15.741a1.159,1.159,0,0,1,0,2.312c-13.219,1.1-13.639,1.541-14.667,15.717v173.85l.817,10.089,9.458-7.03-7.03,9.459ZM323.989,724.251c1.028-4.274,2.873-6.166,7.006-7.193-3.2-.818-5.021-2.125-6.142-4.647l-.887.047h-.911c-.07.163-.163.327-.234.467-.093.163-.187.327-.28.467a4.46,4.46,0,0,1-.327.49c-.117.14-.21.28-.327.4a3.2,3.2,0,0,1-.374.42c-.14.14-.3.257-.444.374a6.3,6.3,0,0,1-.794.584c-.14.094-.257.163-.4.257-.21.093-.42.21-.631.3a2.87,2.87,0,0,1-.4.164c-.257.117-.49.21-.747.3-.07.023-.14.023-.21.047-.3.117-.607.21-.934.3a12.444,12.444,0,0,1,2.639.934c.023.023.07.023.093.047a7,7,0,0,1,1.938,1.4c.023,0,.023.023.047.023a8.184,8.184,0,0,1,.677.841,2.168,2.168,0,0,0,.117.187,7.675,7.675,0,0,1,.514.864.7.7,0,0,0,.093.187,14.858,14.858,0,0,1,.887,2.616C323.965,724.18,323.989,724.2,323.989,724.251Zm-1.168,266.963V929.862l-.3-3.69-9.459,7.03,7.03-9.458-16.535-1.728,16.535-1.728-7.03-9.459,9.459,7.03.3-3.783V733.919c-1.028-14.176-1.448-14.62-14.667-15.717a1.149,1.149,0,0,1-1.074-1.144.948.948,0,0,1,.093-.444,1.152,1.152,0,0,1,.981-.747c10.6-.887,12.962-1.355,14.013-8.665a27.056,27.056,0,0,0-26.2-21.019H275.949a1.162,1.162,0,0,1-1.168-1.121A24.23,24.23,0,0,0,250.8,661.848H236.947a1.111,1.111,0,0,1-.841-.35,1.123,1.123,0,0,1-.327-.864l.047-.444c0-.234.023-.467.023-.724a17.024,17.024,0,0,0-16.979-16.979h-14.9a1.156,1.156,0,0,1-1.168-1.168,1.171,1.171,0,0,1,1.168-1.168h14.9a19.381,19.381,0,0,1,19.314,19.314v.047H250.8a26.573,26.573,0,0,1,23.424,14.433,26.059,26.059,0,0,1,2.826,9.9h18.917a29.4,29.4,0,0,1,26.764,17.633c.023-.327.047-.654.07-1.028a26.967,26.967,0,0,0-26.834-26.18H275.949a1.2,1.2,0,0,1-1.074-.677,1.366,1.366,0,0,1-.093-.444A24.23,24.23,0,0,0,250.8,649.937H236.947a1.13,1.13,0,0,1-.841-.374,1.524,1.524,0,0,1-.234-.35.964.964,0,0,1-.093-.514l.047-.42c0-.234.023-.467.023-.724a16.984,16.984,0,0,0-16.979-16.979H191.219l-15.414,19.2L169.57,642l-6.259,7.777-15.391-19.2H117.4a17.014,17.014,0,0,0-17,16.979c0,.257.023.49.047.747l.023.4a.964.964,0,0,1-.093.514,1.524,1.524,0,0,1-.234.35,1.13,1.13,0,0,1-.841.374H85.447a24.177,24.177,0,0,0-23.962,23.214,1.366,1.366,0,0,1-.093.444,1.2,1.2,0,0,1-1.074.677H40.28A26.891,26.891,0,0,0,13.423,701.13v.49A29.251,29.251,0,0,1,40.28,683.848h18.94a26.059,26.059,0,0,1,2.826-9.9,26.51,26.51,0,0,1,23.4-14.433H98.059v-.047A19.316,19.316,0,0,1,117.4,640.152h16.932a1.171,1.171,0,0,1,1.168,1.168,1.156,1.156,0,0,1-1.168,1.168H117.4a17.029,17.029,0,0,0-17,16.979c0,.257.023.514.047.747l.023.42a1.123,1.123,0,0,1-.327.864,1.111,1.111,0,0,1-.841.35H85.447a24.177,24.177,0,0,0-23.962,23.214,1.162,1.162,0,0,1-1.168,1.121H40.28A26.891,26.891,0,0,0,13.423,713.04v10.836l.817,10.066,9.459-7.03-7.03,9.459,16.044,1.074-16.044,2.382,7.03,9.458-9.459-7.03-.817,9.785V956.463c.49,6.749.864,10.369,2.522,12.448,1.822,2.266,5.231,2.686,12.144,3.246a1.17,1.17,0,0,1,1.074,1.168,1.144,1.144,0,0,1-1.074,1.168c-13.219,1.121-13.639,1.565-14.667,15.764v.958a26.891,26.891,0,0,0,26.857,26.858H57l5.7-5.7c.023-.023.047-.047.047-.07.023-.07.047-.14.07-.233a23.245,23.245,0,0,1,.747-2.779c.07-.164.117-.3.163-.444a25.164,25.164,0,0,1,1.168-2.686l.21-.35a19.7,19.7,0,0,1,1.611-2.569.49.49,0,0,1,.093-.14,23.333,23.333,0,0,1,1.985-2.335l.117-.117a.619.619,0,0,1,.117-.14,22.47,22.47,0,0,1,16.044-6.679H251.193a22.182,22.182,0,0,1,12.495,3.807,1.738,1.738,0,0,1,.28.163,24.139,24.139,0,0,1,3.106,2.569l.14.14a23.519,23.519,0,0,1,2.125,2.452c.047.07.117.14.163.21a22.731,22.731,0,0,1,1.635,2.569,2.554,2.554,0,0,1,.187.35,21.643,21.643,0,0,1,1.191,2.709c.047.14.117.28.163.444a22.148,22.148,0,0,1,.747,2.849l.07.21.07.07,5.675,5.7h16.722A26.891,26.891,0,0,0,322.821,991.214Zm-50.1,31.715,4.04-4.04-4.04-4.04-4.04,4.04Zm-6.516-4.858,5-5.021c-.07-.514-.21-1-.327-1.518-.117-.444-.21-.887-.35-1.308a16.634,16.634,0,0,0-.724-1.775c-.163-.374-.28-.771-.467-1.145-.327-.63-.747-1.238-1.121-1.822-.187-.28-.35-.584-.537-.864a18.888,18.888,0,0,0-2.1-2.429,21.306,21.306,0,0,0-2.9-2.429.491.491,0,0,1-.14-.093,20.255,20.255,0,0,0-11.35-3.48H85.074a20.233,20.233,0,0,0-14.386,5.979l-.023.023a20.717,20.717,0,0,0-2.079,2.429c-.21.28-.374.607-.584.911a19.952,19.952,0,0,0-1.074,1.775c-.187.374-.327.771-.514,1.168-.234.584-.514,1.144-.7,1.752a11.9,11.9,0,0,0-.327,1.308c-.14.514-.257,1-.35,1.518l5.021,5.021a1.17,1.17,0,0,1,0,1.635l-4.017,4.017a20.309,20.309,0,0,0,19.034,13.218H251.193a20.233,20.233,0,0,0,14.386-5.979,20.6,20.6,0,0,0,4.647-7.216l-4.017-4.04a.83.83,0,0,1-.257-.374,1.168,1.168,0,0,1,0-.888A.829.829,0,0,1,266.21,1018.071ZM189.141,629.409l-13.335-16.6-4.741,5.909v.023l8.571,10.7L171.064,640.1l4.741,5.932Zm-12.495.023-7.076-8.851-7.1,8.851,7.1,8.828Zm-8.571-10.7-4.764-5.955-13.335,16.628,13.335,16.628,4.764-5.932-8.594-10.673ZM63.518,1022.929l4.04-4.04-4.04-4.04-1.938,1.938-2.1,2.1ZM19.261,973.348c-.3-.093-.584-.187-.864-.28-.093-.023-.21-.047-.3-.07l-.7-.28a2.524,2.524,0,0,1-.444-.187c-.21-.094-.42-.187-.607-.28-.163-.094-.3-.187-.444-.28a5.594,5.594,0,0,1-.49-.3,9.392,9.392,0,0,1-.724-.631,4.677,4.677,0,0,1-.327-.374c-.14-.14-.257-.3-.374-.444-.093-.14-.21-.3-.3-.444-.093-.187-.21-.374-.3-.561a4.058,4.058,0,0,1-.234-.444c-.14-.3-.257-.63-.374-.957a4.032,4.032,0,0,1-.163-.49c-.117-.327-.21-.654-.3-1a.551.551,0,0,0-.047-.187c-1,4.3-2.873,6.166-7.006,7.217,4.134,1.051,6,2.919,7.006,7.217l.07-.21a8.489,8.489,0,0,1,.257-.911,6.441,6.441,0,0,1,.187-.63c.117-.3.234-.607.374-.887l.21-.42c.117-.21.234-.42.374-.631a3.043,3.043,0,0,1,.234-.35c.14-.21.327-.42.49-.63.07-.07.117-.14.187-.21a6.078,6.078,0,0,1,.841-.7.487.487,0,0,1,.14-.094,7.766,7.766,0,0,1,.864-.537c.07-.023.163-.07.234-.093a10.434,10.434,0,0,1,1.028-.444.331.331,0,0,1,.14-.047A10.6,10.6,0,0,1,19.261,973.348Z" transform="translate(8.18 -609.067)" fill="#0a142d"/>
          <path id="패스_9601" data-name="패스 9601" d="M145.076,657.965c-4.134,1.028-5.979,2.919-7.006,7.193,0-.047-.023-.07-.023-.117a14.858,14.858,0,0,0-.887-2.616.7.7,0,0,1-.093-.187,7.675,7.675,0,0,0-.514-.864,2.168,2.168,0,0,1-.117-.187,8.184,8.184,0,0,0-.677-.841c-.023,0-.023-.023-.047-.023a7,7,0,0,0-1.938-1.4c-.023-.023-.07-.023-.093-.047a12.444,12.444,0,0,0-2.639-.934c.327-.093.631-.187.934-.3.07-.023.14-.023.21-.047.257-.093.49-.187.747-.3a2.87,2.87,0,0,0,.4-.164c.21-.094.42-.21.631-.3.14-.094.257-.163.4-.257a6.3,6.3,0,0,0,.794-.584c.14-.117.3-.234.444-.374a3.2,3.2,0,0,0,.374-.42c.117-.117.21-.257.327-.4a4.46,4.46,0,0,0,.327-.49c.093-.14.187-.3.28-.467.07-.14.163-.3.234-.467h.911l.887-.047C140.055,655.839,141.876,657.147,145.076,657.965Z" transform="translate(194.099 -549.974)" fill="#0a142d"/>
          <path id="패스_9602" data-name="패스 9602" d="M310.468,917.563v61.352a26.891,26.891,0,0,1-26.857,26.858H266.889l-5.675-5.7-.07-.07-.07-.21a22.148,22.148,0,0,0-.747-2.849c-.047-.164-.117-.3-.163-.444a21.643,21.643,0,0,0-1.191-2.709,2.554,2.554,0,0,0-.187-.35,22.731,22.731,0,0,0-1.635-2.569c-.047-.07-.117-.14-.163-.21a23.519,23.519,0,0,0-2.125-2.452l-.14-.14a24.138,24.138,0,0,0-3.106-2.569,1.737,1.737,0,0,0-.28-.163,22.182,22.182,0,0,0-12.495-3.807H72.721a22.47,22.47,0,0,0-16.044,6.679.619.619,0,0,0-.117.14l-.117.117a23.334,23.334,0,0,0-1.985,2.335.49.49,0,0,0-.093.14,19.7,19.7,0,0,0-1.611,2.569l-.21.35a25.163,25.163,0,0,0-1.168,2.686c-.047.14-.093.28-.163.444a23.245,23.245,0,0,0-.747,2.779c-.023.093-.047.163-.07.233,0,.023-.023.047-.047.07l-5.7,5.7H27.927A26.891,26.891,0,0,1,1.07,978.915v-.958c1.028-14.2,1.448-14.643,14.667-15.764a1.144,1.144,0,0,0,1.074-1.168,1.17,1.17,0,0,0-1.074-1.168c-6.913-.561-10.323-.981-12.144-3.246-1.658-2.078-2.032-5.7-2.522-12.448V739.743l.817-9.785,9.459,7.03-7.03-9.458,16.044-2.382L4.316,724.072l7.03-9.459-9.459,7.03L1.07,711.578V700.741a26.891,26.891,0,0,1,26.857-26.858H47.965a1.162,1.162,0,0,0,1.168-1.121,24.177,24.177,0,0,1,23.962-23.214H86.944a1.111,1.111,0,0,0,.841-.35,1.123,1.123,0,0,0,.327-.864l-.023-.42c-.023-.233-.047-.49-.047-.747a17.029,17.029,0,0,1,17-16.979h16.932a1.156,1.156,0,0,0,1.168-1.168,1.171,1.171,0,0,0-1.168-1.168H105.043a19.415,19.415,0,0,0-16.535,9.3l-.49-.234a.964.964,0,0,0,.093-.514l-.023-.4c-.023-.257-.047-.49-.047-.747a17.014,17.014,0,0,1,17-16.979h30.524l15.391,19.2,6.259-7.777,6.236,7.777,15.414-19.2h27.652A16.984,16.984,0,0,1,223.5,635.256c0,.257-.023.49-.023.724l-.047.42a.964.964,0,0,0,.093.514l-.49.28a19.207,19.207,0,0,0-16.512-9.342h-14.9a1.171,1.171,0,0,0-1.168,1.168,1.156,1.156,0,0,0,1.168,1.168h14.9A17.024,17.024,0,0,1,223.5,647.166c0,.257-.023.49-.023.724l-.047.444a1.123,1.123,0,0,0,.327.864,1.111,1.111,0,0,0,.841.35h13.849a24.23,24.23,0,0,1,23.985,23.214,1.162,1.162,0,0,0,1.168,1.121h20.015a27.056,27.056,0,0,1,26.2,21.019c-1.051,7.31-3.41,7.777-14.013,8.665a1.152,1.152,0,0,0-.981.747.948.948,0,0,0-.093.444A1.149,1.149,0,0,0,295.8,705.9c13.219,1.1,13.639,1.541,14.667,15.717V901.775l-.3,3.783-9.459-7.03,7.03,9.459L291.2,909.716l16.535,1.728-7.03,9.458,9.459-7.03Z" transform="translate(20.533 -596.768)" fill="#cce4ed"/>
          <path id="패스_9603" data-name="패스 9603" d="M161.317,663.555c-.023.374-.047.7-.07,1.028a29.4,29.4,0,0,0-26.764-17.633H115.566a26.059,26.059,0,0,0-2.826-9.9l.654-.35a1.2,1.2,0,0,0,1.074.677h20.015A26.967,26.967,0,0,1,161.317,663.555Z" transform="translate(169.66 -572.169)" fill="#cce4ed"/>
          <rect id="사각형_349" data-name="사각형 349" width="5.714" height="5.714" transform="translate(276.866 409.823) rotate(-45)" fill="#cce4ed"/>
          <path id="패스_9604" data-name="패스 9604" d="M135.509,650.2a1.366,1.366,0,0,0,.093.444l-.654.35a26.573,26.573,0,0,0-23.424-14.433H98.913v-.047a19.128,19.128,0,0,0-2.8-9.972l.49-.28a1.524,1.524,0,0,0,.234.35,1.13,1.13,0,0,0,.841.374h13.849A24.23,24.23,0,0,1,135.509,650.2Z" transform="translate(147.452 -586.111)" fill="#cce4ed"/>
          <path id="패스_9605" data-name="패스 9605" d="M229.342,791.689l-5,5.021a.829.829,0,0,0-.257.374,1.168,1.168,0,0,0,0,.888.83.83,0,0,0,.257.374l4.017,4.04a20.6,20.6,0,0,1-4.648,7.216,20.233,20.233,0,0,1-14.386,5.979H43.208a20.309,20.309,0,0,1-19.034-13.218l4.017-4.017a1.17,1.17,0,0,0,0-1.635l-5.021-5.021c.093-.514.21-1,.35-1.518a11.9,11.9,0,0,1,.327-1.308c.187-.607.467-1.168.7-1.752.187-.4.327-.794.514-1.168a19.954,19.954,0,0,1,1.074-1.775c.21-.3.374-.631.584-.911a20.718,20.718,0,0,1,2.079-2.429l.023-.023a20.233,20.233,0,0,1,14.386-5.979H209.327a20.255,20.255,0,0,1,11.35,3.48.491.491,0,0,0,.14.093,21.306,21.306,0,0,1,2.9,2.429,18.888,18.888,0,0,1,2.1,2.429c.187.28.35.584.537.864.374.584.794,1.191,1.121,1.822.187.374.3.771.467,1.145a16.634,16.634,0,0,1,.724,1.775c.14.421.234.864.35,1.308C229.132,790.685,229.272,791.175,229.342,791.689Z" transform="translate(50.046 -387.706)" fill="#ffb4b4"/>
          <path id="패스_9606" data-name="패스 9606" d="M73.311,610.667l13.335,16.6L73.311,643.9l-4.741-5.932L77.141,627.3,68.57,616.6v-.023Z" transform="translate(110.674 -606.93)" fill="#cce4ed"/>
          <path id="패스_9607" data-name="패스 9607" d="M71.99,614l7.076,8.851-7.076,8.828-7.1-8.828Z" transform="translate(105.76 -602.483)" fill="#0a142d"/>
          <path id="패스_9608" data-name="패스 9608" d="M72.875,610.657l4.764,5.955-8.594,10.7,8.594,10.673-4.764,5.932L59.54,627.286Z" transform="translate(98.616 -606.943)" fill="#cce4ed"/>
          <path id="패스_9609" data-name="패스 9609" d="M60.588,626.257l.49.234a19.235,19.235,0,0,0-2.8,10.019v.047H45.665a26.51,26.51,0,0,0-23.4,14.433l-.654-.35a1.366,1.366,0,0,0,.093-.444,24.177,24.177,0,0,1,23.962-23.214H59.514a1.13,1.13,0,0,0,.841-.374A1.524,1.524,0,0,0,60.588,626.257Z" transform="translate(47.963 -586.111)" fill="#cce4ed"/>
          <path id="패스_9610" data-name="패스 9610" d="M28.871,786.858l-4.04,4.04-4.04-4.04,2.1-2.1,1.938-1.938Z" transform="translate(46.867 -377.035)" fill="#cce4ed"/>
          <path id="패스_9611" data-name="패스 9611" d="M49.04,636.7l.654.35a26.059,26.059,0,0,0-2.826,9.9H27.927A29.251,29.251,0,0,0,1.07,664.722v-.49a26.891,26.891,0,0,1,26.857-26.858H47.965A1.2,1.2,0,0,0,49.04,636.7Z" transform="translate(20.533 -572.169)" fill="#cce4ed"/>
          <path id="패스_9612" data-name="패스 9612" d="M10.718,768.893c.28.093.561.187.864.28a10.6,10.6,0,0,0-1.378.42.331.331,0,0,0-.14.047,10.434,10.434,0,0,0-1.028.444c-.07.023-.163.07-.234.093a7.766,7.766,0,0,0-.864.537.487.487,0,0,0-.14.094,6.078,6.078,0,0,0-.841.7c-.07.07-.117.14-.187.21-.163.21-.35.42-.49.63a3.043,3.043,0,0,0-.234.35c-.14.21-.257.42-.374.631l-.21.42c-.14.28-.257.584-.374.887a6.441,6.441,0,0,0-.187.63,8.488,8.488,0,0,0-.257.911l-.07.21c-1-4.3-2.873-6.166-7.006-7.217,4.134-1.051,6-2.919,7.006-7.217a.551.551,0,0,1,.047.187c.093.35.187.677.3,1a4.032,4.032,0,0,0,.163.49c.117.327.234.654.374.957a4.058,4.058,0,0,0,.234.444c.093.187.21.374.3.561.093.14.21.3.3.444.117.14.234.3.374.444a4.677,4.677,0,0,0,.327.374,9.393,9.393,0,0,0,.724.631,5.594,5.594,0,0,0,.49.3c.14.094.28.187.444.28.187.093.4.187.607.28a2.525,2.525,0,0,0,.444.187l.7.28C10.508,768.847,10.625,768.87,10.718,768.893Z" transform="translate(15.859 -404.893)" fill="#0a142d"/>
        </g>
      </g>
      <g id="그룹_628" data-name="그룹 628" transform="translate(126.911 1005.754)">
        <path id="패스_9613" data-name="패스 9613" d="M56.026,779.055a7.408,7.408,0,0,1,4.68,1.2,4.485,4.485,0,0,1,1.485,3.7v.507a4.673,4.673,0,0,1-.182,1.3,3.709,3.709,0,0,1-.575,1.163,3.822,3.822,0,0,1-1.023.939,5.079,5.079,0,0,1-1.527.631,5.357,5.357,0,0,1,3.125,1.373,4.3,4.3,0,0,1,1.107,3.195v.614a5.171,5.171,0,0,1-1.443,3.9q-1.443,1.4-4.722,1.4H51.317a1.852,1.852,0,0,1-1.289-.35,1.7,1.7,0,0,1-.364-1.25V780.65a1.693,1.693,0,0,1,.364-1.245,1.84,1.84,0,0,1,1.289-.35Zm-5.1,8.912h5.353a5.97,5.97,0,0,0,3.377-.855,3.051,3.051,0,0,0,1.275-2.732v-.423a3.563,3.563,0,0,0-1.079-2.758,5.444,5.444,0,0,0-3.713-.995H50.925Zm0,9.865h6.138q4.764,0,4.764-4.15v-.53a3.659,3.659,0,0,0-1.261-3,6.777,6.777,0,0,0-4.26-1.039H50.925Z" transform="translate(-49.664 -778.747)"/>
        <path id="패스_9614" data-name="패스 9614" d="M68.646,779.055a.405.405,0,0,1,.364.168.84.84,0,0,1,0,.839.4.4,0,0,1-.364.17H58.5v7.931h9.585a.381.381,0,0,1,.336.166.7.7,0,0,1,.112.392.745.745,0,0,1-.112.423.376.376,0,0,1-.336.166H58.5V797.8H68.842a.4.4,0,0,1,.364.166.756.756,0,0,1,.112.423.742.742,0,0,1-.112.42.406.406,0,0,1-.364.168H58.865a1.852,1.852,0,0,1-1.289-.35,1.7,1.7,0,0,1-.364-1.25V780.65a1.693,1.693,0,0,1,.364-1.245,1.84,1.84,0,0,1,1.289-.35Z" transform="translate(-39.584 -778.747)"/>
        <path id="패스_9615" data-name="패스 9615" d="M70.777,778.923a12.7,12.7,0,0,1,3.139.364,7.94,7.94,0,0,1,2.41,1.009.592.592,0,0,1,.2.841.527.527,0,0,1-.813.2,8.407,8.407,0,0,0-2.2-.9,10.669,10.669,0,0,0-2.7-.334,7.164,7.164,0,0,0-1.99.266,5.057,5.057,0,0,0-1.6.757,3.553,3.553,0,0,0-1.051,1.191,3.192,3.192,0,0,0-.378,1.541v.448a3.754,3.754,0,0,0,.252,1.429,2.685,2.685,0,0,0,.827,1.079,5.422,5.422,0,0,0,1.5.81,15.03,15.03,0,0,0,2.27.633,27.843,27.843,0,0,1,3.363.922,7.113,7.113,0,0,1,2.088,1.109,3.314,3.314,0,0,1,1.065,1.457,5.9,5.9,0,0,1,.294,1.976v.645a4.409,4.409,0,0,1-.476,2.03,4.674,4.674,0,0,1-1.359,1.614,6.973,6.973,0,0,1-2.116,1.065,9.029,9.029,0,0,1-2.746.392,11.431,11.431,0,0,1-3.517-.518,11.07,11.07,0,0,1-2.845-1.359.579.579,0,0,1-.2-.869.52.52,0,0,1,.813-.227,12.572,12.572,0,0,0,2.648,1.306,9.428,9.428,0,0,0,3.153.49,7.487,7.487,0,0,0,2.158-.294,5.364,5.364,0,0,0,1.7-.829,3.877,3.877,0,0,0,1.107-1.245,3.186,3.186,0,0,0,.392-1.555v-.532a4.548,4.548,0,0,0-.238-1.569,2.554,2.554,0,0,0-.883-1.137,6.266,6.266,0,0,0-1.808-.869q-1.163-.375-3.013-.8a17.262,17.262,0,0,1-2.494-.715,6.326,6.326,0,0,1-1.78-.995,3.826,3.826,0,0,1-1.079-1.4,4.7,4.7,0,0,1-.364-1.936V783.8a4.3,4.3,0,0,1,.476-2.032,4.565,4.565,0,0,1,1.317-1.544,6.271,6.271,0,0,1,1.99-.967A8.936,8.936,0,0,1,70.777,778.923Z" transform="translate(-30.42 -778.923)"/>
        <path id="패스_9616" data-name="패스 9616" d="M85.377,779.055a.405.405,0,0,1,.364.168.84.84,0,0,1,0,.839.4.4,0,0,1-.364.17h-6.39v18.328a.418.418,0,0,1-.2.392.971.971,0,0,1-.476.112.873.873,0,0,1-.423-.112.414.414,0,0,1-.2-.392V780.232H71.308a.406.406,0,0,1-.367-.17.856.856,0,0,1,0-.839.41.41,0,0,1,.367-.168Z" transform="translate(-21.396 -778.747)"/>
        <path id="패스_9617" data-name="패스 9617" d="M87.663,778.923a7.3,7.3,0,0,1,2.4.364,5.288,5.288,0,0,1,1.78,1.009,4.25,4.25,0,0,1,1.1,1.527,4.855,4.855,0,0,1,.381,1.948V784a6.407,6.407,0,0,1-.142,1.4,6.028,6.028,0,0,1-.434,1.278,8.034,8.034,0,0,1-.768,1.289A18.391,18.391,0,0,1,90.8,789.4l-7.508,8.576h10.4a.407.407,0,0,1,.364.166.774.774,0,0,1,.11.423.76.76,0,0,1-.11.42.408.408,0,0,1-.364.168H82.672a1.485,1.485,0,0,1-.838-.168.592.592,0,0,1-.227-.5.95.95,0,0,1,.114-.42,4.065,4.065,0,0,1,.561-.729l7.483-8.52c.448-.523.822-.992,1.121-1.4a7.855,7.855,0,0,0,.715-1.163,4.327,4.327,0,0,0,.364-1.079,6.4,6.4,0,0,0,.1-1.121v-.168a3.563,3.563,0,0,0-1.107-2.777,4.644,4.644,0,0,0-3.235-1.007,5.015,5.015,0,0,0-2.859.771,6.8,6.8,0,0,0-1.992,2.144.544.544,0,0,1-.362.266.611.611,0,0,1-.448-.1.549.549,0,0,1-.224-.815,7.9,7.9,0,0,1,2.284-2.45A5.989,5.989,0,0,1,87.663,778.923Z" transform="translate(-7.006 -778.923)"/>
      </g>
    </g>
  </g>
</svg>
