<svg xmlns="http://www.w3.org/2000/svg" width="470.572" height="560.21" viewBox="0 0 470.572 560.21">
  <g id="그룹_644" data-name="그룹 644" transform="translate(-300 -1347)">
    <g id="그룹_631" data-name="그룹 631" transform="translate(311.388 1347)">
      <g id="그룹_630" data-name="그룹 630">
        <path id="패스_9618" data-name="패스 9618" d="M308.733,648.487a16.2,16.2,0,0,0-3.437-1.217c.426-.122.821-.243,1.217-.4.091-.031.182-.031.274-.061.335-.122.639-.243.973-.4a3.712,3.712,0,0,0,.517-.213c.274-.122.547-.274.821-.4.182-.122.335-.213.517-.335a8.187,8.187,0,0,0,1.034-.76c.182-.152.4-.3.578-.487a4.17,4.17,0,0,0,.487-.547c.152-.152.274-.334.426-.517a5.846,5.846,0,0,0,.426-.639c.122-.183.243-.4.365-.608.091-.182.213-.4.3-.608h1.186l1.156-.061c1.46,3.284,3.832,4.987,8,6.052-5.383,1.338-7.785,3.8-9.123,9.367,0-.061-.03-.091-.03-.152a19.335,19.335,0,0,0-1.156-3.406.906.906,0,0,1-.122-.243,10.04,10.04,0,0,0-.669-1.125,2.746,2.746,0,0,1-.152-.243,10.7,10.7,0,0,0-.882-1.095c-.03,0-.03-.03-.061-.03a9.105,9.105,0,0,0-2.524-1.825C308.824,648.517,308.763,648.517,308.733,648.487Z" transform="translate(118.093 -506.678)" fill="#fff"/>
        <rect id="사각형_350" data-name="사각형 350" width="7.44" height="7.44" transform="translate(360.528 533.66) rotate(-45)" fill="#fff"/>
        <path id="패스_9619" data-name="패스 9619" d="M290.676,637.98A33.78,33.78,0,0,0,287,625.085l.852-.456a1.561,1.561,0,0,0,1.4.882h26.063A35.116,35.116,0,0,1,350.252,659.6c-.03.486-.061.912-.091,1.338a38.288,38.288,0,0,0-34.851-22.961Z" transform="translate(80.74 -540.602)" fill="#fff"/>
        <path id="패스_9620" data-name="패스 9620" d="M465.473,782.74c.152.669.335,1.308.426,1.977l-6.508,6.539a1.08,1.08,0,0,0-.335.486,1.521,1.521,0,0,0,0,1.156,1.08,1.08,0,0,0,.335.487l5.231,5.261a26.827,26.827,0,0,1-6.052,9.4,26.346,26.346,0,0,1-18.733,7.785H223.519a26.446,26.446,0,0,1-24.785-17.213l5.231-5.231a1.524,1.524,0,0,0,0-2.129l-6.539-6.539c.122-.669.274-1.308.456-1.977a15.475,15.475,0,0,1,.426-1.7c.243-.791.608-1.521.912-2.281.243-.517.426-1.034.669-1.521a25.962,25.962,0,0,1,1.4-2.311c.274-.4.487-.821.76-1.186a27.006,27.006,0,0,1,2.707-3.163l.03-.03a26.347,26.347,0,0,1,18.733-7.785H439.836a26.377,26.377,0,0,1,14.78,4.531.635.635,0,0,0,.182.122,27.738,27.738,0,0,1,3.771,3.163,24.611,24.611,0,0,1,2.737,3.163c.243.365.456.76.7,1.125.487.76,1.034,1.551,1.46,2.372.243.487.4,1,.608,1.49a21.626,21.626,0,0,1,.943,2.311C465.2,781.584,465.321,782.162,465.473,782.74Z" transform="translate(-102.086 -258.658)" fill="#fff"/>
        <path id="패스_9621" data-name="패스 9621" d="M274.015,627.539a24.908,24.908,0,0,0-3.649-12.985l.639-.365a1.988,1.988,0,0,0,.3.456,1.472,1.472,0,0,0,1.095.487h18.034a31.551,31.551,0,0,1,31.233,30.229,1.782,1.782,0,0,0,.122.578l-.852.456a34.6,34.6,0,0,0-30.5-18.794H274.015Z" transform="translate(46.795 -561.912)" fill="#fff"/>
        <path id="패스_9622" data-name="패스 9622" d="M249,598.6l17.365,21.623L249,641.874l-6.174-7.724,11.161-13.9-11.161-13.928v-.03Z" transform="translate(-9.418 -593.734)" fill="#fff"/>
        <path id="패스_9623" data-name="패스 9623" d="M248.391,601.929l9.215,11.526-9.215,11.5-9.245-11.5Z" transform="translate(-16.929 -586.937)" fill="#fff"/>
        <path id="패스_9624" data-name="패스 9624" d="M251.161,598.589l6.2,7.755-11.191,13.929,11.191,13.9-6.2,7.724L233.8,620.242Z" transform="translate(-27.849 -593.754)" fill="#fff"/>
        <path id="패스_9625" data-name="패스 9625" d="M288.578,628.318a22.155,22.155,0,0,1,22.14-22.109h39.748l20.041,25,8.15-10.127,8.12,10.127,20.072-25h36.007a22.116,22.116,0,0,1,22.109,22.109c0,.334-.03.639-.03.943l-.061.547a1.256,1.256,0,0,0,.122.669l-.639.365a26.487,26.487,0,0,0-3.71-4.775,25.138,25.138,0,0,0-17.791-7.39h-19.4a1.525,1.525,0,0,0-1.521,1.521,1.506,1.506,0,0,0,1.521,1.521h19.4a22.168,22.168,0,0,1,22.109,22.109c0,.335-.03.639-.03.943l-.061.578a1.462,1.462,0,0,0,.426,1.125,1.445,1.445,0,0,0,1.095.456h18.034a31.551,31.551,0,0,1,31.233,30.229,1.513,1.513,0,0,0,1.521,1.46h26.063a35.231,35.231,0,0,1,34.122,27.37c-1.369,9.519-4.44,10.127-18.247,11.283a1.5,1.5,0,0,0-1.277.973,1.234,1.234,0,0,0-.122.578,1.5,1.5,0,0,0,1.4,1.49c17.213,1.429,17.76,2.007,19.1,20.467V975.374l-.4,4.927-12.317-9.154,9.154,12.317-21.531,2.251,21.531,2.25-9.154,12.317,12.317-9.154.4,4.805v79.891a35.017,35.017,0,0,1-34.973,34.973H521.47l-7.39-7.42-.091-.091-.091-.274a28.837,28.837,0,0,0-.973-3.71c-.061-.213-.152-.4-.213-.578a28.168,28.168,0,0,0-1.551-3.528,3.32,3.32,0,0,0-.243-.456,29.612,29.612,0,0,0-2.129-3.345c-.061-.091-.152-.182-.213-.274a30.6,30.6,0,0,0-2.767-3.193l-.182-.182a31.447,31.447,0,0,0-4.045-3.345,2.257,2.257,0,0,0-.365-.213,28.884,28.884,0,0,0-16.27-4.957H268.629a29.259,29.259,0,0,0-20.893,8.7.8.8,0,0,0-.152.182l-.152.152a30.383,30.383,0,0,0-2.585,3.041.637.637,0,0,0-.122.182,25.659,25.659,0,0,0-2.1,3.345l-.274.456a32.821,32.821,0,0,0-1.521,3.5c-.061.182-.122.365-.213.578a30.278,30.278,0,0,0-.973,3.619c-.03.122-.061.213-.091.3,0,.031-.03.061-.061.091l-7.42,7.42H210.3a35.017,35.017,0,0,1-34.973-34.973v-1.247c1.338-18.49,1.885-19.068,19.1-20.528a1.49,1.49,0,0,0,1.4-1.521,1.524,1.524,0,0,0-1.4-1.521c-9-.73-13.442-1.277-15.814-4.227-2.159-2.706-2.646-7.421-3.284-16.209V764.379l1.064-12.742,12.317,9.154-9.154-12.317,20.893-3.1-20.893-1.4,9.154-12.317L176.39,740.81,175.326,727.7V713.592A35.017,35.017,0,0,1,210.3,678.619h26.093a1.513,1.513,0,0,0,1.521-1.46,31.482,31.482,0,0,1,31.2-30.229h18.034a1.445,1.445,0,0,0,1.095-.456,1.462,1.462,0,0,0,.426-1.125l-.03-.547c-.03-.3-.061-.639-.061-.973a22.174,22.174,0,0,1,22.14-22.109h22.048a1.506,1.506,0,0,0,1.521-1.521,1.525,1.525,0,0,0-1.521-1.521H310.718a25.282,25.282,0,0,0-21.531,12.1l-.639-.3a1.256,1.256,0,0,0,.122-.669l-.03-.517C288.609,628.957,288.578,628.653,288.578,628.318Z" transform="translate(-147.195 -578.2)" fill="#fff"/>
        <path id="패스_9626" data-name="패스 9626" d="M205.568,776.01l-5.261,5.261-5.261-5.261,2.737-2.737,2.524-2.524Z" transform="translate(-106.944 -242.35)" fill="#fff"/>
        <path id="패스_9627" data-name="패스 9627" d="M195.988,645.361a31.482,31.482,0,0,1,31.2-30.229h18.034a1.472,1.472,0,0,0,1.095-.487,1.985,1.985,0,0,0,.3-.456l.639.3a25.129,25.129,0,0,0-3.649,13.046v.061H227.19a34.52,34.52,0,0,0-30.472,18.794l-.852-.456A1.78,1.78,0,0,0,195.988,645.361Z" transform="translate(-105.27 -561.912)" fill="#fff"/>
        <path id="패스_9628" data-name="패스 9628" d="M175.326,660.484A35.017,35.017,0,0,1,210.3,625.511h26.093a1.561,1.561,0,0,0,1.4-.882l.852.456a33.778,33.778,0,0,0-3.68,12.894H210.3a38.089,38.089,0,0,0-34.973,23.143Z" transform="translate(-147.195 -540.602)" fill="#fff"/>
        <path id="패스_9629" data-name="패스 9629" d="M181.619,766.4a8.4,8.4,0,0,0-.243.821,11.036,11.036,0,0,0-.335,1.186l-.091.274c-1.308-5.6-3.741-8.028-9.123-9.4,5.383-1.368,7.816-3.8,9.123-9.4a.717.717,0,0,1,.061.243c.122.456.243.882.4,1.308a5.253,5.253,0,0,0,.213.639c.152.426.3.851.487,1.247a5.277,5.277,0,0,0,.3.578c.122.243.274.487.4.73.122.182.274.4.4.578.152.182.3.4.487.578a6.083,6.083,0,0,0,.426.487,12.188,12.188,0,0,0,.943.821,7.243,7.243,0,0,0,.639.4c.182.122.365.243.578.365.243.122.517.243.791.365a3.29,3.29,0,0,0,.578.243l.912.365c.122.03.274.061.4.091.365.122.73.243,1.125.365a13.845,13.845,0,0,0-1.794.547.43.43,0,0,0-.182.061,13.568,13.568,0,0,0-1.338.578c-.091.03-.213.091-.3.121a10.109,10.109,0,0,0-1.125.7.635.635,0,0,0-.183.122,7.932,7.932,0,0,0-1.095.912c-.091.091-.152.182-.243.274-.213.274-.456.548-.639.821a3.952,3.952,0,0,0-.3.456c-.182.274-.335.547-.487.821l-.274.548C181.923,765.612,181.771,766.007,181.619,766.4Z" transform="translate(-154.339 -284.928)" fill="#fff"/>
        <path id="패스_9630" data-name="패스 9630" d="M592.9,738.808c.03.03.091.03.122.061a9.106,9.106,0,0,1,2.524,1.825c.03,0,.03.03.061.03a10.689,10.689,0,0,1,.882,1.095,2.764,2.764,0,0,0,.152.243,10.046,10.046,0,0,1,.669,1.125.907.907,0,0,0,.122.243,19.339,19.339,0,0,1,1.156,3.406c0,.061.03.091.03.152,1.338-5.565,3.741-8.028,9.123-9.367-4.166-1.064-6.538-2.767-8-6.052l-1.156.061H597.4c-.091.213-.213.426-.3.608-.122.213-.243.426-.365.608a5.85,5.85,0,0,1-.426.639c-.152.183-.274.365-.426.517a4.172,4.172,0,0,1-.487.547c-.182.183-.4.334-.578.487a8.189,8.189,0,0,1-1.034.76c-.182.122-.335.213-.517.335-.274.122-.547.274-.821.4a3.7,3.7,0,0,1-.517.213c-.335.152-.639.274-.973.4-.091.03-.182.03-.274.061-.4.152-.791.274-1.217.4A16.2,16.2,0,0,1,592.9,738.808ZM537.127,1130.66l-5.261-5.261-5.261,5.261,5.261,5.261ZM399.484,609.589l11.161,13.928-11.161,13.9,6.174,7.724,17.365-21.653-17.365-21.623-6.174,7.694ZM384.4,623.518l11.191-13.928-6.2-7.755-17.365,21.653,17.365,21.653,6.2-7.724Zm22.352,0-9.215-11.526-9.245,11.526,9.245,11.5ZM287.509,1101.1a26.347,26.347,0,0,0-18.734,7.785l-.03.03a27.006,27.006,0,0,0-2.707,3.163c-.274.365-.487.791-.76,1.186a25.969,25.969,0,0,0-1.4,2.311c-.243.487-.426,1-.669,1.521-.3.76-.669,1.49-.912,2.281a15.473,15.473,0,0,0-.426,1.7c-.182.669-.335,1.307-.456,1.977l6.538,6.539a1.524,1.524,0,0,1,0,2.129l-5.231,5.231a26.446,26.446,0,0,0,24.785,17.213H503.826a26.347,26.347,0,0,0,18.733-7.785,26.831,26.831,0,0,0,6.052-9.4l-5.231-5.261a1.081,1.081,0,0,1-.335-.487,1.521,1.521,0,0,1,0-1.156,1.08,1.08,0,0,1,.335-.486l6.508-6.539c-.091-.669-.274-1.308-.426-1.977-.152-.578-.274-1.156-.456-1.7a21.636,21.636,0,0,0-.943-2.311c-.213-.487-.365-1-.608-1.49-.426-.821-.973-1.612-1.46-2.372-.243-.365-.456-.76-.7-1.125a24.609,24.609,0,0,0-2.737-3.163,27.738,27.738,0,0,0-3.771-3.163.638.638,0,0,1-.182-.122,26.377,26.377,0,0,0-14.78-4.531Zm-28.07,24.3-2.524,2.524-2.737,2.737,5.261,5.261,5.261-5.261ZM229.18,681.908a35.017,35.017,0,0,0-34.973,34.973v.639a38.089,38.089,0,0,1,34.973-23.143h24.664a33.778,33.778,0,0,1,3.68-12.894A34.52,34.52,0,0,1,288,662.688h16.422v-.061a25.152,25.152,0,0,1,25.181-25.15h22.048A1.525,1.525,0,0,1,353.168,639a1.506,1.506,0,0,1-1.521,1.521H329.6a22.174,22.174,0,0,0-22.14,22.109c0,.335.03.669.061.973l.03.547a1.461,1.461,0,0,1-.426,1.125,1.445,1.445,0,0,1-1.095.456H288a31.482,31.482,0,0,0-31.2,30.229,1.513,1.513,0,0,1-1.521,1.46H229.18a35.017,35.017,0,0,0-34.973,34.973V746.5l1.064,13.107,12.317-9.154-9.154,12.317,20.893,1.4-20.893,3.1,9.154,12.317-12.317-9.154-1.064,12.742V1049.37c.639,8.789,1.125,13.5,3.284,16.209,2.372,2.95,6.812,3.5,15.814,4.227a1.524,1.524,0,0,1,1.4,1.521,1.49,1.49,0,0,1-1.4,1.521c-17.213,1.46-17.76,2.037-19.1,20.528v1.247A35.017,35.017,0,0,0,229.18,1129.6h21.775l7.42-7.42c.03-.031.061-.061.061-.091.03-.091.061-.182.091-.3a30.279,30.279,0,0,1,.973-3.619c.091-.213.152-.4.213-.578a32.809,32.809,0,0,1,1.521-3.5l.274-.456a25.644,25.644,0,0,1,2.1-3.345.637.637,0,0,1,.122-.183,30.4,30.4,0,0,1,2.585-3.041l.152-.152a.806.806,0,0,1,.152-.182,29.259,29.259,0,0,1,20.893-8.7H503.826a28.883,28.883,0,0,1,16.27,4.957,2.255,2.255,0,0,1,.365.213,31.452,31.452,0,0,1,4.045,3.345l.182.183a30.62,30.62,0,0,1,2.767,3.193c.061.091.152.182.213.274a29.582,29.582,0,0,1,2.129,3.345,3.3,3.3,0,0,1,.243.456,28.16,28.16,0,0,1,1.551,3.528c.061.182.152.365.213.578a28.852,28.852,0,0,1,.973,3.71l.091.274.091.091,7.39,7.42h21.775a35.017,35.017,0,0,0,34.973-34.973v-79.891l-.4-4.805-12.317,9.154,9.154-12.317-21.531-2.25,21.531-2.25-9.154-12.317L596.7,999.1l.4-4.927V759.579c-1.338-18.46-1.885-19.038-19.1-20.467a1.5,1.5,0,0,1-1.4-1.49,1.235,1.235,0,0,1,.122-.578,1.5,1.5,0,0,1,1.277-.973c13.807-1.156,16.878-1.764,18.247-11.283a35.231,35.231,0,0,0-34.122-27.37H536.062a1.513,1.513,0,0,1-1.521-1.46,31.551,31.551,0,0,0-31.233-30.229H485.275a1.445,1.445,0,0,1-1.095-.456,1.462,1.462,0,0,1-.426-1.125l.061-.578c0-.3.03-.608.03-.943a22.168,22.168,0,0,0-22.109-22.109h-19.4A1.506,1.506,0,0,1,440.813,639a1.525,1.525,0,0,1,1.521-1.521h19.4a25.139,25.139,0,0,1,17.791,7.39,26.489,26.489,0,0,1,3.71,4.775,24.908,24.908,0,0,1,3.649,12.985v.061h16.422a34.6,34.6,0,0,1,30.5,18.794,33.778,33.778,0,0,1,3.68,12.894h24.633a38.288,38.288,0,0,1,34.852,22.961c.03-.426.061-.851.091-1.338a35.116,35.116,0,0,0-34.943-34.091H536.062a1.561,1.561,0,0,1-1.4-.882,1.782,1.782,0,0,1-.122-.578,31.551,31.551,0,0,0-31.233-30.229H485.275a1.472,1.472,0,0,1-1.095-.487,1.989,1.989,0,0,1-.3-.456,1.256,1.256,0,0,1-.122-.669l.061-.547c0-.3.03-.608.03-.943a22.116,22.116,0,0,0-22.109-22.109H425.729l-20.072,25-8.12-10.127-8.15,10.127-20.041-25H329.6a22.155,22.155,0,0,0-22.14,22.109c0,.335.03.639.061.973l.03.517a1.256,1.256,0,0,1-.122.669,1.987,1.987,0,0,1-.3.456,1.472,1.472,0,0,1-1.095.487H288a31.482,31.482,0,0,0-31.2,30.229,1.78,1.78,0,0,1-.122.578,1.561,1.561,0,0,1-1.4.882Zm-38.014,411.437c-1.338-18.46-1.886-19.038-19.1-20.5a1.524,1.524,0,0,1-1.4-1.521,1.5,1.5,0,0,1,1.4-1.49c17.213-1.429,17.76-2.007,19.1-20.5V775.271l-.4-4.836-12.317,9.154,9.154-12.317-21.531-2.25,21.531-2.251-9.154-12.317,12.317,9.154.4-4.957V716.881a38.067,38.067,0,0,1,38.014-38.014h24.664A34.542,34.542,0,0,1,288,647.178h16.422v-.061a25.205,25.205,0,0,1,25.181-25.15h39.778L389.388,597l8.15,10.127L405.658,597,425.7,621.967h36.038a25.179,25.179,0,0,1,25.15,25.15v.061h16.422a34.592,34.592,0,0,1,34.182,31.689h24.633A38.191,38.191,0,0,1,600.048,715.3c.03.122.091.182.091.3,1.338,18.49,1.886,19.068,19.1,20.5a1.509,1.509,0,0,1,0,3.011c-17.213,1.429-17.76,2.007-19.1,20.467V985.962L601.2,999.1l12.317-9.154-9.154,12.317,20.893,1.429-20.893,3.071,9.154,12.317-12.317-9.154-1.065,12.773v71.923a38.067,38.067,0,0,1-38.014,38.014H539.468l-6.508,6.508a1.544,1.544,0,0,1-1.095.456,1.466,1.466,0,0,1-.912-.335,30.223,30.223,0,0,1-6.234,9.245,29.312,29.312,0,0,1-20.893,8.7H287.509a29.5,29.5,0,0,1-27.157-17.943,1.4,1.4,0,0,1-.912.335,1.427,1.427,0,0,1-1.064-.456l-6.538-6.508H229.18a38.067,38.067,0,0,1-38.014-38.014Zm1.946-14.05a8.386,8.386,0,0,1,.243-.821c.152-.4.3-.791.487-1.156l.274-.547c.152-.274.3-.547.487-.821a3.954,3.954,0,0,1,.3-.456c.182-.274.426-.547.639-.821.091-.091.152-.182.243-.274a7.921,7.921,0,0,1,1.095-.912.641.641,0,0,1,.183-.122,10.165,10.165,0,0,1,1.125-.7c.091-.03.213-.091.3-.121a13.6,13.6,0,0,1,1.338-.578.433.433,0,0,1,.182-.061,13.844,13.844,0,0,1,1.794-.547c-.4-.122-.76-.243-1.125-.365-.122-.03-.274-.061-.4-.091l-.912-.365a3.276,3.276,0,0,1-.578-.243c-.274-.122-.547-.243-.791-.365-.213-.122-.4-.243-.578-.365a7.254,7.254,0,0,1-.639-.4,12.161,12.161,0,0,1-.943-.821,6.082,6.082,0,0,1-.426-.487c-.182-.182-.334-.4-.487-.578-.122-.182-.274-.4-.4-.578-.122-.243-.274-.487-.4-.73a5.275,5.275,0,0,1-.3-.578c-.182-.4-.335-.821-.487-1.247a5.261,5.261,0,0,1-.213-.639c-.152-.426-.274-.851-.4-1.308a.717.717,0,0,0-.061-.243c-1.308,5.6-3.741,8.029-9.123,9.4,5.383,1.369,7.816,3.8,9.123,9.4l.091-.274A11.055,11.055,0,0,1,193.112,1079.295Z" transform="translate(-166.076 -596.999)" fill="#fff"/>
      </g>
    </g>
    <g id="그룹_643" data-name="그룹 643" transform="translate(300 1353.32)">
      <g id="그룹_641" data-name="그룹 641" transform="translate(0)">
        <g id="그룹_640" data-name="그룹 640">
          <path id="패스_9649" data-name="패스 9649" d="M435.717,1002.222l-20.2,2.969,8.849,11.907-11.907-8.849-1.029,12.348v69.529a36.8,36.8,0,0,1-36.749,36.749h-21.9l-6.291,6.291a1.492,1.492,0,0,1-1.058.441,1.418,1.418,0,0,1-.882-.323,29.216,29.216,0,0,1-6.027,8.937,28.335,28.335,0,0,1-20.2,8.408H109.211a28.515,28.515,0,0,1-26.253-17.345,1.358,1.358,0,0,1-.882.323,1.379,1.379,0,0,1-1.029-.441l-6.321-6.291h-21.9a36.8,36.8,0,0,1-36.749-36.749v-1.235c-1.294-17.845-1.823-18.4-18.463-19.815a1.473,1.473,0,0,1-1.352-1.47,1.446,1.446,0,0,1,1.352-1.441c16.64-1.382,17.169-1.94,18.463-19.815V781.4l-.382-4.675L3.785,785.579l8.849-11.907L-8.18,771.5l20.815-2.176L3.785,757.415l11.907,8.849.382-4.792V724.959A36.8,36.8,0,0,1,52.823,688.21H76.666a33.392,33.392,0,0,1,33.015-30.634h15.876v-.059A24.366,24.366,0,0,1,149.9,633.2h38.454L207.7,609.067l7.879,9.79,7.85-9.79L242.8,633.2h34.838a24.341,24.341,0,0,1,24.313,24.313v.059h15.876a33.441,33.441,0,0,1,33.045,30.634h23.813a36.92,36.92,0,0,1,36.661,35.22c.029.118.088.176.088.294,1.294,17.875,1.823,18.433,18.463,19.815a1.459,1.459,0,0,1,0,2.911c-16.64,1.382-17.169,1.94-18.463,19.785V985.082l1.029,12.7,11.907-8.849-8.849,11.907ZM409.964,754.064c1.294-5.38,3.616-7.761,8.82-9.055-4.028-1.029-6.321-2.675-7.732-5.85l-1.117.059h-1.147c-.088.206-.206.412-.294.588-.118.206-.235.412-.353.588a5.625,5.625,0,0,1-.412.618c-.147.176-.265.353-.412.5a4.025,4.025,0,0,1-.47.529c-.176.176-.382.323-.559.47a7.9,7.9,0,0,1-1,.735c-.176.118-.323.206-.5.324-.265.117-.529.264-.794.382a3.6,3.6,0,0,1-.5.206c-.323.147-.617.264-.941.382-.088.029-.176.029-.265.059-.382.147-.764.265-1.176.382a15.667,15.667,0,0,1,3.322,1.176c.029.029.088.029.118.059a8.8,8.8,0,0,1,2.44,1.764c.029,0,.029.029.059.029a10.3,10.3,0,0,1,.853,1.058c.029.059.088.147.147.235a9.64,9.64,0,0,1,.647,1.088.88.88,0,0,0,.118.235,18.687,18.687,0,0,1,1.117,3.293C409.934,753.975,409.964,754,409.964,754.064Zm-1.47,336.062v-77.231l-.382-4.645-11.907,8.849,8.849-11.907-20.815-2.175,20.815-2.175-8.849-11.907,11.907,8.849.382-4.763V766.235c-1.294-17.845-1.823-18.4-18.463-19.785a1.446,1.446,0,0,1-1.352-1.441,1.193,1.193,0,0,1,.118-.559,1.45,1.45,0,0,1,1.235-.941c13.347-1.117,16.317-1.705,17.639-10.907a34.058,34.058,0,0,0-32.986-26.459h-25.2a1.462,1.462,0,0,1-1.47-1.411,30.5,30.5,0,0,0-30.193-29.223H300.393a1.4,1.4,0,0,1-1.058-.441,1.413,1.413,0,0,1-.412-1.088l.059-.558c0-.294.029-.588.029-.911a21.43,21.43,0,0,0-21.373-21.373H258.882a1.456,1.456,0,0,1-1.47-1.47,1.474,1.474,0,0,1,1.47-1.47h18.757a24.4,24.4,0,0,1,24.313,24.313v.059h15.876a33.451,33.451,0,0,1,29.487,18.169,32.806,32.806,0,0,1,3.557,12.465h23.813a37.014,37.014,0,0,1,33.691,22.2c.029-.412.059-.823.088-1.294a33.947,33.947,0,0,0-33.78-32.956h-25.2a1.509,1.509,0,0,1-1.352-.852,1.719,1.719,0,0,1-.118-.559,30.5,30.5,0,0,0-30.193-29.223H300.393a1.423,1.423,0,0,1-1.058-.47,1.92,1.92,0,0,1-.294-.441,1.214,1.214,0,0,1-.118-.647l.059-.529c0-.294.029-.588.029-.911a21.38,21.38,0,0,0-21.373-21.373H242.83l-19.4,24.166-7.85-9.79-7.879,9.79-19.374-24.166H149.9a21.417,21.417,0,0,0-21.4,21.373c0,.324.029.618.059.941l.029.5a1.214,1.214,0,0,1-.118.647,1.919,1.919,0,0,1-.294.441,1.422,1.422,0,0,1-1.058.47H109.681a30.434,30.434,0,0,0-30.164,29.223,1.721,1.721,0,0,1-.118.559,1.509,1.509,0,0,1-1.352.852H52.823a33.852,33.852,0,0,0-33.809,33.809v.617A36.822,36.822,0,0,1,52.823,703.2H76.666a32.806,32.806,0,0,1,3.557-12.465,33.372,33.372,0,0,1,29.458-18.169h15.876v-.059A24.315,24.315,0,0,1,149.9,648.2h21.314a1.474,1.474,0,0,1,1.47,1.47,1.456,1.456,0,0,1-1.47,1.47H149.9a21.436,21.436,0,0,0-21.4,21.373c0,.323.029.647.059.941l.029.529a1.413,1.413,0,0,1-.412,1.088,1.4,1.4,0,0,1-1.058.441H109.681a30.434,30.434,0,0,0-30.164,29.223,1.463,1.463,0,0,1-1.47,1.411H52.823a33.851,33.851,0,0,0-33.809,33.809v13.641l1.029,12.671,11.907-8.849L23.1,769.322l20.2,1.352-20.2,3,8.849,11.907L20.043,776.73l-1.029,12.318v257.331c.617,8.5,1.088,13.053,3.175,15.67,2.293,2.852,6.585,3.381,15.288,4.087a1.473,1.473,0,0,1,1.352,1.47,1.441,1.441,0,0,1-1.352,1.47c-16.64,1.411-17.169,1.97-18.463,19.844v1.205a33.852,33.852,0,0,0,33.809,33.809h21.05l7.173-7.173c.029-.029.059-.059.059-.088.029-.088.059-.176.088-.294a29.274,29.274,0,0,1,.941-3.5c.088-.206.147-.382.206-.558a31.675,31.675,0,0,1,1.47-3.381l.265-.441a24.785,24.785,0,0,1,2.029-3.234.617.617,0,0,1,.118-.177,29.379,29.379,0,0,1,2.5-2.94l.147-.147a.779.779,0,0,1,.147-.176,28.286,28.286,0,0,1,20.2-8.408H318.327a27.924,27.924,0,0,1,15.729,4.792,2.183,2.183,0,0,1,.353.206,30.4,30.4,0,0,1,3.91,3.234l.176.177a29.587,29.587,0,0,1,2.675,3.087c.059.088.147.176.206.265a28.608,28.608,0,0,1,2.058,3.234,3.228,3.228,0,0,1,.235.441,27.246,27.246,0,0,1,1.5,3.41c.059.176.147.353.206.558a27.881,27.881,0,0,1,.941,3.587l.088.265.088.088,7.144,7.173h21.05A33.852,33.852,0,0,0,408.494,1090.125Zm-63.061,39.924,5.086-5.086-5.086-5.086-5.086,5.086Zm-8.2-6.115,6.291-6.321c-.088-.646-.265-1.264-.412-1.911-.147-.559-.265-1.117-.441-1.646a20.927,20.927,0,0,0-.911-2.234c-.206-.471-.353-.97-.588-1.441-.412-.794-.941-1.558-1.411-2.293-.235-.353-.441-.735-.676-1.088a23.779,23.779,0,0,0-2.646-3.058,26.8,26.8,0,0,0-3.645-3.057.618.618,0,0,1-.176-.118,25.5,25.5,0,0,0-14.288-4.38H109.211a25.47,25.47,0,0,0-18.11,7.526l-.029.029A26.076,26.076,0,0,0,88.455,1107c-.265.353-.47.764-.735,1.147a25.086,25.086,0,0,0-1.352,2.234c-.235.471-.412.97-.647,1.47-.294.735-.647,1.441-.882,2.2a14.969,14.969,0,0,0-.412,1.646c-.176.647-.323,1.265-.441,1.911l6.321,6.321a1.473,1.473,0,0,1,0,2.058l-5.057,5.057a25.565,25.565,0,0,0,23.96,16.64H318.327a25.469,25.469,0,0,0,18.11-7.526,25.934,25.934,0,0,0,5.85-9.084l-5.057-5.086a1.042,1.042,0,0,1-.323-.47,1.47,1.47,0,0,1,0-1.117A1.043,1.043,0,0,1,337.23,1123.934ZM240.213,634.674l-16.787-20.9-5.968,7.438v.029L228.248,634.7l-10.789,13.435,5.968,7.467Zm-15.729.029-8.908-11.142L206.639,634.7l8.937,11.113ZM213.7,621.238l-6-7.5-16.787,20.932L207.7,655.606l6-7.467L202.876,634.7ZM82.075,1130.049l5.086-5.086-5.086-5.086-2.44,2.44-2.646,2.646Zm-55.711-62.414c-.382-.117-.735-.235-1.088-.353-.118-.029-.265-.059-.382-.089l-.882-.353a3.166,3.166,0,0,1-.559-.235c-.265-.118-.529-.235-.764-.353-.206-.118-.382-.235-.559-.353a7,7,0,0,1-.617-.382,11.82,11.82,0,0,1-.911-.794,5.826,5.826,0,0,1-.412-.471c-.176-.176-.323-.382-.47-.558-.118-.176-.265-.382-.382-.558-.118-.235-.265-.47-.382-.706a5.122,5.122,0,0,1-.294-.559c-.176-.382-.323-.794-.47-1.205a5.073,5.073,0,0,1-.206-.617c-.147-.412-.265-.823-.382-1.264a.692.692,0,0,0-.059-.235c-1.264,5.409-3.616,7.761-8.82,9.084,5.2,1.323,7.556,3.675,8.82,9.084l.088-.265a10.676,10.676,0,0,1,.323-1.146,8.112,8.112,0,0,1,.235-.794c.147-.382.294-.764.47-1.117l.265-.529c.147-.265.294-.529.47-.794a3.81,3.81,0,0,1,.294-.441c.176-.265.412-.529.617-.794.088-.088.147-.176.235-.265a7.661,7.661,0,0,1,1.058-.882.612.612,0,0,1,.176-.118,9.84,9.84,0,0,1,1.088-.676c.088-.029.206-.088.294-.118a13.184,13.184,0,0,1,1.294-.558.419.419,0,0,1,.176-.059A13.372,13.372,0,0,1,26.364,1067.635Z" transform="translate(8.18 -609.067)" fill="#0a142d"/>
          <path id="패스_9650" data-name="패스 9650" d="M148.709,659.168c-5.2,1.294-7.526,3.675-8.82,9.055,0-.059-.029-.088-.029-.147a18.709,18.709,0,0,0-1.117-3.293.88.88,0,0,1-.118-.235,9.651,9.651,0,0,0-.647-1.088,2.737,2.737,0,0,1-.147-.235,10.287,10.287,0,0,0-.853-1.058c-.029,0-.029-.029-.059-.029a8.812,8.812,0,0,0-2.44-1.764c-.029-.029-.088-.029-.118-.059a15.661,15.661,0,0,0-3.322-1.176c.412-.117.794-.235,1.176-.382.088-.03.176-.03.265-.059.323-.117.617-.235.941-.382a3.637,3.637,0,0,0,.5-.206c.265-.118.529-.265.794-.382.176-.118.323-.206.5-.324a7.917,7.917,0,0,0,1-.735c.176-.147.382-.294.559-.47a4.034,4.034,0,0,0,.47-.529c.147-.147.265-.323.412-.5a5.609,5.609,0,0,0,.412-.617c.118-.176.235-.382.353-.588.088-.176.206-.382.294-.588h1.147l1.117-.059C142.388,656.492,144.681,658.138,148.709,659.168Z" transform="translate(278.255 -523.226)" fill="#0a142d"/>
          <path id="패스_9651" data-name="패스 9651" d="M390.55,995.027v77.232a33.852,33.852,0,0,1-33.809,33.809h-21.05l-7.144-7.173-.088-.088-.088-.264a27.876,27.876,0,0,0-.941-3.587c-.059-.206-.147-.382-.206-.559a27.244,27.244,0,0,0-1.5-3.41,3.219,3.219,0,0,0-.235-.441,28.6,28.6,0,0,0-2.058-3.234c-.059-.088-.147-.176-.206-.265a29.566,29.566,0,0,0-2.675-3.087l-.176-.177a30.389,30.389,0,0,0-3.91-3.234,2.192,2.192,0,0,0-.353-.206,27.924,27.924,0,0,0-15.729-4.792H91.267a28.286,28.286,0,0,0-20.2,8.408.774.774,0,0,0-.147.176l-.147.147a29.383,29.383,0,0,0-2.5,2.94.617.617,0,0,0-.118.176,24.772,24.772,0,0,0-2.029,3.234l-.265.441a31.7,31.7,0,0,0-1.47,3.381c-.059.177-.118.353-.206.559a29.262,29.262,0,0,0-.941,3.5c-.029.117-.059.206-.088.294,0,.029-.029.059-.059.088l-7.173,7.173H34.879A33.852,33.852,0,0,1,1.07,1072.259v-1.206c1.294-17.875,1.823-18.433,18.463-19.844a1.441,1.441,0,0,0,1.352-1.47,1.474,1.474,0,0,0-1.352-1.47c-8.7-.706-12.994-1.235-15.288-4.087-2.087-2.616-2.558-7.173-3.175-15.67V771.182L2.1,758.864l11.907,8.849L5.156,755.806l20.2-3-20.2-1.352,8.849-11.907L2.1,748.4,1.07,735.727V722.085a33.852,33.852,0,0,1,33.809-33.809H60.1a1.463,1.463,0,0,0,1.47-1.411,30.434,30.434,0,0,1,30.164-29.223h17.434a1.4,1.4,0,0,0,1.058-.441,1.414,1.414,0,0,0,.412-1.088l-.029-.529c-.029-.294-.059-.617-.059-.941a21.436,21.436,0,0,1,21.4-21.373h21.314a1.456,1.456,0,0,0,1.47-1.47,1.474,1.474,0,0,0-1.47-1.47H131.955a24.44,24.44,0,0,0-20.815,11.7l-.617-.294a1.214,1.214,0,0,0,.118-.647l-.029-.5c-.029-.323-.059-.617-.059-.941a21.418,21.418,0,0,1,21.4-21.373H170.38l19.374,24.166,7.879-9.79,7.85,9.79,19.4-24.166h34.809a21.38,21.38,0,0,1,21.373,21.373c0,.323-.029.617-.029.911l-.059.529a1.213,1.213,0,0,0,.118.647l-.617.353a24.178,24.178,0,0,0-20.785-11.76H240.938a1.474,1.474,0,0,0-1.47,1.47,1.456,1.456,0,0,0,1.47,1.47h18.757a21.43,21.43,0,0,1,21.373,21.373c0,.323-.029.617-.029.911l-.059.559a1.414,1.414,0,0,0,.412,1.088,1.4,1.4,0,0,0,1.058.441h17.434a30.5,30.5,0,0,1,30.193,29.223,1.462,1.462,0,0,0,1.47,1.411h25.2a34.058,34.058,0,0,1,32.986,26.459c-1.323,9.2-4.292,9.79-17.639,10.907a1.45,1.45,0,0,0-1.235.941,1.193,1.193,0,0,0-.118.559,1.446,1.446,0,0,0,1.352,1.441c16.64,1.382,17.169,1.94,18.463,19.785V975.153l-.382,4.763-11.907-8.849,8.849,11.907L366.3,985.149l20.815,2.175-8.849,11.907,11.907-8.849Z" transform="translate(26.124 -591.201)" fill="#cce4ed"/>
          <path id="패스_9652" data-name="패스 9652" d="M173.89,670.506c-.029.47-.059.882-.088,1.293a37.014,37.014,0,0,0-33.691-22.2H116.3a32.806,32.806,0,0,0-3.557-12.465l.823-.441a1.509,1.509,0,0,0,1.352.853h25.2A33.947,33.947,0,0,1,173.89,670.506Z" transform="translate(242.754 -555.467)" fill="#cce4ed"/>
          <rect id="사각형_352" data-name="사각형 352" width="7.193" height="7.193" transform="translate(348.527 515.897) rotate(-45)" fill="#cce4ed"/>
          <path id="패스_9653" data-name="패스 9653" d="M145.706,656.391a1.718,1.718,0,0,0,.118.558l-.823.441a33.451,33.451,0,0,0-29.487-18.169H99.638v-.059A24.08,24.08,0,0,0,96.11,626.61l.617-.353a1.921,1.921,0,0,0,.294.441,1.423,1.423,0,0,0,1.058.47h17.434A30.5,30.5,0,0,1,145.706,656.391Z" transform="translate(210.494 -575.72)" fill="#cce4ed"/>
          <path id="패스_9654" data-name="패스 9654" d="M282.706,796.053l-6.291,6.321a1.044,1.044,0,0,0-.323.47,1.47,1.47,0,0,0,0,1.117,1.044,1.044,0,0,0,.323.47l5.057,5.086a25.933,25.933,0,0,1-5.85,9.084,25.468,25.468,0,0,1-18.11,7.526H48.394a25.565,25.565,0,0,1-23.96-16.64l5.057-5.057a1.473,1.473,0,0,0,0-2.058l-6.321-6.321c.118-.646.265-1.264.441-1.911a14.984,14.984,0,0,1,.412-1.646c.235-.764.588-1.47.882-2.2.235-.5.412-1,.647-1.47a25.1,25.1,0,0,1,1.352-2.234c.265-.382.47-.794.735-1.146a26.052,26.052,0,0,1,2.617-3.058l.029-.029a25.47,25.47,0,0,1,18.11-7.526H257.51a25.5,25.5,0,0,1,14.288,4.38.616.616,0,0,0,.176.117,26.82,26.82,0,0,1,3.645,3.057,23.757,23.757,0,0,1,2.646,3.058c.235.353.441.735.676,1.088.47.735,1,1.5,1.411,2.293.235.471.382.97.588,1.441a20.955,20.955,0,0,1,.911,2.234c.176.529.294,1.088.441,1.646C282.441,794.789,282.617,795.407,282.706,796.053Z" transform="translate(68.996 -287.507)" fill="#ffb4b4"/>
          <path id="패스_9655" data-name="패스 9655" d="M74.538,610.668l16.787,20.9L74.538,652.5l-5.968-7.467L79.359,631.6,68.57,618.135v-.029Z" transform="translate(157.068 -605.963)" fill="#cce4ed"/>
          <path id="패스_9656" data-name="패스 9656" d="M73.827,614l8.908,11.142-8.908,11.113L64.89,625.14Z" transform="translate(149.929 -599.503)" fill="#0a142d"/>
          <path id="패스_9657" data-name="패스 9657" d="M76.327,610.657l6,7.5L71.505,631.619l10.819,13.435-6,7.467L59.54,631.59Z" transform="translate(139.551 -605.982)" fill="#cce4ed"/>
          <path id="패스_9658" data-name="패스 9658" d="M70.677,626.257l.617.294a24.215,24.215,0,0,0-3.528,12.612v.059H51.891a33.372,33.372,0,0,0-29.458,18.169l-.823-.441a1.719,1.719,0,0,0,.118-.558,30.434,30.434,0,0,1,30.164-29.223H69.325a1.423,1.423,0,0,0,1.058-.47A1.922,1.922,0,0,0,70.677,626.257Z" transform="translate(65.97 -575.72)" fill="#cce4ed"/>
          <path id="패스_9659" data-name="패스 9659" d="M30.962,787.9l-5.086,5.086L20.79,787.9l2.646-2.646,2.44-2.44Z" transform="translate(64.379 -272.007)" fill="#cce4ed"/>
          <path id="패스_9660" data-name="패스 9660" d="M61.456,636.7l.823.441A32.806,32.806,0,0,0,58.722,649.6H34.879A36.822,36.822,0,0,0,1.07,671.976v-.618A33.852,33.852,0,0,1,34.879,637.55H60.1A1.509,1.509,0,0,0,61.456,636.7Z" transform="translate(26.124 -555.467)" fill="#cce4ed"/>
          <path id="패스_9661" data-name="패스 9661" d="M14.122,770.689c.353.117.706.235,1.088.353a13.391,13.391,0,0,0-1.735.529.417.417,0,0,0-.176.059,13.14,13.14,0,0,0-1.294.558c-.088.029-.206.088-.294.117a9.811,9.811,0,0,0-1.088.676.614.614,0,0,0-.176.118,7.656,7.656,0,0,0-1.058.882c-.088.088-.147.176-.235.265-.206.264-.441.529-.617.794a3.826,3.826,0,0,0-.294.441c-.176.265-.323.529-.47.794l-.265.529c-.176.353-.323.735-.47,1.117a8.11,8.11,0,0,0-.235.794,10.674,10.674,0,0,0-.323,1.147l-.088.265c-1.264-5.41-3.616-7.762-8.82-9.084,5.2-1.323,7.556-3.675,8.82-9.084a.693.693,0,0,1,.059.235c.118.441.235.853.382,1.264a5.079,5.079,0,0,0,.206.618c.147.411.294.823.47,1.205a5.093,5.093,0,0,0,.294.559c.118.235.265.471.382.706.118.176.265.382.382.558.147.177.294.382.47.559a5.857,5.857,0,0,0,.412.471,11.74,11.74,0,0,0,.911.794,6.984,6.984,0,0,0,.617.382c.176.118.353.235.559.353.235.118.5.235.764.353a3.189,3.189,0,0,0,.559.235l.882.353C13.857,770.63,14,770.659,14.122,770.689Z" transform="translate(19.334 -312.474)" fill="#0a142d"/>
        </g>
      </g>
      <g id="그룹_642" data-name="그룹 642" transform="translate(170.056 499.362)">
        <path id="패스_9662" data-name="패스 9662" d="M57.672,779.055q4.022,0,5.892,1.514a5.646,5.646,0,0,1,1.87,4.657v.638A5.883,5.883,0,0,1,65.2,787.5a4.666,4.666,0,0,1-.723,1.464,4.814,4.814,0,0,1-1.288,1.182,6.394,6.394,0,0,1-1.923.794,6.744,6.744,0,0,1,3.934,1.729,5.409,5.409,0,0,1,1.394,4.022v.773a6.509,6.509,0,0,1-1.817,4.9q-1.817,1.769-5.945,1.767H51.745a2.332,2.332,0,0,1-1.623-.441,2.143,2.143,0,0,1-.459-1.573V781.063a2.132,2.132,0,0,1,.459-1.567,2.317,2.317,0,0,1,1.623-.441Zm-6.421,11.219H57.99a7.516,7.516,0,0,0,4.251-1.076,3.842,3.842,0,0,0,1.605-3.44v-.532a4.486,4.486,0,0,0-1.358-3.472Q61.13,780.5,57.813,780.5H51.252Zm0,12.418h7.726q6,0,6-5.224V796.8a4.606,4.606,0,0,0-1.588-3.775q-1.588-1.305-5.362-1.308H51.252Z" transform="translate(-49.664 -778.667)"/>
        <path id="패스_9663" data-name="패스 9663" d="M71.606,779.055a.511.511,0,0,1,.459.212,1.057,1.057,0,0,1,0,1.055.506.506,0,0,1-.459.214H58.835v9.984H70.9a.479.479,0,0,1,.423.209.883.883,0,0,1,.141.494.936.936,0,0,1-.141.532.473.473,0,0,1-.423.209H58.835v10.693H71.853a.509.509,0,0,1,.459.209.951.951,0,0,1,.141.532.935.935,0,0,1-.141.529.511.511,0,0,1-.459.211H59.293a2.332,2.332,0,0,1-1.623-.441,2.143,2.143,0,0,1-.459-1.573V781.063a2.132,2.132,0,0,1,.459-1.567,2.317,2.317,0,0,1,1.623-.441Z" transform="translate(-35.022 -778.667)"/>
        <path id="패스_9664" data-name="패스 9664" d="M72.512,778.923a15.978,15.978,0,0,1,3.951.458,9.992,9.992,0,0,1,3.034,1.27.745.745,0,0,1,.247,1.058.664.664,0,0,1-1.023.247,10.576,10.576,0,0,0-2.769-1.132,13.436,13.436,0,0,0-3.4-.42,9.02,9.02,0,0,0-2.5.335,6.37,6.37,0,0,0-2.011.953,4.469,4.469,0,0,0-1.323,1.5,4.017,4.017,0,0,0-.476,1.94v.564a4.725,4.725,0,0,0,.318,1.8,3.38,3.38,0,0,0,1.041,1.359,6.824,6.824,0,0,0,1.887,1.02,18.928,18.928,0,0,0,2.858.8,35.02,35.02,0,0,1,4.233,1.161,8.952,8.952,0,0,1,2.628,1.4,4.171,4.171,0,0,1,1.341,1.835,7.424,7.424,0,0,1,.37,2.487v.811a5.551,5.551,0,0,1-.6,2.555,5.886,5.886,0,0,1-1.711,2.031,8.779,8.779,0,0,1-2.664,1.341,11.365,11.365,0,0,1-3.457.494,14.388,14.388,0,0,1-4.427-.653,13.934,13.934,0,0,1-3.581-1.711.729.729,0,0,1-.247-1.094.655.655,0,0,1,1.023-.285,15.834,15.834,0,0,0,3.334,1.643,11.865,11.865,0,0,0,3.969.617,9.429,9.429,0,0,0,2.716-.371,6.753,6.753,0,0,0,2.134-1.043,4.883,4.883,0,0,0,1.394-1.567,4.01,4.01,0,0,0,.494-1.958v-.67a5.726,5.726,0,0,0-.3-1.976,3.215,3.215,0,0,0-1.111-1.432,7.894,7.894,0,0,0-2.275-1.094q-1.464-.472-3.793-1a21.713,21.713,0,0,1-3.14-.9,7.963,7.963,0,0,1-2.24-1.252,4.818,4.818,0,0,1-1.358-1.764,5.922,5.922,0,0,1-.459-2.437v-.773a5.418,5.418,0,0,1,.6-2.558,5.747,5.747,0,0,1,1.658-1.943,7.891,7.891,0,0,1,2.5-1.217A11.253,11.253,0,0,1,72.512,778.923Z" transform="translate(-21.71 -778.923)"/>
        <path id="패스_9665" data-name="패스 9665" d="M89.142,779.055a.511.511,0,0,1,.459.212,1.057,1.057,0,0,1,0,1.055.506.506,0,0,1-.459.214H81.1v23.072a.526.526,0,0,1-.247.494,1.223,1.223,0,0,1-.6.141,1.1,1.1,0,0,1-.532-.141.521.521,0,0,1-.247-.494V780.537H71.432a.511.511,0,0,1-.462-.214,1.077,1.077,0,0,1,0-1.055.516.516,0,0,1,.462-.212Z" transform="translate(-8.6 -778.667)"/>
        <path id="패스_9666" data-name="패스 9666" d="M90.529,779.019c.585,0,.879.235.879.706v23.954a.515.515,0,0,1-.247.494,1.213,1.213,0,0,1-.6.141,1.065,1.065,0,0,1-.529-.141.515.515,0,0,1-.247-.494V781.03l-6.738,4.41a.556.556,0,0,1-.532.07.946.946,0,0,1-.423-.388,1.052,1.052,0,0,1-.138-.511.5.5,0,0,1,.282-.441l7.018-4.621a4.556,4.556,0,0,1,.656-.37A1.446,1.446,0,0,1,90.529,779.019Z" transform="translate(12.98 -778.737)"/>
      </g>
    </g>
  </g>
</svg>
