<svg xmlns="http://www.w3.org/2000/svg" width="372.293" height="443.21" viewBox="0 0 372.293 443.21">
  <g id="그룹_639" data-name="그룹 639" transform="translate(-300 -1560.5)">
    <g id="그룹_631" data-name="그룹 631" transform="translate(142.934 963.501)">
      <g id="그룹_630" data-name="그룹 630" transform="translate(166.076 596.999)">
        <path id="패스_9618" data-name="패스 9618" d="M308.015,646.975a12.818,12.818,0,0,0-2.719-.963c.337-.1.65-.193.962-.313.072-.024.144-.024.216-.048.265-.1.505-.192.77-.313a2.936,2.936,0,0,0,.409-.168c.216-.1.433-.217.65-.313.144-.1.265-.168.409-.265a6.478,6.478,0,0,0,.818-.6c.144-.12.313-.24.457-.385a3.3,3.3,0,0,0,.385-.433c.12-.12.216-.265.337-.409a4.621,4.621,0,0,0,.337-.505c.1-.144.192-.313.289-.481.072-.144.168-.313.241-.481h.938l.914-.048c1.155,2.6,3.032,3.946,6.328,4.788-4.259,1.059-6.159,3.008-7.218,7.41,0-.048-.024-.072-.024-.12a15.3,15.3,0,0,0-.914-2.695.717.717,0,0,1-.1-.193,7.938,7.938,0,0,0-.529-.89,2.176,2.176,0,0,1-.12-.192,8.462,8.462,0,0,0-.7-.866c-.024,0-.024-.024-.048-.024a7.2,7.2,0,0,0-2-1.444C308.087,647,308.039,647,308.015,646.975Z" transform="translate(29.668 -534.783)" fill="#fff"/>
        <rect id="사각형_350" data-name="사각형 350" width="5.887" height="5.887" transform="translate(285.232 422.205) rotate(-45)" fill="#fff"/>
        <path id="패스_9619" data-name="패스 9619" d="M289.907,635.191A26.725,26.725,0,0,0,287,624.99l.674-.361a1.235,1.235,0,0,0,1.107.7H309.4A27.782,27.782,0,0,1,337.041,652.3c-.024.385-.048.722-.072,1.058A30.292,30.292,0,0,0,309.4,635.191Z" transform="translate(3.938 -558.151)" fill="#fff"/>
        <path id="패스_9620" data-name="패스 9620" d="M409.491,778.567c.12.529.265,1.035.337,1.564l-5.149,5.173a.855.855,0,0,0-.265.385,1.2,1.2,0,0,0,0,.914.854.854,0,0,0,.265.385l4.138,4.162a21.224,21.224,0,0,1-4.788,7.434,20.844,20.844,0,0,1-14.821,6.159H218.07a20.922,20.922,0,0,1-19.609-13.618l4.138-4.138a1.205,1.205,0,0,0,0-1.684l-5.173-5.173c.1-.529.217-1.035.361-1.564a12.243,12.243,0,0,1,.337-1.347c.193-.626.481-1.2.722-1.8.192-.409.337-.818.529-1.2a20.546,20.546,0,0,1,1.107-1.829c.217-.313.385-.65.6-.938a21.366,21.366,0,0,1,2.141-2.5l.024-.024a20.844,20.844,0,0,1,14.821-6.159H389.209a20.869,20.869,0,0,1,11.693,3.585.5.5,0,0,0,.144.1,21.947,21.947,0,0,1,2.983,2.5,19.472,19.472,0,0,1,2.165,2.5c.192.289.361.6.553.89.385.6.818,1.227,1.155,1.877.192.385.313.794.481,1.179a17.111,17.111,0,0,1,.746,1.829C409.275,777.652,409.371,778.109,409.491,778.567Z" transform="translate(-121.998 -363.94)" fill="#fff"/>
        <path id="패스_9621" data-name="패스 9621" d="M273.253,624.751a19.706,19.706,0,0,0-2.887-10.273l.505-.289a1.57,1.57,0,0,0,.241.361,1.165,1.165,0,0,0,.866.385h14.268a24.962,24.962,0,0,1,24.71,23.916,1.409,1.409,0,0,0,.1.457l-.674.361A27.376,27.376,0,0,0,286.246,624.8H273.253Z" transform="translate(-19.444 -572.83)" fill="#fff"/>
        <path id="패스_9622" data-name="패스 9622" d="M247.71,598.6l13.738,17.107L247.71,632.836l-4.884-6.111,8.83-11-8.83-11.02v-.024Z" transform="translate(-58.165 -594.75)" fill="#fff"/>
        <path id="패스_9623" data-name="패스 9623" d="M246.46,601.929l7.29,9.119-7.29,9.095-7.314-9.095Z" transform="translate(-63.339 -590.068)" fill="#fff"/>
        <path id="패스_9624" data-name="패스 9624" d="M247.534,598.589l4.908,6.135-8.854,11.02,8.854,11-4.908,6.111L233.8,615.719Z" transform="translate(-70.861 -594.764)" fill="#fff"/>
        <path id="패스_9625" data-name="패스 9625" d="M264.926,623.7a17.528,17.528,0,0,1,17.516-17.492h31.446l15.856,19.777,6.448-8.012,6.424,8.012,15.88-19.777h28.487A17.5,17.5,0,0,1,404.474,623.7c0,.265-.024.505-.024.746l-.048.433a.994.994,0,0,0,.1.529l-.505.289a20.956,20.956,0,0,0-2.935-3.777,19.888,19.888,0,0,0-14.075-5.847h-15.35a1.206,1.206,0,0,0-1.2,1.2,1.191,1.191,0,0,0,1.2,1.2h15.35a17.538,17.538,0,0,1,17.492,17.491c0,.265-.024.505-.024.746l-.048.457a1.156,1.156,0,0,0,.337.89,1.143,1.143,0,0,0,.866.361h14.268a24.962,24.962,0,0,1,24.71,23.916,1.2,1.2,0,0,0,1.2,1.155H466.4a27.873,27.873,0,0,1,27,21.654c-1.083,7.531-3.513,8.012-14.436,8.926a1.187,1.187,0,0,0-1.011.77.976.976,0,0,0-.1.457,1.183,1.183,0,0,0,1.107,1.179c13.618,1.131,14.051,1.588,15.11,16.192v185.6l-.313,3.9-9.744-7.242,7.242,9.744-17.034,1.781,17.034,1.78-7.242,9.744,9.744-7.242.313,3.8v63.206a27.7,27.7,0,0,1-27.669,27.669H449.177l-5.847-5.871-.072-.072-.072-.217a22.82,22.82,0,0,0-.77-2.935c-.048-.168-.12-.313-.168-.457a22.273,22.273,0,0,0-1.227-2.791,2.618,2.618,0,0,0-.193-.361,23.417,23.417,0,0,0-1.684-2.647c-.048-.072-.12-.144-.168-.217a24.22,24.22,0,0,0-2.189-2.526l-.144-.144a24.886,24.886,0,0,0-3.2-2.647,1.791,1.791,0,0,0-.289-.168,22.852,22.852,0,0,0-12.872-3.922H249.142a23.148,23.148,0,0,0-16.529,6.881.637.637,0,0,0-.12.144l-.12.12a24.053,24.053,0,0,0-2.045,2.406.5.5,0,0,0-.1.144,20.291,20.291,0,0,0-1.66,2.647l-.217.361a25.954,25.954,0,0,0-1.2,2.767c-.048.144-.1.289-.168.457a23.952,23.952,0,0,0-.77,2.863c-.024.1-.048.168-.072.241,0,.024-.024.048-.048.072l-5.871,5.871H203a27.7,27.7,0,0,1-27.669-27.669v-.987c1.059-14.629,1.492-15.086,15.11-16.24a1.179,1.179,0,0,0,1.107-1.2,1.206,1.206,0,0,0-1.107-1.2c-7.122-.577-10.635-1.01-12.511-3.344-1.708-2.141-2.093-5.871-2.6-12.824v-210.6l.842-10.081,9.744,7.242-7.242-9.744,16.529-2.454L178.67,715.2l7.242-9.744-9.744,7.242-.842-10.37V691.165A27.7,27.7,0,0,1,203,663.5h20.644a1.2,1.2,0,0,0,1.2-1.155,24.907,24.907,0,0,1,24.686-23.916h14.268a1.143,1.143,0,0,0,.866-.361,1.156,1.156,0,0,0,.337-.89l-.024-.433c-.024-.241-.048-.505-.048-.77a17.543,17.543,0,0,1,17.516-17.491h17.444a1.191,1.191,0,0,0,1.2-1.2,1.206,1.206,0,0,0-1.2-1.2H282.441a20,20,0,0,0-17.034,9.576l-.505-.24a.993.993,0,0,0,.1-.529l-.024-.409C264.95,624.206,264.926,623.965,264.926,623.7Z" transform="translate(-153.07 -584.05)" fill="#fff"/>
        <path id="패스_9626" data-name="패스 9626" d="M203.371,774.911l-4.162,4.162-4.162-4.162,2.165-2.165,2-2Z" transform="translate(-125.344 -352.706)" fill="#fff"/>
        <path id="패스_9627" data-name="패스 9627" d="M195.962,638.851a24.907,24.907,0,0,1,24.686-23.916h14.268a1.164,1.164,0,0,0,.866-.385,1.569,1.569,0,0,0,.241-.361l.505.24a19.881,19.881,0,0,0-2.887,10.322v.048H220.648a27.311,27.311,0,0,0-24.108,14.869l-.674-.361A1.408,1.408,0,0,0,195.962,638.851Z" transform="translate(-124.191 -572.83)" fill="#fff"/>
        <path id="패스_9628" data-name="패스 9628" d="M175.326,653A27.7,27.7,0,0,1,203,625.327h20.644a1.235,1.235,0,0,0,1.107-.7l.674.361a26.723,26.723,0,0,0-2.911,10.2H203a30.134,30.134,0,0,0-27.669,18.31Z" transform="translate(-153.07 -558.151)" fill="#fff"/>
        <path id="패스_9629" data-name="패스 9629" d="M179.573,762.954a6.634,6.634,0,0,0-.192.65,8.737,8.737,0,0,0-.265.938l-.072.217c-1.035-4.427-2.959-6.352-7.218-7.435,4.259-1.083,6.183-3.007,7.218-7.435a.567.567,0,0,1,.048.193c.1.361.192.7.313,1.035a4.155,4.155,0,0,0,.168.505c.12.337.241.674.385.986a4.172,4.172,0,0,0,.241.457c.1.193.217.385.313.577.1.144.217.313.313.457.12.144.241.313.385.457a4.807,4.807,0,0,0,.337.385,9.643,9.643,0,0,0,.746.65,5.734,5.734,0,0,0,.505.313c.144.1.289.193.457.289.192.1.409.193.626.289a2.6,2.6,0,0,0,.457.192l.722.289c.1.024.217.048.313.072.289.1.577.193.89.289a10.953,10.953,0,0,0-1.42.433.341.341,0,0,0-.144.048,10.752,10.752,0,0,0-1.059.457c-.072.024-.168.072-.241.1a8.014,8.014,0,0,0-.89.553.5.5,0,0,0-.144.1,6.267,6.267,0,0,0-.866.722c-.072.072-.12.144-.192.217-.168.217-.361.433-.505.65a3.127,3.127,0,0,0-.241.361c-.144.216-.265.433-.385.649l-.217.433C179.814,762.328,179.694,762.641,179.573,762.954Z" transform="translate(-157.992 -382.035)" fill="#fff"/>
        <path id="패스_9630" data-name="패스 9630" d="M503.759,709.191c.024.024.072.024.1.048a7.2,7.2,0,0,1,2,1.444c.024,0,.024.024.048.024a8.462,8.462,0,0,1,.7.866,2.176,2.176,0,0,0,.12.192,7.938,7.938,0,0,1,.529.89.717.717,0,0,0,.1.193,15.3,15.3,0,0,1,.914,2.695c0,.048.024.072.024.12,1.059-4.4,2.959-6.352,7.218-7.41-3.3-.842-5.173-2.189-6.328-4.788l-.914.048h-.938c-.072.168-.168.337-.241.481-.1.168-.192.337-.289.481a4.621,4.621,0,0,1-.337.505c-.12.144-.217.289-.337.409a3.3,3.3,0,0,1-.385.433c-.144.144-.313.265-.457.385a6.478,6.478,0,0,1-.818.6c-.144.1-.265.168-.409.265-.217.1-.433.216-.65.313a2.936,2.936,0,0,1-.409.168c-.265.12-.505.217-.77.313-.072.024-.144.024-.216.048-.313.12-.626.217-.962.313A12.818,12.818,0,0,1,503.759,709.191ZM459.633,1019.2l-4.162-4.162-4.162,4.162,4.162,4.162ZM350.737,606.96l8.83,11.02-8.83,11,4.884,6.111,13.738-17.131-13.738-17.107-4.884,6.087ZM338.8,617.979l8.854-11.02-4.908-6.135-13.738,17.131,13.738,17.131,4.908-6.111Zm17.684,0-7.29-9.119-7.314,9.119,7.314,9.095ZM262.148,995.818a20.845,20.845,0,0,0-14.821,6.159l-.024.024a21.366,21.366,0,0,0-2.141,2.5c-.217.289-.385.626-.6.938a20.546,20.546,0,0,0-1.107,1.829c-.192.385-.337.794-.529,1.2-.241.6-.529,1.179-.722,1.8a12.243,12.243,0,0,0-.337,1.347c-.144.529-.265,1.035-.361,1.564l5.173,5.173a1.205,1.205,0,0,1,0,1.684l-4.138,4.138a20.922,20.922,0,0,0,19.609,13.618H433.287a20.844,20.844,0,0,0,14.821-6.159,21.224,21.224,0,0,0,4.788-7.434l-4.138-4.162a.854.854,0,0,1-.265-.385,1.2,1.2,0,0,1,0-.914.855.855,0,0,1,.265-.385l5.149-5.173c-.072-.529-.217-1.035-.337-1.564-.12-.457-.216-.914-.361-1.347a17.111,17.111,0,0,0-.746-1.829c-.168-.385-.289-.794-.481-1.179-.337-.65-.77-1.275-1.155-1.877-.192-.289-.361-.6-.553-.89a19.472,19.472,0,0,0-2.165-2.5,21.947,21.947,0,0,0-2.983-2.5.5.5,0,0,1-.144-.1,20.869,20.869,0,0,0-11.693-3.585Zm-22.207,19.224-2,2-2.165,2.165,4.162,4.162,4.162-4.162ZM216,664.175a27.7,27.7,0,0,0-27.669,27.669v.505A30.134,30.134,0,0,1,216,674.039h19.513a26.723,26.723,0,0,1,2.911-10.2,27.311,27.311,0,0,1,24.108-14.869h12.992v-.048a19.9,19.9,0,0,1,19.922-19.9H312.89a1.206,1.206,0,0,1,1.2,1.2,1.191,1.191,0,0,1-1.2,1.2H295.447a17.543,17.543,0,0,0-17.516,17.491c0,.265.024.529.048.77l.024.433a1.156,1.156,0,0,1-.337.89,1.143,1.143,0,0,1-.866.361H262.533a24.907,24.907,0,0,0-24.686,23.916,1.2,1.2,0,0,1-1.2,1.155H216a27.7,27.7,0,0,0-27.669,27.669v11.164l.842,10.37,9.744-7.242-7.242,9.744,16.529,1.107-16.529,2.454,7.242,9.744-9.744-7.242-.842,10.081v210.6c.505,6.953.89,10.683,2.6,12.824,1.877,2.334,5.389,2.767,12.511,3.344a1.206,1.206,0,0,1,1.107,1.2,1.179,1.179,0,0,1-1.107,1.2c-13.618,1.155-14.051,1.612-15.11,16.24v.987A27.7,27.7,0,0,0,216,1018.363h17.227l5.871-5.871c.024-.024.048-.048.048-.072.024-.072.048-.144.072-.241a23.952,23.952,0,0,1,.77-2.863c.072-.168.12-.313.168-.457a25.954,25.954,0,0,1,1.2-2.767l.217-.361a20.291,20.291,0,0,1,1.66-2.647.5.5,0,0,1,.1-.144,24.053,24.053,0,0,1,2.045-2.406l.12-.12a.637.637,0,0,1,.12-.144,23.148,23.148,0,0,1,16.529-6.881H433.287a22.852,22.852,0,0,1,12.872,3.922,1.791,1.791,0,0,1,.289.168,24.886,24.886,0,0,1,3.2,2.647l.144.144a24.22,24.22,0,0,1,2.189,2.526c.048.072.12.144.168.217a23.417,23.417,0,0,1,1.684,2.647,2.618,2.618,0,0,1,.193.361,22.273,22.273,0,0,1,1.227,2.791c.048.144.12.289.168.457a22.82,22.82,0,0,1,.77,2.935l.072.217.072.072,5.847,5.871H479.41a27.7,27.7,0,0,0,27.669-27.669V927.488l-.313-3.8-9.744,7.242,7.242-9.744-17.034-1.78,17.034-1.781-7.242-9.744,9.744,7.242.313-3.9v-185.6c-1.059-14.6-1.492-15.062-15.11-16.192a1.183,1.183,0,0,1-1.107-1.179.976.976,0,0,1,.1-.457,1.187,1.187,0,0,1,1.011-.77c10.923-.914,13.353-1.4,14.436-8.926a27.873,27.873,0,0,0-27-21.654H458.79a1.2,1.2,0,0,1-1.2-1.155,24.962,24.962,0,0,0-24.71-23.916H418.61a1.143,1.143,0,0,1-.866-.361,1.156,1.156,0,0,1-.337-.89l.048-.457c0-.24.024-.481.024-.746a17.538,17.538,0,0,0-17.492-17.491h-15.35a1.191,1.191,0,0,1-1.2-1.2,1.206,1.206,0,0,1,1.2-1.2h15.35a19.888,19.888,0,0,1,14.075,5.847A20.956,20.956,0,0,1,417,638.647a19.706,19.706,0,0,1,2.887,10.273v.048h12.992a27.376,27.376,0,0,1,24.132,14.869,26.725,26.725,0,0,1,2.911,10.2H479.41A30.292,30.292,0,0,1,506.983,692.2c.024-.337.048-.674.072-1.058a27.782,27.782,0,0,0-27.645-26.971H458.79a1.235,1.235,0,0,1-1.107-.7,1.409,1.409,0,0,1-.1-.457,24.962,24.962,0,0,0-24.71-23.916H418.61a1.165,1.165,0,0,1-.866-.385,1.57,1.57,0,0,1-.241-.361.994.994,0,0,1-.1-.529l.048-.433c0-.24.024-.481.024-.746a17.5,17.5,0,0,0-17.492-17.492H371.5l-15.88,19.777-6.424-8.012-6.448,8.012-15.856-19.777H295.447a17.528,17.528,0,0,0-17.516,17.492c0,.265.024.505.048.77l.024.409a.993.993,0,0,1-.1.529,1.57,1.57,0,0,1-.241.361,1.165,1.165,0,0,1-.866.385H262.533a24.907,24.907,0,0,0-24.686,23.916,1.408,1.408,0,0,1-.1.457,1.235,1.235,0,0,1-1.107.7ZM185.926,989.683c-1.059-14.6-1.492-15.062-15.11-16.216a1.206,1.206,0,0,1-1.107-1.2,1.184,1.184,0,0,1,1.107-1.179c13.618-1.131,14.051-1.588,15.11-16.216V738.039l-.313-3.826-9.744,7.242,7.242-9.744-17.035-1.78,17.035-1.781-7.242-9.744,9.744,7.242.313-3.922V691.844A30.117,30.117,0,0,1,216,661.769h19.513a27.328,27.328,0,0,1,27.019-25.07h12.992v-.048a19.941,19.941,0,0,1,19.922-19.9h31.471L342.749,597l6.448,8.012L355.621,597l15.856,19.753h28.511a19.92,19.92,0,0,1,19.9,19.9v.048h12.992a27.368,27.368,0,0,1,27.044,25.07H479.41a30.215,30.215,0,0,1,30,28.824c.024.1.072.144.072.241,1.059,14.628,1.492,15.086,15.11,16.216a1.194,1.194,0,0,1,0,2.382c-13.618,1.131-14.051,1.588-15.11,16.192v179.1l.842,10.394,9.744-7.242-7.242,9.744,16.529,1.131-16.529,2.43,7.242,9.744-9.744-7.242-.842,10.105v56.9a30.117,30.117,0,0,1-30.075,30.075H461.485l-5.149,5.149a1.221,1.221,0,0,1-.866.361,1.16,1.16,0,0,1-.722-.265,23.911,23.911,0,0,1-4.932,7.314,23.19,23.19,0,0,1-16.529,6.881H262.148a23.336,23.336,0,0,1-21.486-14.2,1.111,1.111,0,0,1-.722.265,1.129,1.129,0,0,1-.842-.361l-5.173-5.149H216a30.117,30.117,0,0,1-30.075-30.075Zm1.54-11.116a6.634,6.634,0,0,1,.192-.65c.12-.313.241-.625.385-.914l.217-.433c.12-.216.241-.433.385-.649a3.127,3.127,0,0,1,.241-.361c.144-.217.337-.433.505-.65.072-.072.12-.144.192-.217a6.267,6.267,0,0,1,.866-.722.5.5,0,0,1,.144-.1,8.014,8.014,0,0,1,.89-.553c.072-.024.168-.072.241-.1a10.752,10.752,0,0,1,1.059-.457.341.341,0,0,1,.144-.048,10.953,10.953,0,0,1,1.42-.433c-.313-.1-.6-.193-.89-.289-.1-.024-.217-.048-.313-.072l-.722-.289a2.6,2.6,0,0,1-.457-.192c-.217-.1-.433-.193-.626-.289-.168-.1-.313-.192-.457-.289a5.734,5.734,0,0,1-.505-.313,9.643,9.643,0,0,1-.746-.65,4.807,4.807,0,0,1-.337-.385c-.144-.144-.265-.313-.385-.457-.1-.144-.217-.313-.313-.457-.1-.192-.217-.385-.313-.577a4.172,4.172,0,0,1-.241-.457c-.144-.313-.265-.65-.385-.986a4.155,4.155,0,0,1-.168-.505c-.12-.337-.217-.674-.313-1.035a.567.567,0,0,0-.048-.193c-1.035,4.427-2.959,6.352-7.218,7.435,4.259,1.083,6.183,3.008,7.218,7.435l.072-.217A8.737,8.737,0,0,1,187.465,978.567Z" transform="translate(-166.076 -596.999)" fill="#fff"/>
      </g>
    </g>
    <g id="그룹_636" data-name="그룹 636" transform="translate(308.18 956.433)">
      <g id="그룹_634" data-name="그룹 634" transform="translate(-8.18 609.067)">
        <g id="그룹_633" data-name="그룹 633">
          <path id="패스_9631" data-name="패스 9631" d="M345.095,921.958l-16.074,2.363,7.043,9.476-9.476-7.043-.819,9.827v55.334a29.287,29.287,0,0,1-29.247,29.247H279.091l-5.007,5.007a1.187,1.187,0,0,1-.842.351,1.128,1.128,0,0,1-.7-.257,23.251,23.251,0,0,1-4.8,7.113,22.551,22.551,0,0,1-16.074,6.692H85.245a22.693,22.693,0,0,1-20.894-13.8,1.08,1.08,0,0,1-.7.257,1.1,1.1,0,0,1-.819-.351l-5.03-5.007H40.369a29.287,29.287,0,0,1-29.247-29.247v-.983c-1.029-14.2-1.451-14.646-14.693-15.77a1.173,1.173,0,0,1-1.076-1.17,1.151,1.151,0,0,1,1.076-1.146c13.243-1.1,13.664-1.544,14.693-15.77V746.221l-.3-3.72-9.476,7.043,7.043-9.476L-8.18,738.337l16.565-1.731-7.043-9.476,9.476,7.043.3-3.814V701.3a29.287,29.287,0,0,1,29.247-29.247H59.344a26.575,26.575,0,0,1,26.275-24.38H98.254v-.047a19.392,19.392,0,0,1,19.373-19.35h30.6l15.4-19.209,6.27,7.791,6.247-7.791,15.419,19.209h27.726a19.372,19.372,0,0,1,19.349,19.35v.047h12.634a26.614,26.614,0,0,1,26.3,24.38h18.952a29.383,29.383,0,0,1,29.176,28.03c.023.094.07.14.07.234,1.029,14.225,1.451,14.67,14.693,15.77a1.161,1.161,0,0,1,0,2.316c-13.243,1.1-13.664,1.544-14.693,15.746V908.317l.819,10.108,9.476-7.043-7.043,9.476Zm-20.5-197.5c1.029-4.282,2.878-6.177,7.019-7.206-3.205-.819-5.03-2.129-6.153-4.656l-.889.047h-.913c-.07.164-.164.328-.234.468-.094.164-.187.328-.281.468a4.476,4.476,0,0,1-.328.491c-.117.14-.211.281-.328.4a3.2,3.2,0,0,1-.374.421c-.14.141-.3.257-.445.374a6.3,6.3,0,0,1-.8.585c-.14.094-.257.164-.4.257-.211.094-.421.21-.632.3a2.869,2.869,0,0,1-.4.164c-.257.117-.491.21-.749.3-.07.023-.14.023-.211.047-.3.117-.608.211-.936.3a12.472,12.472,0,0,1,2.644.936c.023.023.07.023.094.047a7.011,7.011,0,0,1,1.942,1.4c.023,0,.023.023.047.023a8.179,8.179,0,0,1,.679.842,2.191,2.191,0,0,0,.117.187,7.672,7.672,0,0,1,.515.866.7.7,0,0,0,.094.187,14.882,14.882,0,0,1,.889,2.62C324.575,724.392,324.6,724.415,324.6,724.462Zm-1.17,267.453V930.451l-.3-3.7-9.476,7.043,7.043-9.476-16.565-1.731,16.565-1.731-7.043-9.476,9.476,7.043.3-3.79V734.148c-1.03-14.2-1.451-14.647-14.693-15.746a1.151,1.151,0,0,1-1.076-1.146.95.95,0,0,1,.094-.445,1.154,1.154,0,0,1,.983-.749c10.622-.889,12.985-1.357,14.038-8.68a27.105,27.105,0,0,0-26.252-21.057H276.471a1.164,1.164,0,0,1-1.17-1.123,24.274,24.274,0,0,0-24.029-23.257H237.4a1.112,1.112,0,0,1-.842-.351,1.125,1.125,0,0,1-.328-.866l.047-.445c0-.234.023-.468.023-.725a17.055,17.055,0,0,0-17.01-17.01H204.36a1.159,1.159,0,0,1-1.17-1.17,1.173,1.173,0,0,1,1.17-1.17h14.927a19.416,19.416,0,0,1,19.349,19.349v.047h12.634a26.622,26.622,0,0,1,23.467,14.459,26.108,26.108,0,0,1,2.831,9.92h18.952a29.457,29.457,0,0,1,26.813,17.665c.023-.328.047-.655.07-1.029a27.016,27.016,0,0,0-26.883-26.228H276.471a1.2,1.2,0,0,1-1.076-.678,1.368,1.368,0,0,1-.094-.445,24.274,24.274,0,0,0-24.029-23.257H237.4a1.132,1.132,0,0,1-.842-.374,1.526,1.526,0,0,1-.234-.351.966.966,0,0,1-.094-.515l.047-.421c0-.234.023-.468.023-.725a17.015,17.015,0,0,0-17.01-17.01h-27.7l-15.442,19.233-6.247-7.791-6.27,7.791-15.419-19.233h-30.58a17.045,17.045,0,0,0-17.033,17.01c0,.257.023.491.047.749l.023.4a.967.967,0,0,1-.094.515,1.526,1.526,0,0,1-.234.351,1.132,1.132,0,0,1-.842.374H85.619a24.221,24.221,0,0,0-24.006,23.257,1.368,1.368,0,0,1-.094.445,1.2,1.2,0,0,1-1.076.678H40.369A26.941,26.941,0,0,0,13.462,701.3v.491a29.3,29.3,0,0,1,26.907-17.805H59.344a26.108,26.108,0,0,1,2.831-9.92A26.558,26.558,0,0,1,85.619,659.6H98.254v-.047a19.351,19.351,0,0,1,19.373-19.349H134.59a1.173,1.173,0,0,1,1.17,1.17,1.159,1.159,0,0,1-1.17,1.17H117.627a17.06,17.06,0,0,0-17.033,17.01c0,.257.023.515.047.749l.023.421a1.125,1.125,0,0,1-.328.866,1.112,1.112,0,0,1-.842.351H85.619A24.221,24.221,0,0,0,61.614,685.2a1.164,1.164,0,0,1-1.17,1.123H40.369a26.941,26.941,0,0,0-26.907,26.907v10.856l.819,10.084,9.476-7.043-7.043,9.476,16.074,1.076-16.074,2.387,7.043,9.476L14.281,742.5l-.819,9.8V957.1c.491,6.762.866,10.388,2.527,12.471,1.825,2.27,5.241,2.691,12.167,3.252a1.173,1.173,0,0,1,1.076,1.17,1.147,1.147,0,0,1-1.076,1.17c-13.243,1.123-13.664,1.568-14.693,15.793v.959a26.941,26.941,0,0,0,26.907,26.907H57.122l5.709-5.709c.023-.024.047-.047.047-.07.023-.07.047-.14.07-.234a23.3,23.3,0,0,1,.749-2.784c.07-.164.117-.3.164-.445a25.233,25.233,0,0,1,1.17-2.691l.211-.351a19.725,19.725,0,0,1,1.614-2.574.494.494,0,0,1,.094-.14,23.392,23.392,0,0,1,1.989-2.34l.117-.117a.623.623,0,0,1,.117-.14,22.512,22.512,0,0,1,16.074-6.692H251.669a22.221,22.221,0,0,1,12.518,3.814,1.743,1.743,0,0,1,.281.164,24.178,24.178,0,0,1,3.112,2.574l.14.14a23.568,23.568,0,0,1,2.129,2.457c.047.07.117.14.164.211a22.763,22.763,0,0,1,1.638,2.574,2.549,2.549,0,0,1,.187.351,21.687,21.687,0,0,1,1.193,2.714c.047.14.117.281.164.445a22.19,22.19,0,0,1,.749,2.854l.07.21.07.07,5.686,5.709h16.752A26.941,26.941,0,0,0,323.429,991.916Zm-50.187,31.773,4.048-4.048-4.048-4.048-4.048,4.048Zm-6.528-4.866,5.007-5.03c-.07-.515-.211-1.006-.328-1.521-.117-.444-.211-.889-.351-1.31a16.67,16.67,0,0,0-.725-1.778c-.164-.375-.281-.772-.468-1.147-.328-.632-.749-1.24-1.123-1.825-.187-.281-.351-.585-.538-.866a18.937,18.937,0,0,0-2.106-2.433,21.343,21.343,0,0,0-2.9-2.433.491.491,0,0,1-.14-.094,20.293,20.293,0,0,0-11.371-3.486H85.245a20.27,20.27,0,0,0-14.413,5.99l-.023.023a20.775,20.775,0,0,0-2.082,2.433c-.211.281-.374.608-.585.912a20,20,0,0,0-1.076,1.778c-.187.375-.328.772-.515,1.17-.234.585-.515,1.146-.7,1.755a11.924,11.924,0,0,0-.328,1.31c-.14.515-.257,1.006-.351,1.521l5.03,5.03a1.172,1.172,0,0,1,0,1.638l-4.024,4.024a20.346,20.346,0,0,0,19.069,13.243H251.669a20.27,20.27,0,0,0,14.413-5.99,20.641,20.641,0,0,0,4.656-7.23l-4.024-4.048a.832.832,0,0,1-.257-.374,1.17,1.17,0,0,1,0-.889A.831.831,0,0,1,266.714,1018.823ZM189.5,629.446l-13.36-16.635-4.75,5.919v.023l8.587,10.716-8.587,10.693,4.75,5.943Zm-12.518.023L169.9,620.6l-7.113,8.867,7.113,8.844ZM168.4,618.753l-4.773-5.966-13.36,16.659,13.36,16.659,4.773-5.943-8.61-10.693ZM63.649,1023.689l4.048-4.048-4.048-4.048-1.942,1.942-2.106,2.106ZM19.312,974.017c-.3-.094-.585-.187-.866-.281-.094-.023-.211-.047-.3-.07l-.7-.281A2.542,2.542,0,0,1,17,973.2c-.211-.094-.421-.187-.608-.281-.164-.094-.3-.187-.445-.281a5.6,5.6,0,0,1-.491-.3,9.381,9.381,0,0,1-.725-.632,4.643,4.643,0,0,1-.328-.374c-.14-.14-.257-.3-.374-.445-.094-.14-.211-.3-.3-.444-.094-.187-.211-.374-.3-.562a4.066,4.066,0,0,1-.234-.445c-.14-.3-.257-.632-.374-.959a4.027,4.027,0,0,1-.164-.491c-.117-.328-.211-.655-.3-1.006a.552.552,0,0,0-.047-.187c-1.006,4.305-2.878,6.177-7.019,7.23,4.141,1.053,6.013,2.925,7.019,7.23l.07-.211a8.508,8.508,0,0,1,.257-.912,6.452,6.452,0,0,1,.187-.632c.117-.3.234-.608.374-.889l.211-.421c.117-.211.234-.421.374-.632A3.049,3.049,0,0,1,14,977.2c.14-.21.328-.421.491-.632.07-.07.117-.14.187-.211a6.1,6.1,0,0,1,.842-.7.489.489,0,0,1,.14-.094,7.805,7.805,0,0,1,.866-.538c.07-.023.164-.07.234-.094a10.463,10.463,0,0,1,1.029-.445.332.332,0,0,1,.14-.047A10.634,10.634,0,0,1,19.312,974.017Z" transform="translate(8.18 -609.067)" fill="#0a142d"/>
          <path id="패스_9632" data-name="패스 9632" d="M145.1,657.973c-4.141,1.029-5.99,2.925-7.019,7.206,0-.047-.023-.07-.023-.117a14.884,14.884,0,0,0-.889-2.62.7.7,0,0,1-.094-.187,7.672,7.672,0,0,0-.515-.866c-.047-.07-.094-.141-.117-.187a8.2,8.2,0,0,0-.679-.842c-.023,0-.023-.023-.047-.023a7.01,7.01,0,0,0-1.942-1.4c-.023-.023-.07-.023-.094-.047a12.468,12.468,0,0,0-2.644-.936c.328-.094.632-.187.936-.3.07-.023.14-.023.211-.047.257-.094.491-.187.749-.3a2.863,2.863,0,0,0,.4-.164c.211-.094.421-.211.632-.3.14-.094.257-.164.4-.257a6.287,6.287,0,0,0,.8-.585c.14-.117.3-.234.445-.374a3.2,3.2,0,0,0,.374-.421c.117-.117.211-.257.328-.4a4.46,4.46,0,0,0,.328-.491c.094-.14.187-.3.281-.468.07-.14.164-.3.234-.468h.913l.889-.047C140.071,655.844,141.9,657.154,145.1,657.973Z" transform="translate(194.696 -549.784)" fill="#0a142d"/>
          <path id="패스_9633" data-name="패스 9633" d="M311.036,918.112v61.464a26.941,26.941,0,0,1-26.907,26.907H267.377l-5.686-5.709-.07-.07-.07-.21a22.19,22.19,0,0,0-.749-2.854c-.047-.164-.117-.3-.164-.445a21.687,21.687,0,0,0-1.193-2.714,2.549,2.549,0,0,0-.187-.351,22.763,22.763,0,0,0-1.638-2.574c-.047-.07-.117-.14-.164-.211a23.579,23.579,0,0,0-2.129-2.457l-.14-.14a24.179,24.179,0,0,0-3.112-2.574,1.742,1.742,0,0,0-.281-.164,22.221,22.221,0,0,0-12.518-3.814H72.853a22.512,22.512,0,0,0-16.074,6.692.623.623,0,0,0-.117.14l-.117.117a23.391,23.391,0,0,0-1.989,2.34.494.494,0,0,0-.094.14,19.725,19.725,0,0,0-1.614,2.574l-.211.351a25.232,25.232,0,0,0-1.17,2.691c-.047.14-.094.281-.164.445a23.3,23.3,0,0,0-.749,2.784c-.023.094-.047.164-.07.234,0,.024-.023.047-.047.07l-5.709,5.709H27.977A26.941,26.941,0,0,1,1.07,979.577v-.959c1.029-14.226,1.451-14.67,14.693-15.793a1.147,1.147,0,0,0,1.076-1.17,1.173,1.173,0,0,0-1.076-1.17c-6.926-.562-10.342-.983-12.167-3.252-1.661-2.082-2.036-5.709-2.527-12.471v-204.8l.819-9.8,9.476,7.043-7.043-9.476L20.4,725.343,4.322,724.266l7.043-9.476-9.476,7.043L1.07,711.749V700.893a26.941,26.941,0,0,1,26.907-26.907H48.052a1.164,1.164,0,0,0,1.17-1.123,24.221,24.221,0,0,1,24.006-23.257H87.1a1.112,1.112,0,0,0,.842-.351,1.125,1.125,0,0,0,.328-.866l-.023-.421c-.023-.234-.047-.491-.047-.749a17.06,17.06,0,0,1,17.033-17.01H122.2a1.159,1.159,0,0,0,1.17-1.17,1.173,1.173,0,0,0-1.17-1.17H105.234a19.451,19.451,0,0,0-16.565,9.312l-.491-.234a.966.966,0,0,0,.094-.515l-.023-.4c-.023-.257-.047-.491-.047-.749a17.045,17.045,0,0,1,17.033-17.01h30.58l15.419,19.233,6.27-7.791,6.247,7.791,15.442-19.233h27.7a17.015,17.015,0,0,1,17.01,17.01c0,.257-.023.491-.023.725l-.047.421a.966.966,0,0,0,.094.515l-.491.281A19.243,19.243,0,0,0,206.9,627.87H191.968a1.173,1.173,0,0,0-1.17,1.17,1.159,1.159,0,0,0,1.17,1.17H206.9a17.055,17.055,0,0,1,17.01,17.01c0,.257-.023.491-.023.725l-.047.445a1.125,1.125,0,0,0,.328.866,1.112,1.112,0,0,0,.842.351h13.875a24.274,24.274,0,0,1,24.029,23.257,1.164,1.164,0,0,0,1.17,1.123H284.13a27.105,27.105,0,0,1,26.252,21.057c-1.053,7.323-3.416,7.791-14.038,8.68a1.154,1.154,0,0,0-.983.749.95.95,0,0,0-.094.445,1.151,1.151,0,0,0,1.076,1.146c13.243,1.1,13.664,1.544,14.693,15.746V902.3l-.3,3.79-9.476-7.043,7.043,9.476-16.565,1.731,16.565,1.731-7.043,9.476,9.476-7.043Z" transform="translate(20.572 -596.728)" fill="#cce4ed"/>
          <path id="패스_9634" data-name="패스 9634" d="M161.406,663.6c-.023.374-.047.7-.07,1.029a29.457,29.457,0,0,0-26.813-17.665H115.571a26.108,26.108,0,0,0-2.831-9.92l.655-.351a1.2,1.2,0,0,0,1.076.678h20.051A27.016,27.016,0,0,1,161.406,663.6Z" transform="translate(170.179 -572.051)" fill="#cce4ed"/>
          <rect id="사각형_351" data-name="사각형 351" width="5.724" height="5.724" transform="translate(277.374 410.575) rotate(-45)" fill="#cce4ed"/>
          <path id="패스_9635" data-name="패스 9635" d="M135.581,650.239a1.368,1.368,0,0,0,.094.445l-.655.351a26.622,26.622,0,0,0-23.467-14.459H98.918v-.047a19.164,19.164,0,0,0-2.808-9.991l.491-.281a1.527,1.527,0,0,0,.234.351,1.132,1.132,0,0,0,.842.374h13.875A24.274,24.274,0,0,1,135.581,650.239Z" transform="translate(147.9 -586.037)" fill="#cce4ed"/>
          <path id="패스_9636" data-name="패스 9636" d="M229.721,791.72l-5.007,5.03a.83.83,0,0,0-.257.374,1.17,1.17,0,0,0,0,.889.832.832,0,0,0,.257.374l4.024,4.048a20.641,20.641,0,0,1-4.656,7.23,20.27,20.27,0,0,1-14.413,5.99H43.245a20.346,20.346,0,0,1-19.069-13.243l4.024-4.024a1.172,1.172,0,0,0,0-1.638l-5.03-5.03c.094-.515.211-1.006.351-1.521a11.919,11.919,0,0,1,.328-1.31c.187-.608.468-1.17.7-1.755.187-.4.328-.8.515-1.17a19.989,19.989,0,0,1,1.076-1.778c.211-.3.374-.632.585-.912a20.76,20.76,0,0,1,2.082-2.434l.023-.023a20.27,20.27,0,0,1,14.413-5.99H209.669a20.293,20.293,0,0,1,11.371,3.486.492.492,0,0,0,.14.094,21.337,21.337,0,0,1,2.9,2.433,18.925,18.925,0,0,1,2.106,2.434c.187.281.351.585.538.866.374.585.8,1.193,1.123,1.825.187.374.3.772.468,1.146a16.673,16.673,0,0,1,.725,1.778c.14.421.234.866.351,1.31C229.51,790.714,229.65,791.205,229.721,791.72Z" transform="translate(50.18 -386.995)" fill="#ffb4b4"/>
          <path id="패스_9637" data-name="패스 9637" d="M73.32,610.667,86.679,627.3,73.32,643.962l-4.75-5.943,8.587-10.693L68.57,616.61v-.023Z" transform="translate(111.004 -606.923)" fill="#cce4ed"/>
          <path id="패스_9638" data-name="패스 9638" d="M72,614l7.089,8.868L72,631.709l-7.113-8.844Z" transform="translate(106.073 -602.462)" fill="#0a142d"/>
          <path id="패스_9639" data-name="패스 9639" d="M72.9,610.657l4.773,5.966-8.61,10.716,8.61,10.693L72.9,643.975,59.54,627.316Z" transform="translate(98.906 -606.936)" fill="#cce4ed"/>
          <path id="패스_9640" data-name="패스 9640" d="M60.66,626.257l.491.234a19.271,19.271,0,0,0-2.808,10.037v.047H45.709a26.558,26.558,0,0,0-23.444,14.459l-.655-.351a1.368,1.368,0,0,0,.094-.445,24.221,24.221,0,0,1,24.006-23.257H59.584a1.132,1.132,0,0,0,.842-.374A1.528,1.528,0,0,0,60.66,626.257Z" transform="translate(48.09 -586.037)" fill="#cce4ed"/>
          <path id="패스_9641" data-name="패스 9641" d="M28.885,786.865l-4.048,4.048-4.048-4.048,2.106-2.106,1.942-1.942Z" transform="translate(46.992 -376.29)" fill="#cce4ed"/>
          <path id="패스_9642" data-name="패스 9642" d="M49.128,636.7l.655.351a26.108,26.108,0,0,0-2.831,9.92H27.977A29.3,29.3,0,0,0,1.07,664.774v-.491a26.941,26.941,0,0,1,26.907-26.907H48.052A1.2,1.2,0,0,0,49.128,636.7Z" transform="translate(20.572 -572.051)" fill="#cce4ed"/>
          <path id="패스_9643" data-name="패스 9643" d="M10.743,768.906c.281.094.562.187.866.281a10.634,10.634,0,0,0-1.38.421.333.333,0,0,0-.14.047,10.478,10.478,0,0,0-1.029.445c-.07.023-.164.07-.234.093a7.805,7.805,0,0,0-.866.538.488.488,0,0,0-.14.094,6.1,6.1,0,0,0-.842.7c-.07.07-.117.14-.187.211-.164.21-.351.421-.491.632a3.049,3.049,0,0,0-.234.351c-.14.21-.257.421-.374.632l-.211.421c-.14.281-.257.585-.374.889a6.453,6.453,0,0,0-.187.632,8.513,8.513,0,0,0-.257.913l-.07.211c-1.006-4.305-2.878-6.177-7.019-7.23,4.141-1.053,6.013-2.925,7.019-7.23a.552.552,0,0,1,.047.187c.094.351.187.679.3,1.006a4.034,4.034,0,0,0,.164.491c.117.328.234.655.374.959a4.065,4.065,0,0,0,.234.445c.094.187.211.374.3.562.094.14.211.3.3.444.117.141.234.3.374.445a4.643,4.643,0,0,0,.328.374,9.38,9.38,0,0,0,.725.632,5.6,5.6,0,0,0,.491.3c.14.094.281.187.445.281.187.094.4.187.608.281a2.542,2.542,0,0,0,.445.187l.7.281C10.532,768.859,10.649,768.883,10.743,768.906Z" transform="translate(15.883 -404.237)" fill="#0a142d"/>
        </g>
      </g>
      <g id="그룹_635" data-name="그룹 635" transform="translate(127.159 1006.483)">
        <path id="패스_9644" data-name="패스 9644" d="M56.037,779.055a7.421,7.421,0,0,1,4.689,1.205,4.493,4.493,0,0,1,1.488,3.706v.508a4.682,4.682,0,0,1-.183,1.306,3.715,3.715,0,0,1-.576,1.165,3.832,3.832,0,0,1-1.025.941,5.089,5.089,0,0,1-1.53.632,5.367,5.367,0,0,1,3.131,1.376,4.3,4.3,0,0,1,1.109,3.2v.615a5.18,5.18,0,0,1-1.446,3.9q-1.446,1.408-4.731,1.406H51.321a1.856,1.856,0,0,1-1.292-.351,1.706,1.706,0,0,1-.365-1.252V780.653a1.7,1.7,0,0,1,.365-1.247,1.843,1.843,0,0,1,1.292-.351Zm-5.11,8.928H56.29a5.98,5.98,0,0,0,3.383-.856,3.056,3.056,0,0,0,1.277-2.737v-.424A3.569,3.569,0,0,0,59.87,781.2a5.454,5.454,0,0,0-3.72-1H50.927Zm0,9.883h6.149q4.773,0,4.773-4.158v-.531a3.666,3.666,0,0,0-1.263-3,6.789,6.789,0,0,0-4.268-1.041H50.927Z" transform="translate(-49.664 -778.746)"/>
        <path id="패스_9645" data-name="패스 9645" d="M68.667,779.055a.406.406,0,0,1,.365.169.841.841,0,0,1,0,.84.4.4,0,0,1-.365.171H58.5v7.946h9.6a.381.381,0,0,1,.337.166.7.7,0,0,1,.112.393.745.745,0,0,1-.112.424.376.376,0,0,1-.337.166H58.5v8.51h10.36a.405.405,0,0,1,.365.166.757.757,0,0,1,.112.424.743.743,0,0,1-.112.421.406.406,0,0,1-.365.168h-10a1.856,1.856,0,0,1-1.292-.351,1.706,1.706,0,0,1-.365-1.252V780.653a1.7,1.7,0,0,1,.365-1.247,1.843,1.843,0,0,1,1.292-.351Z" transform="translate(-39.552 -778.746)"/>
        <path id="패스_9646" data-name="패스 9646" d="M70.789,778.923a12.722,12.722,0,0,1,3.145.365,7.952,7.952,0,0,1,2.415,1.011.593.593,0,0,1,.2.842.528.528,0,0,1-.814.2,8.417,8.417,0,0,0-2.2-.9,10.688,10.688,0,0,0-2.709-.335,7.181,7.181,0,0,0-1.993.267,5.069,5.069,0,0,0-1.6.758,3.557,3.557,0,0,0-1.053,1.193,3.2,3.2,0,0,0-.379,1.544v.449a3.76,3.76,0,0,0,.253,1.432,2.689,2.689,0,0,0,.828,1.081,5.43,5.43,0,0,0,1.5.812,15.063,15.063,0,0,0,2.274.634,27.9,27.9,0,0,1,3.369.924,7.129,7.129,0,0,1,2.092,1.111,3.321,3.321,0,0,1,1.067,1.46,5.909,5.909,0,0,1,.295,1.979v.646a4.417,4.417,0,0,1-.477,2.033,4.683,4.683,0,0,1-1.362,1.617,6.986,6.986,0,0,1-2.12,1.067,9.046,9.046,0,0,1-2.752.393,11.449,11.449,0,0,1-3.524-.519,11.089,11.089,0,0,1-2.85-1.362.58.58,0,0,1-.2-.87.521.521,0,0,1,.814-.227,12.591,12.591,0,0,0,2.653,1.308,9.445,9.445,0,0,0,3.159.491,7.5,7.5,0,0,0,2.162-.295,5.372,5.372,0,0,0,1.7-.831,3.884,3.884,0,0,0,1.109-1.247,3.192,3.192,0,0,0,.393-1.558v-.533a4.556,4.556,0,0,0-.239-1.572,2.558,2.558,0,0,0-.884-1.14,6.279,6.279,0,0,0-1.811-.87q-1.165-.376-3.018-.8a17.286,17.286,0,0,1-2.5-.716,6.336,6.336,0,0,1-1.783-1,3.833,3.833,0,0,1-1.081-1.4,4.713,4.713,0,0,1-.365-1.94v-.615a4.311,4.311,0,0,1,.477-2.036,4.573,4.573,0,0,1,1.32-1.547,6.28,6.28,0,0,1,1.993-.969A8.952,8.952,0,0,1,70.789,778.923Z" transform="translate(-30.359 -778.923)"/>
        <path id="패스_9647" data-name="패스 9647" d="M85.4,779.055a.406.406,0,0,1,.365.169.841.841,0,0,1,0,.84.4.4,0,0,1-.365.171H79V798.6a.418.418,0,0,1-.2.393.972.972,0,0,1-.477.112.874.874,0,0,1-.423-.112.414.414,0,0,1-.2-.393V780.234h-6.4a.407.407,0,0,1-.367-.171.857.857,0,0,1,0-.84.41.41,0,0,1,.367-.169Z" transform="translate(-21.305 -778.746)"/>
        <path id="패스_9648" data-name="패스 9648" d="M87.614,778.923a7.576,7.576,0,0,1,2.429.365,5.434,5.434,0,0,1,1.839,1.025,4.568,4.568,0,0,1,1.179,1.6,4.991,4.991,0,0,1,.419,2.064v.14a5.162,5.162,0,0,1-.166,1.249,4.2,4.2,0,0,1-.59,1.292,4.914,4.914,0,0,1-1.123,1.165,6.154,6.154,0,0,1-1.8.9,5.619,5.619,0,0,1,3.3,1.631,4.362,4.362,0,0,1,1.165,3.06v.278a6.262,6.262,0,0,1-.379,2.164,5.252,5.252,0,0,1-1.165,1.853,5.719,5.719,0,0,1-2.007,1.305,7.906,7.906,0,0,1-2.936.491,9.969,9.969,0,0,1-3.3-.55,10.186,10.186,0,0,1-2.737-1.388.594.594,0,0,1-.168-.9.545.545,0,0,1,.87-.169,10.327,10.327,0,0,0,2.485,1.32,8.2,8.2,0,0,0,2.878.505,5.968,5.968,0,0,0,2.3-.407,4.854,4.854,0,0,0,1.631-1.067,4.265,4.265,0,0,0,.952-1.474A4.648,4.648,0,0,0,93,793.72v-.227a3.746,3.746,0,0,0-.55-2.134,3.8,3.8,0,0,0-1.345-1.247,5.5,5.5,0,0,0-1.685-.59,9.339,9.339,0,0,0-1.586-.154H85.985a.405.405,0,0,1-.365-.171.712.712,0,0,1-.112-.419.725.725,0,0,1,.112-.421.4.4,0,0,1,.365-.169H87.78a5.2,5.2,0,0,0,1.448-.225,4.6,4.6,0,0,0,1.446-.718,3.871,3.871,0,0,0,1.109-1.275,3.983,3.983,0,0,0,.435-1.94v-.084a3.571,3.571,0,0,0-1.193-2.763,4.869,4.869,0,0,0-3.383-1.081,5.256,5.256,0,0,0-2.611.615,6,6,0,0,0-1.883,1.687.5.5,0,0,1-.812.112.543.543,0,0,1-.171-.842,6.494,6.494,0,0,1,5.449-2.752Z" transform="translate(-7.09 -778.923)"/>
      </g>
    </g>
  </g>
</svg>
