<svg xmlns="http://www.w3.org/2000/svg" width="298.147" height="227.483" viewBox="0 0 298.147 227.483">
  <g id="그룹_623" data-name="그룹 623" transform="translate(-344.702 -146.081)">
    <g id="그룹_622" data-name="그룹 622" transform="translate(344.702 178.124)">
      <g id="그룹_620" data-name="그룹 620">
        <g id="그룹_618" data-name="그룹 618" transform="translate(10.743)">
          <path id="패스_9578" data-name="패스 9578" d="M384.836,201.7a3.339,3.339,0,0,0-2.84-3.234c-6.467-.985-9.242-6.856-9.242-6.856s-2.777,5.872-9.242,6.856a3.342,3.342,0,0,0-2.842,3.234Z" transform="translate(-332.589 -112.956)" fill="#84c0c8"/>
          <path id="패스_9579" data-name="패스 9579" d="M369.468,210.957H364.65l1.063-30.526H368.4Z" transform="translate(-326.893 -128.956)" fill="#7a3c29"/>
          <path id="패스_9580" data-name="패스 9580" d="M374.267,206.947c7.148-3.263,9.028-22.585,9.028-22.585l-11.111-4.7-11.114,4.7s1.882,19.322,9.028,22.585Z" transform="translate(-332.018 -130.063)" fill="#84c0c8"/>
          <path id="패스_9581" data-name="패스 9581" d="M370.255,204.27h3.856c7.28-3.039,9.183-22.677,9.183-22.677H361.07s1.9,19.638,9.186,22.677Z" transform="translate(-332.018 -127.294)" fill="#66a9b5"/>
          <path id="패스_9582" data-name="패스 9582" d="M370.73,194.958l-.813-25.062H365.14l-.817,25.062Z" transform="translate(-327.362 -144.036)" fill="#7a3c29"/>
          <rect id="사각형_337" data-name="사각형 337" width="1.914" height="37.812" transform="translate(56.632 31.308)" fill="#4e4942"/>
          <path id="패스_9583" data-name="패스 9583" d="M404.288,159.26H374.283l-25.162,35.862s15.891,7.561,40.166,7.561,40.163-7.561,40.163-7.561Z" transform="translate(-349.121 -159.26)" fill="#ecb64d"/>
          <path id="패스_9584" data-name="패스 9584" d="M376.095,202.144c17.858-1.729,28.994-7.022,28.994-7.022L379.927,159.26H366.141Z" transform="translate(-324.76 -159.26)" fill="#dca438"/>
          <rect id="사각형_338" data-name="사각형 338" width="4.164" height="4.934" rx="0.848" transform="translate(55.507 65.263)" fill="#84c0c8"/>
        </g>
        <g id="그룹_619" data-name="그룹 619" transform="translate(0 88.744)">
          <rect id="사각형_339" data-name="사각형 339" width="101.819" height="106.696" fill="#96532f"/>
          <rect id="사각형_340" data-name="사각형 340" width="85.624" height="26.445" transform="translate(8.096 6.17)" fill="#7a3c29"/>
          <rect id="사각형_341" data-name="사각형 341" width="85.624" height="26.447" transform="translate(8.096 40.074)" fill="#7a3c29"/>
          <rect id="사각형_342" data-name="사각형 342" width="85.624" height="26.446" transform="translate(8.096 73.978)" fill="#7a3c29"/>
          <path id="패스_9585" data-name="패스 9585" d="M370.914,205.69a3.319,3.319,0,1,1-3.319-3.319A3.317,3.317,0,0,1,370.914,205.69Z" transform="translate(-316.686 -186.298)" fill="#ecb64d"/>
          <path id="패스_9586" data-name="패스 9586" d="M370.914,219.656a3.319,3.319,0,1,1-3.319-3.319A3.317,3.317,0,0,1,370.914,219.656Z" transform="translate(-316.686 -166.307)" fill="#ecb64d"/>
          <path id="패스_9587" data-name="패스 9587" d="M370.914,233.622a3.319,3.319,0,1,1-3.319-3.319A3.319,3.319,0,0,1,370.914,233.622Z" transform="translate(-316.686 -146.317)" fill="#ecb64d"/>
        </g>
      </g>
      <g id="그룹_621" data-name="그룹 621" transform="translate(112.446 51.476)">
        <rect id="사각형_343" data-name="사각형 343" width="185.702" height="80.783" fill="#7a3c29"/>
        <rect id="사각형_344" data-name="사각형 344" width="185.702" height="66.623" transform="translate(0 77.342)" fill="#96532f"/>
        <rect id="사각형_345" data-name="사각형 345" width="78.022" height="48.771" transform="translate(10.592 13.787)" fill="#b6968a"/>
        <rect id="사각형_346" data-name="사각형 346" width="78.022" height="48.771" transform="translate(97.088 13.787)" fill="#b6968a"/>
        <path id="패스_9588" data-name="패스 9588" d="M563,225.171H399.131c-3.462,0-6.268-2.395-6.268-5.349V208.558c0-2.954,2.806-5.349,6.268-5.349H563c3.46,0,6.268,2.395,6.268,5.349v11.264C569.267,222.776,566.458,225.171,563,225.171Z" transform="translate(-388.213 -147.83)" fill="#e8d6be"/>
        <path id="패스_9589" data-name="패스 9589" d="M457.907,200.867a22.422,22.422,0,0,0-10.231-2.422l-16.5.068-16.5-.068a22.429,22.429,0,0,0-10.231,2.422l-6.633,3.358,6.633,3.358A22.4,22.4,0,0,0,414.675,210l16.5-.066,16.5.066a22.391,22.391,0,0,0,10.231-2.422l6.633-3.358Z" transform="translate(-381.131 -154.649)" fill="#f0eae8"/>
        <path id="패스_9590" data-name="패스 9590" d="M493.121,200.867a22.431,22.431,0,0,0-10.233-2.422l-16.5.068-16.5-.068a22.421,22.421,0,0,0-10.231,2.422l-6.633,3.358,6.633,3.358A22.391,22.391,0,0,0,449.887,210l16.5-.066,16.5.066a22.4,22.4,0,0,0,10.233-2.422l6.628-3.358Z" transform="translate(-330.731 -154.649)" fill="#f0eae8"/>
      </g>
    </g>
    <path id="패스_9591" data-name="패스 9591" d="M412.225,168.267l-3.848-1.421-3.364,2.367.163-4.109-3.291-2.456,3.959-1.118,1.323-3.886,2.28,3.416,4.114.059-2.546,3.223Z" transform="translate(81.849 16.55)" fill="#ecb64d"/>
    <path id="패스_9592" data-name="패스 9592" d="M446.674,157.8l-5.076-.766-3.509,3.749-.844-5.063-4.648-2.187,4.554-2.358.633-5.1,3.665,3.6,5.042-.971-2.3,4.593Z" transform="translate(125.807 0)" fill="#ecb64d"/>
    <path id="패스_9593" data-name="패스 9593" d="M396.284,151.4l2.44-1.207.4-2.7,1.9,1.947,2.688-.453-1.272,2.41,1.272,2.414-2.688-.458-1.9,1.952-.4-2.7Z" transform="translate(73.831 2.03)" fill="#ecb64d"/>
    <path id="패스_9594" data-name="패스 9594" d="M420.767,149.447l2.218.946,2.037-1.288-.223,2.4,1.853,1.537-2.349.539-.89,2.243-1.232-2.072-2.4-.158,1.584-1.811Z" transform="translate(107.461 4.329)" fill="#ecb64d"/>
    <path id="패스_9595" data-name="패스 9595" d="M436.925,164.258l3.279.838,2.547-2.221.218,3.373,2.9,1.738-3.141,1.245-.753,3.3-2.157-2.6-3.364.3,1.805-2.854Z" transform="translate(131.323 24.038)" fill="#ecb64d"/>
    <path id="패스_9596" data-name="패스 9596" d="M445.076,162.4l2.529-1.25.407-2.795,1.968,2.016,2.786-.471-1.314,2.5,1.314,2.5-2.786-.48-1.968,2.024-.407-2.794Z" transform="translate(143.669 17.575)" fill="#ecb64d"/>
    <path id="패스_9597" data-name="패스 9597" d="M426.248,159.429l1.912-.385.766-1.8.963,1.7,1.948.171-1.322,1.438.437,1.905-1.776-.813-1.674,1.01.219-1.943Z" transform="translate(116.72 15.982)" fill="#ecb64d"/>
    <path id="패스_9598" data-name="패스 9598" d="M417.48,167.042l1.912-.385.766-1.8.963,1.7,1.948.171-1.322,1.438.437,1.905-1.776-.813-1.674,1.01.219-1.943Z" transform="translate(104.17 26.879)" fill="#ecb64d"/>
    <path id="패스_9599" data-name="패스 9599" d="M473.911,167.237a12.393,12.393,0,0,1-9.254-20.649,15.289,15.289,0,1,0,17.5,17.5A12.346,12.346,0,0,1,473.911,167.237Z" transform="translate(153.245 0.726)" fill="#ecb64d"/>
  </g>
</svg>
