<svg xmlns="http://www.w3.org/2000/svg" width="300.332" height="199.058" viewBox="0 0 300.332 199.058">
  <g id="그룹_617" data-name="그룹 617" transform="translate(-80.153 -109.378)">
    <g id="그룹_612" data-name="그룹 612" transform="translate(248.624 155.796)">
      <path id="패스_9538" data-name="패스 9538" d="M193.965,152.238s-24.181,5.116-37.507,16.719c-7,6.1-13.177,15.19-6.942,23.86,2.3,3.2,8.291,5.585,15.132,2.616,14.043-6.1,32.078-23.686,32.078-23.686Z" transform="translate(-146.941 -90.543)" fill="#dda64b"/>
      <path id="패스_9539" data-name="패스 9539" d="M178.274,152.238a120.749,120.749,0,0,0-13.326,3.862c-5.249,6.369-8.748,17.024-7.416,34.614,11.861-7.625,23.5-18.967,23.5-18.967Z" transform="translate(-131.249 -90.543)" fill="#e7d4a4" opacity="0.5" style="mix-blend-mode: multiply;isolation: isolate"/>
      <path id="패스_9540" data-name="패스 9540" d="M182.242,152.238s24.178,5.116,37.507,16.719c7,6.1,13.177,15.19,6.942,23.86-2.3,3.2-8.291,5.585-15.132,2.616-14.043-6.1-32.081-23.686-32.081-23.686Z" transform="translate(-97.405 -90.543)" fill="#dda64b"/>
      <path id="패스_9541" data-name="패스 9541" d="M195.23,155.981a120.845,120.845,0,0,0-12.988-3.743l-2.765,19.509s11.482,11.177,23.255,18.8C204.043,172.953,200.5,162.325,195.23,155.981Z" transform="translate(-97.405 -90.543)" fill="#e7d4a4" opacity="0.5" style="mix-blend-mode: multiply;isolation: isolate"/>
      <path id="패스_9542" data-name="패스 9542" d="M240.374,161.032c0,16.8-18.79,30.426-41.967,30.426s-41.967-13.624-41.967-30.426,18.788-30.424,41.967-30.424S240.374,144.229,240.374,161.032Z" transform="translate(-132.477 -123.474)" fill="#dda64b"/>
      <path id="패스_9543" data-name="패스 9543" d="M205.406,131.317a15.481,15.481,0,1,1-21.941,2.149A15.582,15.582,0,0,1,205.406,131.317Z" transform="translate(-96.53 -127.78)" fill="#dda64b"/>
      <path id="패스_9544" data-name="패스 9544" d="M159.6,131.317a15.481,15.481,0,1,0,21.941,2.149A15.585,15.585,0,0,0,159.6,131.317Z" transform="translate(-136.611 -127.78)" fill="#dda64b"/>
      <path id="패스_9545" data-name="패스 9545" d="M198.7,132.238a10.063,10.063,0,1,1-14.262,1.4A10.133,10.133,0,0,1,198.7,132.238Z" transform="translate(-93.233 -124.491)" fill="#9e603e"/>
      <path id="패스_9546" data-name="패스 9546" d="M159.708,132.238a10.063,10.063,0,1,0,14.26,1.4A10.131,10.131,0,0,0,159.708,132.238Z" transform="translate(-133.313 -124.491)" fill="#9e603e"/>
      <path id="패스_9547" data-name="패스 9547" d="M198.289,135.356A12.828,12.828,0,0,0,187.4,141.4a12.852,12.852,0,1,0,0,13.621,12.847,12.847,0,1,0,10.885-19.663Z" transform="translate(-121.474 -116.245)" fill="#9e603e"/>
      <path id="패스_9548" data-name="패스 9548" d="M257.2,213.71l-18.1-14.688c6.034-56.13-34.359-46.785-34.359-46.785s-40.393-9.346-34.361,46.785l-18.1,14.688s-1.312,25.179,26.229,19.408l11.016-18.1,15.213.525,15.213-.525,11.016,18.1C258.515,238.889,257.2,213.71,257.2,213.71Z" transform="translate(-138.815 -91.432)" fill="#dda64b"/>
      <path id="패스_9549" data-name="패스 9549" d="M185.905,204.125c-5.413,8.143-17.821,9.411-27.715,2.835s-13.521-18.51-8.107-26.65S167.9,170.9,177.8,177.475,191.318,195.983,185.905,204.125Z" transform="translate(-145.979 -58.53)" fill="#c58023"/>
      <path id="패스_9550" data-name="패스 9550" d="M184.9,204.125c5.413,8.143,17.819,9.411,27.712,2.835s13.523-18.51,8.11-26.65S202.9,170.9,193.01,177.475,179.489,195.983,184.9,204.125Z" transform="translate(-92.968 -58.53)" fill="#c58023"/>
      <path id="패스_9551" data-name="패스 9551" d="M177.515,198.479c-3.912,5.882-12.877,6.8-20.023,2.048s-9.77-13.374-5.86-19.257,12.877-6.8,20.023-2.048S181.425,192.6,177.515,198.479Z" transform="translate(-142.558 -54.089)" fill="#9e603e"/>
      <path id="패스_9552" data-name="패스 9552" d="M186.452,198.479c3.912,5.882,12.877,6.8,20.023,2.048s9.77-13.374,5.857-19.257-12.875-6.8-20.021-2.048S182.54,192.6,186.452,198.479Z" transform="translate(-89.548 -54.089)" fill="#9e603e"/>
      <g id="그룹_607" data-name="그룹 607" transform="translate(40.875 62.401)">
        <path id="패스_9553" data-name="패스 9553" d="M172.08,158.671c2.167-.6,11.891,1.73,15.871,4.4-5.94-4.5-20.715-14.736-23.492-8.7-4.591,9.981,2.744,35.085,23.628,8.831l-.136-.134C172.054,178.929,167.537,159.924,172.08,158.671Z" transform="translate(-163.145 -152.518)" fill="#84c0c8"/>
        <path id="패스_9554" data-name="패스 9554" d="M187.591,158.322c-1.97-.477-10.819,1.372-14.439,3.5,5.4-3.587,18.843-11.742,21.37-6.929,4.177,7.951-2.5,27.949-21.5,7.035l.126-.106C187.614,174.458,191.723,159.316,187.591,158.322Z" transform="translate(-148.101 -151.15)" fill="#84c0c8"/>
        <path id="패스_9555" data-name="패스 9555" d="M180.963,156.7l-13.228,13.859,7.718,5.846Z" transform="translate(-156.157 -146.147)" fill="#84c0c8"/>
        <path id="패스_9556" data-name="패스 9556" d="M178.682,175.73l8.194-5.745-13.843-13.231Z" transform="translate(-148.09 -146.067)" fill="#84c0c8"/>
      </g>
      <path id="패스_9557" data-name="패스 9557" d="M212.194,158.208c0,9.27-10.92,16.787-24.392,16.787s-24.395-7.517-24.395-16.787,10.922-16.787,24.395-16.787S212.194,148.938,212.194,158.208Z" transform="translate(-121.871 -107.011)" fill="#f0ca99"/>
      <g id="그룹_611" data-name="그룹 611" transform="translate(47.953 27.241)">
        <path id="패스_9558" data-name="패스 9558" d="M176.316,143.3a4.721,4.721,0,1,1-4.722-4.722A4.72,4.72,0,0,1,176.316,143.3Z" transform="translate(-164.546 -138.579)" fill="#4e4942"/>
        <path id="패스_9559" data-name="패스 9559" d="M184.981,143.3a4.721,4.721,0,1,1-4.722-4.722A4.72,4.72,0,0,1,184.981,143.3Z" transform="translate(-151.353 -138.579)" fill="#4e4942"/>
        <g id="그룹_609" data-name="그룹 609" transform="translate(0 22.755)">
          <g id="그룹_608" data-name="그룹 608" transform="translate(1.834 2.275)">
            <path id="패스_9560" data-name="패스 9560" d="M182.822,158.085c-11.52,0-15.96-8.256-16.144-8.607l1.859-.976c.161.305,4.076,7.484,14.285,7.484,10.261,0,14.242-7.406,14.282-7.482l1.859.974C198.782,149.829,194.34,158.085,182.822,158.085Z" transform="translate(-166.678 -148.502)" fill="#4e4942"/>
          </g>
          <path id="패스_9561" data-name="패스 9561" d="M183.542,150.365a2.765,2.765,0,1,1-2.765-2.765A2.766,2.766,0,0,1,183.542,150.365Z" transform="translate(-147.587 -147.6)" fill="#4e4942"/>
          <path id="패스_9562" data-name="패스 9562" d="M171.48,150.365a2.765,2.765,0,1,1-2.765-2.765A2.766,2.766,0,0,1,171.48,150.365Z" transform="translate(-165.951 -147.6)" fill="#4e4942"/>
        </g>
        <g id="그룹_610" data-name="그룹 610" transform="translate(16.928 11.532)">
          <rect id="사각형_336" data-name="사각형 336" width="2.099" height="29.211" fill="#4e4942"/>
        </g>
        <path id="패스_9563" data-name="패스 9563" d="M192.913,148.363c0-4.187-5.555-7.585-12.406-7.585s-12.408,3.4-12.408,7.585,5.557,7.583,12.408,7.583S192.913,152.55,192.913,148.363Z" transform="translate(-162.681 -135.231)" fill="#4e4942"/>
      </g>
    </g>
    <path id="패스_9564" data-name="패스 9564" d="M215.267,168.827c-.964-7.782-3.415-12.524-5.792-17.08,1.859-4.379,2.026-11.1-1.309-13.816-4.344-3.539-14.141.1-16.442,4.2-10.93.515-19.027-1.236-35.85.525-6.957.729-14.6,1.511-21.557,2.2-17.115,1.7-24.652,5.138-35.756,6.816-3.05-3.577-13.43-5.186-16.979-.83-2.845,3.494-1.044,10.521,1.9,14.34a44.634,44.634,0,0,0-2.053,17.3c.747,9.263,1.751,19.726,2.825,28.454.865,7.018,2.868,11.255,4.379,15.591-2.5,4.311-3.105,12.416.674,15.5,4.331,3.529,13.975.093,16.666-3.968,10.473-.368,18.449,1.511,35.668-.457,8.223-.938,17.541-1.889,25.785-2.631,16.966-1.524,24.425-4.891,34.487-6.672,3.481,3.413,13.579,4.808,17.1.489,2.929-3.595,1.054-10.847-1.99-14.749.58-4.765,1.819-9.409,1.223-16.775C217.538,188.5,216.407,178.049,215.267,168.827Z" transform="translate(0 41.292)" fill="#002792"/>
    <path id="패스_9565" data-name="패스 9565" d="M85.207,149.754s-8.529,25.132,5.449,53.393C90.656,203.147,99.774,171.536,85.207,149.754Z" transform="translate(3.772 61.472)" fill="#fbf2df"/>
    <path id="패스_9566" data-name="패스 9566" d="M213.893,147.784C174,177.5,124.746,195.441,80.62,163.325c.025.648.048,1.294.1,1.98.747,9.263,1.751,19.726,2.825,28.454.865,7.018,2.868,11.255,4.379,15.591-2.5,4.311-3.105,12.416.673,15.5,4.331,3.529,13.975.093,16.666-3.968,10.473-.368,18.449,1.511,35.668-.457,8.223-.938,17.541-1.889,25.785-2.631,16.966-1.524,24.425-4.891,34.487-6.672,3.481,3.413,13.579,4.808,17.1.489,2.929-3.595,1.054-10.847-1.99-14.749.58-4.765,1.819-9.409,1.223-16.775-.711-8.766-1.841-19.216-2.982-28.438C214.385,150.259,214.15,148.995,213.893,147.784Z" transform="translate(0.711 58.473)" fill="#a6c7c9" opacity="0.54" style="mix-blend-mode: multiply;isolation: isolate"/>
    <path id="패스_9567" data-name="패스 9567" d="M234.447,181.214c-.166-7.84-2.124-12.807-4.026-17.582,2.3-4.165,3.141-10.834.1-13.876-3.963-3.963-14.078-1.334-16.785,2.515-10.927-.6-18.8-3.161-35.718-3.118-6.992.02-14.676.02-21.668,0-17.2-.043-25.046,2.611-36.263,3.151-2.671-3.867-12.832-6.521-16.807-2.548-3.186,3.186-2.106,10.36.439,14.459a44.622,44.622,0,0,0-3.8,17c-.2,9.29-.262,19.8-.076,28.595.146,7.065,1.708,11.485,2.772,15.955-2.924,4.036-4.351,12.035-.9,15.483,3.948,3.95,13.891,1.514,16.981-2.255,10.458.7,18.2,3.378,35.532,3.168,8.274-.1,17.64-.1,25.916,0,17.034.207,24.8-2.386,34.987-3.135,3.118,3.748,13.021,6.162,16.959,2.222,3.282-3.279,2.152-10.683-.482-14.873,1.062-4.682,2.765-9.177,2.919-16.565C234.709,201.016,234.646,190.5,234.447,181.214Z" transform="translate(29.757 58.478)" fill="#608bca"/>
    <path id="패스_9568" data-name="패스 9568" d="M106.227,156.392s-11.036,24.138,0,53.671C106.227,210.063,118.509,179.541,106.227,156.392Z" transform="translate(32.23 71.578)" fill="#fbf2df"/>
    <path id="패스_9569" data-name="패스 9569" d="M234.179,159.489c-42.7,25.507-93.524,38.362-134.161,1.93-.04.646-.083,1.292-.1,1.98-.2,9.29-.262,19.8-.076,28.595.146,7.065,1.708,11.485,2.772,15.955-2.924,4.036-4.351,12.035-.9,15.483,3.948,3.95,13.891,1.514,16.981-2.255,10.458.7,18.2,3.378,35.532,3.168,8.274-.1,17.64-.1,25.916,0,17.034.207,24.8-2.386,34.987-3.135,3.118,3.748,13.021,6.162,16.959,2.222,3.282-3.279,2.152-10.683-.482-14.873,1.062-4.682,2.765-9.177,2.919-16.565.184-8.793.121-19.3-.078-28.595C234.416,162,234.315,160.72,234.179,159.489Z" transform="translate(29.757 76.293)" fill="#a6c7c9" opacity="0.35" style="mix-blend-mode: multiply;isolation: isolate"/>
    <g id="그룹_613" data-name="그룹 613" transform="translate(169.215 222.738)">
      <path id="패스_9570" data-name="패스 9570" d="M121.639,165.113l-2.413-2.91-3.766.337,2.022-3.195L116,155.868l3.663.936,2.848-2.487.241,3.773,3.245,1.94-3.514,1.4Z" transform="translate(-115.46 -154.318)" fill="#ecb64d"/>
    </g>
    <g id="그룹_614" data-name="그룹 614" transform="translate(207.907 243.932)">
      <path id="패스_9571" data-name="패스 9571" d="M136.564,172.792l-2.251-2.716-3.514.315,1.887-2.981-1.386-3.244,3.418.874,2.657-2.32.225,3.521,3.028,1.81-3.279,1.3Z" transform="translate(-130.799 -162.72)" fill="#ecb64d"/>
    </g>
    <g id="그룹_615" data-name="그룹 615" transform="translate(105.196 207.823)">
      <path id="패스_9572" data-name="패스 9572" d="M95.846,158.478l-2.251-2.716-3.514.315,1.887-2.981-1.386-3.244,3.418.874,2.657-2.321.225,3.521,3.028,1.81-3.279,1.3Z" transform="translate(-90.081 -148.405)" fill="#ecb64d"/>
    </g>
    <g id="그룹_616" data-name="그룹 616" transform="translate(156.4 109.378)">
      <path id="패스_9573" data-name="패스 9573" d="M131.872,149.111l-21.282,1.125-.209-3.93,13.377-18.994-12.91.684-.23-4.346,19.08-1.009.2,3.857L116.53,145.564l15.112-.8Z" transform="translate(-110.38 -89.187)" fill="#4e4942"/>
      <path id="패스_9574" data-name="패스 9574" d="M121.865,133.829l-1.665-4.288L129.336,126,131,130.283Z" transform="translate(-95.429 -84.076)" fill="#4e4942"/>
      <path id="패스_9575" data-name="패스 9575" d="M133.949,144.9l-1.973-3.188,1.41-15.942-7.5,4.641-2.015-3.251,12.466-7.719,1.993,3.221-1.4,15.849,8.892-5.5,2.033,3.284Z" transform="translate(-89.836 -94.062)" fill="#4e4942"/>
      <path id="패스_9576" data-name="패스 9576" d="M135.755,128.277l-3.544-2.931,6.246-7.552L142,120.725Z" transform="translate(-77.143 -96.565)" fill="#4e4942"/>
      <path id="패스_9577" data-name="패스 9577" d="M150.929,131.995l-3.4-1.589-7.545-14.116-3.736,7.991-3.466-1.624L139,109.378l3.431,1.6,7.5,14.035,4.432-9.474,3.5,1.635Z" transform="translate(-76.266 -109.378)" fill="#4e4942"/>
    </g>
  </g>
</svg>
