<svg xmlns="http://www.w3.org/2000/svg" xmlns:xlink="http://www.w3.org/1999/xlink" width="306.282" height="250.048" viewBox="0 0 306.282 250.048">
  <defs>
    <clipPath id="clip-path">
      <path id="패스_9525" data-name="패스 9525" d="M223.388,392.286l-32.167-22.041v-32.4H155.7V370.8l-31.965,21.5a28.792,28.792,0,0,0-12.719,23.888v71.745a20.644,20.644,0,0,0,20.643,20.643h83.6A20.643,20.643,0,0,0,235.9,487.938v-71.9A28.788,28.788,0,0,0,223.388,392.286Z" transform="translate(-111.018 -337.848)" fill="none"/>
    </clipPath>
  </defs>
  <g id="그룹_606" data-name="그룹 606" transform="translate(-78.61 -291.093)">
    <g id="그룹_584" data-name="그룹 584" transform="translate(299.944 412.07)">
      <g id="그룹_580" data-name="그룹 580" transform="translate(39.737 38.861)">
        <path id="패스_9503" data-name="패스 9503" d="M232.514,386.246s11.278-3.238,14.3,2.372S232.178,404.56,232.514,386.246Z" transform="translate(-232.509 -385.316)" fill="#6aa264"/>
      </g>
      <g id="그룹_581" data-name="그룹 581" transform="translate(29.882 24.78)">
        <path id="패스_9504" data-name="패스 9504" d="M236.241,392.051s4.66-10.769-.516-14.484S218.035,390.033,236.241,392.051Z" transform="translate(-226.7 -377.015)" fill="#6aa264"/>
      </g>
      <g id="그룹_582" data-name="그룹 582" transform="translate(0 27.349)">
        <path id="패스_9505" data-name="패스 9505" d="M209.819,426.114l-.734-1.421,53.14-46.163.734,1.421Z" transform="translate(-209.085 -378.53)" fill="#6aa264"/>
      </g>
      <g id="그룹_583" data-name="그룹 583" transform="translate(50.83)">
        <path id="패스_9506" data-name="패스 9506" d="M272.727,385.514c.872-2.046-1.383-4.358-4.042-6.243a36.651,36.651,0,0,0-3.116-1.959c2.322-2.034,10.087-9.276,6.8-12.472-2.416-2.348-7.854,1.973-11.221,5.125-.109-.521-.227-1.045-.363-1.564-.823-3.155-2.187-6.082-4.409-5.992-3.378.139-2.984,9.771-2.463,15.4-.175-1.121-.409-2.363-.724-3.574-.823-3.155-2.187-6.081-4.409-5.992-3.354.137-2.989,9.627-2.475,15.276-.207-.585-.441-1.189-.706-1.79-1.1-2.48-2.7-4.836-4.847-4.975-3.744-.243-.137,14.575-.137,14.575s12.077,7.284,13.169,3.718c.631-2.061-1.008-4.392-2.94-6.294-.466-.46-.95-.892-1.423-1.293,5.1,2.478,13.848,6.177,15.162,3.089.872-2.046-1.383-4.356-4.044-6.243-1.021-.724-2.1-1.383-3.086-1.944C262.532,384.848,271.4,388.624,272.727,385.514Z" transform="translate(-239.049 -362.408)" fill="#76508e"/>
      </g>
    </g>
    <g id="그룹_589" data-name="그룹 589" transform="translate(291.817 358.914)">
      <g id="그룹_585" data-name="그룹 585" transform="translate(37.536 57.972)">
        <path id="패스_9507" data-name="패스 9507" d="M226.421,369.476s12.86-7.954,18.565-2.048S232.394,392.313,226.421,369.476Z" transform="translate(-226.421 -365.246)" fill="#6aa264"/>
      </g>
      <g id="그룹_586" data-name="그룹 586" transform="translate(22.623 44.331)">
        <path id="패스_9508" data-name="패스 9508" d="M232.156,375.22s2.024-14.986-5.693-17.79S208.867,379.068,232.156,375.22Z" transform="translate(-217.63 -357.206)" fill="#6aa264"/>
      </g>
      <g id="그룹_587" data-name="그룹 587" transform="translate(0 42.092)">
        <path id="패스_9509" data-name="패스 9509" d="M205.7,433.2l-1.407-1.507,49.817-75.811,1.407,1.507Z" transform="translate(-204.294 -355.885)" fill="#6aa264"/>
      </g>
      <g id="그룹_588" data-name="그룹 588" transform="translate(43.219)">
        <path id="패스_9510" data-name="패스 9510" d="M273.8,356.955c.366-2.841-3.237-4.921-7.194-6.334-1.535-.546-3.118-.991-4.548-1.342,2.17-3.333,9.276-15.028,4.08-17.844-3.817-2.07-9.055,5.188-12.134,10.273-.314-.607-.646-1.218-.994-1.815-2.122-3.627-4.836-6.78-7.561-5.893-4.143,1.35-.292,13.164,2.319,19.968-.607-1.33-1.332-2.789-2.146-4.182-2.122-3.627-4.836-6.782-7.561-5.893-4.112,1.34-.349,12.986,2.26,19.814-.46-.653-.96-1.323-1.5-1.973-2.226-2.7-5.033-5.06-7.751-4.482-4.73,1.006,4.916,18.129,4.916,18.129s17.524,4.821,17.634.019c.065-2.779-2.782-5.1-5.842-6.784-.74-.407-1.491-.775-2.217-1.106,7.193,1.3,19.335,2.831,19.888-1.459.366-2.841-3.237-4.921-7.194-6.334-1.52-.541-3.087-.982-4.507-1.333C260.924,359.686,273.246,361.276,273.8,356.955Z" transform="translate(-229.771 -331.073)" fill="#76508e"/>
      </g>
    </g>
    <g id="그룹_594" data-name="그룹 594" transform="translate(103.785 319.112)">
      <g id="그룹_590" data-name="그룹 590" transform="translate(50.152 48.31)">
        <path id="패스_9511" data-name="패스 9511" d="M123.716,355.847s-3.361-15.8,4.633-19.4S148.831,358.069,123.716,355.847Z" transform="translate(-123.015 -336.088)" fill="#6aa264"/>
      </g>
      <g id="그룹_591" data-name="그룹 591" transform="translate(28.953 63.825)">
        <path id="패스_9512" data-name="패스 9512" d="M131.4,348.752s-14.338-7.435-19.939-.687S126.875,373.555,131.4,348.752Z" transform="translate(-110.518 -345.234)" fill="#6aa264"/>
      </g>
      <g id="그룹_592" data-name="그룹 592" transform="translate(36.1 44.819)">
        <rect id="사각형_327" data-name="사각형 327" width="2.086" height="65.514" transform="matrix(0.855, -0.519, 0.519, 0.855, 0, 1.083)" fill="#6aa264"/>
      </g>
      <g id="그룹_593" data-name="그룹 593">
        <path id="패스_9513" data-name="패스 9513" d="M126.75,310.026c-2.726-1.393-6.115,1.481-8.962,4.952a50.6,50.6,0,0,0-2.989,4.088c-2.568-3.383-11.766-14.741-16.47-10.533-3.456,3.093,1.953,10.976,5.956,15.9-.724.1-1.457.212-2.183.348-4.412.826-8.562,2.417-8.65,5.478-.136,4.651,13.13,5.036,20.913,4.864-1.557.132-3.284.334-4.979.651-4.411.828-8.56,2.417-8.65,5.478-.134,4.618,12.931,5.031,20.737,4.869-.823.227-1.676.49-2.524.8-3.512,1.267-6.9,3.237-7.3,6.178-.692,5.116,20,1.589,20,1.589s11.164-15.881,6.373-17.724c-2.77-1.065-6.127.96-8.925,3.43-.677.6-1.318,1.22-1.912,1.83,3.895-6.765,9.814-18.419,5.7-20.521-2.726-1.394-6.115,1.479-8.962,4.95-1.092,1.333-2.1,2.75-2.965,4.051C124.853,323.96,130.894,312.144,126.75,310.026Z" transform="translate(-93.45 -307.61)" fill="#8c6fa4"/>
      </g>
    </g>
    <g id="그룹_599" data-name="그룹 599" transform="translate(78.61 370.45)">
      <g id="그룹_595" data-name="그룹 595" transform="translate(52.378 43.951)">
        <path id="패스_9514" data-name="패스 9514" d="M110.456,383.749s-3.905-15.673,3.959-19.554S135.632,385.1,110.456,383.749Z" transform="translate(-109.486 -363.782)" fill="#6aa264"/>
      </g>
      <g id="그룹_596" data-name="그룹 596" transform="translate(32.568 61.275)">
        <path id="패스_9515" data-name="패스 9515" d="M118.609,377.076s-14.585-6.936-19.951,0S114.943,402.022,118.609,377.076Z" transform="translate(-97.808 -373.994)" fill="#6aa264"/>
      </g>
      <g id="그룹_597" data-name="그룹 597" transform="translate(36.887 43.938)">
        <path id="패스_9516" data-name="패스 9516" d="M163.255,439.128l-1.991.941-60.909-75.353,1.991-.94Z" transform="translate(-100.354 -363.774)" fill="#6aa264"/>
      </g>
      <g id="그룹_598" data-name="그룹 598">
        <path id="패스_9517" data-name="패스 9517" d="M111.191,339.393c-2.772-1.3-6.061,1.691-8.786,5.257-1.055,1.383-2.022,2.85-2.847,4.19-2.684-3.293-12.268-14.328-16.823-9.958-3.349,3.21,2.329,10.9,6.5,15.686-.719.122-1.449.261-2.17.422-4.38.979-8.473,2.711-8.456,5.773.025,4.653,13.3,4.58,21.069,4.139-1.55.187-3.271.448-4.953.823-4.38.979-8.472,2.712-8.455,5.773.024,4.619,13.1,4.582,20.891,4.151-.814.254-1.657.546-2.5.882-3.466,1.386-6.786,3.473-7.081,6.426-.516,5.138,20.043.9,20.043.9s10.609-16.258,5.757-17.934c-2.8-.969-6.09,1.172-8.8,3.737-.655.619-1.272,1.264-1.846,1.895,3.659-6.9,9.172-18.748,4.989-20.708-2.772-1.3-6.061,1.691-8.786,5.259-1.045,1.369-2.005,2.821-2.823,4.151C109.776,353.385,115.4,341.368,111.191,339.393Z" transform="translate(-78.61 -337.873)" fill="#8953b5"/>
      </g>
    </g>
    <g id="그룹_604" data-name="그룹 604" transform="translate(133.586 291.093)">
      <g id="그룹_603" data-name="그룹 603">
        <path id="패스_9518" data-name="패스 9518" d="M191.933,370.736l-.712-.49v-32.4H155.7V370.8h0a101.134,101.134,0,0,0-44.684,83.913v33.222a20.644,20.644,0,0,0,20.643,20.643h83.6A20.643,20.643,0,0,0,235.9,487.938V454.165A101.13,101.13,0,0,0,191.933,370.736Z" transform="translate(-111.018 -258.534)" fill="#bfaec1"/>
        <path id="패스_9519" data-name="패스 9519" d="M208.456,489.432H133.293a18.56,18.56,0,0,1-18.56-18.56V444.8a98.053,98.053,0,0,1,43.322-81.357l13.334-8.97,13,8.9a98.056,98.056,0,0,1,42.632,80.888v26.609A18.56,18.56,0,0,1,208.456,489.432Z" transform="translate(-108.431 -246.959)" fill="#dd7f76"/>
        <path id="패스_9520" data-name="패스 9520" d="M184.1,374.129l-1.079-.74V338.748H158.343V374.2h0a98.7,98.7,0,0,0-43.61,81.9V481.82a18.56,18.56,0,0,0,18.56,18.56h75.163a18.56,18.56,0,0,0,18.56-18.56V455.552A98.7,98.7,0,0,0,184.1,374.129Z" transform="translate(-108.431 -257.907)" fill="#ad97af"/>
        <path id="패스_9521" data-name="패스 9521" d="M190.3,294.732l-4.577-1.065L160.9,400.332l-.81-3.482,10.689-104.91-4.675-.476-9.3,91.269-.551-2.369-3.736-89.271-4.695.2,2.7,64.432-14.44-62.055-4.577,1.065L151.577,381l1.574,37.6-2.725,26.747L131.5,526.665l4.577,1.065,10.589-45.5-4.812,47.229,4.675.476,8-78.474,3.3,78.845,4.695-.2-4.115-98.323,2.495-10.72L185.722,527.73l4.577-1.065L163.313,410.7Z" transform="translate(-96.753 -291.093)" fill="#997f7a"/>
        <path id="패스_9522" data-name="패스 9522" d="M125.077,384.89l13.568.533c5.73-10.173,9.34-19.612,18.09-25.274l-5.852-.265C140.136,362.578,126.94,378.505,125.077,384.89Z" transform="translate(-101.228 -243.188)" fill="#efe0d7"/>
        <path id="패스_9523" data-name="패스 9523" d="M152.208,360.681l5.586-.8c6.651,3.457,17.11,10.6,19.42,16.228h-13.3C161.253,367.333,156.037,362.914,152.208,360.681Z" transform="translate(-82.334 -243.188)" fill="#efe0d7"/>
        <g id="그룹_601" data-name="그룹 601" transform="translate(0 79.314)">
          <g id="그룹_600" data-name="그룹 600" clip-path="url(#clip-path)">
            <path id="패스_9524" data-name="패스 9524" d="M190.3,294.732l-4.577-1.065L160.9,400.332l-.81-3.482,10.689-104.91-4.675-.476-9.3,91.269-.551-2.369-3.736-89.271-4.695.2,2.7,64.432-14.44-62.055-4.577,1.065L151.577,381l1.574,37.6-2.725,26.747L131.5,526.665l4.577,1.065,10.589-45.5-4.812,47.229,4.675.476,8-78.474,3.3,78.845,4.695-.2-4.115-98.323,2.495-10.72L185.722,527.73l4.577-1.065L163.313,410.7Z" transform="translate(-96.753 -370.407)" fill="#8e5450"/>
          </g>
        </g>
        <g id="그룹_602" data-name="그룹 602" transform="translate(40.618 76.475)">
          <path id="패스_9526" data-name="패스 9526" d="M174.389,344.812H139.281a4.319,4.319,0,0,1-4.319-4.319h0a4.319,4.319,0,0,1,4.319-4.319h35.108a4.319,4.319,0,0,1,4.319,4.319h0A4.319,4.319,0,0,1,174.389,344.812Z" transform="translate(-134.962 -336.174)" fill="#bfaec1"/>
          <path id="패스_9527" data-name="패스 9527" d="M146.321,343.2h-4.638a3.227,3.227,0,0,1-3.226-3.228h0a3.226,3.226,0,0,1,3.226-3.227h4.638a3.228,3.228,0,0,1,3.227,3.227h0A3.228,3.228,0,0,1,146.321,343.2Z" transform="translate(-132.528 -335.777)" fill="#efe0d7" opacity="0.51" style="mix-blend-mode: overlay;isolation: isolate"/>
          <path id="패스_9528" data-name="패스 9528" d="M158.507,343.2h0a2.982,2.982,0,0,1-2.981-2.982v-.49a2.982,2.982,0,0,1,2.981-2.982h0a2.982,2.982,0,0,1,2.982,2.982v.49A2.982,2.982,0,0,1,158.507,343.2Z" transform="translate(-120.642 -335.777)" fill="#efe0d7"/>
        </g>
        <path id="패스_9529" data-name="패스 9529" d="M119.466,390.128a98.594,98.594,0,0,0-4.733,30.184v25.729a18.554,18.554,0,0,0,18.56,18.56h75.163a18.554,18.554,0,0,0,18.463-16.662,18.959,18.959,0,0,0,.1-1.9V419.772a98.674,98.674,0,0,0-4.556-29.644Z" transform="translate(-108.431 -222.127)" fill="#99809b"/>
        <path id="패스_9530" data-name="패스 9530" d="M170.442,423.624c-23.559,0-44,3.355-54.264,8.273a18.469,18.469,0,0,0,16.109,9.378H207.45a18.449,18.449,0,0,0,16.334-9.8C213.253,426.788,193.317,423.624,170.442,423.624Z" transform="translate(-107.425 -198.801)" fill="#8b728e"/>
      </g>
      <rect id="사각형_328" data-name="사각형 328" width="63.848" height="51.976" rx="4.603" transform="translate(30.852 158.281)" fill="#feffef"/>
      <path id="사각형_329" data-name="사각형 329" d="M1.952,0H55.786a1.951,1.951,0,0,1,1.951,1.951v43.1A1.951,1.951,0,0,1,55.786,47H1.952A1.952,1.952,0,0,1,0,45.05V1.952A1.952,1.952,0,0,1,1.952,0Z" transform="translate(33.907 160.768)" fill="#e0c896"/>
    </g>
    <path id="패스_9531" data-name="패스 9531" d="M240.62,388.013l-5.372-3.914V340.085H189.835v45.169l-4.412,2.967c-10.009,6.728-16.2,19.352-16.2,33.035v66.286c0,10.76,7.327,19.481,16.365,19.481h53.9c9.038,0,16.365-8.721,16.365-19.481V420.376C255.858,407.167,250.086,394.907,240.62,388.013Z" transform="translate(63.103 34.117)" fill="#99c6a2"/>
    <path id="패스_9532" data-name="패스 9532" d="M231.748,390.518l-4.334-3.155v-41H190.789v41.931l-3.559,2.392c-8.071,5.427-13.064,15.608-13.064,26.643v53.46c0,8.679,5.91,15.714,13.2,15.714h43.473c7.289,0,13.2-7.035,13.2-15.714V416.62C244.036,405.965,239.382,396.079,231.748,390.518Z" transform="translate(66.543 38.489)" fill="#83b68f"/>
    <path id="패스_9533" data-name="패스 9533" d="M174.166,398.845v45.024c0,8.679,5.91,15.714,13.2,15.714h43.473c7.289,0,13.2-7.035,13.2-15.714V398.845Z" transform="translate(66.543 75.036)" fill="#6b9974"/>
    <path id="패스_9534" data-name="패스 9534" d="M181.88,479.747V416.653c0-11.944,5.4-22.964,14.139-28.837l3.851-2.59V345.8h-8.8v39.427l-3.851,2.59c-8.736,5.873-14.139,16.893-14.139,28.837v63.093c0,9.391,6.4,17.006,14.285,17.006h8.8C188.276,496.753,181.88,489.138,181.88,479.747Z" transform="translate(65.785 38.096)" fill="#efe0d7" opacity="0.51" style="mix-blend-mode: overlay;isolation: isolate"/>
    <path id="패스_9535" data-name="패스 9535" d="M212.316,387.817l-3.851-2.59V345.8h-6.419v39.427l3.852,2.59c8.736,5.873,14.139,16.893,14.139,28.837v63.093c0,9.391-6.4,17.006-14.285,17.006h6.417c7.89,0,14.285-7.615,14.285-17.006V416.653C226.455,404.709,221.052,393.689,212.316,387.817Z" transform="translate(85.958 38.096)" fill="#efe0d7" opacity="0.51" style="mix-blend-mode: overlay;isolation: isolate"/>
    <path id="패스_9536" data-name="패스 9536" d="M200.222,370.2h13.293a28.729,28.729,0,0,1,12.377,23.836l-19.71-.916S206.181,379.829,200.222,370.2Z" transform="translate(84.688 55.09)" fill="#feffef"/>
    <path id="패스_9537" data-name="패스 9537" d="M196.782,369.391H186.7s-9.627,6.877-9.169,13.294h13.295A25.036,25.036,0,0,1,196.782,369.391Z" transform="translate(68.874 54.525)" fill="#feffef"/>
    <g id="그룹_605" data-name="그룹 605" transform="translate(247.333 353.323)">
      <rect id="사각형_330" data-name="사각형 330" width="55.912" height="54.546" fill="#e0c896"/>
      <rect id="사각형_331" data-name="사각형 331" width="55.912" height="54.546" fill="#e0c896"/>
      <rect id="사각형_332" data-name="사각형 332" width="7.635" height="54.546" transform="translate(5.501)" fill="#efe0d7" opacity="0.51" style="mix-blend-mode: overlay;isolation: isolate"/>
      <rect id="사각형_333" data-name="사각형 333" width="3.909" height="54.546" transform="translate(46.271)" fill="#efe0d7" opacity="0.51" style="mix-blend-mode: overlay;isolation: isolate"/>
      <rect id="사각형_334" data-name="사각형 334" width="1.661" height="54.546" transform="translate(38.117)" fill="#efe0d7" opacity="0.51" style="mix-blend-mode: overlay;isolation: isolate"/>
    </g>
    <rect id="사각형_335" data-name="사각형 335" width="61.034" height="53.899" rx="6.96" transform="translate(246.148 455.294)" fill="#beedcb"/>
  </g>
</svg>
