<svg xmlns="http://www.w3.org/2000/svg" width="102.039" height="72.189" viewBox="0 0 102.039 72.189">
  <g id="그룹_68" data-name="그룹 68" transform="matrix(0.966, -0.259, 0.259, 0.966, -1447.227, 154.452)">
    <g id="그룹_54" data-name="그룹 54" transform="translate(1520.541 257.2)">
      <g id="그룹_53" data-name="그룹 53" transform="translate(0 0)">
        <g id="그룹_52" data-name="그룹 52">
          <path id="패스_173" data-name="패스 173" d="M1607.353,284.837a3.046,3.046,0,0,0-3.435,3.435,3.128,3.128,0,0,0-3.434-3.434,3.046,3.046,0,0,0,3.435-3.435A3.128,3.128,0,0,0,1607.353,284.837Z" transform="translate(-1600.484 -281.403)" fill="#0c0c0c"/>
        </g>
      </g>
    </g>
    <g id="그룹_67" data-name="그룹 67" transform="translate(1437.394 227.23) rotate(13)">
      <g id="그룹_59" data-name="그룹 59" transform="translate(2.93 1.563)">
        <g id="그룹_56" data-name="그룹 56" transform="translate(0 0.063)">
          <g id="그룹_55" data-name="그룹 55" transform="translate(0 0)">
            <path id="패스_174" data-name="패스 174" d="M81.253,68.793a48,48,0,0,1-8.09-.755C62.179,66.146,49.256,60.9,36.777,53.264,10.9,37.432-4.967,16.073,1.409,5.652S34.026-.367,59.9,15.467c12.48,7.635,23.034,16.751,29.72,25.67,6.772,9.035,8.778,16.827,5.648,21.941C92.966,66.845,88.1,68.793,81.253,68.793ZM15.44.828C9.109.828,4.388,2.541,2.191,6.13-3.919,16.12,11.81,36.913,37.256,52.481c12.383,7.576,25.191,12.779,36.064,14.653,10.731,1.848,18.249.237,21.168-4.534s.931-12.2-5.6-20.912C82.27,32.86,71.806,23.825,59.424,16.249,43.122,6.276,26.725.828,15.44.828Z" fill="#0c0c0c"/>
          </g>
        </g>
        <g id="그룹_58" data-name="그룹 58" transform="translate(0 0)">
          <g id="그룹_57" data-name="그룹 57">
            <path id="패스_175" data-name="패스 175" d="M15.45,68.793c-6.69,0-11.7-1.827-14.041-5.652C-4.967,52.72,10.9,31.362,36.777,15.53,49.256,7.894,62.179,2.647,73.163.755,84.29-1.162,92.141.6,95.27,5.715s1.124,12.907-5.648,21.941c-6.686,8.919-17.24,18.035-29.72,25.67l-.239-.391.239.391C43.521,63.35,26.991,68.793,15.45,68.793ZM81.291.913a47.331,47.331,0,0,0-7.971.746C62.446,3.533,49.639,8.736,37.256,16.312,11.81,31.881-3.919,52.673,2.191,62.663s31.786,5.45,57.232-10.118h0C71.806,44.968,82.27,35.933,88.887,27.106c6.531-8.713,8.52-16.14,5.6-20.912C92.357,2.712,87.778.913,81.291.913Z" fill="#0c0c0c"/>
          </g>
        </g>
      </g>
      <g id="그룹_62" data-name="그룹 62" transform="translate(1.628 41.22)">
        <g id="그룹_61" data-name="그룹 61">
          <g id="그룹_60" data-name="그룹 60">
            <path id="패스_176" data-name="패스 176" d="M12.118,6.058A6.115,6.115,0,0,0,7.582,7.582a6.107,6.107,0,0,0-1.524,4.536C5.984,8.2,3.922,6.134,0,6.059A6.1,6.1,0,0,0,4.536,4.536,6.116,6.116,0,0,0,6.06,0C6.134,3.921,8.2,5.984,12.118,6.058Z" fill="#0c0c0c"/>
          </g>
        </g>
      </g>
      <g id="그룹_64" data-name="그룹 64" transform="translate(0 0)">
        <g id="그룹_63" data-name="그룹 63">
          <circle id="타원_59" data-name="타원 59" cx="5.789" cy="5.789" r="5.789" fill="#0c0c0c"/>
        </g>
      </g>
      <g id="그룹_66" data-name="그룹 66" transform="translate(65.844 42.66)">
        <g id="그룹_65" data-name="그룹 65">
          <circle id="타원_60" data-name="타원 60" cx="5.789" cy="5.789" r="5.789" fill="#0c0c0c"/>
        </g>
      </g>
    </g>
  </g>
</svg>
