<svg xmlns="http://www.w3.org/2000/svg" width="334.736" height="459.838" viewBox="0 0 334.736 459.838">
  <path id="패스_8869" data-name="패스 8869" d="M627.941,212.011c-17.076,1.057-34.179,1.407-51.274,1.827-18.3.45-36.635-1.459-54.936-.457-7.934.434-15.887.532-23.831.8-19.311.655-38.626.919-57.949.561-11.067.122-22.148-.941-33.215-.842-16.5.146-33.007-.348-49.5.4-5.624.254-11.248.411-16.874.558-3.635.094-4.163-.288-7.722.247l.045,4.021.016,1.463c.031.261-.136,1.873-.121,2.169.187,3.771.04,8.484.279,12.119.576,8.76-.223,18.378-.077,27.972.246,16.257.764,31.8,1.183,48.052.5,19.535.793,38.382.366,57.942-.162,7.362.253,16.99.267,24.334.037,19.52.591,53.825.822,74.795.386,35.14.69,50.126.936,85.276.031,4.535.138,12.574.19,17.357.193,17.559.3,33.627.563,51.2.1,6.942.864,12.92.4,19.84-.287,4.317.178,9.66-.033,13.981l.112,10.173a12.085,12.085,0,0,0,2.649-.03c3.1-.506,5.833-.115,8.623-.256,6.026-.3,12.1-.085,18.081-.774,11.2-1.291,22.465.308,33.7-.279,13.76-.719,27.547-1.866,41.333-1.648,5.736.091,11.48.242,17.2-.2,15.451-1.186,30.947.255,46.426-.235,23.029-.727,46.088.3,69.127-.126,3.42-.063,6.85-.033,10.258-.285,15.859-1.174,31.748-.678,47.647-.911a46.577,46.577,0,0,1,6.022.29c5.4.622,10.814-.364,16.25-.4,2.867-.019,4.009-1.014,4.42-3.816.115-.79.045-2.809.049-3.614.036-6.039.047-15.687.05-21.726,0-3.722.08-7.453-.141-11.165-.37-6.227-.947-12.438-1-18.687-.04-4.93-.239-9.863-.553-14.784a213.684,213.684,0,0,1-.366-25.953q.793-13.734.516-27.462c-.253-12.982.616-25.974-.691-38.906-.708-7.005.62-14,.305-21.043-.918-20.513-1.94-41.03-1.858-61.566q.07-17.063-.076-34.12c-.146-19.829,2.133-39.681.668-59.471-.283-3.814-.488-7.633-.724-11.45-.8-13.055-.668-26.109-.737-39.2-.045-8.656-.011-17.314-.439-25.966a57.856,57.856,0,0,1,.007-9.05c.5-4.6-.262-9.188-.236-13.814.027-4.712-1.682-6.606-6.277-7.174C643.2,211.412,632.553,211.726,627.941,212.011Z" transform="matrix(1, -0.017, 0.017, 1, -336.218, -200.123)" fill="#d3d3f4"/>
</svg>
