<svg xmlns="http://www.w3.org/2000/svg" width="315.734" height="457.72" viewBox="0 0 315.734 457.72">
  <g id="그룹_328" data-name="그룹 328" transform="matrix(1, 0.017, -0.017, 1, -472.961, -133.83)">
    <g id="그룹_292" data-name="그룹 292" transform="translate(536.465 505.533)">
      <g id="그룹_291" data-name="그룹 291" transform="translate(0)">
        <path id="패스_8870" data-name="패스 8870" d="M742.816,820.023c-1.015-3.4-1.951-6.832-3.077-10.2a116.136,116.136,0,0,1-5.779-35.688c-.047-3.826.265-7.556,2.174-11.1q1.208-2.244,2.538-4.4c-5.13-1.241-10.286-2.366-15.485-3.279-2.866,11.806-2.647,23.9-2,35.963.438,8.165,1.161,16.311,2.119,24.432.529,4.481.906,9,2.172,13.36a3.457,3.457,0,0,0,3.967,2.515l11.914-5.955c1.4-.462,2.156-2.235,1.8-4.234A12.924,12.924,0,0,0,742.816,820.023Z" transform="translate(-720.778 -755.356)" fill="#556b67"/>
        <g id="그룹_289" data-name="그룹 289" transform="translate(8.17 2.516)">
          <path id="패스_8871" data-name="패스 8871" d="M741.676,800.512c-1.005-7.89-2.279-15.75-2.45-23.712-.078-3.634.017-7.317,1.688-10.729q1.453-2.965,3.124-5.785-1.627-.393-3.257-.767a43.209,43.209,0,0,0-5.7,16.036c-1.9,12.566-.173,24.976,3.16,37.175a3.658,3.658,0,0,0,1.145,1.911c.876.728,2.293.54,2.562-.5a12.289,12.289,0,0,0,.707-3.915C742.343,806.989,742.086,803.725,741.676,800.512Z" transform="translate(-734.298 -759.52)" fill="#4b605d"/>
        </g>
        <g id="그룹_290" data-name="그룹 290" transform="translate(0.968 0.194)">
          <path id="패스_8872" data-name="패스 8872" d="M728.924,805.155a127.839,127.839,0,0,1-2.5-22.715,124.045,124.045,0,0,1,2.714-25.948c-1.422-.288-2.848-.557-4.276-.815-.546,2.956-.992,5.933-1.427,8.9A104.177,104.177,0,0,0,722.5,784.6a145.961,145.961,0,0,0,2.4,22.244c.3,1.483,1.365,2.457,2.457,2.3,1.12-.157,1.936-1.571,1.748-3.047C729.069,805.786,728.98,805.473,728.924,805.155Z" transform="translate(-722.379 -755.677)" fill="#6d8783"/>
        </g>
      </g>
    </g>
    <g id="그룹_327" data-name="그룹 327" transform="translate(480.933 124.018)">
      <g id="그룹_300" data-name="그룹 300" transform="translate(33.399 59.434)">
        <path id="패스_8887" data-name="패스 8887" d="M882.951,372.05c-10.5-2.174-20.495-.112-30.56,2.985A85.732,85.732,0,0,0,863.2,362.656c3.2-4.738,6.688-12.965,6.2-14.641-.509.286-.012,1.065-.691,1.318.024-.581.047-1.131.074-1.769A6.261,6.261,0,0,0,867.121,351a37.52,37.52,0,0,1-10.339,17.289A117.055,117.055,0,0,1,838,383.113c-7.656,4.981-14.583,11.015-22.5,15.615-.957.555-1.88,1.171-2.819,1.758a4.076,4.076,0,0,1,.552-1.629c5.5-10.4,11.267-20.638,15.709-31.6,3.66-9.033,6.684-18.275,10.146-27.366,2.371-6.225,5.037-12.351,6.236-18.966a148.439,148.439,0,0,0,1.786-19.506c.546-11.464.319-22.824-2.294-34.073-1.582-6.81-2.858-13.69-4.283-20.537-.1-.477-.022-1.289-.828-1.056-.658.191-.166.828-.094,1.218.671,3.654,1.394,7.3,2.084,10.947.076.4.346.934-.082,1.206-.463.294-.531-.573-1-.521a4.108,4.108,0,0,0-.231,3.912,50.282,50.282,0,0,1,2.823,12.212,166.738,166.738,0,0,1,.421,18.831c-.42,12.991-1.522,25.847-6.635,38.043-2.554,6.094-4.571,12.41-7.426,18.386-.227.475-.292,1.1-1.042,1.464-.03-1.868-.166-3.587-.067-5.293.654-11.28.917-22.529-.356-33.816a134.793,134.793,0,0,0-8.6-33.816c-2.719-7-7.059-13.15-10.512-19.756-2.006-3.838-4.944-6.514-7.909-9.344-.894-.854-1.811-1.69-2.643-2.6-6.23-6.823-13.961-11.5-22.164-15.472-5.5-2.658-11.21-4.907-16.019-8.8-.711-.574-.471.38-.905.41-.7.047-.006.344.1.479.16.2.552.324.581.518.244,1.636.192,1.7.618,1.935,1.7.938,3.161,2.212,4.864,3.16,3.2,1.78,6.578,3.133,9.891,4.648,6.661,3.047,12.329,7.658,18.1,12.027a47.889,47.889,0,0,1,10.7,10.885,104.346,104.346,0,0,1,9.736,17.812,118.829,118.829,0,0,1,9.12,36.98c.017.2-.072.271-.31.27a36.734,36.734,0,0,0-9.507-13.007c-3.137-2.846-6.2-5.724-10.207-7.488-7.682-3.379-14.756-3.15-21.166,2.714a8.445,8.445,0,0,0-2.9,4.664c.872-1.6,1.726-3.175,3.739-3.712l-.613,1.161a16.857,16.857,0,0,0,1.815-1.476c6.962-5.272,13.491-5.039,20.175-.519a54.116,54.116,0,0,1,9.843,8.934c3.466,3.89,5.433,8.606,7.262,13.346a33.2,33.2,0,0,1,2.431,15.783,170.4,170.4,0,0,0-1.337,19.46,36.068,36.068,0,0,1-1.6,11.923c-1.167,3.408-1.245,7.068-2.7,10.418a160.874,160.874,0,0,1-11.508,20.889c-6.37,10.225-13.25,20.118-20.508,29.756-6.051,8.034-12.338,15.879-18.576,23.76-8.377,10.584-16.89,21.057-24.543,32.19-.432.627-.925,1.211-1.39,1.815a63.491,63.491,0,0,1,1.064-6.913c2.423-12.284,2.575-24.68,1.786-37.116a18.842,18.842,0,0,1,.055-5.126A46.831,46.831,0,0,1,754,412.82c1.932-2.371,4.205-4.454,7.49-5.142a4.52,4.52,0,0,1,4.142,1.272c-.007-.827-.832-.8-.745-1.613l3.683,1.041c-1.166-1.042-2.322-1.093-3.291-1.56.35-.4.864-.117,1.607-.413a13.554,13.554,0,0,0-4.378-.163c-4.2.683-7.108,3.487-10,6.227-2.782,2.635-4.124,6.255-5.992,9.5-1.36,2.365-2.465,4.878-3.706,7.369-1.323-2.726-1.7-5.62-2.863-8.3a60.067,60.067,0,0,0-7.306-13.235c-5.906-7.588-7.672-16.5-8.12-25.718-.439-9.015,4-16.223,9.661-22.767a44.627,44.627,0,0,1,7.275-6.826c-.444.047-.632.013-.751.088-.446.285-.882.589-1.3.914-5.834,4.532-10.216,10.3-13.969,16.58a9.054,9.054,0,0,0-.75,1.935,38.621,38.621,0,0,0-.862,19.059c.419,2.231.862,4.457,1.376,7.107-3.84-3.759-8.235-5.827-12.521-8.038a22.7,22.7,0,0,0-9.232-2.588c-4.4-.248-8.515.951-12.626,2.167-2.039.6-3.973,1.561-5.964,2.334-.442.172-.824.344-.677.9.176.663.671.341,1.057.282a3.327,3.327,0,0,0,.773-.22,48.423,48.423,0,0,1,12.022-3.467c3.38-.468,6.816-.562,9.987.828,7.133,3.125,14,6.684,18.531,13.444a66.356,66.356,0,0,1,4.781,7.659c-4.526-2.052-8.862-3.713-13.7-3.18a31.838,31.838,0,0,0-17.931,7.666,48.531,48.531,0,0,0-14.414,22.146c-.35,1.085.191,2.114-.028,3.178-.06.288.429.462.537.172.434-1.175,1.94-1.6,1.985-3.086a8.958,8.958,0,0,1,.748-2.29,40.6,40.6,0,0,1,11.445-17.974,24.431,24.431,0,0,1,20.019-6.4c7.271.83,13.346,3.62,16.55,11.16a46.019,46.019,0,0,1,3.944,15.853,138.234,138.234,0,0,1-2.405,34.342c-2.406,11.8-6.068,23.047-13.147,32.987-8.152,11.447-12.769,24.48-16.13,37.938-.57,2.285-1.022,4.582-1.378,6.887,4.513.973,9.054,1.789,13.609,2.523.183-.424.383-.847.609-1.266a122.114,122.114,0,0,1,10.792-16.249,24.942,24.942,0,0,1,12.3-8.973,55.893,55.893,0,0,1,16.529-2.35c6.831-.115,12.757,2.8,18.053,6.552,4.555,3.226,6.971,8.313,8.211,13.807.579,2.565,1.207,5.146-.135,7.726a3.987,3.987,0,0,0,1.342-3.22,28.469,28.469,0,0,0-1.879-9.733c-1.809-4.973-4.668-9.144-9.33-11.867-1.672-.977-3.4-1.848-5.1-2.773a25.133,25.133,0,0,0-11.749-3.043,66.151,66.151,0,0,0-12.331.74c.188-.615.648-.724.994-.928a89.433,89.433,0,0,1,27.393-11.056,150.211,150.211,0,0,1,25.951-2.58c3.861-.111,7.7-.8,11.484.583,1.713.626,3.484,1.091,5.2,1.7,7.317,2.609,13.282,6.856,16.918,13.957a11.022,11.022,0,0,1,1.238,6.442c1.377-2.685-.172-4.865-.368-7.044.827-.217.814.743,1.533.484-1.854-2.614-3.41-5.388-5.7-7.619a34.181,34.181,0,0,0-7.766-5.98c-2.788-1.472-5.937-2.069-9.042-3.582a47.724,47.724,0,0,0,11.927-1.96c1.986-.664,3.965-1.38,5.995-1.882,10.221-2.531,18.111-8.3,24.14-16.878,3.143-4.47,5.687-9.352,9.185-13.58a5.9,5.9,0,0,0-2.127,1.837c-1.6,2.222-3.167,4.468-4.776,6.682-3.513,4.839-7.235,9.485-12.1,13.084a31.918,31.918,0,0,1-11.882,5.446l1.259-1.334c3.286-3.475,5.656-7.437,6.259-12.266.838-6.707-.978-12.383-6.63-16.5-.644-.468-1.256-1.045-2.286-.515a3.513,3.513,0,0,1,1.484.584,14.511,14.511,0,0,1,6.231,10.41c1.068,9.347-3.855,15.683-11.065,20.464-3.684,2.444-8.217,2.676-12.581,2.97-10.347.7-20.732.169-31.078.993-4.335.344-8.7.219-13,1.08a107.139,107.139,0,0,0-19.983,6.219c-9.767,4.046-18.721,9.391-26.284,16.892-1.741,1.727-3.266,3.644-4.959,5.468.513-2.49,1.17-4.9,1.839-7.311,1.625-5.853,4.588-11.106,7.318-16.47a157.319,157.319,0,0,1,13.358-22.188c9.222-12.513,18.053-25.313,27.791-37.444,3.331-4.15,6.011-8.92,9.768-12.613,8.8-8.652,18.993-15.1,31.535-17a29.411,29.411,0,0,1,15.073,1.151c6.174,2.319,10.663,6.061,11.693,13.013.143.963-.318,1.972.189,3.164.71-1.587.076-2.864.021-4.15a12.349,12.349,0,0,0-4.686-9.292,26.936,26.936,0,0,0-19.278-6.238c-6.233.358-12.272,1.311-17.919,4.127-1.989.992-4.024,1.9-6.038,2.839a1.78,1.78,0,0,1,.5-1.062c3.258-4.266,6.265-8.719,10.636-12.044,3.029-2.305,5.037-5.778,8.238-7.905,6.934-4.609,13.294-9.965,19.857-15.055a79.26,79.26,0,0,1,34.9-15.356,36.907,36.907,0,0,1,16.1.351,96.746,96.746,0,0,1,14.971,5.653,19.208,19.208,0,0,1,6.7,4.325,10.277,10.277,0,0,0,2.858,1.905C901.9,379.386,893.329,374.2,882.951,372.05Z" transform="translate(-684.15 -222.37)" fill="#556b67"/>
        <g id="그룹_298" data-name="그룹 298" transform="translate(2.84 7.407)">
          <path id="패스_8888" data-name="패스 8888" d="M769.6,614.373c-3.626,4.986-7.2,10.04-10.511,15.246-4.214,6.626-9.054,12.956-11,20.8a18.367,18.367,0,0,1-.88,2.246c-3.049,7.728-4.8,15.814-6.6,23.935.494-.984,1.829-1.314,2.07-2.113.846-2.8,2.543-5.234,3.324-8.03a112.6,112.6,0,0,1,9.375-23.943c4.145-7.595,8.292-15.156,13.427-22.144,4.3-5.848,8.655-11.652,12.758-17.646,6.563-9.591,14.33-18.284,20.976-27.809,3.97-5.689,9.206-9.872,14.9-13.586a100.175,100.175,0,0,1,10.769-5.755,17.369,17.369,0,0,0-4.231,1.323,43.707,43.707,0,0,0-11.748,6.241A78.256,78.256,0,0,0,795.562,580.3c-5.481,7.92-11.71,15.235-17.489,22.908C775.262,606.94,772.336,610.6,769.6,614.373Z" transform="translate(-709.327 -361.627)" fill="#4b605d"/>
          <path id="패스_8889" data-name="패스 8889" d="M743.276,751.191a89.2,89.2,0,0,1,13.549-20.009,23.907,23.907,0,0,1,12.994-7.415A87.666,87.666,0,0,1,782.4,722.2c-3.284-.063-6.557.033-9.845.235-6.7.412-12.032,3.541-16.849,7.791-2.2,1.94-4.063,4.257-6.154,6.329a41.766,41.766,0,0,0-9.424,14.113Q741.7,750.937,743.276,751.191Z" transform="translate(-709.141 -427.555)" fill="#4b605d"/>
          <path id="패스_8890" data-name="패스 8890" d="M900.44,406.319a17.281,17.281,0,0,0-2.116,5.034,22.238,22.238,0,0,1-3.194,7.471c-2.186,3.709-3.723,7.774-6.139,11.417.6-.685,1.265-1.325,1.793-2.064,2.127-2.976,3.915-6.161,5.785-9.3,7.729-12.991,13.5-26.874,18.736-40.988,2.334-6.294,4.336-12.715,6.861-18.942a76.956,76.956,0,0,0,4.958-18.135,154.38,154.38,0,0,0,1.113-16.489c.16-4.6.32-9.2.188-13.819-.1-3.4-.911-6.687-1.084-10.06a24.9,24.9,0,0,0-.572-5.56c-.817-2.844-1.454-5.72-2.075-8.6a8.487,8.487,0,0,0-1.228-2.572c-.149-.249-.318-.514-.593-.426a.59.59,0,0,0-.336.779c.246.987.44,1.983.706,2.97.9,3.359,1.98,6.689,2.681,10.075a66.581,66.581,0,0,1,.872,9.738c.4,7.22.662,14.484-.294,21.7-.734,5.535-.7,11.157-2.061,16.622-.9,3.614-2.3,7.048-3.5,10.555-2.531,7.423-4.535,15.032-7.878,22.167C908.66,387.274,905.41,397.177,900.44,406.319Z" transform="translate(-768.047 -253.873)" fill="#4b605d"/>
          <path id="패스_8891" data-name="패스 8891" d="M823.869,235.884A102.582,102.582,0,0,1,836.254,242c3.294,1.96,6.17,4.484,9.27,6.706A55.887,55.887,0,0,1,861.317,265.2a111.065,111.065,0,0,1,14.819,39.116c1.215,7.216,2.555,14.4,3.95,21.584.1.534.089,1.133.664,1.525-.343-3.465-.065-6.926-.471-10.375-.526-4.462-.635-8.964-1.539-13.4-.862-4.225-2.3-8.278-3.38-12.435a88.331,88.331,0,0,0-12.576-27.745,70.566,70.566,0,0,0-16.65-17.143c-4.079-3-8.688-5.137-13.079-7.625a43.609,43.609,0,0,0-9.2-3.832c-.47-.138-.966-.49-1.457.047A3.757,3.757,0,0,0,823.869,235.884Z" transform="translate(-741.693 -234.628)" fill="#4b605d"/>
          <path id="패스_8892" data-name="패스 8892" d="M955.406,472.314a45.6,45.6,0,0,0-23.006.786,80.7,80.7,0,0,0-21.627,10.161,260.419,260.419,0,0,0-24.344,18c-4.159,3.468-8.638,6.606-12.146,10.8-2.755,3.29-5.427,6.652-8.055,10.044a6.963,6.963,0,0,0-1.748,3.318c.9-1.217,1.768-2.463,2.712-3.645a89.349,89.349,0,0,1,12.234-12.517c2.051-1.735,3.422-4.126,5.674-5.69,5.356-3.721,10.6-7.574,15.649-11.734,6.5-5.36,13.392-10.135,21.356-13.31,7.424-2.96,14.871-5.572,22.9-6.12,7.078-.484,13.735,1.244,20.178,4.009,1.4.6,2.789,1.2,4.184,1.807A40.3,40.3,0,0,0,955.406,472.314Z" transform="translate(-758.347 -328.242)" fill="#4b605d"/>
          <path id="패스_8893" data-name="패스 8893" d="M894.764,396.21a46.048,46.048,0,0,1-2.5,15.158,14.411,14.411,0,0,0-.56,4.4c.9-2.183,1.626-3.916,2.338-5.655,1.305-3.191,2.793-6.407,2.768-9.887-.065-9.231,2.026-18.352.983-27.654-.685-6.1-1.764-11.923-5-17.25a111.715,111.715,0,0,0-7.539-10.12,34.424,34.424,0,0,0-11.049-8.927,10.067,10.067,0,0,0-7.121-1.085,17.044,17.044,0,0,1,9.49,3.46,75.657,75.657,0,0,1,9.465,8.594,36.332,36.332,0,0,1,6.244,10.388c.813,1.9,2.12,3.652,2.629,5.621a48.216,48.216,0,0,1,1.19,17.264C895.543,385.738,894.579,390.913,894.764,396.21Z" transform="translate(-759.377 -274.328)" fill="#4b605d"/>
          <path id="패스_8894" data-name="패스 8894" d="M779.618,581.575c-.167,7.7-1.426,15.3-2.617,22.9-.3,1.939-.755,3.854-1.139,5.779,1.271-2.147,1.541-4.527,2.061-6.862a137.207,137.207,0,0,0,2.947-37.474c-.184-3.406-.782-6.82-.146-10.282a49.78,49.78,0,0,1,3.6-10.286,35.276,35.276,0,0,1,9.249-12.971,1.94,1.94,0,0,0-1.476.791,49.654,49.654,0,0,0-8.714,11.992A39.771,39.771,0,0,0,779,567.419C779.341,572.138,779.719,576.863,779.618,581.575Z" transform="translate(-723.28 -352.45)" fill="#4b605d"/>
          <path id="패스_8895" data-name="패스 8895" d="M920.994,384.6c-.342,9.878-1.024,19.673-2.273,29.259,4.983-7.294,7.128-15.945,9.561-24.481l.512-2.039a3.436,3.436,0,0,0-1.006,2.078c-.992,2.6-1.9,5.23-3,7.779-.983,2.271-1.656,4.7-3.406,6.737.841-16.415,1.329-32.784-2.04-48.981C919.878,364.827,921.339,374.612,920.994,384.6Z" transform="translate(-779.81 -282.239)" fill="#4b605d"/>
          <path id="패스_8896" data-name="패스 8896" d="M704.934,540.106c4.147-3.159,8.414-5.763,13.911-5.243a13.375,13.375,0,0,0,1.924-.024,20.575,20.575,0,0,1,17.277,7.32c1.572,1.78,1.625,4.315,3.087,6.145a71.069,71.069,0,0,1,2.823,12.248,33.632,33.632,0,0,0-.5-6.793,32.89,32.89,0,0,0-1.658-6.5c-.69-2.392-1.539-4.837-3.454-6.658-6.2-5.9-16.3-10.011-26.539-5.226a37.081,37.081,0,0,0-16.468,14.564c-1.279,2.1-2.549,4.327-2.663,6.934A36.317,36.317,0,0,1,704.934,540.106Z" transform="translate(-690.363 -352.804)" fill="#4b605d"/>
          <path id="패스_8897" data-name="패스 8897" d="M927.542,671.262c-6.607,2.7-13.606,4.233-20.576,5.737-2.03.438-3.968,1.322-6.119,1.273a2.289,2.289,0,0,0,1.2.351c2.549-.236,5.1-.448,7.64-.8,4.338-.6,8.289-2.563,12.48-3.681,10.352-2.758,17.5-9.545,23.1-18.259a38.778,38.778,0,0,0-5.428,5.88A26.983,26.983,0,0,1,927.542,671.262Z" transform="translate(-772.738 -401.321)" fill="#4b605d"/>
          <path id="패스_8898" data-name="패스 8898" d="M747.037,524.221c.3-.479.344-.628.226-.867-2.371-4.819-4.675-9.73-8.621-13.481-4.539-4.313-9.177-8.6-15.57-10.112a9.245,9.245,0,0,0-4.051-.821c1.161.669,2.524.749,3.734,1.275C734.209,504.707,741.94,513.044,747.037,524.221Z" transform="translate(-700.788 -339.213)" fill="#4b605d"/>
          <path id="패스_8899" data-name="패스 8899" d="M968.894,446.606c-3.91,4.735-7.638,9.639-12.624,13.332,10.285-7.458,17.751-16.96,21.02-29.445C974.67,435.941,972.849,441.818,968.894,446.606Z" transform="translate(-794.669 -312.132)" fill="#4b605d"/>
          <path id="패스_8900" data-name="패스 8900" d="M937.981,664.087a42.6,42.6,0,0,1-7.765,8.687c6.19-2.222,12.741-13.883,11.112-19.373A19.1,19.1,0,0,1,937.981,664.087Z" transform="translate(-784.359 -400.338)" fill="#4b605d"/>
          <path id="패스_8901" data-name="패스 8901" d="M700.411,498.576a2.417,2.417,0,0,0,.42,0l6.106-.037c-1.923-.929-3.958-.41-5.95-.441a22.883,22.883,0,0,0-12.137,3.573A47.118,47.118,0,0,1,700.411,498.576Z" transform="translate(-688.849 -338.836)" fill="#4b605d"/>
          <path id="패스_8902" data-name="패스 8902" d="M749.213,478.488a36.385,36.385,0,0,0,.326,14.059c-.037-2.339-.154-4.677-.323-7.012S749.318,480.86,749.213,478.488Z" transform="translate(-712.522 -331.124)" fill="#4b605d"/>
          <path id="패스_8903" data-name="패스 8903" d="M898.226,484.879a21.8,21.8,0,0,0-3.278,5.912C897.145,489.443,897.256,486.919,898.226,484.879Z" transform="translate(-770.403 -333.653)" fill="#4b605d"/>
          <path id="패스_8904" data-name="패스 8904" d="M718.864,498.9h-.083c.022.01.045.016.067.027Z" transform="translate(-700.693 -339.201)" fill="#4b605d"/>
          <path id="패스_8905" data-name="패스 8905" d="M751.05,469.49l2.218-4.974A6.686,6.686,0,0,0,751.05,469.49Z" transform="translate(-713.462 -325.595)" fill="#4b605d"/>
          <path id="패스_8906" data-name="패스 8906" d="M751.537,509.481a7.331,7.331,0,0,0,2.4,5.016C753.011,513.06,752.5,511.42,751.537,509.481Z" transform="translate(-713.655 -343.388)" fill="#4b605d"/>
          <path id="패스_8907" data-name="패스 8907" d="M718.892,498.928c.027,0,.052,0,.078,0-.02-.011-.042-.017-.062-.028Z" transform="translate(-700.737 -339.201)" fill="#4b605d"/>
          <path id="패스_8908" data-name="패스 8908" d="M866.34,699.569a4.656,4.656,0,0,0-.592-.514,42.672,42.672,0,0,0-11.653-5.288,45.289,45.289,0,0,0-14.3-1.229c-4.611.29-9.179.94-13.785,1.233a87.152,87.152,0,0,0-16.048,2.562c-5.924,1.513-11.274,4.465-16.849,6.844a18.463,18.463,0,0,0-6.775,5.282c-.572.676-1.47,1.088-1.816,2.279.679-.462,1.141-.79,1.618-1.1A104.361,104.361,0,0,1,808.289,699.1a63.94,63.94,0,0,1,15.855-3.477c6.309-.536,12.6-1.329,18.927-1.607,3.575-.158,7.137-.385,10.669.751,4.281,1.377,8.582,2.654,12.461,5.011h0a9.041,9.041,0,0,0,2.7,1.841A7.221,7.221,0,0,0,866.34,699.569Z" transform="translate(-726.706 -415.782)" fill="#4b605d"/>
          <path id="패스_8909" data-name="패스 8909" d="M894.648,552.206a14.718,14.718,0,0,0,4.468-.877A14.926,14.926,0,0,0,894.648,552.206Z" transform="translate(-770.285 -359.948)" fill="#4b605d"/>
          <path id="패스_8910" data-name="패스 8910" d="M859.085,335.855l.07.162,3.181-.617-.038-.168Z" transform="translate(-756.212 -274.437)" fill="#4b605d"/>
        </g>
        <g id="그룹_299" data-name="그룹 299" transform="translate(10.606 10.206)">
          <path id="패스_8911" data-name="패스 8911" d="M728.858,709.908a120.181,120.181,0,0,1,8.892-30.136c3.438-7.765,7.143-15.4,10.728-23.091,1-2.142,2.1-4.229,2.965-6.436,2.591-6.568,3.756-13.482,4.99-20.373a21.7,21.7,0,0,0-.188-8.344c-.062,1.8-.027,3.6-.2,5.386-.457,4.635-1.847,9.092-2.824,13.623a33.331,33.331,0,0,1-2.793,7.526c-2.816,5.735-5.877,11.349-8.759,17.052-2.11,4.175-4.239,8.339-6.616,12.365a80.071,80.071,0,0,0-5.978,12.668c-2.282,6.1-3.391,12.523-4.353,18.933Q726.785,709.514,728.858,709.908Z" transform="translate(-710.809 -390.525)" fill="#6d8783"/>
          <path id="패스_8912" data-name="패스 8912" d="M835.761,492.429c4.527-6.6,9.516-12.905,13.514-19.855,2.432-4.227,5.57-8.107,7.021-12.851a167.184,167.184,0,0,0,5.641-26.163c.046-.334.392-.9-.1-1.25-.483.193-.394.6-.433.864a135.317,135.317,0,0,1-4.187,18.28c-1.3,4.428-2.415,8.9-5.05,12.833-4.7,7.016-9.5,13.951-14.353,20.859-8.16,11.619-16.239,23.291-25.142,34.365-4.581,5.7-8.725,11.73-13.514,17.271a159.147,159.147,0,0,0-11.838,15.7c-2.667,3.991-4.666,8.345-7.145,12.429-1.653,2.723-3.43,5.37-5.183,8.1.63.129.815-.234,1.02-.539,3.457-5.117,6.844-10.275,10.02-15.577a97.333,97.333,0,0,1,13.218-17.225,116.193,116.193,0,0,0,10.62-12.333c3.6-5.021,7.115-10.106,11.028-14.9,2.924-3.581,5.915-7.117,8.656-10.835C831.738,498.636,833.676,495.469,835.761,492.429Z" transform="translate(-730.701 -315.65)" fill="#6d8783"/>
          <path id="패스_8913" data-name="패스 8913" d="M848.975,249.976a79.1,79.1,0,0,1,13.151,12.962c4.233,5.477,7.26,11.745,9.99,18.1a127.883,127.883,0,0,1,8.226,28.752,2.432,2.432,0,0,0,.635,1.635c-1.195-5.434-1.618-10.672-2.484-15.842a64.231,64.231,0,0,0-4.373-14.459c-3.524-8.313-7.869-16.068-14.232-22.608a88.869,88.869,0,0,0-20.975-16.41,28.346,28.346,0,0,0-7.618-2.849A67.343,67.343,0,0,1,848.975,249.976Z" transform="translate(-752.982 -239.26)" fill="#6d8783"/>
          <path id="패스_8914" data-name="패스 8914" d="M746.113,726.3c15.035-21.845,36.657-32.277,62-36.324C781.947,692.637,760.284,703.059,746.113,726.3Z" transform="translate(-719.275 -417.61)" fill="#6d8783"/>
          <path id="패스_8915" data-name="패스 8915" d="M934.692,366.607a135.616,135.616,0,0,0,5.077-18.469,144.371,144.371,0,0,0,1.669-22.4,64.709,64.709,0,0,0-1.528-15.41c.234,2.424.062,4.837.242,7.227a132.459,132.459,0,0,1-.461,21.457c-.812,9.3-2.357,18.463-6.059,27.208-2.11,4.984-3.22,10.385-5.081,15.5-.112.311-.381.668.025.967C930.636,377.334,932.918,372.053,934.692,366.607Z" transform="translate(-791.391 -267.383)" fill="#6d8783"/>
          <path id="패스_8916" data-name="패스 8916" d="M957.331,450.636c-6.505,9.717-15.758,16.389-25.289,22.723-3.46,2.3-6.739,4.818-10.3,7.459.48-.03.675.018.784-.059,3.221-2.242,6.559-4.3,9.848-6.434,5.388-3.486,10.4-7.552,15.52-11.45A32.781,32.781,0,0,0,957.331,450.636Z" transform="translate(-788.773 -322.902)" fill="#6d8783"/>
          <path id="패스_8917" data-name="패스 8917" d="M889.472,548.113a31.563,31.563,0,0,1,7,.978c-3.909-1.981-11.432-1.969-21.192.271-4.626,1.061-17.3,7.369-18.808,9.81a44.2,44.2,0,0,1,9.505-4.6c4.238-1.687,8.193-3.982,12.724-5.066A54.76,54.76,0,0,1,889.472,548.113Z" transform="translate(-762.944 -361.288)" fill="#6d8783"/>
          <path id="패스_8918" data-name="패스 8918" d="M967.735,471.635c13.206-2.766,26.276-2.806,39.1,2.151C994.083,467.283,980.969,468.182,967.735,471.635Z" transform="translate(-806.972 -330.154)" fill="#6d8783"/>
          <path id="패스_8919" data-name="패스 8919" d="M722.887,531.719a15.984,15.984,0,0,0-6.456,3.435c1.555-.671,3.131-1.3,4.663-2.021a23.376,23.376,0,0,1,15.162-1.54,18.977,18.977,0,0,1,5.659,1.748c.35.2.883.5,1.112-.041s-.41-.635-.746-.85a3.617,3.617,0,0,0-.436-.207C735.6,529.373,729.264,529.6,722.887,531.719Z" transform="translate(-707.53 -354.349)" fill="#6d8783"/>
          <path id="패스_8920" data-name="패스 8920" d="M950.244,666.108c4.836-2.782,8.273-7.04,12.012-10.981a4.183,4.183,0,0,0,1.424-3.429c-4.773,6.8-10.332,12.664-18.128,16.361C947.694,668.26,948.818,666.928,950.244,666.108Z" transform="translate(-798.194 -402.463)" fill="#6d8783"/>
          <path id="패스_8921" data-name="패스 8921" d="M801.955,719.575a48.667,48.667,0,0,1,12.153,2.083c-7.806-4.1-16.133-2.685-24.355-2.105C793.821,719.546,797.9,719.39,801.955,719.575Z" transform="translate(-736.544 -429.031)" fill="#6d8783"/>
          <path id="패스_8922" data-name="패스 8922" d="M873.56,338.767c-7.714-6.169-18.579-8.176-25.992-1.478C856.492,330.971,864.9,334.039,873.56,338.767Z" transform="translate(-759.421 -276.399)" fill="#6d8783"/>
          <path id="패스_8923" data-name="패스 8923" d="M913.488,698.157a10.741,10.741,0,0,0-3.951-1.361l.925.521c5.073,2.837,10.429,5.317,13.536,10.652a22.359,22.359,0,0,1,1.662,3.081c.3.784.748.531,1.19.41.28-.077.263-.163-.2-.936A31.25,31.25,0,0,0,913.488,698.157Z" transform="translate(-783.943 -420.309)" fill="#6d8783"/>
          <path id="패스_8924" data-name="패스 8924" d="M781.425,554.115c1.971-4.391,3.664-8.913,6.126-13.073,1.1-2.2,2.9-3.9,4.257-5.928a14.6,14.6,0,0,0-4.51,5.705c-.466.783-.909,1.581-1.4,2.347-2.144,3.339-3.465,7.109-5.514,10.5-.26.431-.253.912.169,1.12C781.1,555.051,781.254,554.5,781.425,554.115Z" transform="translate(-732.766 -356.33)" fill="#6d8783"/>
          <path id="패스_8925" data-name="패스 8925" d="M945.178,298.936c.433-5.011-1.732-9.4-3.254-13.9A135.77,135.77,0,0,1,945.178,298.936Z" transform="translate(-796.758 -257.373)" fill="#6d8783"/>
          <path id="패스_8926" data-name="패스 8926" d="M723.851,499.1c-4.366-2.629-8.987-4.09-14.144-3.084a27.527,27.527,0,0,1,8.411,1.253C720,497.955,721.937,498.5,723.851,499.1Z" transform="translate(-704.869 -340.734)" fill="#6d8783"/>
          <path id="패스_8927" data-name="패스 8927" d="M926.021,684.487c-.028.018-.058.033-.086.05l.111-.028c.035-.021.067-.046.1-.068-.044.014-.083.032-.127.046Z" transform="translate(-790.431 -415.42)" fill="#6d8783"/>
          <path id="패스_8928" data-name="패스 8928" d="M907.291,687.957a8.046,8.046,0,0,1,1.933-.513,18.137,18.137,0,0,0,9.291-2.844l-11.33,2.946Q907.238,687.752,907.291,687.957Z" transform="translate(-783.012 -415.483)" fill="#6d8783"/>
          <path id="패스_8929" data-name="패스 8929" d="M834.318,726c2.7,1.9,5.509,3.661,7.766,6.121C840.367,728.927,837.483,727.279,834.318,726Z" transform="translate(-754.178 -431.865)" fill="#6d8783"/>
          <path id="패스_8930" data-name="패스 8930" d="M742.968,507.4a5.11,5.11,0,0,0-2.165-1.972c-2.292-1.553-4.532-3.232-7.29-3.921C736.553,503.647,739.991,505.142,742.968,507.4Z" transform="translate(-714.289 -343.034)" fill="#6d8783"/>
          <path id="패스_8931" data-name="패스 8931" d="M733.354,501.44c-.031-.022-.064-.04-.095-.062h0c-.049-.015-.1-.03-.147-.046.044.027.088.048.131.075C733.281,501.416,733.316,501.429,733.354,501.44Z" transform="translate(-714.13 -342.963)" fill="#6d8783"/>
          <path id="패스_8932" data-name="패스 8932" d="M933.985,674.026a42.035,42.035,0,0,1-7.7,6.294A13.4,13.4,0,0,0,933.985,674.026Z" transform="translate(-790.571 -411.299)" fill="#6d8783"/>
          <path id="패스_8933" data-name="패스 8933" d="M982.224,441.966c1.658-2.8,3.526-5.547,3.237-9.044C985.013,436.165,983.267,438.933,982.224,441.966Z" transform="translate(-812.705 -315.893)" fill="#6d8783"/>
          <path id="패스_8934" data-name="패스 8934" d="M704.089,545.437c2.038-1.655,3.83-3.591,5.859-5.256A17.208,17.208,0,0,0,704.089,545.437Z" transform="translate(-702.646 -358.336)" fill="#6d8783"/>
          <path id="패스_8935" data-name="패스 8935" d="M911.995,507.254a21.459,21.459,0,0,0,3.349-3.186C912.4,505.631,912.022,506,911.995,507.254Z" transform="translate(-784.915 -344.046)" fill="#6d8783"/>
          <path id="패스_8936" data-name="패스 8936" d="M701.7,497.1l4.64-.9C704.695,495.892,703.222,496.651,701.7,497.1Z" transform="translate(-701.701 -340.904)" fill="#6d8783"/>
          <path id="패스_8937" data-name="패스 8937" d="M709.448,496.244c.044-.009.086-.011.13-.019l-.117,0-.08.016c.023,0,.045,0,.068.008Z" transform="translate(-704.74 -340.94)" fill="#6d8783"/>
          <path id="패스_8938" data-name="패스 8938" d="M903.816,355.381a3.385,3.385,0,0,0,1.443,1.89A2.915,2.915,0,0,0,903.816,355.381Z" transform="translate(-781.679 -285.21)" fill="#6d8783"/>
        </g>
      </g>
      <g id="그룹_301" data-name="그룹 301" transform="translate(186.832 268.443)">
        <path id="패스_8939" data-name="패스 8939" d="M944.631,578.207c-2.989.942-5.509-.135-6.312-2.7a5.519,5.519,0,0,1,3.769-6.991,5.115,5.115,0,0,1,6.626,3.2C949.519,574.4,947.738,577.228,944.631,578.207Z" transform="translate(-938.054 -568.244)" fill="#34504b"/>
        <path id="패스_8940" data-name="패스 8940" d="M948.894,573.529c-.057-.437-.069-1.169-.675-1.1-.7.077-.35.7-.293,1.153a3.3,3.3,0,0,1-2.289,3.583,3.611,3.611,0,0,1-4.049-1.5c-.472-.752-.042-1.623-.528-2.649a4.029,4.029,0,0,0,1.841,4.735c-1.568.123-2.579-.528-2.911-1.722-.774-2.776.357-4.83,2.889-6.228a5.447,5.447,0,0,0-3.692,2.019c-1.153,1.387-.932,3.316-.265,5.043a3.843,3.843,0,0,0,3.794,2.458,11.355,11.355,0,0,0,1.715-.332A4.732,4.732,0,0,0,948.894,573.529Zm-5.561,4.552c1.152-.357,2.1.121,2.937-.295A2.676,2.676,0,0,1,943.333,578.082Z" transform="translate(-938.18 -568.861)" fill="#2f4943"/>
        <path id="패스_8941" data-name="패스 8941" d="M952.172,570.6c-.231.811.736,2-.679,2.418-.819.242-2.374-1.074-2.487-2.086a2.473,2.473,0,0,1,.506-2.157C950.1,568.331,952,569.75,952.172,570.6Z" transform="translate(-942.374 -568.422)" fill="#41655e"/>
      </g>
      <g id="그룹_303" data-name="그룹 303" transform="translate(171.131 367.995)">
        <g id="그룹_302" data-name="그룹 302" transform="translate(0.446)">
          <path id="패스_8942" data-name="패스 8942" d="M967.883,813.809l-.009.007c-.007.006-.012.012-.019.019Z" transform="translate(-934.591 -764.967)" fill="#fdfdfd"/>
          <path id="패스_8943" data-name="패스 8943" d="M945.84,812.63l-.009,0c-.007,0-.01.01-.018.015Z" transform="translate(-925.869 -764.5)" fill="#fdfdfd"/>
          <path id="패스_8944" data-name="패스 8944" d="M966.1,752.838c-5.587-5.791-12.278-10.159-19.137-14.273a1.231,1.231,0,0,1-.7-.8,6.528,6.528,0,0,0-6-4.778c-5.192.078-9.863,1.534-13.535,5.436a.6.6,0,0,0-.022.124,2.285,2.285,0,0,0-.189.227,3.9,3.9,0,0,0-.564,1.273c-.062.275-.11.549-.161.824-.018.076-.047.147-.071.221-.186.294-.386.579-.584.866a6.476,6.476,0,0,0-.961,1.886,2,2,0,0,0-.123,1.044c0,.006,0,.012,0,.018-4.5,5.348-8.326,11.088-10.4,17.858a15.334,15.334,0,0,0,.943,12.271,5.7,5.7,0,0,0,6.934,2.85c.618-.824.193-1.673,0-2.474a21.643,21.643,0,0,1-.546-4.151c-.324-6.542,1.522-12.675,3.537-18.772a47.357,47.357,0,0,1,1.8-5.1,2.871,2.871,0,0,0,.808,0,18.659,18.659,0,0,0-1.189,2.1c-1.862,4.344-2.707,8.954-3.805,13.5a38.12,38.12,0,0,0-1.021,8.807,13.044,13.044,0,0,0,3.672,9.223,3.117,3.117,0,0,0,1.983.862c2.1.318,4.029-.335,6.006-.769.708-.436.812-.876.4-1.729-.082-.17-.142-.348-.22-.519a19.428,19.428,0,0,0,1.219,2.078,6.561,6.561,0,0,0,4.4,3.073,9.238,9.238,0,0,0,7.513-2.186,1.408,1.408,0,0,0,.291-2.183,18.092,18.092,0,0,0,1.716,1.631c2.505,2.059,5.22,2.632,8.254,1.142,1.292-.635,2.345-1.694,3.776-2.062.5-.9,1.339-1.661,1.218-2.831a2.191,2.191,0,0,0-.828-2.438c2.543,1.452,5.3.746,7.32-1.826.979-1.244,1.145-2.812,2.088-4.014a2.81,2.81,0,0,0-.172-2.6,9.887,9.887,0,0,0-.4-1.1c.217.305.462.434.892.034a4.026,4.026,0,0,0,1.244-3.781C970.97,758.038,968.544,755.374,966.1,752.838Zm-35.992,10.179c.005,1.525.063,3.052.154,4.581C930.147,766.067,930.09,764.54,930.106,763.018Zm2.479-17.721a3.586,3.586,0,0,1-.165.789,49.562,49.562,0,0,0-1.341,5.471c.286-2.012.612-4.02.945-6.029.045-.269.036-.652.459-.7A.67.67,0,0,1,932.585,745.3Zm3.029,2a4.039,4.039,0,0,1,.349-1.945,6.654,6.654,0,0,1,.08,2.723,14.374,14.374,0,0,0,.019,3.38,110.462,110.462,0,0,0,3.312,14.758c-.688-1.945-1.325-3.908-1.888-5.9A39.93,39.93,0,0,1,935.614,747.294Zm6.781,26.442-.021-.05a26.409,26.409,0,0,0,3.257,5.115A19.482,19.482,0,0,1,942.4,773.735Zm12.256-3.859c-5.5-7.168-9.378-15.191-12.568-23.575a13.4,13.4,0,0,1-1.145-4.807c1.051,1.554,1.2,3.033,1.757,4.346,3.033,7.133,5.941,14.325,10.24,20.841a38.222,38.222,0,0,0,6.289,7.477A20.916,20.916,0,0,1,954.651,769.876Zm1.311-19.2c-3.4-3.148-7.164-5.879-10.115-8.669,1.279,1.064,2.833,2.164,4.278,3.394,3.466,2.95,6.8,6.056,10.1,9.187a56.182,56.182,0,0,1,7.162,7.878A102.5,102.5,0,0,0,955.962,750.68Z" transform="translate(-912.81 -732.984)" fill="#fdfdfd"/>
        </g>
        <path id="패스_8945" data-name="패스 8945" d="M979.029,781.878a2.731,2.731,0,0,0-1.552-2.088,24.2,24.2,0,0,1-8.188-8.308,91.325,91.325,0,0,1-11.328-23.829,14.771,14.771,0,0,1-.451-2.375c-.066-.553.066-1.128.719-1.276a1.076,1.076,0,0,1,1.261.779c.384,1,.653,2.049,1.019,3.058a109.887,109.887,0,0,0,11.768,24.175,33.767,33.767,0,0,0,5.419,6.179c2.878,2.6,7.463.989,8.759-2.954.19-.579-.265-1.847,1.154-1.639a9.9,9.9,0,0,1-4.953,6.935,2.969,2.969,0,0,1-2.467.436C979.155,780.61,979.227,781.344,979.029,781.878Z" transform="translate(-930.046 -737.332)" fill="#f3f2ee"/>
        <path id="패스_8946" data-name="패스 8946" d="M925.987,784.247c-1.92-7.055-1.166-13.956,1.135-20.787.91-2.7,1.691-5.451,2.536-8.177a12.562,12.562,0,0,1,2.85-5.005c.32-.338.534-.95,1.122-.7a1.155,1.155,0,0,1,.545,1.53,9.747,9.747,0,0,1-1.091,2.329,27.582,27.582,0,0,0-3.635,8.933c-1.212,5.068-2.674,10.1-2.739,15.4a12.821,12.821,0,0,0,3.158,8.914c1.21,1.4,2.885,1.3,4.48,1.188a29.143,29.143,0,0,1,3.215-.206,10.672,10.672,0,0,1-7.1,1.3c-2.288-.313-3.465-2.107-4.35-4.074A.424.424,0,0,1,925.987,784.247Z" transform="translate(-917.146 -739.526)" fill="#f3f2ee"/>
        <path id="패스_8947" data-name="패스 8947" d="M960.408,788.3a1.559,1.559,0,0,0-.234-1.655c-3.682-4.046-5.425-9.123-7.386-14.07a74.672,74.672,0,0,1-3.021-10.537,34.672,34.672,0,0,1-.463-11.566c.062-.594.169-1.273.994-1.19.7.071.956.638,1.027,1.269a5.977,5.977,0,0,1,.022,1.129c-.635,8.075,1.415,15.677,4.036,23.187,1.319,3.782,2.716,7.519,5.65,10.4,1.141,1.12,2.133,2.429,3.669,3.109,2.714,1.2,5.152.609,7.419-1.093.724-.543,1.426-.986,2.344-.476-2.917,3.51-8.646,4.843-12.45,1.534C961.422,787.825,960.96,787.72,960.408,788.3Z" transform="translate(-926.699 -739.43)" fill="#f3f2ee"/>
        <path id="패스_8948" data-name="패스 8948" d="M943.636,787.266a1.7,1.7,0,0,0,.016-1.543,41.4,41.4,0,0,1-3.122-20.834,136.075,136.075,0,0,1,1.563-13.788,3.694,3.694,0,0,1,.79-2.074c.349-.349.743-.682,1.279-.476.557.214.6.723.529,1.222a9.118,9.118,0,0,1-.4,2.056c-1.907,4.741-1.947,9.784-2.508,14.751a41.307,41.307,0,0,0,.862,13.789c.679,3.021,1.817,5.853,4.366,7.9,2.646,2.126,5.4,2.037,8.276.607.576-.286,1.132-.611,1.7-.918a8.055,8.055,0,0,1-12.141-.211C944.481,787.33,944.165,787.116,943.636,787.266Z" transform="translate(-923.247 -739.119)" fill="#f3f2ee"/>
        <path id="패스_8949" data-name="패스 8949" d="M988.346,769.263A53.073,53.073,0,0,0,979,758.419c-4.735-4.286-9.313-8.782-14.5-12.536-1.893-1.369-2.786-3.527-4.454-5.046a.708.708,0,0,1-.057-1.029.752.752,0,0,1,1.146.091c.567.572,1.077,1.2,1.623,1.794,3.463,3.779,7.835,6.526,11.451,10.138,4.931,4.925,10.434,9.336,13.806,15.634a1.462,1.462,0,0,0,.821.729Z" transform="translate(-930.956 -735.594)" fill="#f3f2ee"/>
        <path id="패스_8950" data-name="패스 8950" d="M920.914,784.52q.065.317.13.634c-4.146.9-7.623-2.211-8.449-5.807-1.374-5.981.112-11.394,2.7-16.672,2.126-4.337,5.275-7.981,8.073-11.865.634-.88,1.363-.588,2.132-.414-1.88,3.205-4.624,5.778-6.511,8.986-2.735,4.648-5.423,9.35-5.891,14.836a10.711,10.711,0,0,0,4.213,9.932A3.065,3.065,0,0,0,920.914,784.52Z" transform="translate(-912.072 -739.799)" fill="#f3f2ee"/>
      </g>
      <g id="그룹_304" data-name="그룹 304" transform="translate(0 282.867)">
        <path id="패스_8951" data-name="패스 8951" d="M679.282,594.884c2.554-1.529,3.981.105,5.947,1.566,2.333,1.733,2.892,4.391,4.59,6.39a76.934,76.934,0,0,0,6.741,7.343,34.756,34.756,0,0,1,8.284,12.347c2.34,5.444-1.807,13.221-7.581,14.341a4.565,4.565,0,0,1-2.388-.153c-.978-.293-1.174-.919-.9-1.864,1.592-5.581.367-10.917-1.69-16.081a75.311,75.311,0,0,0-6.858-12.792c-.964-1.5-1.631-3.156-2.558-4.676.579,1.2,1.073,2.433,1.762,3.576a81.23,81.23,0,0,1,5.189,10.726c1.289,3.083,2.345,6.245,3.437,9.379a16.343,16.343,0,0,1-.843,13.3,4.066,4.066,0,0,1-3.976,2.2,9.613,9.613,0,0,1-9.173-6.844,28.058,28.058,0,0,1-1.537-9.512c.108-5.006-.629-10-.264-15.007a26.452,26.452,0,0,1,1.073-6.192,11.9,11.9,0,0,0,.354-1.243c.35-1.726-.611-3.868-1.968-4.4-1.172-.463-2.576.223-3.664,1.909a46.328,46.328,0,0,0-6.49,17.09,73.254,73.254,0,0,0-.7,18.18,28.841,28.841,0,0,0,.8,3.12c.141.8.346,1.644-.735,2.005a11.352,11.352,0,0,1-4.085,3.826,4.177,4.177,0,0,1-3.919-.368c-5.109-3.026-4.709-7.458-3.846-12.158A60.9,60.9,0,0,1,661.4,612.13a74.923,74.923,0,0,1,7.546-11.775c1.043-1.247,2.458-2.082,3.478-3.34.267-.192.564-.333.838-.512a12,12,0,0,0,.36-1.548c.276-1.066.642-1.975,1.891-2.3a2.744,2.744,0,0,1,2.91,1.124C678.745,594.127,678.853,594.629,679.282,594.884Z" transform="translate(-638.728 -592.29)" fill="#fdfdfd"/>
        <path id="패스_8952" data-name="패스 8952" d="M641.943,639.265a6.091,6.091,0,0,1-4.066,1.121c-1.232.186-1.884-.532-2.5-1.468a14,14,0,0,1-2.348-8.234c.16-6.35,2.592-11.8,6.386-16.86a79.183,79.183,0,0,1,8.866-9.512,22.646,22.646,0,0,1,8.247-5.158c1.468-.509,3.13-.837,4.409.648.767.959.306,1.752-.268,2.609-1.8,2.681-4.032,5.013-5.985,7.552a52.241,52.241,0,0,0-6.859,12.159,67.218,67.218,0,0,0-3.939,14.4C643.678,637.741,643.4,638.928,641.943,639.265Z" transform="translate(-630.519 -594.729)" fill="#fdfdfd"/>
        <path id="패스_8953" data-name="패스 8953" d="M673.387,641.907a4.075,4.075,0,0,0-.063-1.919c-1.711-6.308-1.429-12.684-.475-19.043.7-4.684,1.5-9.377,3.6-13.7,1.038-2.127,2.136-4.231,3.341-6.267a6.028,6.028,0,0,1,4.14-2.523,1.47,1.47,0,0,1,1.321.46,5.975,5.975,0,0,1,1.543,5.9,31.481,31.481,0,0,0-1.276,12.453c.218,3.282.266,6.564.269,9.846a27.831,27.831,0,0,0,1.846,9.622c1.257,3.423,5.927,5.915,9.513,5.188,1.8-.364,2.308-1.789,2.7-3.267,1.345-5.041.482-9.782-1.331-14.646a149.641,149.641,0,0,0-8.92-19.457,21.727,21.727,0,0,1-1.156-3.005.606.606,0,0,1,.166-.735.578.578,0,0,1,.845.182,7.656,7.656,0,0,1,1.027,1.441c2.739,5.674,6.524,10.773,9.032,16.578,2.588,5.992,4.342,12.063,2.427,18.626a1.7,1.7,0,0,0,.18,1.4,1.993,1.993,0,0,0-1.622,1.123,8.492,8.492,0,0,1-11.726,3.043c-.744.3-1.214-.1-1.661-.619a12.111,12.111,0,0,1-2.311-3.848,58.984,58.984,0,0,1-2.45-29.249c.3-1.912.68-3.811.914-5.732.054-.445.211-1.088-.394-1.246-.5-.132-.641.462-.867.809-5.625,8.585-7.316,18.125-6.848,28.193.156,3.371.619,6.662,2.591,9.518,1.682,2.436,3.541,4.661,6.918,4.581a1.071,1.071,0,0,1,1.234,1.166,7.637,7.637,0,0,1-11.012-2.261C674.368,643.661,673.887,642.778,673.387,641.907Z" transform="translate(-645.977 -594.612)" fill="#f3f2ee"/>
        <path id="패스_8954" data-name="패스 8954" d="M687.29,648.02a2.8,2.8,0,0,0-.919-.284,7.084,7.084,0,0,1-5.541-2.135,14.886,14.886,0,0,1-4.378-7.379,40.052,40.052,0,0,1-.7-12.206c.38-5.77,1.358-11.444,4.064-16.663,1.237-2.385,2.542-4.735,3.8-7.108.256-.481.584-.794,1.149-.638a1.083,1.083,0,0,1,.777,1.11,14.26,14.26,0,0,1-.207,3.7A63.049,63.049,0,0,0,685.2,633.8c.844,3.873,1.817,7.8,4.966,10.651A8.094,8.094,0,0,1,687.29,648.02Z" transform="translate(-647.365 -595.853)" fill="#fdfdfd"/>
        <path id="패스_8955" data-name="패스 8955" d="M647.785,639.768c1.377-2.168,1.484-4.7,1.956-7.11a59.514,59.514,0,0,1,6.471-17.126c2.082-3.812,4.99-6.972,7.638-10.35,1.072-1.367,2.56-2.652,2.635-4.648,1.328.091,2.542-.867,3.907-.421-1.139,2.174-3.122,3.656-4.592,5.577-3.261,4.26-5.526,9.057-8.078,13.708-2.567,4.678-3.879,9.771-5.056,14.914a14.421,14.421,0,0,0-.285,5.6c.389,2.419,1.429,4.215,3.8,5.183.514.21,1.447.2,1.432,1.36,0,.324,1.341-.178,2.076-.1a7.8,7.8,0,0,1-11.055-5.529C648.528,640.366,648.644,639.652,647.785,639.768Z" transform="translate(-636.362 -595.232)" fill="#f3f2ee"/>
        <path id="패스_8956" data-name="패스 8956" d="M662.913,599.363a13.644,13.644,0,0,1-3.907.421c-1.274-1.175-2.586-.9-4.03-.265-5.208,2.289-9.146,6.191-12.95,10.218a36.354,36.354,0,0,0-8.308,12.687c-2.042,5.771-2.376,11.446,1.247,16.835.354.528.839.607,1.274.879a5.529,5.529,0,0,1-5.949-3.7,15.8,15.8,0,0,1-.206-12.567c3.358-8.481,9.093-15.216,15.973-20.967,2.824-2.361,6.073-4.32,9.958-4.671.646-.058,1.426-.317,1.894.086,1.8,1.553,3.606.7,5.433.2q.319.127.115.4Z" transform="translate(-628.881 -594.481)" fill="#f3f2ee"/>
        <path id="패스_8957" data-name="패스 8957" d="M686.022,596.554q-.057-.2-.115-.4a7.073,7.073,0,0,1,.072-.795c.3-1.513.623-3.054,2.565-3.229,1.885-.17,2.765,1.1,3.457,2.579-.474-.431-.939-.872-1.424-1.29a2.3,2.3,0,0,0-3.906,1.16C686.468,595.24,686.239,595.9,686.022,596.554Z" transform="translate(-651.447 -592.113)" fill="#f3f2ee"/>
      </g>
      <g id="그룹_305" data-name="그룹 305" transform="translate(168.862 35.897)">
        <path id="패스_8958" data-name="패스 8958" d="M919.216,185.731c1.3-.816,2.3-2.151,3.988-2.289a4.493,4.493,0,0,1,4.034,1.6,15.51,15.51,0,0,0,3.3,2.818c2.8,1.892,3.974,5.012,5.7,7.71,5.271,8.247,5.459,17.156,3.715,26.447-.542,2.889-2.1,5.172-3.378,7.565a6.577,6.577,0,0,1-5.821,3.258c-9.273-.287-15.764-5.195-19.543-13.359-2.852-6.161-3.967-12.846-1.615-19.49,1.732-4.894,3.592-9.858,8.021-13.175.257-.193.52-.378.78-.567C918.516,185.833,919.092,186.142,919.216,185.731Z" transform="translate(-908.317 -183.421)" fill="#fdfdfd"/>
        <path id="패스_8959" data-name="패스 8959" d="M925.814,187.244c.4,1.255-.525.383-.823.516A1.287,1.287,0,0,1,925.814,187.244Z" transform="translate(-914.915 -184.934)" fill="#e9e9e3"/>
        <path id="패스_8960" data-name="패스 8960" d="M921.542,192.053a11.7,11.7,0,0,1-1.279,4.269c-1.907,4.453-2.983,9.1-2.14,13.864,1.012,5.717,2.341,11.429,6.8,15.717.968.932,1.9,1.9,2.878,2.823,1.052.985,1.012,2.327,1.2,3.579a.812.812,0,0,1-.886.941c-1.784-.35-3.789.179-5.065-1.957-2.4-4.012-5.267-7.72-6.914-12.189a22.751,22.751,0,0,1-1.12-11.572,44.276,44.276,0,0,1,4.476-13.079A4.4,4.4,0,0,1,921.542,192.053Z" transform="translate(-910.852 -186.837)" fill="#f3f2ee"/>
        <path id="패스_8961" data-name="패스 8961" d="M939.683,191.1a22.15,22.15,0,0,1,4.309,6.49c2.388,5.357,4.716,10.744,5.745,16.587a35.255,35.255,0,0,1-1.12,15.8,4.927,4.927,0,0,1-.749,1.412,1.224,1.224,0,0,1-1.236.609,1.022,1.022,0,0,1-.844-1.047,1.467,1.467,0,0,0-1.169-1.485c-1.274-.431-1.029-1.508-.673-2.44a30.736,30.736,0,0,0,1.749-8.183,51.679,51.679,0,0,0-1.58-17.76c-.731-2.846-2.31-5.44-3.689-8.063A3.363,3.363,0,0,1,939.683,191.1Z" transform="translate(-920.728 -186.46)" fill="#f3f2ee"/>
      </g>
      <g id="그룹_306" data-name="그룹 306" transform="translate(34.241)">
        <path id="패스_8962" data-name="패스 8962" d="M846.8,197.132c3.652,1.52,6.868,3.613,8.818,7.183,2.6,4.762.682,12.125-7.057,13.55a47.416,47.416,0,0,1-14.618-.052c-3.176-.683-6.445-.317-9.65-.966a57.057,57.057,0,0,1-8.466-2.474c-2.97-1.1-5.874-2.362-8.8-3.576-1.264-.525-2.075-1.288-1.875-2.8.117-.878-.558-1.781.056-2.658a8.756,8.756,0,0,1,4.617-1.231c5.388-.434,10.791-.81,15.4.237a70.915,70.915,0,0,0-18.362-.841c-1.079.1-2.565.445-2.951-.917-.378-1.337,1.113-1.629,2.019-2.1a56.765,56.765,0,0,1,25.022-6.076C836.36,194.268,841.608,195.7,846.8,197.132Z" transform="translate(-732.361 -151.87)" fill="#fdfdfd"/>
        <path id="패스_8963" data-name="패스 8963" d="M810.478,132.338c4.963-3.414,10.245-3.086,15.539-1.1,2.25.845,3.02,3.116,3.637,5.248a15.135,15.135,0,0,1-.99,10.687,33.733,33.733,0,0,1-6.274,8.91,21.338,21.338,0,0,0-3.129,4.265,23.955,23.955,0,0,1-12.487,10.132c-3.19,1.117-6.3,2.451-9.518,3.5a.921.921,0,0,1-1.022-.555,2.668,2.668,0,0,1,.845-2.172c5.268-6.87,10.941-13.437,15.551-20.8.26-.415.645-.722.882-1.154-4.654,6.634-10.239,12.475-15.65,18.464-.8.88-1.611,1.735-2.475,2.545-.472.442-.995.96-1.7.633-.78-.363-.679-1.148-.63-1.846a24.992,24.992,0,0,1,.527-3.183,93.9,93.9,0,0,1,7.575-22.076c1.942-4.039,4.98-7.25,7.845-10.6C809.406,132.776,810.057,132.75,810.478,132.338Z" transform="translate(-728.075 -126.288)" fill="#fdfdfd"/>
        <path id="패스_8964" data-name="패스 8964" d="M722.122,263.871c-4.54,2.864-8.755,1.649-10.932-3.2a15.225,15.225,0,0,1,.136-13.187c4.721-9.636,12.282-16.752,20.689-23.059,3.075-2.306,6.725-3.6,10.361-4.806.955-.317,1.982-.442,2.565.64a2.114,2.114,0,0,1-.558,2.888c-4.105,3.353-7.491,7.414-11.134,11.227a70.5,70.5,0,0,0-6.118,7.672c4.932-6.6,11.1-11.921,17.532-16.973.745-.586,1.558-1.284,2.586-.435a1.914,1.914,0,0,1,.082,1.707,7.319,7.319,0,0,1-.532,1.521c-4.436,8.527-7.64,17.7-13.323,25.568a44.169,44.169,0,0,1-9.128,9.272C723.679,263.211,722.787,263.337,722.122,263.871Z" transform="translate(-695.124 -161.759)" fill="#fdfdfd"/>
        <path id="패스_8965" data-name="패스 8965" d="M788.628,281.807c-2.75,3.083-4.9,3.479-9.471,1.2a8.846,8.846,0,0,1-3.461-3.269c-2.979-4.556-4.078-9.687-4.936-14.98-1.52-9.384.69-18.251,3.206-27.114a14.912,14.912,0,0,1,1.267-2.965,2.3,2.3,0,0,1,1.662-1.4,1.853,1.853,0,0,1,1.092.2,3.435,3.435,0,0,1,1.8,2.875,60.059,60.059,0,0,1,.735,14.961,103.222,103.222,0,0,0,.1-14.551,2.75,2.75,0,0,1,0-.323c.044-.885.124-1.783,1.169-2.064s1.6.439,2.008,1.229a50.138,50.138,0,0,1,2.511,6.11c1.794,5.012,2.946,10.214,4.483,15.3,1.71,5.653,1.674,11.3,1.052,17.044.244,1.562-.506,2.912-.932,4.332h0A15.747,15.747,0,0,1,788.628,281.807Z" transform="translate(-719.067 -167.246)" fill="#fdfdfd"/>
        <path id="패스_8966" data-name="패스 8966" d="M686.309,210.483c-1.485-3.29-.667-6.319,1.237-9.1a12.574,12.574,0,0,1,6.569-4.955c9.318-3.93,18.586-2.685,27.821.31a54.545,54.545,0,0,1,6.294,2.525,6.436,6.436,0,0,1,1.274.694c.464.362,1.024.728.8,1.432-.216.689-.867.775-1.464.76-2.528-.062-5.052-.153-7.586-.047a103.141,103.141,0,0,0-14.773,1.329,9.751,9.751,0,0,0-2.3.249c7.723-1.269,15.53-.813,23.336-.132a12.267,12.267,0,0,1,3.318.667c1.345.513,1.491,1.485.409,2.443a5.943,5.943,0,0,1-1.519.912c-7.762,3.516-15.645,6.626-24.125,8.048a30.114,30.114,0,0,1-13.881-.642A8.973,8.973,0,0,1,686.309,210.483Z" transform="translate(-685.544 -151.693)" fill="#fdfdfd"/>
        <path id="패스_8967" data-name="패스 8967" d="M686.81,184c.911.893,1.711,1.881,2.656,2.759,2.107,1.958,4.8,1.759,7.274,2.1,5.639.785,11.052-.663,16.5-2,5.838-1.432,11.187-4.034,16.679-6.309.852-.354,2.216-.628,2.108-1.676s-1.507-.764-2.334-.916c-5.63-1.029-11.34-.882-17.022-.915-2.985-.018-5.974.454-8.961.7-.448.037-.942.357-1.381-.254,2.975-1.274,6.167-1.46,9.241-1.835a107.534,107.534,0,0,1,15.076-.7c.966.019,1.932.089,2.9.132.357.016.822.227.986-.251s-.343-.631-.636-.8a41.8,41.8,0,0,0-6.345-2.756A56.548,56.548,0,0,0,705.564,168a23.3,23.3,0,0,0-8.9,1.525,13.78,13.78,0,0,1-2.053.422,30.839,30.839,0,0,1,10.564-2.893c5.731-.488,11.3.422,16.871,1.548.358.12.809.248,1.018-.1.287-.472-.268-.614-.537-.809-.3-.215-.532-.532-.914-.625a2.021,2.021,0,0,1-1.028-.752,20.1,20.1,0,0,0-2.91-2.771,21.7,21.7,0,0,1-5.369-5.995c-2.766-4.736-5.332-9.569-5.306-15.278a5.95,5.95,0,0,1,.714-3.237c.718.376.624,1.088.65,1.705.3,7.434,3.408,13.52,8.646,18.715a89.722,89.722,0,0,0,8.744,7.884,37.447,37.447,0,0,0,9.367,4.733c-1.8-1.855-3.637-3.653-5.292-5.627a161.857,161.857,0,0,1-11.7-16.431c-.374-.579-1.065-1.453-.226-1.972.745-.46,1.36.41,1.8,1,1.87,2.5,3.914,4.866,5.861,7.306a83.615,83.615,0,0,0,8.411,9.359,7.2,7.2,0,0,0,1.814,1.369,45.462,45.462,0,0,0-4.2-9.742c-2.1-3.331-3.535-7.015-5.659-10.331-.408-.637-.876-1.419-.23-2.236,1.38,1.1,1.993,2.751,2.975,4.133,1.969,2.774,3.812,5.638,5.866,8.394-.649-3.446-1.422-6.833-1.791-10.276-.535-5-.647-10.016,1.636-14.692a10.215,10.215,0,0,1,4.943-5.3c.249.409.01.725-.223,1.014-5.107,6.337-5.1,13.4-3.285,20.89a76.905,76.905,0,0,0,6.117,15.883c.78,1.584,1.982,2.927,2.533,4.628-.437,1.387-1.986,1.232-2.835,2.046a16.048,16.048,0,0,0-5.248,8.44,7.411,7.411,0,0,0,1.172,6.284,2.5,2.5,0,0,1,.669,1.6.707.707,0,0,1-.224.424c-.784-.4-1.3.1-1.878.514a97.568,97.568,0,0,0-9.278,7.974,63.8,63.8,0,0,0-8.867,9.506,1.469,1.469,0,0,1-1.244.719c2.048-3.083,3.8-6.156,6.31-8.736,4.038-4.146,7.674-8.69,12.254-12.3.786-.619.41-1.386.148-2.061-.283-.729-.972-.616-1.53-.43-4.489,1.5-8.875,3.243-12.627,6.212a109.791,109.791,0,0,0-15.611,15.718,12.475,12.475,0,0,0-2.238,3.713,3.529,3.529,0,0,1-1.2,1.865c1.331-4.128,4.034-7.443,6.542-10.85a79.541,79.541,0,0,1,10.5-11.544,3.733,3.733,0,0,0,.386-.51c-.615-.36-1.114-.047-1.6.062a84.457,84.457,0,0,1-15.469,2.269c-4.663.17-9.277-.288-13.243-3.167A5.365,5.365,0,0,1,686.81,184Z" transform="translate(-686.045 -125.211)" fill="#f3f2ee"/>
        <path id="패스_8968" data-name="패스 8968" d="M775.247,168.26c-2.192-2.1-3.076-4.982-4.408-7.582a61.393,61.393,0,0,1-4.5-12.328,34.537,34.537,0,0,1-1.244-9.485,18.043,18.043,0,0,1,5.21-13.025c7.054-4.457,12.128,0,13.937,5.491,2.521,5.695,2.085,11.491.427,17.264-1.29,4.491-2.684,8.958-4.28,13.354-.283.779-.433,1.939-1.5,1.823-1.125-.123-1.177-1.323-1.177-2.194-.005-5.335-.915-10.58-1.487-15.859a10.456,10.456,0,0,0-.189-1.3,84.421,84.421,0,0,1,.729,14.021c-.1,2.469-.087,4.945-.334,7.407a3.942,3.942,0,0,1-.717,2.429A.321.321,0,0,1,775.247,168.26Z" transform="translate(-717.02 -124.018)" fill="#fdfdfd"/>
        <path id="패스_8969" data-name="패스 8969" d="M832.21,253.71a7.431,7.431,0,0,1,1.206,3.787c.249,3.139-1.79,4.97-4.953,4.793-4.077-.229-7.232-2.5-10.429-4.591-2.553-1.667-4.874-3.69-7.285-5.571a2.66,2.66,0,0,1-.445-.638,70.061,70.061,0,0,0-7.025-7.968,44.032,44.032,0,0,1-7.155-10.3c-.536-1.029-1.049-2.105.345-2.931,1.113-.412,1.967.181,2.83.74a65.054,65.054,0,0,1,13.445,11.512c-3.531-3.709-7.276-8.5-12.259-12.055-.8-.569-1.722-1.235-1.277-2.513a1.57,1.57,0,0,1,.431-.563,2.176,2.176,0,0,1,2.424-.106,45.067,45.067,0,0,1,8.586,5.085c3.081,2.339,6.253,4.552,9.251,7.007a59.931,59.931,0,0,1,11.715,13.212C831.854,252.969,831.8,253.464,832.21,253.71Z" transform="translate(-729.082 -164.766)" fill="#fdfdfd"/>
        <path id="패스_8970" data-name="패스 8970" d="M739.39,149.787a7.126,7.126,0,0,0,1.123,2.82c2.345,4.335,4.785,8.621,7.046,13,1.051,2.036,1.781,4.24,2.635,6.377.133.334.288.771-.13,1.021-.488.291-.757-.143-1.09-.409-3.719-2.976-6.671-6.677-9.7-10.3-2.206-2.64-4.281-5.389-6.42-8.084a2.028,2.028,0,0,0-1.349-.99,45.481,45.481,0,0,0,4.1,6.524c1.516,2.147,2.934,4.365,4.5,6.474,1.537,2.071,3.125,4.115,4.839,6.04,1.692,1.9,3.568,3.636,5.4,5.482-.763.561-1.283.159-1.81-.036a42.127,42.127,0,0,1-16.376-11.03c-2.046-2.2-4.362-4.136-6.007-6.7a26.453,26.453,0,0,1-4.651-14.958,8.245,8.245,0,0,0-.089-.955,6.456,6.456,0,0,1,9.032-3.666,18.457,18.457,0,0,1,7.322,6.83A10.626,10.626,0,0,1,739.39,149.787Z" transform="translate(-699.737 -130.228)" fill="#fdfdfd"/>
        <path id="패스_8971" data-name="패스 8971" d="M782.268,172.191a113.564,113.564,0,0,0-.229-26.27,9.206,9.206,0,0,1,1.573,4.628,24.626,24.626,0,0,0,.6,4.455c.677,3.274.523,6.6.739,9.91.057.882-.155,2.241.676,2.412.81.166.708-1.218.961-1.921a148.213,148.213,0,0,0,5.767-19.592,15.575,15.575,0,0,0-.714-7.722,20.456,20.456,0,0,1-.7-2.8,18.884,18.884,0,0,1,2.047,9c.048,1.968-.239,3.944-.409,6.388,1.031-1.754,1.849-3.114,2.637-4.491a40.938,40.938,0,0,1,9.072-11.218,3.776,3.776,0,0,1,1.837-.941c-3.727,3.942-7.172,8.083-9.478,13.062a91.224,91.224,0,0,0-7.279,22.806c-.137.789-.754,1.922.141,2.366.755.375,1.3-.734,1.814-1.3,4.715-5.208,9.713-10.167,13.951-15.8,1.064-1.413,2.2-2.774,3.348-4.118a3.855,3.855,0,0,1,1.491-1.3l.544.43c-.941,1.206-1.976,2.349-2.805,3.626-3.956,6.092-8.651,11.622-13.065,17.367-.937,1.22-2.176,2.257-2.686,3.789a2.4,2.4,0,0,1-1.9-.688c-1.992-1.408-4.106-2.285-6.616-1.744A1.205,1.205,0,0,1,782.268,172.191Z" transform="translate(-723.727 -127.98)" fill="#f4f2ee"/>
        <path id="패스_8972" data-name="패스 8972" d="M755.181,228l-.022-.409c1.231-.366,1.664.86,2.516,1.253a25.621,25.621,0,0,0,2.337,1.375c.473.292,1.119.454,1.16,1.185-1.1.221-1.31,1.219-1.62,2.026a70.219,70.219,0,0,0-4.664,23.25,36.7,36.7,0,0,0,4.654,19.877,4.78,4.78,0,0,1,.308.905c-2.375-2.789-3.388-6.188-4.223-9.639a66.848,66.848,0,0,1-.222-29.129,3.657,3.657,0,0,0,.062-1.283,54.6,54.6,0,0,0-5.282,8.007,65.884,65.884,0,0,1-9.892,14.089c-2.913,3.083-5.929,6.1-10.075,7.58,3.533-2.2,6.286-5.259,8.994-8.342a49.4,49.4,0,0,0,7.83-12.48c2.13-4.738,4.51-9.349,6.78-14.017A10.645,10.645,0,0,0,755.181,228Z" transform="translate(-703.222 -164.977)" fill="#f1f0ec"/>
        <path id="패스_8973" data-name="패스 8973" d="M799.76,191c1.559-1.31,3.6-1.488,5.382-2.3,3.048-1.384,6.41-2,9.205-4.038a35.433,35.433,0,0,0,6.565-6.317c1.368-1.672,2.208-3.783,4.1-5.019-2.753,4.162-4.9,8.756-8.942,12l.265.343c1.574-.176,3.156-.294,4.719-.538,6.987-1.091,13.673.488,20.321,2.3a11.838,11.838,0,0,1,3.762,1.36l-11.283-1.783a34.362,34.362,0,0,0-11.839.329c-5.271.992-10.536,1.909-15.392,4.341-1.151.576-2.319,1.117-3.483,1.667-.347.164-.738.315-.633.793s.525.485.907.467c2.243-.1,4.486-.289,6.731-.306a57.924,57.924,0,0,1,15.475,1.742.929.929,0,0,1,.676.483c-7.658-.773-15.2-1.007-22.694.695-.427-.1-.657-.456-.956-.724-1.02-1.478-1.637-3.2-2.78-4.6A.78.78,0,0,1,799.76,191Z" transform="translate(-730.702 -143.532)" fill="#f3f2ee"/>
        <path id="패스_8974" data-name="패스 8974" d="M791.621,232.667c-1.135.465-.758,1.171-.363,1.955a48.64,48.64,0,0,0,8.671,12.078,40.819,40.819,0,0,1,4.4,5.112,2.978,2.978,0,0,1,.826,1.7q-5.116-5.1-10.233-10.2c-.22-.219-.459-.419-.914-.832,1.091,4.808,2.408,9.259,3.154,13.839a51.115,51.115,0,0,1-.159,17.47c-.085.172-.188.175-.307.033-.761-.4-.352-1.048-.311-1.583.313-4.08.526-8.205-.493-12.173-2.1-8.191-4.008-16.462-7.557-24.209a4.582,4.582,0,0,0-.248-.595c-.3-.473-.451-1.168-1.266-.987-.893.2-.839.983-.764,1.557.215,1.658.161,3.319.238,4.978a56.905,56.905,0,0,1-.637,10.918,1.836,1.836,0,0,1-.662,1.485c-.024-2.849.011-5.625-.085-8.4a65.257,65.257,0,0,0-1.024-9.747,2.671,2.671,0,0,0-1.322-1.693,1.451,1.451,0,0,1,1.606-.372,8.913,8.913,0,0,0,5.592-.606,2.091,2.091,0,0,1,1.7-.18A.335.335,0,0,1,791.621,232.667Z" transform="translate(-723.936 -166.789)" fill="#f0efea"/>
        <path id="패스_8975" data-name="패스 8975" d="M804.135,211.375c.383.178.437.549.524.9a11.254,11.254,0,0,1,.371,3.024c-.109.766.308,1.139.995,1.43,6.372,2.7,12.724,5.483,19.554,6.839a60.679,60.679,0,0,0,6.082.537,2.541,2.541,0,0,1,1.676.422c-6.23-.193-12.449-.429-18.442-2.45a17.944,17.944,0,0,0-4.255-.828c2.617,2.105,5.291,4.143,7.84,6.329,5.562,4.772,10.8,9.856,14.727,16.125a13.943,13.943,0,0,1,1.676,3.825q-3.847-4.631-7.7-9.261c-2.6-3.117-5.888-5.477-9.083-7.875-3.591-2.7-7.1-5.57-11.16-7.583-1.4-.7-2.687-2.061-4.532-1.269a1.8,1.8,0,0,1,.386-1.651,9.616,9.616,0,0,0,1.14-6.516C803.839,212.7,803.606,212,804.135,211.375Z" transform="translate(-731.754 -158.586)" fill="#f2f0ec"/>
        <path id="패스_8976" data-name="패스 8976" d="M744.412,193.294a3.8,3.8,0,0,1,1.013.421c.5.409,1.632.653,1.234,1.392-.346.644-1.217.019-1.814-.285.259-.189,1.269,0,.376-.766C744.94,193.817,744.681,193.55,744.412,193.294Z" transform="translate(-708.838 -151.431)" fill="#ecebe6"/>
        <path id="패스_8977" data-name="패스 8977" d="M805.35,301.12a1.753,1.753,0,0,1,.308-.033,7.692,7.692,0,0,1-1.228,4.136Z" transform="translate(-732.587 -194.085)" fill="#bbbcaf"/>
        <path id="패스_8978" data-name="패스 8978" d="M800.655,311.355a19.886,19.886,0,0,1,2.281-3.422A5.388,5.388,0,0,1,800.655,311.355Z" transform="translate(-731.094 -196.794)" fill="#bbbcaf"/>
        <path id="패스_8979" data-name="패스 8979" d="M737.9,187.463a5.646,5.646,0,0,1,2.91,2.771A17.6,17.6,0,0,1,737.9,187.463Z" transform="translate(-706.259 -149.124)" fill="#ecebe6"/>
        <path id="패스_8980" data-name="패스 8980" d="M792.956,205.5c.266,2.258,1.024,4.489.1,6.793a26.806,26.806,0,0,1-1.825,3.374l-.227.307a3.3,3.3,0,0,1-2.834,2.249,12.263,12.263,0,0,1-8.967,1.077l-.68-.159c-1.189-.846-2.7-1.139-3.773-2.18-.363-.494-1.053-.934-.425-1.649a1.522,1.522,0,0,1,1.939-.219,10.441,10.441,0,0,0,6.393,1.123c3.912-.63,8.159-6.079,6.088-10.429a12.133,12.133,0,0,0-.809-2.06c.015.026.1.215.191.4.338.734.529,1.583-.273,2.006-.9.476-1.349-.386-1.681-1.043a7.187,7.187,0,0,0-5.124-4.261,10.881,10.881,0,0,0-3.2.221c-.481.045-1.1.131-1.287-.389-.192-.544.373-.846.8-1.054a6.911,6.911,0,0,1,2.944-.929,8.1,8.1,0,0,0-2.278.487c-.786.145-1.692.546-2.2-.54.7-1.069,2.143-.827,2.968-1.677l.314-.031c3.857-1.123,7,.272,9.839,2.776a.629.629,0,0,0,.677.483C791.3,201.605,791.836,203.735,792.956,205.5Z" transform="translate(-720.576 -152.711)" fill="#e49d01"/>
        <path id="패스_8981" data-name="패스 8981" d="M773.268,199.737a3.314,3.314,0,0,0,2.473-.106,3.264,3.264,0,0,1,3.726.651c-1.911-.311-3.536.3-5.413,1.457,2.056-.076,3.693-.839,5.452-.164a7.973,7.973,0,0,1,4.459,4.138c.071.143.068.331.158.453.266.363.4,1.045,1,.827.491-.181.207-.746.194-1.159-.032-.971-.87-1.551-1.289-2.479,2.355,1.169,3.984,5.246,2.894,8.125-2.334,6.168-8.32,8.145-13.086,5.329-.544-.321-1.181-.7-1.789-.2-.593.491.126.966.144,1.46l-2.241-1.632c-3.353-4.232-2.908-8.507-.066-12.751C770.845,202.245,771.53,200.529,773.268,199.737Z" transform="translate(-718.009 -153.819)" fill="#f2af0b"/>
        <path id="패스_8982" data-name="패스 8982" d="M797.405,230.957l2.834-2.249c-.27,1.41.974,1.858,1.745,2.423,5.127,3.761,9.075,8.651,13.111,13.461.083.1.063.284.185.913-1.83-1.766-3.375-3.2-4.859-4.7a63.279,63.279,0,0,0-11.145-8.977,2.042,2.042,0,0,0-1.784-.507Z" transform="translate(-729.808 -165.445)" fill="#f2f0ec"/>
        <path id="패스_8983" data-name="패스 8983" d="M781.355,222.483c.819.117,1.476.253,2.139.3,3.392.221,5.605-1.258,6.787-4.462.254-.69.37-2.059,1.149-1.721.925.4.039,1.486-.227,2.241a9.215,9.215,0,0,1-2.145,3.174C787.373,223.807,783.243,224.145,781.355,222.483Z" transform="translate(-723.457 -160.631)" fill="#e49d01"/>
      </g>
      <g id="그룹_307" data-name="그룹 307" transform="translate(219.084 192.001)">
        <path id="패스_8984" data-name="패스 8984" d="M1092.889,557.5c-.051,3.881-.837,7.476-4.206,9.923a7.118,7.118,0,0,1-9.237-.954,11.386,11.386,0,0,1-2.133-3,58.507,58.507,0,0,1-4.22-12.63c-2.355-6.572-2.495-13.334-1.732-20.173.011-.267.032-.595.253-.72,1.68-.951,3.045-2.382,4.836-3.162a3.108,3.108,0,0,1,2.145.984,41.521,41.521,0,0,1,12.1,17.6A39.293,39.293,0,0,1,1092.889,557.5Z" transform="translate(-1022.892 -475.392)" fill="#fdfdfd"/>
        <path id="패스_8985" data-name="패스 8985" d="M1116.049,516c4.545,2.747,6.592,6.884,6.6,12.086,0,1.908-1.319,3.143-2.7,4.178-3.638,2.726-7.727,2.994-11.974,1.879-2.492-.654-4.944-1.455-7.414-2.189a47.014,47.014,0,0,1-6.847-2.1,18.988,18.988,0,0,1-7.427-6.039c-1.235-1.519-3-2.677-3.469-4.758a1.1,1.1,0,0,1,.065-.466,1.632,1.632,0,0,1,2.1-.607c3.987,1.1,7.892,2.456,11.823,3.737,2.2.717,4.456,1.256,6.711,1.782a86.877,86.877,0,0,1-14.564-4.654,32.162,32.162,0,0,1-3.9-1.521,2.376,2.376,0,0,1-1.414-1.627,1,1,0,0,1,.213-.479c1.424-1.433,3.369-1.312,5.121-1.588a61.924,61.924,0,0,1,16.444-.508,42.214,42.214,0,0,1,10,2.727A2,2,0,0,0,1116.049,516Z" transform="translate(-1027.59 -469.858)" fill="#fdfdfd"/>
        <path id="패스_8986" data-name="패스 8986" d="M994.795,490a20.081,20.081,0,0,1-1.713-1.452c-2.325-2.446-2.186-5.457.312-8.024,3.487-3.583,7.836-4.179,12.511-3.615.9.109,1.785.358,2.676.543,4.385,1.583,8.852,2.923,13.1,4.895a33.572,33.572,0,0,1,11.453,9.18,2.454,2.454,0,0,1,.686,2.062,1.91,1.91,0,0,1-1.251,1.294,8.127,8.127,0,0,1-3.337-1.031c-5.013-2.43-10.176-4.5-15.349-6.548,5.225,2.113,10.572,3.951,15.318,7.116a5.513,5.513,0,0,1,1.026.779,1.294,1.294,0,0,1-.645,2.32,4.07,4.07,0,0,1-1.436.178c-6.571-.624-13.21-.569-19.711-1.858A34.319,34.319,0,0,1,994.795,490Z" transform="translate(-991.426 -455.589)" fill="#fdfdfd"/>
        <path id="패스_8987" data-name="패스 8987" d="M1003.369,540.786a8.674,8.674,0,0,1-5.763-1.039c-2.511-1.326-3.339-4.411-2.177-7.629a15.5,15.5,0,0,1,5.1-6.536,27.8,27.8,0,0,1,6.119-3.87,57.011,57.011,0,0,1,16.332-4.978,42.087,42.087,0,0,1,5.28-.433,3.26,3.26,0,0,1,2.843,1.174c.56,1.376.268,2.272-1.167,3.184a41.356,41.356,0,0,1-8.36,3.9,15.571,15.571,0,0,1-3.252,1.007,50.776,50.776,0,0,0,9.61-3.718,9.78,9.78,0,0,1,2.4-.937c1.3-.25,1.938.489,1.56,1.767a4.414,4.414,0,0,1-1.324,1.8c-3.585,3.6-7.746,6.479-11.737,9.58a37.006,37.006,0,0,1-12.6,6.055C1005.294,540.387,1004.433,541.038,1003.369,540.786Z" transform="translate(-992.805 -471.245)" fill="#fdfdfd"/>
        <path id="패스_8988" data-name="패스 8988" d="M1033.6,447.435c.635-4.243,4.5-6.582,8.9-5.37a10.7,10.7,0,0,1,4.376,2.32,24.967,24.967,0,0,1,5.1,6.131c2.614,6.054,4.49,12.27,4.171,18.971a22.667,22.667,0,0,1-.169,2.413c-.107.689-.358,1.265-1.106,1.416-.856.173-1.267-.421-1.618-1.052a13.557,13.557,0,0,1-.5-1.363c-1.911-4.488-3.528-9.105-5.874-13.4a74.582,74.582,0,0,1,5.482,13.409,18.926,18.926,0,0,1,.731,3.634,1.494,1.494,0,0,1-.772,1.634,1.52,1.52,0,0,1-1.664-.205,5.691,5.691,0,0,1-.769-.587c-5.844-5.494-11.033-11.521-14.482-18.825A17.257,17.257,0,0,1,1033.6,447.435Z" transform="translate(-1008.085 -441.745)" fill="#fdfdfd"/>
        <path id="패스_8989" data-name="패스 8989" d="M1111.9,481.473c3.588,2.945,3.944,6.488.984,10.049a15.972,15.972,0,0,1-6.272,4.855,44.3,44.3,0,0,1-10.9,2.486c-2.361.149-4.724.24-7.083.416a5.5,5.5,0,0,1-.967,0c-.741-.074-1.6,0-1.81-.978-.219-1.023.558-1.442,1.291-1.792,1.831-.873,3.748-1.548,5.593-2.388,2.055-.935,4.005-2.07,5.39-2.815a67.835,67.835,0,0,1-14.076,6.119,3.765,3.765,0,0,1-2.063.032c-1.071-.9-.611-1.829.03-2.679a52.854,52.854,0,0,1,6.189-6.749,33.081,33.081,0,0,1,13.122-8.041,16.652,16.652,0,0,1,8.168-.073A6.233,6.233,0,0,1,1111.9,481.473Z" transform="translate(-1027.006 -456.66)" fill="#fdfdfd"/>
        <path id="패스_8990" data-name="패스 8990" d="M1087.552,469.469c-6.23-3.333-11.687-.952-17,2.328-4.628,2.854-8.287,6.781-11.819,10.835-.584.67-1.267,1.365-1.032,2.416a.414.414,0,0,1-.292.309c-1.09-.164-1.881-.977-2.886-1.327-2.391-1.744-5.077-1.812-7.844-1.378-.71.111-1.438.635-2.052-.194a30.168,30.168,0,0,0-11.886-10.27,104.058,104.058,0,0,0-10.661-4.486,5.281,5.281,0,0,1-2.258-1.178,66.014,66.014,0,0,1,16.409,5.581c.292-.663-.207-.943-.439-1.308-2.935-4.621-6.006-9.175-7.366-14.588a11.262,11.262,0,0,1-.247-5.864c.787,8.883,5.924,15.483,11.507,21.828,1.7,1.937,3.565,3.735,5.376,5.575.4.406.85,1.016,1.494.685.668-.343.375-1.061.253-1.608a88.841,88.841,0,0,0-5.206-15.064,13.5,13.5,0,0,1-1.5-3.97,26.3,26.3,0,0,1,3.783,6.071,88.629,88.629,0,0,1,4.489,10.534c.162.482.277,1.241.925,1.132s.5-.873.532-1.377a43.287,43.287,0,0,0-1.931-15.918c-.512-1.583-.9-3.205-1.348-4.81a37.155,37.155,0,0,1,4.857,13.7,2.888,2.888,0,0,0,.477,1.661c.707-1.871,1.38-3.644,2.046-5.419a26.3,26.3,0,0,1,10.026-12.491,8.091,8.091,0,0,1,5.889-1.708c.019.8-.655.9-1.176,1.123a21.187,21.187,0,0,0-8.217,6.071c-2.622,3.192-3.931,7.012-5.455,10.73a23.673,23.673,0,0,0-1.9,9.941,89.965,89.965,0,0,1,10.057-16.329c.16-.216.317-.436.481-.648.433-.562.97-.955,1.648-.5s.539,1.117.143,1.708c-1.349,2.015-2.423,4.188-3.628,6.286a69.692,69.692,0,0,0-4.032,7.893,1.313,1.313,0,0,0-.129,1.045,18.754,18.754,0,0,0,4.211-4.189c2.082-2.892,4.8-5.229,6.854-8.136.619-.876,1.236-1.76,1.9-2.6.394-.5.769-1.114,1.559-.583-1.531,3.023-3.722,5.61-5.577,8.419-.885,1.34-1.828,2.644-2.744,3.964.083.669.415.522.789.242,3.91-2.794,8.021-5.205,12.756-6.308C1081.088,466.439,1084.628,466.565,1087.552,469.469Z" transform="translate(-1002.66 -444.655)" fill="#f4f3ef"/>
        <path id="패스_8991" data-name="패스 8991" d="M1043.767,562.183a6.647,6.647,0,0,1-3.708,2.664,3.025,3.025,0,0,1-3.936-2.114,8.119,8.119,0,0,1-.6-3.147,36.37,36.37,0,0,1,3.506-14.4,72.086,72.086,0,0,0,4.171-8.244,28.569,28.569,0,0,1,4.92-7.3,2.387,2.387,0,0,1,1.682-.841c1.667.094,2.82,1.276,4.2,1.984a3.918,3.918,0,0,1,.487,2.638c-1.133,8.785-3.405,17.2-8.043,24.853C1045.625,559.635,1044.649,560.875,1043.767,562.183Z" transform="translate(-1008.873 -476.196)" fill="#fdfdfd"/>
        <path id="패스_8992" data-name="패스 8992" d="M1093.322,461.032c-1.471,1.292-2.28,3.1-3.565,4.55-3.626,4.1-6.829,8.57-10.973,12.2-.382.335-.737,1.045-1.3.7-.668-.415-.136-1.073.053-1.592,1.946-5.333,4.991-10.1,7.775-15,.311-.546.665-1.068,1-1.6l-.355-.291a32.2,32.2,0,0,0-2.247,2.823c-2.269,3.579-4.813,6.98-6.849,10.714-.855,1.568-1.435,3.243-2.2,4.839-.212.439-.211,1.276-.9,1.126-.617-.134-.442-.885-.447-1.4a33.223,33.223,0,0,1,3.252-14.19c1.51-3.323,2.937-6.651,5.6-9.341a19.721,19.721,0,0,1,8.845-5.349,5.1,5.1,0,0,1,4.578,5.887A11.25,11.25,0,0,1,1093.322,461.032Z" transform="translate(-1023.821 -444.703)" fill="#fdfdfd"/>
        <path id="패스_8993" data-name="패스 8993" d="M1031.709,508.918a2.883,2.883,0,0,0-2.485-.865,65.52,65.52,0,0,0-18.244,3.461,16.572,16.572,0,0,1-3.508,1.133,36.091,36.091,0,0,1,12.018-4.92c1.973-.488,3.991-.792,6.292-1.238a2.8,2.8,0,0,0-1.842-.827c-4.966-1.215-10.132-1.389-15.042-2.924A38.133,38.133,0,0,1,998.514,498,3.7,3.7,0,0,1,997,496.6c2.111.92,4.1,2.083,6.236,2.979a38.757,38.757,0,0,0,11.717,2.751c4.924.434,9.857.791,14.789,1.125.853.058,2.159.429,2.441-.515.24-.8-1.047-1.226-1.753-1.618a84.842,84.842,0,0,0-14.848-6.963,3.83,3.83,0,0,1-1.865-.867,5.934,5.934,0,0,1,3.277.391,100.048,100.048,0,0,1,14.963,5.936,7.158,7.158,0,0,0,2.523,1.02.879.879,0,0,1-.045,1.16,13.968,13.968,0,0,0-1.325,3.035,9.62,9.62,0,0,0-.427,2.5c-.081.564-.007,1.208-.738,1.438Z" transform="translate(-993.632 -462.18)" fill="#f3f2ee"/>
        <path id="패스_8994" data-name="패스 8994" d="M1039.41,525.385c-2.756,2-4.417,4.889-6.091,7.733-1.323,2.25-2.46,4.61-3.68,6.92a2.756,2.756,0,0,1-1.141,1.3q2.074-4.859,4.149-9.718c.1-.234.292-.451.063-.833-2.465,1.685-4.9,3.4-7.384,5.039a38.922,38.922,0,0,1-15.305,6.025,8.543,8.543,0,0,1-1.114.037c5.772-1.941,11.339-4.242,16.129-8.171,3.574-2.931,7.413-5.54,10.657-8.865.542-.555,1.624-1.175,1.165-1.9-.506-.8-1.454.03-2.13.334a49.83,49.83,0,0,1-12.356,4.115c-.489.08-1,.406-1.7-.1,1.116-.4,2.079-.8,3.075-1.088a54.317,54.317,0,0,0,11.024-4.923,2.871,2.871,0,0,0,1.649-2.2l.061.019a1.116,1.116,0,0,1,.793.711,15.614,15.614,0,0,0,2.089,4.248A1.031,1.031,0,0,1,1039.41,525.385Z" transform="translate(-998.343 -472.35)" fill="#f3f2ee"/>
        <path id="패스_8995" data-name="패스 8995" d="M1082.34,503.673a76.423,76.423,0,0,0,14.172-5.274c1.382-.683,2.746-1.4,4.364-2.23-.192,1.016-.831,1.242-1.314,1.552a74.228,74.228,0,0,1-10.981,5.786c-.346.147-.7.273-1.035.45s-.812.325-.739.752c.1.6.694.4,1.072.383,4.132-.187,8.273-.305,12.375-.863,2.232-.3,4.437-.813,6.654-1.23-1.6,1.3-3.727,1.227-5.749,2.242,5.164.9,10.228,1.4,14.6,4.179a4.038,4.038,0,0,1-2.065-.21c-5.839-2.388-11.972-2.383-18.089-2.054-4.045.218-8.14.457-12.007,1.934-.21-.05-.474-.12-.528-.31-.462-1.626-1.359-3.186-.8-4.975Z" transform="translate(-1027.305 -463.281)" fill="#f4f3ef"/>
        <path id="패스_8996" data-name="패스 8996" d="M1049.168,563.3c1.537-2.95,3.263-5.818,4.572-8.864a70.229,70.229,0,0,0,5.389-20.353,2.957,2.957,0,0,0-.213-1.738,3.389,3.389,0,0,1,4.306.128c-.043,4.985-.229,9.967.093,14.956.121,1.868.974,3.508,1.16,5.323a25.44,25.44,0,0,1-2.324-8.1c-.343-2-.239-4.066-.779-6.048-.614.033-.495.534-.579.84a84.167,84.167,0,0,1-7.426,18.63A16.614,16.614,0,0,1,1049.168,563.3Z" transform="translate(-1014.275 -477.316)" fill="#f2f1ed"/>
        <path id="패스_8997" data-name="패스 8997" d="M1081.985,522.653c3.863,4.758,7.484,9.777,13.681,11.874,1.261.427,2.687.412,3.776,1.326-3.084.1-5.839-1.1-8.772-2.366a7.844,7.844,0,0,0,1.335,3.023c3.355,5.859,4.229,12.312,4.585,18.893a1.56,1.56,0,0,1-.127.462,56.011,56.011,0,0,0-2.359-10.471,42.01,42.01,0,0,0-10.723-16.973c-1.012-1-1.856-2.262-3.34-2.7A2.592,2.592,0,0,1,1081.985,522.653Z" transform="translate(-1026.467 -473.761)" fill="#f3f2ee"/>
        <path id="패스_8998" data-name="패스 8998" d="M1071.917,515.966a11.624,11.624,0,0,1-6.572,6.268,19.049,19.049,0,0,1-4.306-.128,19.846,19.846,0,0,1-3.574-2,10.626,10.626,0,0,1-2.93-6.278c.277-1.378-.13-2.873.706-4.156.312-.378.613-.761,1.2-.458a1.454,1.454,0,0,1,.723,1.346,19.394,19.394,0,0,0,.5,4.116c.93,3.237,6.353,5.387,8.922,2.858.146-.144.394-.162.509-.389a1.365,1.365,0,0,1-.216-2.192c1.5-1.8,2.237-3.759,1.046-6.07-.455-.883.246-1.257.92-1.567-.475-.569-.888-1.131.141-1.564l2.386,1.842c1.088,1.6,1.148,3.458,1.329,5.285v0c.712,1.273.163,2.229-.778,3.084Z" transform="translate(-1016.399 -467.074)" fill="#e49c01"/>
        <path id="패스_8999" data-name="패스 8999" d="M1083.3,520.636q.389-1.542.778-3.084a8.79,8.79,0,0,0,2.971,1.576c5.8,2.117,11.5,4.536,17.49,6.14a9.254,9.254,0,0,1,1.285.583c-.537.489-.979.159-1.385.091-6.6-1.106-12.883-3.383-19.276-5.25A2.279,2.279,0,0,0,1083.3,520.636Z" transform="translate(-1027.78 -471.742)" fill="#f3f2ee"/>
        <path id="패스_9000" data-name="패스 9000" d="M1069.444,504.613c-.182.679.26,1.1.621,1.573.627.823.613.834.5,2.036-.689-.193-.635-1.273-1.671-1.289,1.633,2.792.966,5.2-.971,7.42-.205.235-.549.542-.253.82.538.506.9-.4,1.427-.3-1.048,3.414-5.8,3.785-8.361,2.359a7.066,7.066,0,0,1-3.919-7.191c.054-.722.343-1.813-1.113-1.5a7.489,7.489,0,0,1,2.005-3.945,2.287,2.287,0,0,0,1.113-.853c2.985-1.322,5.981-.965,8.971-.036A2.583,2.583,0,0,1,1069.444,504.613Z" transform="translate(-1016.861 -465.932)" fill="#f2af0b"/>
        <path id="패스_9001" data-name="패스 9001" d="M1061.16,521.63c1.951,2.069,4.1,2.351,6.55,2.352C1065.708,525.43,1061.984,524.175,1061.16,521.63Z" transform="translate(-1019.02 -473.356)" fill="#e49c01"/>
      </g>
      <path id="패스_9002" data-name="패스 9002" d="M931.509,621.77a1.329,1.329,0,0,1,.571.07c.637.308,2.207,4.113,2.065,4.852-.062.324-.105.726-.419.808-1.914.5-3.643,1.807-5.81,1.21-1.679-.463-1.991-1.206-.914-2.583.856-1.093,1.743-2.162,2.6-3.253A2.634,2.634,0,0,1,931.509,621.77Z" transform="translate(-746.6 -320.979)" fill="#34504b"/>
      <path id="패스_9003" data-name="패스 9003" d="M929.659,746.73c.9,1.766,2.368,1.65,3.846,1.248a2.363,2.363,0,0,0,1.856-2.61c-.013-.3-.2-.707.311-.712a.7.7,0,0,1,.653.607c.417,1.705-1.539,3.881-3.28,3.593-.822-.137-1.721.036-2.455-.493C930.062,747.981,929.471,747.611,929.659,746.73Z" transform="translate(-747.886 -369.608)" fill="#324b45"/>
      <g id="그룹_309" data-name="그룹 309" transform="translate(130.05 377.224)">
        <path id="패스_9004" data-name="패스 9004" d="M860.265,763.265l-.625-.79c.134-.038.251-.116.327-.087,3.147,1.2,6.722,6.343,6.574,9.574a10.643,10.643,0,0,1-1.646,4.66,11.59,11.59,0,0,1-10.938,6.231c-6.9-.054-11.738-7.672-9.164-14.02,1.476-3.637,4.577-4.677,7.677-5.712C856.234,761.862,856.854,762.045,860.265,763.265Z" transform="translate(-844.091 -753.797)" fill="#96a8a5"/>
        <g id="그룹_308" data-name="그룹 308" transform="translate(0.27 0)">
          <path id="패스_9005" data-name="패스 9005" d="M861.768,757.02a17.6,17.6,0,0,1,.164,2.124c-.176,2.957-2.429,4.535-5.225,3.6-1.569-.526-2.83-.662-3.825,1.06a2.013,2.013,0,0,1-2.977.554,1.26,1.26,0,0,0-1.9.334c-1.295,1.479-2.627,1.125-3.1-.812-.884-3.621-.089-7.051,1.365-10.376a8.51,8.51,0,0,1,4.215-4.607,5.109,5.109,0,0,1,5.327.219A16.8,16.8,0,0,1,861.768,757.02Z" transform="translate(-844.538 -748.256)" fill="#34504b"/>
          <path id="패스_9006" data-name="패스 9006" d="M853.75,750.716c.4-1.862,1.884-1.629,3.063-1.706a7.662,7.662,0,0,1,5.614,2.275c2.61,2.309,4.894,6.489,3.859,9.582a3.685,3.685,0,0,1-5.121,1.959c-.393-.252-.717-.5-.642-1,.083-.554.592-.6.989-.654a2.541,2.541,0,0,0,2.312-2.823,7.976,7.976,0,0,0-9.4-7.651A4.361,4.361,0,0,1,853.75,750.716Z" transform="translate(-848.183 -748.549)" fill="#2f4842"/>
          <path id="패스_9007" data-name="패스 9007" d="M846.8,761.416a29.619,29.619,0,0,1-.045-5.238c.213-2.977,2.541-4.376,4.5-6.045.641-.546.306.321.555.42.833.33-.008.314-.112.394-2.839,2.2-4.449,4.963-3.909,8.66.1.668-.356,1.1-.357,1.687Z" transform="translate(-845.379 -748.928)" fill="#42665f"/>
        </g>
      </g>
      <g id="그룹_311" data-name="그룹 311" transform="translate(208.807 162.429)">
        <path id="패스_9008" data-name="패스 9008" d="M987.272,411.351c-5.652,1.375-9.886-1.662-12.167-6.052-1.711-3.291-.086-8.079,3.383-10.378a12.475,12.475,0,0,1,6.158-2.1c5.068-.321,10.586,5.007,10.715,10.088C995.449,406.394,991.713,411.022,987.272,411.351Z" transform="translate(-974.419 -392.809)" fill="#96a8a5"/>
        <g id="그룹_310" data-name="그룹 310" transform="translate(2.79 13.429)">
          <path id="패스_9009" data-name="패스 9009" d="M979.32,419.813c-.326-1.191-.584-2.687.5-3.109,1.381-.537,2.849-1.791,4.492-.907a2.749,2.749,0,0,0,3.234-.179,4.627,4.627,0,0,1,5.241.517,5.035,5.035,0,0,1,1.3,5.18c-.632,2.417-4.512,5.629-6.962,5.84a6.525,6.525,0,0,1-6.915-4.521A7.342,7.342,0,0,1,979.32,419.813Z" transform="translate(-979.037 -415.031)" fill="#34504b"/>
          <path id="패스_9010" data-name="패스 9010" d="M995.088,416.263c2.574,1.6,3.223,4.171,1.9,6.543a7.969,7.969,0,0,1-9.525,3.89c-.387-.128-.929-.138-.868-.741s.7-.541,1.014-.536a5.841,5.841,0,0,0,2.829-.306,4.905,4.905,0,0,0,2.875-5.19c-.021-.273-.312-.616.137-.825.842,3.235.09,4.969-2.989,6.9C994.486,425.737,996.859,420.9,995.088,416.263Z" transform="translate(-982.026 -415.519)" fill="#304a44"/>
          <path id="패스_9011" data-name="패스 9011" d="M983.646,425.242c-.3.151-.521.474-.949.1a8.09,8.09,0,0,1-3.029-5.724c-.037-.591-.1-1.578,1.137-1.661-1.032,1.417-.45,2.7.12,3.955a5.784,5.784,0,0,0,2.658,3.008Z" transform="translate(-979.281 -416.19)" fill="#486a64"/>
        </g>
      </g>
      <g id="그룹_312" data-name="그룹 312" transform="translate(177.517 77.282)">
        <path id="패스_9012" data-name="패스 9012" d="M937.3,272.746c-6.118.951-9.556-1.328-12.374-6.457-1.128-2.053-2.415-4.065-2.275-6.577a10.2,10.2,0,0,1,1.1-4.137,4.28,4.28,0,0,1,5.486-1.977,1.788,1.788,0,0,0,1.879-.194,3.994,3.994,0,0,1,4-.346c.661.305,1.146.373,1.637-.283a2.143,2.143,0,0,1,1.427-.678,12.05,12.05,0,0,1,6.129.482c1.979.7,2.119,2.705,2.039,4.35-.267,5.552-2.823,10.225-6.105,14.55A3.482,3.482,0,0,1,937.3,272.746Z" transform="translate(-922.64 -251.906)" fill="#34504b"/>
        <path id="패스_9013" data-name="패스 9013" d="M947.28,252c4.808,1.143,6.161,3.458,5.25,8.03a21.276,21.276,0,0,1-5.921,11.3c-1.583,1.561-5.3,2.418-7.491,1.106-.609-.364-1.145-.693-.963-1.449s.816-.45,1.336-.444c3.955.046,6.513-2.226,8.712-5.186,1.752-2.358,1.893-5.166,1.954-7.829C950.2,255.521,948.8,253.719,947.28,252Z" transform="translate(-928.765 -251.944)" fill="#2e4842"/>
        <path id="패스_9014" data-name="패스 9014" d="M923.748,262.565a5.584,5.584,0,0,1,.211-3.77c.332-.821.916-1.426,1.826-1.209.793.189.876.991.89,1.708a13.728,13.728,0,0,0,2,7.638,3.93,3.93,0,0,0,2.737,2.021c.844.126,1.573.618,1.4,1.627-.178,1.026-1.068,1.149-1.886,1.062a6.164,6.164,0,0,1-4.6-2.9A18.426,18.426,0,0,1,923.748,262.565Z" transform="translate(-922.986 -254.136)" fill="#40645d"/>
      </g>
      <g id="그룹_313" data-name="그룹 313" transform="translate(179.273 359.043)">
        <path id="패스_9015" data-name="패스 9015" d="M933.456,718.258a13.357,13.357,0,0,1,9.484,2.447,20.735,20.735,0,0,1,7.492,9.167c1.171,2.979-.83,5.588-4.046,5.14a24.429,24.429,0,0,1-2.634-.658c-1.016-.26-1.761-.1-2.1,1.076a8.421,8.421,0,0,1-.97,2.022c-1.707,2.777-3.135,3.1-5.957,1.353-.734-.455-1.283-1.073-1.969.177-.45.821-1.467.29-2.236.271-4.318-.1-5.4-1.214-4.831-5.453.411-3.04,1.269-6.018,1.754-9.051a7.5,7.5,0,0,1,3.852-5.764C932,718.585,932.738,718.658,933.456,718.258Z" transform="translate(-925.546 -718.17)" fill="#34504b"/>
        <path id="패스_9016" data-name="패스 9016" d="M935.144,720.5a6.465,6.465,0,0,1,4.7-1.468c4.234.113,7.267,2.2,10.227,4.665a18.021,18.021,0,0,1,4.544,5.929,3.329,3.329,0,0,1-.581,4.127,3.917,3.917,0,0,1-4.271,1.051c-.51-.154-1-.385-1.51-.531-1.1-.313-1.864-.06-2.136,1.2a4.416,4.416,0,0,1-2.369,3.093.956.956,0,0,1-1.316-.142.917.917,0,0,1,.181-1.421c1.18-.685,1.5-1.861,2.058-2.956a4.573,4.573,0,0,1,4.158-2.447c1.812-.061,2.524-.872,1.969-2.543a14.387,14.387,0,0,0-11.359-9.177C938.041,719.7,936.469,719.452,935.144,720.5Z" transform="translate(-929.344 -718.51)" fill="#2f4842"/>
        <path id="패스_9017" data-name="패스 9017" d="M936.1,721.825c-4.125.434-6.746,4.236-6.022,9.15.115.787.312,1.61-.784,1.731-1.041.115-1.206-.756-1.271-1.51a12.807,12.807,0,0,1,2.408-9.416,5.828,5.828,0,0,1,7.041-1.806c.419.182,1.033.26.993.89s-.643.614-1.1.714C936.948,721.669,936.525,721.743,936.1,721.825Z" transform="translate(-926.497 -718.682)" fill="#40645d"/>
      </g>
      <g id="그룹_314" data-name="그룹 314" transform="translate(23.144 269.585)">
        <path id="패스_9018" data-name="패스 9018" d="M678.133,586.851c-1.49,1.928-3.086,2.945-5.356,1.678a2.721,2.721,0,0,0-1.1-.123c-3.91-.226-5.671-3.427-3.658-6.807a42.025,42.025,0,0,1,8.11-9.312c3.765-3.122,6.475-2.693,9.516.267a18.13,18.13,0,0,1,5.065,9.189,7.943,7.943,0,0,1-2.824,8.365,3.892,3.892,0,0,1-3.917.756C681.7,590.131,679.468,589.368,678.133,586.851Z" transform="translate(-667.181 -570.133)" fill="#34504b"/>
        <path id="패스_9019" data-name="패스 9019" d="M689.969,570.8a8.062,8.062,0,0,1,5.509,3.073,19.609,19.609,0,0,1,3.9,6.716,9.161,9.161,0,0,1-.995,7.557c-1.974,3.446-6.444,4.176-9.9,1.143-.315-.277-.531-.667-.845-.945-.393-.348-1.04-.611-.523-1.251.417-.516.945-.279,1.446.011,3.186,1.848,6.726.644,7.927-2.815,1.353-3.9.122-7.186-2.672-10.03C692.608,573.028,691.27,571.947,689.969,570.8Z" transform="translate(-674.992 -570.395)" fill="#2e4842"/>
        <path id="패스_9020" data-name="패스 9020" d="M676.261,582.246c-.1-3.338,1.716-5.932,3.316-8.629-2.7,2.9-7.009,4.756-6.187,10.105-1.4-1.406-.389-2.8-.364-4.162-2.28,2.476-2.427,4.113-.564,5.613-1.427.009-2.21-1.453-1.647-3.107a14.768,14.768,0,0,1,3.105-5.016c1.7-1.908,3.281-3.894,5.663-5.1.867-.437,1.935.687,2.518-.54.511.322.407.632.029,1.007a21.952,21.952,0,0,0-2.421,2.552A20.449,20.449,0,0,0,676.261,582.246Z" transform="translate(-668.546 -570.639)" fill="#42655f"/>
      </g>
      <g id="그룹_315" data-name="그룹 315" transform="translate(122.38 129.864)">
        <path id="패스_9021" data-name="패스 9021" d="M831.682,346.957c-1.137-3.732,1.27-6.038,4.964-7.6,2.911-1.23,5.662.2,7.155,3.426.946,2.046,1.507,4.154.518,6.372a2.732,2.732,0,0,1-2.37,1.9,2.437,2.437,0,0,0-1.21.374C837.552,353.749,831.853,350.775,831.682,346.957Z" transform="translate(-831.398 -338.921)" fill="#34504b"/>
        <path id="패스_9022" data-name="패스 9022" d="M841.745,339.747c3.008.952,5.239,4.914,4.643,7.676a6.3,6.3,0,0,1-7.3,4.93,9.376,9.376,0,0,1-4.409-2.157c-.389-.307-.761-.711-.353-1.226.453-.572.831-.1,1.181.191,1.456,1.226,2.953,2.361,5.031,1.971,3.584-.673,4.2-2.967,3.846-6.046a5.655,5.655,0,0,0-1.792-3.673A3.542,3.542,0,0,1,841.745,339.747Z" transform="translate(-832.487 -339.248)" fill="#2f4943"/>
        <path id="패스_9023" data-name="패스 9023" d="M834.76,342.012c.562.084,1.239-.089,1.431.546.172.569-.438.75-.824,1-2.358,1.551-2.475,2.5-.716,4.56.458.535,1.8,1.074,1.051,1.786-.817.781-1.415-.584-1.984-1.083a4.024,4.024,0,0,1,.114-6.265A7.733,7.733,0,0,1,834.76,342.012Z" transform="translate(-831.746 -340.144)" fill="#42655e"/>
      </g>
      <g id="그룹_316" data-name="그룹 316" transform="translate(83.481 185.716)">
        <path id="패스_9024" data-name="패스 9024" d="M777.052,436.243c.577,3.081-.793,5.454-3.431,5.944a5.519,5.519,0,0,1-6.49-4.578,5.115,5.115,0,0,1,3.967-6.2C773.855,430.934,776.452,433.041,777.052,436.243Z" transform="translate(-767.027 -431.345)" fill="#34504b"/>
        <path id="패스_9025" data-name="패스 9025" d="M772.84,431.6c-.441,0-1.169-.071-1.175.538-.007.7.651.431,1.11.428a3.3,3.3,0,0,1,3.284,2.7,3.611,3.611,0,0,1-1.97,3.841c-.8.38-1.616-.151-2.693.208a4.029,4.029,0,0,0,4.92-1.261c-.065,1.571-.832,2.5-2.058,2.684-2.849.436-4.753-.932-5.837-3.614a5.451,5.451,0,0,0,1.563,3.907c1.239,1.311,3.181,1.322,4.975.867a3.843,3.843,0,0,0,2.894-3.473,11.327,11.327,0,0,0-.124-1.743A4.732,4.732,0,0,0,772.84,431.6Zm3.854,6.066c-.217-1.186.37-2.067.059-2.951A2.675,2.675,0,0,1,776.694,437.668Z" transform="translate(-767.577 -431.446)" fill="#2f4943"/>
        <path id="패스_9026" data-name="패스 9026" d="M770.039,432.618c.778.326,2.075-.492,2.32.963.142.842-1.351,2.229-2.369,2.22-.766-.007-1.73-.164-2.081-.761C767.534,434.4,769.171,432.689,770.039,432.618Z" transform="translate(-767.354 -431.849)" fill="#41655e"/>
      </g>
      <g id="그룹_318" data-name="그룹 318" transform="translate(9.772 223.231)">
        <path id="패스_9027" data-name="패스 9027" d="M664.646,507.314l.937-2.731c.573,3.572-1.835,7.638-5.362,9.368a11.3,11.3,0,0,1-12.5-1.62c-2.71-2.4-2.815-5.691-2.6-8.913.462-6.828,5.051-9.222,11.431-9.954,2.24-.257,3.953.792,5.754,1.605,1.572.71,1.981,2.46,2.482,3.98a9.7,9.7,0,0,1,.146,5.245c-.219.978-.365,1.972-.544,2.959Z" transform="translate(-645.053 -493.425)" fill="#96a8a5"/>
        <g id="그룹_317" data-name="그룹 317" transform="translate(13.282 1.19)">
          <path id="패스_9028" data-name="패스 9028" d="M679.524,500.175a6.81,6.81,0,0,1-1.9,6.022,16.388,16.388,0,0,1-4.069,3.281,1.814,1.814,0,0,1-2.915-1.884c.2-.754.044-1.122-.748-1.482-1.374-.625-1.3-1.878-.761-3.032.355-.765.477-1.135-.49-1.511-1.42-.551-1.648-1.96-1.6-3.237.041-1.151.937-1.8,2.029-2.221a7.94,7.94,0,0,1,9.455,2.117A3.54,3.54,0,0,1,679.524,500.175Z" transform="translate(-667.032 -495.395)" fill="#34504b"/>
          <path id="패스_9029" data-name="패스 9029" d="M676.092,496.283c2.878-.471,4.887.933,6.6,2.937,1.329,1.553.823,3.206.131,4.808a10.534,10.534,0,0,1-4.639,5.112,2.494,2.494,0,0,1-2.973-.345c-.537-.454-.959-1.062-.266-1.785.651,1.948.814,2.053,2.438,1.03a7.992,7.992,0,0,0,3.6-6.128,3.3,3.3,0,0,0-1.29-2.978C678.558,497.981,677.777,496.562,676.092,496.283Z" transform="translate(-670.02 -495.71)" fill="#2f4943"/>
          <path id="패스_9030" data-name="패스 9030" d="M667.99,498.723c-.31-1,.554-1.727,1.438-2.46a2.122,2.122,0,0,1,2.381-.33c.253.114.57.421.587.658.033.488-.39.26-.676.306-1.138.184-2.392,1.814-2.134,2.776.1.363.7.769.027,1.009a1.065,1.065,0,0,1-1.278-.687A10.232,10.232,0,0,1,667.99,498.723Z" transform="translate(-667.386 -495.519)" fill="#42655f"/>
          <path id="패스_9031" data-name="패스 9031" d="M669.549,507.749a5.027,5.027,0,0,1,1.013-2.65c.207-.23.558-.575.973-.283s.105.781,0,.945c-.535.835-1.048,1.572-.053,2.452.239.211.049.609-.2.845-.313.293-.578.042-.858-.086C669.931,508.747,669.832,508.249,669.549,507.749Z" transform="translate(-668.028 -499.078)" fill="#446761"/>
        </g>
      </g>
      <g id="그룹_320" data-name="그룹 320" transform="translate(212.696 303.286)">
        <path id="패스_9032" data-name="패스 9032" d="M987.043,636.345a5.251,5.251,0,0,1-6.074-4.419c-.6-2.923,1.189-5.075,4.9-5.886a4.682,4.682,0,0,1,5.85,3.842C992.4,633.092,990.561,635.63,987.043,636.345Z" transform="translate(-980.855 -625.903)" fill="#34504b"/>
        <g id="그룹_319" data-name="그룹 319" transform="translate(1.875 0.751)">
          <path id="패스_9033" data-name="패스 9033" d="M986.53,639.126c.035.033.066.056.1.088-.008-.015-.018-.025-.024-.039C986.581,639.157,986.555,639.144,986.53,639.126Z" transform="translate(-984.976 -631.886)" fill="#314a44"/>
          <path id="패스_9034" data-name="패스 9034" d="M986.541,639.053c.013.03.035.051.049.08.033.022.067.04.1.063-.05-.05-.1-.091-.147-.144-.021-.01-.034-.022-.054-.031l.025.064Z" transform="translate(-984.959 -631.844)" fill="#314a44"/>
          <path id="패스_9035" data-name="패스 9035" d="M992.892,629.16a2.882,2.882,0,0,0-1.367-1.729c-.316-.161-.78-.535-1.146-.036s.051.726.355,1.046A4.05,4.05,0,0,1,991,633.3a3.351,3.351,0,0,1-4.689.42c-.275-.191-.522-.48-.821-.225-.261.222-.116.544,0,.83.02.01.034.022.054.031.051.053.1.094.147.144a4.308,4.308,0,0,0,4.892.256c-1.736,1.69-4.074,1.49-4.967-.28-.034-.031-.065-.055-.1-.088l-.025-.064c-1.04-.513-1.18-1.595-1.479-2.947-.378,2.631,1.471,5.088,3.64,5.2C992.342,636.831,993.954,632.6,992.892,629.16Z" transform="translate(-983.958 -627.145)" fill="#314a44"/>
        </g>
        <path id="패스_9036" data-name="패스 9036" d="M984.995,628.981c-2.181,1.34-2.371,1.792-1.738,3.668a2.274,2.274,0,0,1-.564-2.588A1.9,1.9,0,0,1,984.995,628.981Z" transform="translate(-981.502 -627.1)" fill="#436760"/>
      </g>
      <g id="그룹_322" data-name="그룹 322" transform="translate(114.018 240.198)">
        <path id="패스_9037" data-name="패스 9037" d="M841.155,528.173c.726,3.713-1.045,8.364-3.79,9.952a10.188,10.188,0,0,1-11.763-.664c-1.916-1.62-2.287-4.051-2.163-6.2.241-4.213,3.624-8.93,7.969-9.6C836.571,520.856,840.19,523.242,841.155,528.173Z" transform="translate(-819.878 -521.503)" fill="#96a8a5"/>
        <g id="그룹_321" data-name="그룹 321" transform="translate(0 1.36)">
          <path id="패스_9038" data-name="패스 9038" d="M822.918,523.975c1.789-.11,3.453-.318,4.878.855.123.1.279.167.4.274,1.251,1.143.63,4.963-.925,5.656-.995.444-1.554,1.064-1.187,2.253.407,1.319.361,2.6-.986,3.379-1.131.653-2.763.138-3.858-1.084a13.031,13.031,0,0,1-2.036-4.1c-.631-1.566-1.054-3.216-1.574-4.828-.286-.885.435-1,.951-1.147A21.852,21.852,0,0,0,822.918,523.975Z" transform="translate(-817.561 -523.807)" fill="#34504b"/>
          <path id="패스_9039" data-name="패스 9039" d="M827.4,531.109c-.023-.16-.126-.4-.057-.467,1.7-1.784,1.285-3.171-1.135-4.462a5.909,5.909,0,0,0-4.128-.654c-.387.078-.755.121-.986-.41,1.453-.445,2.956-.65,4.391-1.181a4.748,4.748,0,0,1,4.741,1.443c1.858,2.8.712,5.083-2.867,5.705Z" transform="translate(-818.957 -523.754)" fill="#2f4843"/>
          <path id="패스_9040" data-name="패스 9040" d="M829.084,535.881a4.224,4.224,0,0,1,.844,2.7,2.262,2.262,0,0,1-1.412,2.3,2.963,2.963,0,0,1-2.748-.285c-.159-.089-.344-.386-.3-.523.082-.273.367-.348.657-.246a3.876,3.876,0,0,0,.9.308c.89.071,1.858.326,1.408-1.293-.178-.638.007-1.454-.155-2.186s.295-.805.847-.754Z" transform="translate(-820.686 -528.553)" fill="#324b45"/>
          <path id="패스_9041" data-name="패스 9041" d="M818.627,528.445a10.165,10.165,0,0,0,2.5,5.747c.711.786,1.571,1.666,2.489.14.563.609.24,1.005-.164,1.418-.435.441-.934.237-1.34.074a5.247,5.247,0,0,1-2.347-2.3A10.128,10.128,0,0,1,818.627,528.445Z" transform="translate(-817.983 -525.61)" fill="#466962"/>
          <path id="패스_9042" data-name="패스 9042" d="M825.167,535.6c-.483,1.154-1.256,1.319-1.827.963-.506-.315-1.314-.88-.542-1.981C823.2,535.659,823.351,537.221,825.167,535.6Z" transform="translate(-819.507 -528.037)" fill="#446760"/>
        </g>
      </g>
      <g id="그룹_326" data-name="그룹 326" transform="translate(148.771 267.47)">
        <path id="패스_9043" data-name="패스 9043" d="M929.522,590.623c.759-.9,1.448-1.872,2.14-2.831,2.351-3.264,4.28-6.723,4.641-10.83a5.834,5.834,0,0,0-2.862-5.737,5.628,5.628,0,0,0-6.1-.261,20.775,20.775,0,0,0-6.245,5c-.868,1.043-1.769,2.058-2.724,3.165-.211-1.091-.379-1.931-.537-2.774a13.917,13.917,0,0,0-2.76-6.625c-2.855-3.4-8.667-5.134-11.76.893a16.069,16.069,0,0,0-1.673,4.684c-.214,1.288-.339,2.592-.506,3.912-.544-.233-.594-.678-.756-1.076a9.623,9.623,0,0,0-2.611-3.808,3.689,3.689,0,0,0-5.453.107c-2.185,2.083-2.253,4.779-1.994,7.481.268,2.79,1.45,5.327,2.894,8.219a28.893,28.893,0,0,0-6.673-3.755c-3.926-1.413-7.112-1.046-9.376,2.887a6.936,6.936,0,0,0,4.966,10.3c.754.432,1.551.025,2.323.121.847.1.135.454.113.695-1.78.973-3.74,1.606-5.228,3.113a16.959,16.959,0,0,0-3.91,7.122,9.683,9.683,0,0,0,2.657,9.574c2.743,2.36,5.729,2.349,8.848.8.931-.463,1.687-1.288,2.806-1.362-.011,1.053-.028,2.1-.034,3.157-.019,3.633,1.542,5.735,4.513,5.969,2.066.162,3.6-1,4.926-2.356a28.416,28.416,0,0,0,6.309-9.272c.413-1.025.918-2.013,1.469-3.209.386.816.65,1.448.975,2.047,1.62,2.991,3.212,6.039,7.518,4.97a.908.908,0,0,1,.32.025c3.491.476,5.961-1.221,7.606-4.015,1.755-2.982,2.107-6.164.06-9.275-.216-.328-.8-.6-.5-1.056.255-.393.782-.139,1.2-.152,5.224-.158,8.535-1.282,11.089-6.2,2.194-4.228.646-7.3-4-8.138-.37-.067-.741-.121-1.111-.188C929.235,591.779,928.779,591.509,929.522,590.623Z" transform="translate(-875.071 -566.633)" fill="#fdfdfd"/>
        <g id="그룹_323" data-name="그룹 323" transform="translate(3.209 3.933)">
          <path id="패스_9044" data-name="패스 9044" d="M957.27,609.361a27.441,27.441,0,0,0-6.048-1.577c-3.214-.338-6.257.572-9.32,1.432-2.417.679-4.689,1.488-6.418,3.406a2.192,2.192,0,0,1-.763.575c-.385.154-1.074-.305-1.131.474-.047.651.583.846,1.045,1.076a11.24,11.24,0,0,0,4.018,1.108,39.53,39.53,0,0,0,10.1.088c-4.306-.5-8.711-.356-13.3-2.081,5.879-3.136,11.38-5.495,17.827-4.218,4.117.815,5.731,4.317,3.455,7.924a1.748,1.748,0,0,0-.777,1.43c.763-.161.908-.717,1.166-1.169a4.756,4.756,0,0,0,1.777-4.419C958.671,612.037,959.406,610.1,957.27,609.361Z" transform="translate(-901.436 -586.821)" fill="#f3f2ee"/>
          <path id="패스_9045" data-name="패스 9045" d="M933.652,597.543c.352.532.807.355,1.267.1a41.824,41.824,0,0,0,4.363-2.394c3.74-2.682,6.271-6.407,8.837-10.109a2.051,2.051,0,0,0,.852-1.461c0-.08-.266-.254-.339-.223-.553.235-.489.9-.838,1.282-.033.036-.034.1-.051.151a82.786,82.786,0,0,1-6.656,7.4,7.191,7.191,0,0,1-3.733,2.157,25.343,25.343,0,0,0,3.265-6.975,20.859,20.859,0,0,1,8-11.313,15.4,15.4,0,0,1,5.407-2.705,2.075,2.075,0,0,0-2.344.088c-1.255.793-2.663,1.357-3.867,2.214-2.261,1.607-4.605,3.166-5.981,5.713-1.2-.425-.032-1.807-1.1-2.479-.243,1.19.339,2.221.241,3.272a33.607,33.607,0,0,1-2.134,6.853c-1.244,2.7-3.261,4.87-4.915,7.288C933.667,596.784,933.36,597.105,933.652,597.543Z" transform="translate(-901.414 -573.142)" fill="#f3f2ee"/>
          <path id="패스_9046" data-name="패스 9046" d="M934.256,622.5c-.495-.044-1.227-.778-1.436.186-.163.752.686.663,1.163.764a19.317,19.317,0,0,1,7.214,3.4,19.091,19.091,0,0,1,5.974,6.539,6.746,6.746,0,0,0-2.6-5.39C941.545,625.433,938.471,622.87,934.256,622.5Z" transform="translate(-901.124 -592.552)" fill="#f3f2ee"/>
          <path id="패스_9047" data-name="패스 9047" d="M905.323,626.553c.04-.7-.666-.852-1.274-.959-1.3-.229-2.412.41-3.572.787a27.748,27.748,0,0,0-11.91,7.577,3.741,3.741,0,0,0-1.224,2.175,4.109,4.109,0,0,0,1.6-1.92,31.548,31.548,0,0,1,7.189-4.794,19.51,19.51,0,0,1,7.811-2.262C904.535,627.128,905.277,627.385,905.323,626.553Z" transform="translate(-883.137 -593.878)" fill="#f3f2ee"/>
          <path id="패스_9048" data-name="패스 9048" d="M927.513,601.434c.9.241.945-.683,1.105-1.258A48.7,48.7,0,0,0,930.7,589.15c.086-2.012.025-4.028-1.349-5.743,1.028,2.888.637,5.787.047,8.66a64.174,64.174,0,0,1-2.2,7.731C927.008,600.359,926.609,601.192,927.513,601.434Z" transform="translate(-898.807 -577.204)" fill="#f3f2ee"/>
          <path id="패스_9049" data-name="패스 9049" d="M894.876,644.542c0-1.888,1.207-3.377,1.676-5.107A49.381,49.381,0,0,1,901.674,632c-2.859,1.505-4.066,4.337-5.538,6.954-.286.132-.283.42-.375.665a13.59,13.59,0,0,1-6.009,7.26c-.859.5-1.972.118-2.753,1.039,3.188.368,4.988-2.249,7.691-2.795C894.791,645.1,894.876,644.744,894.876,644.542Z" transform="translate(-883.001 -596.432)" fill="#f3f2ee"/>
          <path id="패스_9050" data-name="패스 9050" d="M891.242,619.7a9.3,9.3,0,0,1,6.377.919c.326.176.722.52,1,.137.355-.5-.166-.784-.518-.976a8.054,8.054,0,0,0-5.265-1.011,36.53,36.53,0,0,1-9.57.454c-.995-.366-1.383-1.417-2.88-1.294a6.042,6.042,0,0,0,2.6,1.661A21.469,21.469,0,0,0,891.242,619.7Z" transform="translate(-880.382 -590.86)" fill="#f3f2ee"/>
          <path id="패스_9051" data-name="패스 9051" d="M913.746,606.373c.046.411-.031,1.029.55.972.613-.06.55-.7.528-1.174a3.793,3.793,0,0,0-.178-.948,36.077,36.077,0,0,0-2.852-7.139c-.891-2.434-2.108-4.062-3.416-4.364a35.62,35.62,0,0,1,3.391,6.039C912.473,601.95,913.488,604.048,913.746,606.373Z" transform="translate(-891.461 -581.285)" fill="#f3f2ee"/>
          <path id="패스_9052" data-name="패스 9052" d="M907.1,611.079c.187.256.448.565.789.313.317-.234.154-.561-.032-.848a20.17,20.17,0,0,0-3.066-3.707c-1.743-2.39-4.4-3.467-6.879-4.819,2.188,1.9,4.831,3.228,6.653,5.547C905.413,608.739,906.251,609.915,907.1,611.079Z" transform="translate(-887.321 -584.568)" fill="#f3f2ee"/>
          <path id="패스_9053" data-name="패스 9053" d="M919.909,643.377a22.829,22.829,0,0,1-4.337-13.211c0-.308.147-.709-.242-.839-.5-.165-.539.344-.774.611-.813.925-.437,1.913-.257,2.9.69,3.773.741,7.526-1.117,10.993a35,35,0,0,1-4.448,6.693c-2.672,3.037-6.057,3.318-8.168.631a30.7,30.7,0,0,1-.983-4.625,6.048,6.048,0,0,0,.638,4.919.62.62,0,0,0,.217.331,3.6,3.6,0,0,0,4.037,1.892,8.924,8.924,0,0,0,6.018-3.939c2.211-2.965,4.584-5.854,5.211-9.675.065-.4-.111-1,.461-1.066.6-.075.671.547.888.964a12.5,12.5,0,0,0,2.569,3.854,5.241,5.241,0,0,0,6,1.9A7.2,7.2,0,0,1,919.909,643.377Z" transform="translate(-887.884 -595.362)" fill="#f3f2ee"/>
          <path id="패스_9054" data-name="패스 9054" d="M915.863,585.048a11.644,11.644,0,0,0,1.946,4.385q.243.8.485,1.6a21.645,21.645,0,0,1,.816,8.415c-.022.385-.415,1.095.32,1.2.72.1.654-.648.656-1.054.018-3.316.083-6.649-1.6-9.686h0c-.338-.376-.186-1.02-.712-1.292A5.736,5.736,0,0,0,915.863,585.048Zm1.911,3.569h0Z" transform="translate(-894.422 -577.853)" fill="#f3f2ee"/>
          <path id="패스_9055" data-name="패스 9055" d="M910.077,642.737a30.034,30.034,0,0,1,2.107-6.4c.8-1.715,1.911-3.232,2.856-4.853.26-.447.763-.964.065-1.368-.526-.305-.872.165-1.14.6a27.206,27.206,0,0,0-4.35,11.155,5.163,5.163,0,0,0-.349,2.3c-.051.494-.023,1.135.586,1.056.567-.074.166-.7.189-1.079C910.069,643.681,910.066,643.209,910.077,642.737Z" transform="translate(-891.805 -595.649)" fill="#f3f2ee"/>
          <path id="패스_9056" data-name="패스 9056" d="M936.341,635.14a19.409,19.409,0,0,1-3.8-4.313,42.76,42.76,0,0,1-2.99-5.677c-.193-.444-.424-1.171-1.125-.8-.535.28-.289.917-.085,1.311,1.953,3.778,4,7.489,7.7,9.913.573.436.922,1.27,2.053,1.175A4.725,4.725,0,0,0,936.341,635.14Z" transform="translate(-899.267 -593.364)" fill="#f3f2ee"/>
        </g>
        <g id="그룹_325" data-name="그룹 325" transform="translate(20.265 24.382)">
          <g id="그룹_324" data-name="그룹 324">
            <path id="패스_9057" data-name="패스 9057" d="M909.335,622.131a3.6,3.6,0,0,1-.677-2.949,12.4,12.4,0,0,1,6.22-9.639,16.128,16.128,0,0,1,7.4-2.426,1.274,1.274,0,0,0,.449,1.625c1.608,1.524,1.515,3.251.53,5.028-1.679,3.029-3.984,5.3-7.571,5.926a10.7,10.7,0,0,0-1.976.576,5.026,5.026,0,0,1-4.111.044C909.352,620.928,909.8,621.622,909.335,622.131Z" transform="translate(-908.606 -607.035)" fill="#f2af0b"/>
            <path id="패스_9058" data-name="패스 9058" d="M909.6,622.078c-.044-.865-.559-1.7-.206-2.736a3.016,3.016,0,0,0,3.475.772c2.259-.951,4.875-.842,6.9-2.529a13.374,13.374,0,0,0,3.869-5.034c.816-1.893-.613-3.734-2.283-4.6.114-.668.968-.361,1.186-.889,3.522-.622,4.628,2.411,3.751,5.243a16.84,16.84,0,0,1-8.947,10.549,8.505,8.505,0,0,1-4.035,1.215A4.1,4.1,0,0,1,909.6,622.078Z" transform="translate(-908.868 -606.981)" fill="#e39c00"/>
            <path id="패스_9059" data-name="패스 9059" d="M921.263,619.3c.144.244.2.3.19.327-.7,1.933-4.764,4.359-6.765,4.042a2.49,2.49,0,0,1-1.523-3.708c.263-.352.557-.682.88-1.076.037.19.089.292.068.376-.271,1.068-.8,2.264.349,3.044s2.35.231,3.416-.4c.628-.372,1.394-.491,1.908-1.078C920.229,620.325,920.718,619.861,921.263,619.3Z" transform="translate(-910.258 -611.693)" fill="#e39c00"/>
          </g>
        </g>
      </g>
    </g>
  </g>
</svg>
