<svg xmlns="http://www.w3.org/2000/svg" width="48.008" height="48.007" viewBox="0 0 48.008 48.007">
  <g id="그룹_337" data-name="그룹 337" transform="translate(-1439.643 -1484.359)">
    <g id="그룹_336" data-name="그룹 336" transform="translate(1439.643 1484.359)">
      <path id="패스_9062" data-name="패스 9062" d="M1463.647,1532.366a24,24,0,1,1,24-24A24.031,24.031,0,0,1,1463.647,1532.366Zm0-45.753a21.75,21.75,0,1,0,21.75,21.75A21.775,21.775,0,0,0,1463.647,1486.612Z" transform="translate(-1439.643 -1484.359)" fill="#fff"/>
    </g>
    <path id="패스_9063" data-name="패스 9063" d="M1484.8,1516.849h-15.762a4.632,4.632,0,0,0-4.708,4.708v8.6a4.632,4.632,0,0,0,4.708,4.708H1484.8a4.807,4.807,0,0,0,4.913-4.708v-8.6A4.807,4.807,0,0,0,1484.8,1516.849Zm-3.685,9.007-6.755-3.89v7.779Z" transform="translate(-13.292 -17.494)" fill="#fff" fill-rule="evenodd"/>
  </g>
</svg>
