<svg xmlns="http://www.w3.org/2000/svg" width="48.007" height="48.007" viewBox="0 0 48.007 48.007">
  <g id="그룹_338" data-name="그룹 338" transform="translate(-100.264 -1484.359)">
    <path id="패스_9064" data-name="패스 9064" d="M124.267,1532.366a24,24,0,1,1,24-24A24.03,24.03,0,0,1,124.267,1532.366Zm0-45.753a21.75,21.75,0,1,0,21.75,21.75A21.775,21.775,0,0,0,124.267,1486.612Z" transform="translate(0)" fill="#fff"/>
    <path id="패스_9065" data-name="패스 9065" d="M139.2,1533.751h6.078v-14.022h4.49l.9-5.664h-5.388v-4.283a2.73,2.73,0,0,1,2.97-2.486h2.625v-4.7l-4.7-.207c-4.49-.276-6.977,3.247-6.977,7.46v4.214h-5.111v5.664H139.2Z" transform="translate(-18.21 -9.701)" fill="#fff" fill-rule="evenodd"/>
  </g>
</svg>
