<svg xmlns="http://www.w3.org/2000/svg" width="48.008" height="48.008" viewBox="0 0 48.008 48.008">
  <g id="그룹_335" data-name="그룹 335" transform="translate(-259.885 -1484.359)">
    <path id="패스_9060" data-name="패스 9060" d="M283.889,1532.366a24,24,0,1,1,24-24A24.031,24.031,0,0,1,283.889,1532.366Zm0-45.754a21.75,21.75,0,1,0,21.75,21.751A21.776,21.776,0,0,0,283.889,1486.612Z" fill="#fff"/>
    <path id="패스_9061" data-name="패스 9061" d="M288.739,1505.613h13.107a7.71,7.71,0,0,1,7.674,7.674v13.039a7.71,7.71,0,0,1-7.674,7.674H288.739a7.71,7.71,0,0,1-7.674-7.674v-13.039a7.71,7.71,0,0,1,7.674-7.674Zm14.193,4.957h0a1.653,1.653,0,0,1,1.63,1.63h0a1.653,1.653,0,0,1-1.63,1.63h0a1.609,1.609,0,0,1-1.63-1.63h0a1.609,1.609,0,0,1,1.63-1.63Zm-7.674,1.494h.068a7.827,7.827,0,0,1,7.742,7.742h0a7.782,7.782,0,0,1-7.742,7.742h-.068a7.724,7.724,0,0,1-7.674-7.742h0a7.768,7.768,0,0,1,7.674-7.742Zm0,2.648h.068a5.131,5.131,0,0,1,5.093,5.094h0a5.145,5.145,0,0,1-5.093,5.161h-.068a5.145,5.145,0,0,1-5.094-5.161h0a5.131,5.131,0,0,1,5.094-5.094Zm-6.452-6.655h12.971a5.3,5.3,0,0,1,5.3,5.3v12.9a5.3,5.3,0,0,1-5.3,5.3H288.807a5.3,5.3,0,0,1-5.3-5.3v-12.9a5.3,5.3,0,0,1,5.3-5.3Z" transform="translate(-11.404 -11.444)" fill="#fff" fill-rule="evenodd"/>
  </g>
</svg>
