<svg xmlns="http://www.w3.org/2000/svg" width="37.667" height="37.667" viewBox="0 0 37.667 37.667">
  <g id="그룹_843" data-name="그룹 843" transform="translate(81.879 -518.333)">
    <circle id="타원_119" data-name="타원 119" cx="18.833" cy="18.833" r="18.833" transform="translate(-81.879 518.333)" fill="#ff8a8a"/>
    <path id="패스_9852" data-name="패스 9852" d="M-64.537,527.461l-5.722,8.983a1.774,1.774,0,0,0,.542,2.438,1.759,1.759,0,0,0,1.332.237,1.76,1.76,0,0,0,1.112-.778l2.237-3.514V545.7a1.993,1.993,0,0,0,1.99,1.99,1.993,1.993,0,0,0,1.99-1.99V534.827l2.238,3.513a1.758,1.758,0,0,0,1.111.779,1.75,1.75,0,0,0,1.332-.237,1.762,1.762,0,0,0,.817-1.491,1.773,1.773,0,0,0-.277-.95l-5.72-8.981a1.762,1.762,0,0,0-1.491-.817A1.762,1.762,0,0,0-64.537,527.461Z" fill="#fff"/>
  </g>
</svg>
