<svg xmlns="http://www.w3.org/2000/svg" width="229.682" height="152.76" viewBox="0 0 229.682 152.76">
  <g id="그룹_1533" data-name="그룹 1533" transform="matrix(0.966, -0.259, 0.259, 0.966, 1352.151, -1788.362)">
    <g id="그룹_1519" data-name="그룹 1519" transform="translate(-1676.444 1418.371)">
      <g id="그룹_1500" data-name="그룹 1500" transform="translate(28.804 28.798)">
        <path id="패스_10516" data-name="패스 10516" d="M-843.83,1661.061a1.078,1.078,0,0,1-1.078-1.078,28.171,28.171,0,0,0-28.142-28.14,1.079,1.079,0,0,1-1.078-1.079,1.078,1.078,0,0,1,1.078-1.077,28.176,28.176,0,0,0,28.142-28.148,1.079,1.079,0,0,1,1.078-1.078,1.079,1.079,0,0,1,1.078,1.078,28.178,28.178,0,0,0,28.141,28.148,1.078,1.078,0,0,1,1.078,1.077,1.079,1.079,0,0,1-1.078,1.079,28.173,28.173,0,0,0-28.141,28.14A1.078,1.078,0,0,1-843.83,1661.061Zm-21.2-30.3a30.418,30.418,0,0,1,21.2,21.2,30.418,30.418,0,0,1,21.2-21.2,30.421,30.421,0,0,1-21.2-21.2A30.42,30.42,0,0,1-865.027,1630.764Z" transform="translate(874.127 -1600.461)" fill="#554b4e"/>
      </g>
      <g id="그룹_1505" data-name="그룹 1505" transform="translate(0 58.025)">
        <g id="그룹_1501" data-name="그룹 1501" transform="translate(93.771)">
          <path id="패스_10517" data-name="패스 10517" d="M-471.949,1778.531h-10.06a1.079,1.079,0,0,1-1.078-1.079,1.078,1.078,0,0,1,1.078-1.076h10.06a1.078,1.078,0,0,1,1.078,1.076A1.079,1.079,0,0,1-471.949,1778.531Z" transform="translate(483.087 -1776.375)" fill="#554b4e"/>
        </g>
        <g id="그룹_1502" data-name="그룹 1502" transform="translate(114.609)">
          <path id="패스_10518" data-name="패스 10518" d="M-355.146,1778.531h-1.437a1.079,1.079,0,0,1-1.078-1.079,1.078,1.078,0,0,1,1.078-1.076h1.437a1.078,1.078,0,0,1,1.078,1.076A1.079,1.079,0,0,1-355.146,1778.531Z" transform="translate(357.661 -1776.375)" fill="#554b4e"/>
        </g>
        <g id="그룹_1503" data-name="그룹 1503" transform="translate(12.215)">
          <path id="패스_10519" data-name="패스 10519" d="M-962.836,1778.531H-972.9a1.079,1.079,0,0,1-1.078-1.079,1.078,1.078,0,0,1,1.078-1.076h10.06a1.078,1.078,0,0,1,1.078,1.076A1.079,1.079,0,0,1-962.836,1778.531Z" transform="translate(973.974 -1776.375)" fill="#554b4e"/>
        </g>
        <g id="그룹_1504" data-name="그룹 1504">
          <path id="패스_10520" data-name="패스 10520" d="M-1044.984,1778.531h-1.437a1.079,1.079,0,0,1-1.078-1.079,1.078,1.078,0,0,1,1.078-1.076h1.437a1.078,1.078,0,0,1,1.078,1.076A1.079,1.079,0,0,1-1044.984,1778.531Z" transform="translate(1047.499 -1776.375)" fill="#554b4e"/>
        </g>
      </g>
      <g id="그룹_1510" data-name="그룹 1510" transform="translate(58.023 0)">
        <g id="그룹_1506" data-name="그룹 1506" transform="translate(0 12.215)">
          <path id="패스_10521" data-name="패스 10521" d="M-697.177,1512.863a1.078,1.078,0,0,1-1.078-1.078v-10.06a1.078,1.078,0,0,1,1.078-1.078,1.078,1.078,0,0,1,1.078,1.078v10.06A1.078,1.078,0,0,1-697.177,1512.863Z" transform="translate(698.255 -1500.648)" fill="#554b4e"/>
        </g>
        <g id="그룹_1507" data-name="그룹 1507">
          <path id="패스_10522" data-name="패스 10522" d="M-697.177,1430.716a1.078,1.078,0,0,1-1.078-1.078V1428.2a1.078,1.078,0,0,1,1.078-1.078,1.078,1.078,0,0,1,1.078,1.078v1.437A1.078,1.078,0,0,1-697.177,1430.716Z" transform="translate(698.255 -1427.123)" fill="#554b4e"/>
        </g>
        <g id="그룹_1508" data-name="그룹 1508" transform="translate(0 93.771)">
          <path id="패스_10523" data-name="패스 10523" d="M-697.177,2003.751a1.077,1.077,0,0,1-1.078-1.078v-10.06a1.078,1.078,0,0,1,1.078-1.078,1.078,1.078,0,0,1,1.078,1.078v10.06A1.077,1.077,0,0,1-697.177,2003.751Z" transform="translate(698.255 -1991.535)" fill="#554b4e"/>
        </g>
        <g id="그룹_1509" data-name="그룹 1509" transform="translate(0 114.609)">
          <path id="패스_10524" data-name="패스 10524" d="M-697.177,2120.553a1.077,1.077,0,0,1-1.078-1.078v-1.437a1.078,1.078,0,0,1,1.078-1.078,1.078,1.078,0,0,1,1.078,1.078v1.437A1.077,1.077,0,0,1-697.177,2120.553Z" transform="translate(698.255 -2116.96)" fill="#554b4e"/>
        </g>
      </g>
      <g id="그룹_1513" data-name="그룹 1513" transform="translate(77.979 77.981)">
        <g id="그룹_1511" data-name="그룹 1511">
          <path id="패스_10525" data-name="패스 10525" d="M-571.45,1904.263a1.072,1.072,0,0,1-.761-.316l-5.617-5.611a1.079,1.079,0,0,1,0-1.526,1.077,1.077,0,0,1,1.524,0l5.617,5.612a1.078,1.078,0,0,1,0,1.524A1.074,1.074,0,0,1-571.45,1904.263Z" transform="translate(578.143 -1896.495)" fill="#554b4e"/>
        </g>
        <g id="그룹_1512" data-name="그룹 1512" transform="translate(11.634 11.63)">
          <path id="패스_10526" data-name="패스 10526" d="M-506.236,1969.458a1.075,1.075,0,0,1-.761-.317l-.8-.8a1.077,1.077,0,0,1,0-1.524,1.077,1.077,0,0,1,1.524,0l.8.8a1.077,1.077,0,0,1,0,1.524A1.075,1.075,0,0,1-506.236,1969.458Z" transform="translate(508.115 -1966.498)" fill="#554b4e"/>
        </g>
      </g>
      <g id="그룹_1518" data-name="그룹 1518" transform="translate(25.634 25.633)">
        <g id="그룹_1514" data-name="그룹 1514" transform="translate(52.348 6.82)">
          <path id="패스_10527" data-name="패스 10527" d="M-577.051,1630.227a1.072,1.072,0,0,1-.761-.316,1.077,1.077,0,0,1,0-1.524l5.614-5.614a1.078,1.078,0,0,1,1.524,0,1.078,1.078,0,0,1,0,1.524l-5.614,5.614A1.074,1.074,0,0,1-577.051,1630.227Z" transform="translate(578.127 -1622.458)" fill="#554b4e"/>
        </g>
        <g id="그룹_1515" data-name="그룹 1515" transform="translate(63.979)">
          <path id="패스_10528" data-name="패스 10528" d="M-507.041,1584.368a1.076,1.076,0,0,1-.761-.314,1.081,1.081,0,0,1,0-1.525l.8-.8a1.085,1.085,0,0,1,1.527,0,1.079,1.079,0,0,1,0,1.526l-.8.806A1.078,1.078,0,0,1-507.041,1584.368Z" transform="translate(508.117 -1581.409)" fill="#554b4e"/>
        </g>
        <g id="그룹_1516" data-name="그룹 1516" transform="translate(6.821 52.348)">
          <path id="패스_10529" data-name="패스 10529" d="M-851.08,1904.263a1.072,1.072,0,0,1-.761-.316,1.077,1.077,0,0,1,0-1.524l5.614-5.612a1.077,1.077,0,0,1,1.524,0,1.079,1.079,0,0,1,0,1.526l-5.614,5.611A1.079,1.079,0,0,1-851.08,1904.263Z" transform="translate(852.156 -1896.495)" fill="#554b4e"/>
        </g>
        <g id="그룹_1517" data-name="그룹 1517" transform="translate(0 63.979)">
          <path id="패스_10530" data-name="패스 10530" d="M-892.133,1969.458a1.074,1.074,0,0,1-.761-.317,1.078,1.078,0,0,1,0-1.524l.8-.8a1.077,1.077,0,0,1,1.524,0,1.077,1.077,0,0,1,0,1.524l-.8.8A1.076,1.076,0,0,1-892.133,1969.458Z" transform="translate(893.21 -1966.498)" fill="#554b4e"/>
        </g>
      </g>
    </g>
    <g id="그룹_1532" data-name="그룹 1532" transform="translate(-1801.756 1416.628)">
      <g id="그룹_1520" data-name="그룹 1520" transform="translate(18.236 31.233)">
        <path id="패스_10531" data-name="패스 10531" d="M-1690.915,1608.255a1.068,1.068,0,0,1-.744-.3,1.078,1.078,0,0,1-.036-1.524l1.426-1.488a1.078,1.078,0,0,1,1.524-.021,1.078,1.078,0,0,1,.02,1.524l-1.409,1.472A1.08,1.08,0,0,1-1690.915,1608.255Z" transform="translate(1691.994 -1604.62)" fill="#554b4e"/>
      </g>
      <g id="그룹_1521" data-name="그룹 1521" transform="translate(40.891 8.232)">
        <path id="패스_10532" data-name="패스 10532" d="M-1554.55,1474.648a1.076,1.076,0,0,1-.929-.53,1.077,1.077,0,0,1,.379-1.477,106.9,106.9,0,0,1,12.651-6.38,1.076,1.076,0,0,1,1.412.571,1.078,1.078,0,0,1-.57,1.414,104.472,104.472,0,0,0-12.4,6.251A1.077,1.077,0,0,1-1554.55,1474.648Z" transform="translate(1555.63 -1466.174)" fill="#554b4e"/>
      </g>
      <g id="그룹_1522" data-name="그룹 1522" transform="translate(65.708 0)">
        <path id="패스_10533" data-name="패스 10533" d="M-1405.178,1422.7a1.079,1.079,0,0,1-1.036-.786,1.075,1.075,0,0,1,.741-1.33,103.434,103.434,0,0,1,29.1-3.953,1.076,1.076,0,0,1,1.069,1.085,1.078,1.078,0,0,1-1.078,1.071,3.4,3.4,0,0,1-.665,0,101.993,101.993,0,0,0-27.835,3.875A1.068,1.068,0,0,1-1405.178,1422.7Z" transform="translate(1406.256 -1416.628)" fill="#554b4e"/>
      </g>
      <g id="그룹_1523" data-name="그룹 1523" transform="translate(105.76 0.702)">
        <path id="패스_10534" data-name="패스 10534" d="M-1099.468,1456.069a1.073,1.073,0,0,1-.794-.352A102.785,102.785,0,0,0-1164.228,1423a1.076,1.076,0,0,1-.946-1.2,1.1,1.1,0,0,1,1.2-.946,104.941,104.941,0,0,1,65.307,33.4,1.077,1.077,0,0,1-.07,1.523A1.067,1.067,0,0,1-1099.468,1456.069Z" transform="translate(1165.182 -1420.856)" fill="#554b4e"/>
      </g>
      <g id="그룹_1524" data-name="그룹 1524" transform="translate(0 105.548)">
        <path id="패스_10535" data-name="패스 10535" d="M-1800.594,2056.567a1.077,1.077,0,0,1-1.075-1.023c-.042-.844-.073-1.687-.087-2.522a1.078,1.078,0,0,1,1.058-1.1,1.081,1.081,0,0,1,1.1,1.058q.021,1.219.084,2.452a1.08,1.08,0,0,1-1.022,1.131Z" transform="translate(1801.756 -2051.925)" fill="#554b4e"/>
      </g>
      <g id="그룹_1525" data-name="그룹 1525" transform="translate(5.583 62.473)">
        <path id="패스_10536" data-name="패스 10536" d="M-1767.074,1804.189a1.074,1.074,0,0,1-.365-.064,1.077,1.077,0,0,1-.648-1.38,95.742,95.742,0,0,1,4.02-9.487,1.08,1.08,0,0,1,1.443-.5,1.079,1.079,0,0,1,.494,1.441,93.906,93.906,0,0,0-3.93,9.274A1.074,1.074,0,0,1-1767.074,1804.189Z" transform="translate(1768.151 -1792.653)" fill="#554b4e"/>
      </g>
      <g id="그룹_1526" data-name="그룹 1526" transform="translate(19.451 25.688)">
        <path id="패스_10537" data-name="패스 10537" d="M-1683.6,1594.23a1.075,1.075,0,0,1-.654-.223,1.078,1.078,0,0,1-.2-1.51,93.949,93.949,0,0,1,22.519-21.072,1.081,1.081,0,0,1,1.5.3,1.078,1.078,0,0,1-.3,1.495,91.852,91.852,0,0,0-22.006,20.59A1.068,1.068,0,0,1-1683.6,1594.23Z" transform="translate(1684.68 -1571.244)" fill="#554b4e"/>
      </g>
      <g id="그룹_1527" data-name="그룹 1527" transform="translate(49.074 9.89)">
        <path id="패스_10538" data-name="패스 10538" d="M-1389.108,1511.273a1.077,1.077,0,0,1-.82-.379,92.747,92.747,0,0,0-104.715-26.074,95.613,95.613,0,0,0-10.144,4.722,1.077,1.077,0,0,1-1.46-.437,1.079,1.079,0,0,1,.435-1.461,98.32,98.32,0,0,1,10.374-4.831,94.913,94.913,0,0,1,107.151,26.682,1.078,1.078,0,0,1-.123,1.52A1.066,1.066,0,0,1-1389.108,1511.273Z" transform="translate(1506.376 -1476.155)" fill="#554b4e"/>
      </g>
      <g id="그룹_1528" data-name="그룹 1528" transform="translate(11.332 87.651)">
        <path id="패스_10539" data-name="패스 10539" d="M-1732.468,1949.1a1.012,1.012,0,0,1-.171-.014,1.078,1.078,0,0,1-.9-1.234c.149-.933.32-1.861.5-2.784a1.089,1.089,0,0,1,1.266-.849,1.078,1.078,0,0,1,.85,1.266c-.177.9-.342,1.8-.489,2.707A1.076,1.076,0,0,1-1732.468,1949.1Z" transform="translate(1733.548 -1944.204)" fill="#554b4e"/>
      </g>
      <g id="그룹_1529" data-name="그룹 1529" transform="translate(21.675 52.273)">
        <path id="패스_10540" data-name="패스 10540" d="M-1670.214,1742.729a1.083,1.083,0,0,1-.542-.146,1.082,1.082,0,0,1-.39-1.475,84.9,84.9,0,0,1,6.389-9.433,1.075,1.075,0,0,1,1.513-.185,1.079,1.079,0,0,1,.185,1.513,82.723,82.723,0,0,0-6.223,9.191A1.075,1.075,0,0,1-1670.214,1742.729Z" transform="translate(1671.291 -1731.261)" fill="#554b4e"/>
      </g>
      <g id="그룹_1530" data-name="그룹 1530" transform="translate(38.154 26.024)">
        <path id="패스_10541" data-name="패스 10541" d="M-1571.026,1590.788a1.074,1.074,0,0,1-.8-.359,1.08,1.08,0,0,1,.084-1.523,84.379,84.379,0,0,1,25.276-15.561,1.081,1.081,0,0,1,1.4.606,1.078,1.078,0,0,1-.606,1.4,82.226,82.226,0,0,0-24.633,15.165A1.074,1.074,0,0,1-1571.026,1590.788Z" transform="translate(1572.103 -1573.269)" fill="#554b4e"/>
      </g>
      <g id="그룹_1531" data-name="그룹 1531" transform="translate(72.357 20.189)">
        <path id="패스_10542" data-name="패스 10542" d="M-1280.934,1568.625a1.075,1.075,0,0,1-.808-.368,83.011,83.011,0,0,0-83.136-25.218,1.069,1.069,0,0,1-1.319-.764,1.078,1.078,0,0,1,.764-1.319,85.178,85.178,0,0,1,85.309,25.878,1.075,1.075,0,0,1-.1,1.52A1.07,1.07,0,0,1-1280.934,1568.625Z" transform="translate(1366.234 -1538.145)" fill="#554b4e"/>
      </g>
    </g>
  </g>
</svg>
