<svg xmlns="http://www.w3.org/2000/svg" width="213.941" height="188.524" viewBox="0 0 213.941 188.524">
  <g id="Moon_aura_1" data-name="Moon aura 1" transform="matrix(0.966, 0.259, -0.259, 0.966, -2788.99, -1701.971)">
    <g id="Moon" transform="translate(3216.119 939.443)">
      <g id="그룹_1450" data-name="그룹 1450" transform="translate(11.797 11.883)">
        <path id="패스_10480" data-name="패스 10480" d="M3283.833,1041.387a34.206,34.206,0,1,1,14.262-65.276.761.761,0,0,1-.487,1.434,24.554,24.554,0,1,0-10.012,48.068,24.553,24.553,0,0,0,28.828-20.53.786.786,0,0,1,.787-.649.76.76,0,0,1,.726.716,34.412,34.412,0,0,1-14.852,30.284A34.024,34.024,0,0,1,3283.833,1041.387Zm-.1-66.922a32.7,32.7,0,1,0,32.461,37.051,26.077,26.077,0,1,1-24.666-36.1A32.477,32.477,0,0,0,3283.736,974.464Z" transform="translate(-3249.563 -973.004)" fill="#554b4e"/>
      </g>
      <g id="그룹_1451" data-name="그룹 1451">
        <path id="패스_10481" data-name="패스 10481" d="M3280.226,1049.524a46.542,46.542,0,0,1-8.612-.808,46.054,46.054,0,1,1,34.5-7.235l-.429-.629.429.629A45.725,45.725,0,0,1,3280.226,1049.524Zm-.19-90.611a44.671,44.671,0,1,0,8.329.781A45,45,0,0,0,3280.036,958.913Z" transform="translate(-3234.063 -957.39)" fill="#554b4e"/>
      </g>
      <g id="그룹_1452" data-name="그룹 1452" transform="translate(21.104 59.83)">
        <path id="패스_10482" data-name="패스 10482" d="M3275.028,1048.587a.567.567,0,0,1-.234-.051,28.888,28.888,0,0,1-12.923-11.672.571.571,0,0,1,.984-.578,27.753,27.753,0,0,0,12.407,11.209.571.571,0,0,1-.234,1.091Z" transform="translate(-3261.792 -1036.004)" fill="#554b4e"/>
      </g>
      <g id="그룹_1453" data-name="그룹 1453" transform="translate(18.439 53.697)">
        <path id="패스_10483" data-name="패스 10483" d="M3260.1,1032.46a.57.57,0,0,1-.521-.339,27.753,27.753,0,0,1-1.27-3.444.571.571,0,0,1,1.1-.322,26.822,26.822,0,0,0,1.217,3.3.571.571,0,0,1-.521.8Z" transform="translate(-3258.29 -1027.945)" fill="#554b4e"/>
      </g>
      <g id="그룹_1454" data-name="그룹 1454" transform="translate(37.167 68.947)">
        <path id="패스_10484" data-name="패스 10484" d="M3286.6,1050.4a.575.575,0,0,1-.183-.03,28.228,28.228,0,0,1-3.192-1.305.571.571,0,1,1,.5-1.028,26.94,26.94,0,0,0,3.063,1.252.571.571,0,0,1-.184,1.111Z" transform="translate(-3282.899 -1047.984)" fill="#554b4e"/>
      </g>
      <g id="그룹_1455" data-name="그룹 1455" transform="translate(27.781 61.983)">
        <path id="패스_10485" data-name="패스 10485" d="M3278.73,1046a.572.572,0,0,1-.283-.075,33.737,33.737,0,0,1-7.727-6.126.571.571,0,1,1,.83-.785,32.506,32.506,0,0,0,7.463,5.919.571.571,0,0,1-.284,1.067Z" transform="translate(-3270.565 -1038.833)" fill="#554b4e"/>
      </g>
    </g>
    <g id="Line" transform="translate(3158.961 882.277)">
      <g id="그룹_1480" data-name="그룹 1480" transform="translate(16.146 16.147)">
        <g id="그룹_1459" data-name="그룹 1459" transform="translate(63.325)">
          <g id="그룹_1456" data-name="그룹 1456" transform="translate(9.98 37.244)">
            <path id="패스_10486" data-name="패스 10486" d="M3278.543,959.085a.57.57,0,0,1-.551-.424l-1.477-5.513a.571.571,0,1,1,1.1-.295l1.477,5.513a.571.571,0,0,1-.4.7A.593.593,0,0,1,3278.543,959.085Z" transform="translate(-3276.495 -952.429)" fill="#554b4e"/>
          </g>
          <g id="그룹_1457" data-name="그룹 1457" transform="translate(4.311 16.09)">
            <path id="패스_10487" data-name="패스 10487" d="M3272.452,936.353a.57.57,0,0,1-.551-.423l-2.834-10.577a.571.571,0,1,1,1.1-.3L3273,935.634a.572.572,0,0,1-.4.7A.587.587,0,0,1,3272.452,936.353Z" transform="translate(-3269.047 -924.634)" fill="#554b4e"/>
          </g>
          <g id="그룹_1458" data-name="그룹 1458">
            <path id="패스_10488" data-name="패스 10488" d="M3265.431,910.148a.571.571,0,0,1-.552-.422l-1.478-5.514a.571.571,0,1,1,1.1-.3l1.478,5.513a.571.571,0,0,1-.4.7A.581.581,0,0,1,3265.431,910.148Z" transform="translate(-3263.382 -903.493)" fill="#554b4e"/>
          </g>
        </g>
        <g id="그룹_1463" data-name="그룹 1463" transform="translate(98.232 130.274)">
          <g id="그룹_1460" data-name="그룹 1460">
            <path id="패스_10489" data-name="패스 10489" d="M3311.3,1081.321a.569.569,0,0,1-.551-.423l-1.477-5.513a.571.571,0,1,1,1.1-.3l1.477,5.513a.572.572,0,0,1-.4.7A.584.584,0,0,1,3311.3,1081.321Z" transform="translate(-3309.248 -1074.666)" fill="#554b4e"/>
          </g>
          <g id="그룹_1461" data-name="그룹 1461" transform="translate(4.309 16.082)">
            <path id="패스_10490" data-name="패스 10490" d="M3318.313,1107.506a.571.571,0,0,1-.552-.422l-2.832-10.568a.571.571,0,1,1,1.1-.3l2.833,10.568a.571.571,0,0,1-.4.7A.587.587,0,0,1,3318.313,1107.506Z" transform="translate(-3314.909 -1095.797)" fill="#554b4e"/>
          </g>
          <g id="그룹_1462" data-name="그룹 1462" transform="translate(9.972 37.218)">
            <path id="패스_10491" data-name="패스 10491" d="M3324.4,1130.224a.571.571,0,0,1-.552-.423l-1.478-5.513a.571.571,0,0,1,1.1-.3l1.478,5.513a.571.571,0,0,1-.4.7A.6.6,0,0,1,3324.4,1130.224Z" transform="translate(-3322.351 -1123.568)" fill="#554b4e"/>
          </g>
        </g>
        <g id="그룹_1467" data-name="그룹 1467" transform="translate(0 63.325)">
          <g id="그룹_1464" data-name="그룹 1464" transform="translate(37.248 9.98)">
            <path id="패스_10492" data-name="패스 10492" d="M3235.2,1002.431a.573.573,0,0,1-.147-.02l-5.514-1.477a.571.571,0,1,1,.3-1.1l5.513,1.477a.571.571,0,0,1-.148,1.123Z" transform="translate(-3229.118 -999.811)" fill="#554b4e"/>
          </g>
          <g id="그룹_1465" data-name="그룹 1465" transform="translate(16.091 4.311)">
            <path id="패스_10493" data-name="패스 10493" d="M3212.469,996.339a.586.586,0,0,1-.148-.019l-10.578-2.834a.571.571,0,0,1,.3-1.1l10.579,2.834a.571.571,0,0,1-.148,1.122Z" transform="translate(-3201.32 -992.363)" fill="#554b4e"/>
          </g>
          <g id="그룹_1466" data-name="그룹 1466">
            <path id="패스_10494" data-name="패스 10494" d="M3186.262,989.317a.571.571,0,0,1-.149-.02l-5.513-1.477a.571.571,0,0,1,.3-1.1l5.514,1.477a.571.571,0,0,1-.148,1.123Z" transform="translate(-3180.177 -986.698)" fill="#554b4e"/>
          </g>
        </g>
        <g id="그룹_1471" data-name="그룹 1471" transform="translate(130.258 98.227)">
          <g id="그룹_1468" data-name="그룹 1468">
            <path id="패스_10495" data-name="패스 10495" d="M3357.414,1035.177a.6.6,0,0,1-.148-.019l-5.514-1.478a.571.571,0,0,1,.3-1.1l5.513,1.478a.57.57,0,0,1-.148,1.122Z" transform="translate(-3351.329 -1032.558)" fill="#554b4e"/>
          </g>
          <g id="그룹_1469" data-name="그룹 1469" transform="translate(16.087 4.311)">
            <path id="패스_10496" data-name="패스 10496" d="M3383.611,1042.2a.585.585,0,0,1-.148-.019l-10.573-2.833a.571.571,0,0,1,.3-1.1l10.572,2.833a.571.571,0,0,1-.147,1.122Z" transform="translate(-3372.467 -1038.222)" fill="#554b4e"/>
          </g>
          <g id="그룹_1470" data-name="그룹 1470" transform="translate(37.235 9.977)">
            <path id="패스_10497" data-name="패스 10497" d="M3406.337,1048.286a.6.6,0,0,1-.149-.019l-5.513-1.478a.571.571,0,1,1,.3-1.1l5.513,1.477a.571.571,0,0,1-.147,1.122Z" transform="translate(-3400.253 -1045.667)" fill="#554b4e"/>
          </g>
        </g>
        <g id="그룹_1475" data-name="그룹 1475" transform="translate(23.179 118.539)">
          <g id="그룹_1472" data-name="그룹 1472" transform="translate(27.253)">
            <path id="패스_10498" data-name="패스 10498" d="M3247.012,1064.424a.57.57,0,0,1-.4-.974l4.036-4.036a.571.571,0,0,1,.807.807l-4.036,4.036A.567.567,0,0,1,3247.012,1064.424Z" transform="translate(-3246.441 -1059.246)" fill="#554b4e"/>
          </g>
          <g id="그룹_1473" data-name="그룹 1473" transform="translate(11.776 11.775)">
            <path id="패스_10499" data-name="패스 10499" d="M3226.676,1083.6a.571.571,0,0,1-.4-.974l7.738-7.738a.571.571,0,0,1,.807.807l-7.739,7.738A.565.565,0,0,1,3226.676,1083.6Z" transform="translate(-3226.105 -1074.718)" fill="#554b4e"/>
          </g>
          <g id="그룹_1474" data-name="그룹 1474" transform="translate(0 27.252)">
            <path id="패스_10500" data-name="패스 10500" d="M3211.2,1100.232a.571.571,0,0,1-.4-.975l4.037-4.036a.571.571,0,0,1,.807.808l-4.036,4.036A.572.572,0,0,1,3211.2,1100.232Z" transform="translate(-3210.632 -1095.054)" fill="#554b4e"/>
          </g>
        </g>
        <g id="그룹_1479" data-name="그룹 1479" transform="translate(118.53 23.179)">
          <g id="그룹_1476" data-name="그룹 1476" transform="translate(0 27.261)">
            <path id="패스_10501" data-name="패스 10501" d="M3336.489,974.946a.571.571,0,0,1-.4-.974l4.037-4.037a.571.571,0,0,1,.807.807l-4.037,4.036A.566.566,0,0,1,3336.489,974.946Z" transform="translate(-3335.918 -969.768)" fill="#554b4e"/>
          </g>
          <g id="그룹_1477" data-name="그룹 1477" transform="translate(11.778 11.778)">
            <path id="패스_10502" data-name="패스 10502" d="M3351.964,958.307a.57.57,0,0,1-.4-.974l7.742-7.742a.571.571,0,0,1,.807.807l-7.743,7.742A.565.565,0,0,1,3351.964,958.307Z" transform="translate(-3351.394 -949.424)" fill="#554b4e"/>
          </g>
          <g id="그룹_1478" data-name="그룹 1478" transform="translate(27.263)">
            <path id="패스_10503" data-name="패스 10503" d="M3372.311,939.125a.571.571,0,0,1-.4-.974l4.035-4.036a.571.571,0,0,1,.807.807l-4.035,4.036A.567.567,0,0,1,3372.311,939.125Z" transform="translate(-3371.74 -933.948)" fill="#554b4e"/>
          </g>
        </g>
      </g>
      <g id="그룹_1499" data-name="그룹 1499">
        <g id="그룹_1483" data-name="그룹 1483" transform="translate(27.505 27.504)">
          <g id="그룹_1481" data-name="그룹 1481" transform="translate(26.722 26.723)">
            <path id="패스_10504" data-name="패스 10504" d="M3246.929,970.815a.568.568,0,0,1-.4-.167L3230.38,954.5a.571.571,0,0,1,.807-.807l16.146,16.145a.571.571,0,0,1-.4.974Z" transform="translate(-3230.213 -953.529)" fill="#554b4e"/>
          </g>
          <g id="그룹_1482" data-name="그룹 1482">
            <path id="패스_10505" data-name="패스 10505" d="M3211.816,935.7a.569.569,0,0,1-.4-.167l-16.145-16.145a.571.571,0,0,1,.808-.807l16.144,16.145a.571.571,0,0,1-.4.975Z" transform="translate(-3195.101 -918.416)" fill="#554b4e"/>
          </g>
        </g>
        <g id="그룹_1486" data-name="그룹 1486" transform="translate(134.927 134.927)">
          <g id="그룹_1484" data-name="그룹 1484">
            <path id="패스_10506" data-name="패스 10506" d="M3352.964,1076.85a.568.568,0,0,1-.4-.167l-16.144-16.145a.571.571,0,0,1,.807-.807l16.144,16.145a.571.571,0,0,1-.4.974Z" transform="translate(-3336.248 -1059.563)" fill="#554b4e"/>
          </g>
          <g id="그룹_1485" data-name="그룹 1485" transform="translate(26.723 26.723)">
            <path id="패스_10507" data-name="패스 10507" d="M3388.076,1111.962a.568.568,0,0,1-.4-.167l-16.144-16.145a.57.57,0,0,1,.806-.807l16.145,16.145a.57.57,0,0,1-.4.974Z" transform="translate(-3371.361 -1094.676)" fill="#554b4e"/>
          </g>
        </g>
        <g id="그룹_1489" data-name="그룹 1489" transform="translate(0 114.465)">
          <g id="그룹_1487" data-name="그룹 1487" transform="translate(36.504)">
            <path id="패스_10508" data-name="패스 10508" d="M3207.5,1039.728a.571.571,0,0,1-.148-1.123l22.055-5.909a.571.571,0,1,1,.3,1.1l-22.054,5.909A.6.6,0,0,1,3207.5,1039.728Z" transform="translate(-3206.925 -1032.677)" fill="#554b4e"/>
          </g>
          <g id="그룹_1488" data-name="그룹 1488" transform="translate(0 9.781)">
            <path id="패스_10509" data-name="패스 10509" d="M3159.532,1052.579a.571.571,0,0,1-.148-1.122l22.055-5.91a.571.571,0,1,1,.3,1.1l-22.054,5.91A.59.59,0,0,1,3159.532,1052.579Z" transform="translate(-3158.961 -1045.529)" fill="#554b4e"/>
          </g>
        </g>
        <g id="그룹_1492" data-name="그룹 1492" transform="translate(146.742 75.145)">
          <g id="그룹_1490" data-name="그룹 1490" transform="translate(0 9.781)">
            <path id="패스_10510" data-name="패스 10510" d="M3352.343,1000.916a.571.571,0,0,1-.148-1.123l22.054-5.91a.571.571,0,0,1,.3,1.1l-22.054,5.909A.591.591,0,0,1,3352.343,1000.916Z" transform="translate(-3351.772 -993.865)" fill="#554b4e"/>
          </g>
          <g id="그룹_1491" data-name="그룹 1491" transform="translate(36.503)">
            <path id="패스_10511" data-name="패스 10511" d="M3400.307,988.064a.571.571,0,0,1-.148-1.123l22.054-5.91a.571.571,0,1,1,.3,1.1l-22.055,5.91A.585.585,0,0,1,3400.307,988.064Z" transform="translate(-3399.735 -981.013)" fill="#554b4e"/>
          </g>
        </g>
        <g id="그룹_1495" data-name="그룹 1495" transform="translate(75.145 146.741)">
          <g id="그룹_1493" data-name="그룹 1493" transform="translate(9.781)">
            <path id="패스_10512" data-name="패스 10512" d="M3271.12,1098.283a.58.58,0,0,1-.148-.02.57.57,0,0,1-.4-.7l5.909-22.053a.571.571,0,1,1,1.1.3l-5.91,22.054A.57.57,0,0,1,3271.12,1098.283Z" transform="translate(-3270.549 -1075.087)" fill="#554b4e"/>
          </g>
          <g id="그룹_1494" data-name="그룹 1494" transform="translate(0 36.504)">
            <path id="패스_10513" data-name="패스 10513" d="M3258.269,1146.247a.548.548,0,0,1-.148-.019.571.571,0,0,1-.4-.7l5.91-22.054a.571.571,0,1,1,1.1.3l-5.909,22.054A.571.571,0,0,1,3258.269,1146.247Z" transform="translate(-3257.697 -1123.051)" fill="#554b4e"/>
          </g>
        </g>
        <g id="그룹_1498" data-name="그룹 1498" transform="translate(114.464)">
          <g id="그룹_1496" data-name="그룹 1496" transform="translate(0 36.504)">
            <path id="패스_10514" data-name="패스 10514" d="M3309.932,953.436a.59.59,0,0,1-.148-.019.571.571,0,0,1-.4-.7l5.909-22.053a.571.571,0,1,1,1.1.3l-5.909,22.054A.571.571,0,0,1,3309.932,953.436Z" transform="translate(-3309.36 -930.241)" fill="#554b4e"/>
          </g>
          <g id="그룹_1497" data-name="그룹 1497" transform="translate(9.782)">
            <path id="패스_10515" data-name="패스 10515" d="M3322.785,905.472a.59.59,0,0,1-.148-.019.572.572,0,0,1-.4-.7l5.909-22.054a.571.571,0,0,1,1.1.3l-5.91,22.053A.57.57,0,0,1,3322.785,905.472Z" transform="translate(-3322.213 -882.277)" fill="#554b4e"/>
          </g>
        </g>
      </g>
    </g>
  </g>
</svg>
