<svg xmlns="http://www.w3.org/2000/svg" width="32" height="32" viewBox="0 0 32 32">
  <g id="그룹_848" data-name="그룹 848" transform="translate(974 -7298)">
    <rect id="사각형_383" data-name="사각형 383" width="32" height="32" transform="translate(-974 7298)" fill="#fff"/>
    <g id="그룹_847" data-name="그룹 847" transform="translate(32.516 -0.256)">
      <g id="그룹_846" data-name="그룹 846" transform="translate(-1003 7298.776)">
        <g id="그룹_844" data-name="그룹 844" transform="translate(0 0)">
          <path id="패스_9853" data-name="패스 9853" d="M70.078,133.167a8.384,8.384,0,0,1,6.963-11.812A7.922,7.922,0,0,0,73,136.641,8.341,8.341,0,0,1,70.078,133.167Z" transform="translate(-59.459 -121.205)" fill="#f0a8a4"/>
          <path id="패스_9854" data-name="패스 9854" d="M31.471,210.721a10.094,10.094,0,0,0,6.917-14.988A9.537,9.537,0,0,1,26.03,210.21,10.042,10.042,0,0,0,31.471,210.721Z" transform="translate(-26.03 -181.152)" fill="#f0a8a4"/>
        </g>
        <g id="그룹_845" data-name="그룹 845" transform="translate(5.525 11.113)">
          <path id="패스_9855" data-name="패스 9855" d="M96.4,181.675s1.083.457,2.094-1.22,3.6-2.7,3.861-2.393-.271,1.005.152,1.2,1.864,1.265.555,2.083-5.624,1.649-6.175,1.165S96.4,181.675,96.4,181.675Z" transform="translate(-88.153 -178.008)" fill="#84badd"/>
          <path id="패스_9856" data-name="패스 9856" d="M62.729,198.859s-2.465.957-2.269,2.368.507,2.542-.733,3.121S56.578,205.7,57,206.793l1.141,1.115a1.649,1.649,0,0,1,1.39-2.041,2.733,2.733,0,0,0,2.352-2.8c-.187-.839-.452-2.3.8-2.567S62.729,198.859,62.729,198.859Z" transform="translate(-56.417 -194.779)" fill="#84badd"/>
          <path id="패스_9857" data-name="패스 9857" d="M61.909,183.784s-1.021.7-2.4-.992-4.251-2.38-4.457-1.989.483,1.073.088,1.36-1.659,1.736-.147,2.419,6.118.852,6.585.217S61.909,183.784,61.909,183.784Z" transform="translate(-54.267 -180.17)" fill="#84badd"/>
          <path id="패스_9858" data-name="패스 9858" d="M87.973,200.327s2.647-.065,3.023,1.31.534,2.537,1.9,2.594,3.435.039,3.476,1.2l-.613,1.466a1.667,1.667,0,0,0-2.084-1.346,2.766,2.766,0,0,1-3.268-1.675c-.158-.845-.487-2.288-1.745-2.058S87.973,200.327,87.973,200.327Z" transform="translate(-81.277 -195.96)" fill="#84badd"/>
        </g>
        <path id="패스_9859" data-name="패스 9859" d="M87.526,192.446a.958.958,0,0,0-1.128.066.957.957,0,0,0-1.107-.226,1.607,1.607,0,0,0-.348,2.011,1.4,1.4,0,0,0,2.634.189A1.606,1.606,0,0,0,87.526,192.446Z" transform="translate(-73.269 -178.303)" fill="#314263"/>
      </g>
    </g>
  </g>
</svg>
