<svg xmlns="http://www.w3.org/2000/svg" width="186.49" height="138.661" viewBox="0 0 186.49 138.661">
  <g id="그룹_334" data-name="그룹 334" transform="translate(0)">
    <g id="그룹_10" data-name="그룹 10">
      <path id="패스_10" data-name="패스 10" d="M101.409,92.3a37.549,37.549,0,0,1,31.184-52.9,35.48,35.48,0,0,0-18.1,68.46A37.356,37.356,0,0,1,101.409,92.3Z" transform="translate(-53.851 -38.723)" fill="#f0a8a4"/>
      <path id="패스_11" data-name="패스 11" d="M73.076,180.377a45.206,45.206,0,0,0,30.981-67.125,42.715,42.715,0,0,1-55.35,64.84A44.968,44.968,0,0,0,73.076,180.377Z" transform="translate(-48.708 -47.946)" fill="#f0a8a4"/>
    </g>
    <g id="그룹_11" data-name="그룹 11" transform="translate(24.742 49.773)">
      <path id="패스_12" data-name="패스 12" d="M119.082,111.951s4.851,2.045,9.378-5.463,16.119-12.1,17.294-10.716-1.213,4.5.679,5.358,8.35,5.667,2.488,9.331-25.189,7.386-27.654,5.22S119.082,111.951,119.082,111.951Z" transform="translate(-82.158 -95.526)" fill="#84badd"/>
      <path id="패스_13" data-name="패스 13" d="M105.545,116.377s-11.039,4.287-10.163,10.606S97.655,138.37,92.1,140.96,78,147.033,79.884,151.913L85,156.906s-1.894-7.3,6.224-9.142,11.371-8.777,10.533-12.533-2.026-10.278,3.567-11.5S105.545,116.377,105.545,116.377Z" transform="translate(-77.275 -98.106)" fill="#84badd"/>
      <path id="패스_14" data-name="패스 14" d="M111.167,112.046s-4.57,3.129-10.755-4.444S81.375,96.94,80.451,98.692s2.164,4.8.393,6.09-7.43,7.776-.656,10.832,27.4,3.818,29.493.972S111.167,112.046,111.167,112.046Z" transform="translate(-76.944 -95.859)" fill="#84badd"/>
      <path id="패스_15" data-name="패스 15" d="M111.089,117.847s11.857-.291,13.539,5.866,2.39,11.363,8.526,11.616,15.387.175,15.569,5.4l-2.743,6.563s-1.129-7.451-9.335-6.03-13.931-3.716-14.639-7.5-2.182-10.248-7.814-9.22S111.089,117.847,111.089,117.847Z" transform="translate(-81.1 -98.288)" fill="#84badd"/>
    </g>
    <path id="패스_16" data-name="패스 16" d="M119.831,110.851c-1.4-1.059-3.314-.863-5.053.3-1.552-1.394-3.416-1.86-4.957-1.012-2.411,1.327-3.109,5.361-1.559,9.009,1.229,2.891,3.5,4.664,5.59,4.619,2.061.344,4.568-1.088,6.206-3.774C122.125,116.6,122.023,112.509,119.831,110.851Z" transform="translate(-55.976 -47.508)" fill="#314263"/>
    <g id="그룹_12" data-name="그룹 12" transform="translate(96.536 44.867)">
      <path id="패스_17" data-name="패스 17" d="M158.878,116.2a4.618,4.618,0,0,1,1.052-3.063,6.651,6.651,0,0,1,2.878-1.93.23.23,0,0,1,.327.126.333.333,0,0,1-.046.378,3.086,3.086,0,0,0-1.333,1.3,4.333,4.333,0,0,0-.492,2.14,4.654,4.654,0,0,0,2.1,4.029,9.366,9.366,0,0,0,5.474,1.469q4.4,0,6.292-1.553a5.006,5.006,0,0,0,1.894-4.071,7.844,7.844,0,0,0-1.076-4.133,28.766,28.766,0,0,0-2.362-3.357q-1.287-1.575-2.362-3.169a6.3,6.3,0,0,1-1.076-3.608,4.734,4.734,0,0,1,.585-2.267,6.44,6.44,0,0,1,1.637-1.951,8.135,8.135,0,0,1,2.5-1.364,9.647,9.647,0,0,1,3.182-.5,6.824,6.824,0,0,1,3.766.9,2.583,2.583,0,0,1,1.38,2.162,3.376,3.376,0,0,1-.678,1.741,13.673,13.673,0,0,1-1.38,1.784.282.282,0,0,1-.328-.042.271.271,0,0,1-.094-.294,3.27,3.27,0,0,0,.4-.819,3.319,3.319,0,0,0,.164-1.07,2.669,2.669,0,0,0-.328-1.28,3.116,3.116,0,0,0-.936-1.049,5.329,5.329,0,0,0-1.4-.713,5.175,5.175,0,0,0-1.684-.273,4.882,4.882,0,0,0-3.416,1.008,3.4,3.4,0,0,0-1.076,2.6,5.363,5.363,0,0,0,.538,2.371,15.119,15.119,0,0,0,1.334,2.225q.8,1.112,1.707,2.225a28.267,28.267,0,0,1,1.708,2.307,14.313,14.313,0,0,1,1.334,2.518,7.559,7.559,0,0,1,.538,2.875,5.583,5.583,0,0,1-.912,3.063,8.631,8.631,0,0,1-2.5,2.5,13.06,13.06,0,0,1-3.7,1.679,16.285,16.285,0,0,1-4.538.609q-4.445,0-6.76-1.554A4.611,4.611,0,0,1,158.878,116.2Z" transform="translate(-158.878 -90.514)" fill="#f1968d"/>
      <path id="패스_18" data-name="패스 18" d="M205.221,89.927a1.941,1.941,0,0,1,1.146.315,1.578,1.578,0,0,1,.608.839,2.537,2.537,0,0,1,.047,1.2,3.742,3.742,0,0,1-.538,1.343.182.182,0,0,1-.234,0,.414.414,0,0,1-.188-.21.792.792,0,0,0-.4-.839,2.738,2.738,0,0,0-1.521-.336,6.979,6.979,0,0,0-3.859,1.279,18.689,18.689,0,0,0-3.766,3.379,31.574,31.574,0,0,0-3.416,4.826,43.457,43.457,0,0,0-2.76,5.624,40.115,40.115,0,0,0-1.848,5.749,22.681,22.681,0,0,0-.678,5.2q0,1.259.8,1.258a1.777,1.777,0,0,0,1.1-.419,8.714,8.714,0,0,0,1.239-1.259.2.2,0,0,1,.258.021.251.251,0,0,1,.07.272,8.793,8.793,0,0,1-2.2,2.1,4.255,4.255,0,0,1-2.292.839,1.464,1.464,0,0,1-1.24-.462,1.885,1.885,0,0,1-.351-1.175,17,17,0,0,1,.936-4.931,49.09,49.09,0,0,1,2.5-6.254,63.734,63.734,0,0,1,3.625-6.567,51.555,51.555,0,0,1,4.281-5.9,26.088,26.088,0,0,1,4.467-4.259A7.288,7.288,0,0,1,205.221,89.927Z" transform="translate(-162.135 -89.927)" fill="#f1968d"/>
      <path id="패스_19" data-name="패스 19" d="M202.89,115.35q0,2.392-7.063,3.274c-.032.28-.055.56-.071.839s-.023.574-.023.881a2.335,2.335,0,0,0,.561,1.679,2.364,2.364,0,0,0,1.778.588,4.1,4.1,0,0,0,1.824-.463,4.254,4.254,0,0,0,1.5-1.175.2.2,0,0,1,.28.063.38.38,0,0,1,.047.315,8.3,8.3,0,0,1-2.362,1.868,6.316,6.316,0,0,1-3.065.776,3.22,3.22,0,0,1-2.362-.734,2.83,2.83,0,0,1-.725-2.078,6.8,6.8,0,0,1,.608-2.707,10.872,10.872,0,0,1,1.567-2.58,8.259,8.259,0,0,1,2.2-1.91,4.868,4.868,0,0,1,2.5-.734,3.055,3.055,0,0,1,2.035.65A1.878,1.878,0,0,1,202.89,115.35Zm-4.07-1.008a2.358,2.358,0,0,0-1.848.9,5.533,5.533,0,0,0-1.052,2.791,9.326,9.326,0,0,0,3.322-.776q1.076-.566,1.076-1.406a1.49,1.49,0,0,0-.421-1.071A1.424,1.424,0,0,0,198.82,114.342Z" transform="translate(-163.126 -92.813)" fill="#f1968d"/>
      <path id="패스_20" data-name="패스 20" d="M215.544,115.35q0,2.392-7.064,3.274c-.032.28-.055.56-.07.839s-.024.574-.024.881a2.335,2.335,0,0,0,.562,1.679,2.363,2.363,0,0,0,1.778.588,4.108,4.108,0,0,0,1.824-.463,4.25,4.25,0,0,0,1.5-1.175.2.2,0,0,1,.28.063.374.374,0,0,1,.047.315,8.283,8.283,0,0,1-2.362,1.868,6.315,6.315,0,0,1-3.064.776,3.222,3.222,0,0,1-2.363-.734,2.83,2.83,0,0,1-.725-2.078,6.8,6.8,0,0,1,.608-2.707,10.878,10.878,0,0,1,1.568-2.58,8.268,8.268,0,0,1,2.2-1.91,4.87,4.87,0,0,1,2.5-.734,3.059,3.059,0,0,1,2.035.65A1.881,1.881,0,0,1,215.544,115.35Zm-4.07-1.008a2.357,2.357,0,0,0-1.848.9,5.525,5.525,0,0,0-1.052,2.791,9.336,9.336,0,0,0,3.322-.776q1.075-.566,1.075-1.406a1.492,1.492,0,0,0-.421-1.071A1.425,1.425,0,0,0,211.474,114.342Z" transform="translate(-164.692 -92.813)" fill="#f1968d"/>
      <path id="패스_21" data-name="패스 21" d="M227.728,113.091a1.944,1.944,0,0,1,1.661.9,3.609,3.609,0,0,1,.631,2.12,6.4,6.4,0,0,1-.771,3.127,8.194,8.194,0,0,1-2.035,2.433,9.411,9.411,0,0,1-2.9,1.595,10.1,10.1,0,0,1-3.322.567,4.765,4.765,0,0,1-1.356-.168,43.435,43.435,0,0,0-1.427,4.407,16.9,16.9,0,0,0-.631,4.365q0,.965,1.029.755a3.188,3.188,0,0,0,.726-.168,3.387,3.387,0,0,0,.678-.336.185.185,0,0,1,.21.168.534.534,0,0,1-.07.336,6.028,6.028,0,0,1-.818.273q-.539.147-1.146.294t-1.217.23a7.674,7.674,0,0,1-1.029.083,1.017,1.017,0,0,1-.608-.167.579.579,0,0,1-.234-.5,19.259,19.259,0,0,1,.772-4.974,52.944,52.944,0,0,1,1.988-5.854,1.45,1.45,0,0,1-.328-.546c-.032-.111.2-.237.7-.378q.607-1.51,1.31-3.021t1.4-2.979a5.481,5.481,0,0,0,.818-2.142q-.071-.418-.585-.167a5.961,5.961,0,0,0-1.544,1.175c-.063.056-.133.036-.21-.062s-.1-.175-.07-.231a8.093,8.093,0,0,1,.842-.734,9.978,9.978,0,0,1,2.245-1.3,2.641,2.641,0,0,1,.982-.231.657.657,0,0,1,.679.4,1,1,0,0,1-.071.861q-.607,1.469-1.59,3.316a14.012,14.012,0,0,1,1.076-1.2,11.669,11.669,0,0,1,1.286-1.112,6.848,6.848,0,0,1,1.427-.818A3.837,3.837,0,0,1,227.728,113.091Zm-5.567,9.9a5.555,5.555,0,0,0,2.106-.4,4.753,4.753,0,0,0,1.707-1.175,5.891,5.891,0,0,0,1.17-1.93,7.387,7.387,0,0,0,.444-2.665,2.893,2.893,0,0,0-.421-1.637,1.376,1.376,0,0,0-1.217-.629q-1.076,0-2.573,1.72a17.284,17.284,0,0,0-2.76,4.825c-.094.224-.187.456-.28.692s-.187.483-.281.735A4.01,4.01,0,0,0,222.161,123Z" transform="translate(-165.835 -92.653)" fill="#f1968d"/>
      <path id="패스_22" data-name="패스 22" d="M243.947,115.35q0,2.392-7.064,3.274c-.032.28-.055.56-.071.839s-.023.574-.023.881a2.331,2.331,0,0,0,.562,1.679,2.362,2.362,0,0,0,1.777.588,4.1,4.1,0,0,0,1.824-.463,4.253,4.253,0,0,0,1.5-1.175.2.2,0,0,1,.28.063.374.374,0,0,1,.047.315,8.284,8.284,0,0,1-2.362,1.868,6.315,6.315,0,0,1-3.064.776,3.223,3.223,0,0,1-2.363-.734,2.83,2.83,0,0,1-.725-2.078,6.8,6.8,0,0,1,.608-2.707,10.878,10.878,0,0,1,1.568-2.58,8.256,8.256,0,0,1,2.2-1.91,4.868,4.868,0,0,1,2.5-.734,3.058,3.058,0,0,1,2.035.65A1.88,1.88,0,0,1,243.947,115.35Zm-4.07-1.008a2.356,2.356,0,0,0-1.847.9,5.533,5.533,0,0,0-1.053,2.791,9.327,9.327,0,0,0,3.322-.776q1.076-.566,1.076-1.406a1.49,1.49,0,0,0-.422-1.071A1.424,1.424,0,0,0,239.877,114.342Z" transform="translate(-168.207 -92.813)" fill="#f1968d"/>
      <path id="패스_23" data-name="패스 23" d="M251.865,114.468a8.394,8.394,0,0,1-.14,1.427q-.14.8-.375,1.636a11.081,11.081,0,0,1,2.058-3.147,3.384,3.384,0,0,1,2.433-1.133,1.717,1.717,0,0,1,1.076.294.922.922,0,0,1,.374.755,2.524,2.524,0,0,1-.351,1.091,4.552,4.552,0,0,1-.584.924.185.185,0,0,1-.188-.02.178.178,0,0,1-.093-.147.638.638,0,0,0-.258-.5,1.208,1.208,0,0,0-.772-.209,3.69,3.69,0,0,0-2.97,1.994,21.841,21.841,0,0,0-2.456,5.728.563.563,0,0,1-.328.357,3.5,3.5,0,0,1-.632.251,5.847,5.847,0,0,1-.725.167,4.019,4.019,0,0,1-.655.064q-.515,0-.28-.5.421-.881.818-1.909t.726-2.078c.217-.7.4-1.378.561-2.036s.281-1.265.375-1.826a4.927,4.927,0,0,0,.07-.965c-.016-.223-.149-.336-.4-.336a1.648,1.648,0,0,0-.96.357,4.575,4.575,0,0,0-.912.9.3.3,0,0,1-.35.021.182.182,0,0,1-.07-.273,6.821,6.821,0,0,1,.678-.693,7,7,0,0,1,.889-.671,5.875,5.875,0,0,1,1.03-.525,3.012,3.012,0,0,1,1.1-.209,1.348,1.348,0,0,1,1.029.315A1.312,1.312,0,0,1,251.865,114.468Z" transform="translate(-169.762 -92.813)" fill="#f1968d"/>
    </g>
    <g id="그룹_13" data-name="그룹 13" transform="translate(101.859 87.045)">
      <path id="패스_24" data-name="패스 24" d="M169.74,148.369a.52.52,0,0,1-.174.338.51.51,0,0,1-.294.121.421.421,0,0,1-.278-.078.3.3,0,0,1-.121-.26q.086-.849.216-1.6a11.107,11.107,0,0,1,.3-1.319,1.034,1.034,0,0,1,.069-.208l-.556.069q-.4.07-.685.131c-.191.039-.356.081-.494.121s-.263.081-.373.122-.216.084-.321.13c-.058.024-.171.067-.338.131a2.5,2.5,0,0,0-.338.147,2.69,2.69,0,0,0-.45.321.74.74,0,0,1-.5.182q-.451,0-.45-.5a.479.479,0,0,1,.182-.357,2,2,0,0,1,.433-.293,3.745,3.745,0,0,1,.512-.218c.174-.057.307-.1.4-.138q.451-.138.8-.252c.231-.074.417-.13.556-.164.336-.081.63-.147.885-.2a7.344,7.344,0,0,1,.737-.113c.237-.023.474-.04.711-.052s.5-.017.789-.017h.59q.434,0,.894.025a4.736,4.736,0,0,1,.815.113c.237.059.356.139.356.244a.491.491,0,0,1-.087.294.281.281,0,0,1-.243.121H172.9q-.277,0-.581-.008c-.2-.005-.4-.009-.581-.009h-.382c-.127,0-.28,0-.459.009a4.676,4.676,0,0,0-.512.043,3.2,3.2,0,0,1-.06.338q-.045.183-.113.39a8.927,8.927,0,0,0-.234,1.016Q169.878,147.537,169.74,148.369Zm-2.412-5.343c.023-.231.046-.453.069-.668s.046-.436.069-.668a1.267,1.267,0,0,0,0-.416.194.194,0,0,0-.209-.173.945.945,0,0,0-.572.208,7.452,7.452,0,0,1-.728.469.214.214,0,0,1-.226.009.368.368,0,0,1-.155-.182.691.691,0,0,1-.053-.277.392.392,0,0,1,.087-.26,1.9,1.9,0,0,1,.52-.434,2.8,2.8,0,0,1,.659-.313,3.734,3.734,0,0,1,.373-.113,1.807,1.807,0,0,1,.407-.043.727.727,0,0,1,.685.312,1.325,1.325,0,0,1,.182.676,5.709,5.709,0,0,1-.061.885q-.061.381-.112.885a2.1,2.1,0,0,0-.035.294,1.511,1.511,0,0,1-.052.329.373.373,0,0,1-.182.269.759.759,0,0,1-.321.06.3.3,0,0,1-.235-.087.438.438,0,0,1-.1-.216,1.065,1.065,0,0,1-.018-.278C167.325,143.2,167.328,143.107,167.328,143.026Zm-.59,10.027a3.153,3.153,0,0,1-.026-.72c.018-.272.049-.556.1-.85s.1-.583.147-.867.1-.541.131-.772a3.026,3.026,0,0,0,.017-.3.719.719,0,0,1,.044-.26.573.573,0,0,1,.13-.2.54.54,0,0,1,.3-.121.382.382,0,0,1,.408.1.873.873,0,0,1,.147.4.893.893,0,0,1,0,.355c-.023.122-.052.243-.086.365s-.076.244-.122.365a1.374,1.374,0,0,0-.087.338c-.024.173-.046.371-.069.59s-.049.448-.079.685-.058.465-.086.685-.061.416-.1.59a.327.327,0,0,1-.122.182.474.474,0,0,1-.173.078.293.293,0,0,1-.356-.2A2.92,2.92,0,0,1,166.739,153.053Zm3.712-2.221a.518.518,0,0,0-.017-.355.276.276,0,0,0-.277-.148,2.282,2.282,0,0,0-.564.069c-.18.047-.4.1-.668.157q-.434.07-.434-.486a.329.329,0,0,1,.087-.243.658.658,0,0,1,.209-.138,1.245,1.245,0,0,1,.252-.078c.086-.017.165-.032.234-.044q.208-.034.538-.06t.52-.026a1.209,1.209,0,0,1,.807.191.856.856,0,0,1,.269.659,2.214,2.214,0,0,1-.156.8,9.016,9.016,0,0,1-.382.937c.173-.024.333-.043.478-.061s.286-.032.424-.043l.435-.035c.15-.01.317-.017.5-.017h.512c.1,0,.191,0,.278.009s.153.008.2.008a.441.441,0,0,1,.278.105.3.3,0,0,1,.095.19.289.289,0,0,1-.06.2.268.268,0,0,1-.174.113,1.515,1.515,0,0,1-.225.025c-.1.006-.215.015-.329.026s-.226.02-.33.026-.18.008-.226.008c-.231.024-.442.046-.633.07s-.376.052-.555.087-.365.078-.555.131-.4.111-.634.181a4.454,4.454,0,0,0-.676.251,1.974,1.974,0,0,1-.606.182.6.6,0,0,1-.244-.018.436.436,0,0,1-.209-.1.365.365,0,0,1-.095-.252.389.389,0,0,1,.095-.286c.024-.059.1-.107.217-.147a2.621,2.621,0,0,0,.321-.131l.382-.209a1.074,1.074,0,0,0,.365-.312,2.1,2.1,0,0,0,.294-.538C170.283,151.295,170.369,151.064,170.45,150.831Zm.174-7.407a.247.247,0,0,1-.226-.181.4.4,0,0,1,0-.234c.07-.185.133-.357.191-.512s.116-.338.173-.547a4.206,4.206,0,0,0,.147-.685,5.376,5.376,0,0,0,.044-.685,1.2,1.2,0,0,0-.044-.338.238.238,0,0,0-.234-.165.516.516,0,0,0-.294.061,1.947,1.947,0,0,0-.3.191q-.147.113-.268.226a2.428,2.428,0,0,1-.191.164.421.421,0,0,1-.313.1.526.526,0,0,1-.234-.1.486.486,0,0,1-.138-.174.394.394,0,0,1-.044-.147.689.689,0,0,1,.157-.381,2.606,2.606,0,0,1,.728-.608,1.83,1.83,0,0,1,.937-.277,1.274,1.274,0,0,1,.954.338,1.2,1.2,0,0,1,.294.945c-.023.312-.055.619-.1.92a5.683,5.683,0,0,1-.2.9q-.088.3-.174.537a1.458,1.458,0,0,1-.243.434.6.6,0,0,1-.251.2A.692.692,0,0,1,170.624,143.425Z" transform="translate(-164.952 -138.193)" fill="#84badd"/>
      <path id="패스_25" data-name="패스 25" d="M175.6,145.042a.327.327,0,0,1,.13-.225,1.267,1.267,0,0,1,.182-.122,10.664,10.664,0,0,1,1.128-.355,8.673,8.673,0,0,1,.972-.191q.451-.061.841-.088t.754-.025a9.377,9.377,0,0,1,1.015.018,6.2,6.2,0,0,1,.772.1,1.944,1.944,0,0,1,.546.217.316.316,0,0,1,.131.443.136.136,0,0,1-.113.078,1.622,1.622,0,0,1-.165.009c-.138,0-.344-.011-.616-.035s-.523-.034-.754-.034a12.7,12.7,0,0,0-1.5.052,9.006,9.006,0,0,0-1.535.3q-.277.087-.668.243a2.225,2.225,0,0,1-.634.173.37.37,0,0,1-.381-.164A.778.778,0,0,1,175.6,145.042Zm2.047,8.951a.9.9,0,0,1,.182-.408,3.992,3.992,0,0,1,.39-.468c.151-.155.313-.315.486-.477s.341-.312.5-.45q.277-.244.607-.512t.641-.521c.208-.167.4-.323.563-.468a3.87,3.87,0,0,0,.373-.356q-.66.036-1.231.026t-1.215-.009a.961.961,0,0,1-.59-.148.532.532,0,0,1-.217-.372.825.825,0,0,1,.087-.46,1.4,1.4,0,0,1,.321-.424c.058-.046.157-.137.3-.269s.289-.275.45-.425.315-.3.46-.435.252-.243.321-.312a2.739,2.739,0,0,1,.3-.26.409.409,0,0,0,.182-.225q-.66.035-1.163.1c-.336.046-.624.094-.867.14-.2.034-.429.08-.694.138a6.642,6.642,0,0,1-.8.122.321.321,0,0,1-.347-.131.658.658,0,0,1-.1-.356.365.365,0,0,1,.147-.269.993.993,0,0,1,.408-.2,6.638,6.638,0,0,1,.893-.209q.511-.086,1.007-.138c.329-.034.629-.061.9-.078s.471-.025.6-.025a1.31,1.31,0,0,1,.737.2.652.652,0,0,1,.3.581.929.929,0,0,1-.2.537,3.854,3.854,0,0,1-.494.556q-.3.277-.625.546a7.917,7.917,0,0,0-.59.529,1.105,1.105,0,0,1-.165.165c-.075.064-.16.142-.252.234.185.012.361.018.529.018h.78c.133,0,.272,0,.417.009s.277.008.4.008h.2a1.342,1.342,0,0,1,.7.14.447.447,0,0,1,.234.337.7.7,0,0,1-.13.434,1.726,1.726,0,0,1-.356.407c-.023.024-.1.1-.243.226s-.3.269-.477.424-.35.3-.512.443-.273.231-.329.279a3.527,3.527,0,0,0-.338.286c-.145.132-.3.277-.469.434s-.336.315-.5.477-.309.3-.425.4a6.867,6.867,0,0,0,.746-.052c.3-.035.584-.069.85-.1.162-.023.35-.054.564-.095s.419-.079.616-.113.372-.069.528-.1a1.869,1.869,0,0,1,.321-.053,1.306,1.306,0,0,1,.269-.06,2.376,2.376,0,0,1,.338-.025.159.159,0,0,1,.139.086.274.274,0,0,1,.017.217.625.625,0,0,1-.173.269,1.021,1.021,0,0,1-.435.225q-.347.105-.893.234t-1.119.235q-.572.1-1.1.173c-.353.046-.639.075-.859.088a1.069,1.069,0,0,1-.7-.173A.527.527,0,0,1,177.649,153.993Zm-.138-11.674a2.214,2.214,0,0,1,.138-.763,4.087,4.087,0,0,1,.329-.7,4.535,4.535,0,0,1,.416-.59,3.276,3.276,0,0,1,.416-.425.322.322,0,0,1,.2-.087.685.685,0,0,0,.234-.052,1.08,1.08,0,0,0,.131-.078.389.389,0,0,1,.216-.044.7.7,0,0,1,.6.356,1.352,1.352,0,0,1,.234.755,2.539,2.539,0,0,1-.546,1.552,2.194,2.194,0,0,1-.66.556,1.912,1.912,0,0,1-.875.234.853.853,0,0,1-.59-.173A.643.643,0,0,1,177.51,142.319Zm2.063-1.959a1.317,1.317,0,0,0-.337.294,3.266,3.266,0,0,0-.6,1.015,1.558,1.558,0,0,0-.1.528.718.718,0,0,0,.4-.138,1.484,1.484,0,0,0,.373-.365,2.438,2.438,0,0,0,.277-.493,1.324,1.324,0,0,0,.113-.512A.524.524,0,0,0,179.574,140.36Z" transform="translate(-166.27 -138.249)" fill="#84badd"/>
      <path id="패스_26" data-name="패스 26" d="M190.278,145.639c-.034.059-.092.18-.173.364s-.171.385-.27.6-.19.422-.277.625-.147.344-.182.424a1.019,1.019,0,0,1-.286.382.6.6,0,0,1-.6.044c-.081-.04-.121-.171-.121-.391a1.58,1.58,0,0,1,.138-.485c.093-.231.2-.477.313-.737s.23-.506.347-.738.2-.393.243-.485a12.381,12.381,0,0,1,1.144-1.674q.677-.841,1.284-1.57a.493.493,0,0,1,.287-.208,1.1,1.1,0,0,1,.286-.053.524.524,0,0,1,.329.122.377.377,0,0,1,.157.312.51.51,0,0,1-.191.416c-.035.035-.089.094-.165.173s-.156.168-.243.26l-.243.26c-.075.082-.124.133-.148.157-.162.2-.312.386-.45.571a3.518,3.518,0,0,0-.365.607,4.876,4.876,0,0,0,.2.859c.1.308.193.576.286.807q.087.226.234.572c.1.231.206.468.322.712s.225.48.329.711.185.423.243.573a.782.782,0,0,1,.06.312.391.391,0,0,1-.13.243.262.262,0,0,1-.165.078.493.493,0,0,1-.165-.009c-.1-.023-.241-.167-.408-.434s-.341-.572-.52-.919-.35-.7-.512-1.05-.284-.633-.365-.841c-.058-.15-.1-.26-.131-.33S190.313,145.744,190.278,145.639Zm6.384,2.238a1.93,1.93,0,0,1-.07-.772q.036-.477.035-.876c0-.046.005-.126.017-.243s.024-.234.035-.355.023-.238.035-.348.017-.181.017-.216c.011-.081.023-.165.034-.251a1.753,1.753,0,0,0,.018-.216c-.093.057-.225.147-.4.269s-.329.228-.469.321q-.294.191-.641.39a5.8,5.8,0,0,1-.738.356,5.6,5.6,0,0,1-.789.251,3.223,3.223,0,0,1-.763.1.379.379,0,0,1-.321-.147.474.474,0,0,1-.113-.287.941.941,0,0,1,.052-.294.277.277,0,0,1,.226-.191c.138-.023.3-.046.485-.069a2.145,2.145,0,0,0,.468-.1,8.353,8.353,0,0,0,1.6-.772,14.482,14.482,0,0,0,1.5-1.067.79.79,0,0,0,.234-.286c.053-.11.1-.214.139-.312a.661.661,0,0,1,.165-.244.479.479,0,0,1,.329-.095c.288,0,.434.15.434.45a.929.929,0,0,1-.079.416c-.052.1-.107.232-.165.382a4.591,4.591,0,0,0-.312,1.031,9.429,9.429,0,0,0-.138,1.067q-.036.364-.053.7t-.017.719a1.663,1.663,0,0,1-.088.547.4.4,0,0,1-.347.286.363.363,0,0,1-.19-.017A.209.209,0,0,1,196.662,147.877Zm-2.863,2.5a2.3,2.3,0,0,1,.1-.65,5.013,5.013,0,0,1,.269-.712,6.067,6.067,0,0,1,.372-.685,6.816,6.816,0,0,1,.4-.573.392.392,0,0,1,.312-.121.57.57,0,0,1,.356.113.4.4,0,0,1,.147.337.739.739,0,0,1-.225.477,2.6,2.6,0,0,0-.365.512c-.093.2-.176.388-.251.573a1.592,1.592,0,0,0-.113.606c0,.232.087.336.26.313.3-.046.587-.105.859-.174l.807-.208q.4-.1.824-.182a4.989,4.989,0,0,1,.91-.078h.243c.1,0,.167.063.191.191s.006.208-.052.243a5.6,5.6,0,0,1-.676.286q-.33.113-.8.252-.607.192-1.222.4a3.945,3.945,0,0,1-1.276.209,2.46,2.46,0,0,1-.468-.053.7.7,0,0,1-.416-.243A1.289,1.289,0,0,1,193.8,150.375Z" transform="translate(-167.85 -138.516)" fill="#84badd"/>
      <path id="패스_27" data-name="패스 27" d="M200.6,145.7a.541.541,0,0,1,.035-.156l.035-.1a.867.867,0,0,1,.242-.277,3.124,3.124,0,0,1,.365-.251,2.288,2.288,0,0,1,.382-.182c.127-.046.225-.081.294-.1q.209-.07.547-.156t.685-.166c.231-.052.448-.1.65-.138s.35-.072.443-.095a4.051,4.051,0,0,1,.572-.088l.737-.069c.249-.023.484-.044.7-.061s.376-.026.469-.026h.59a3.641,3.641,0,0,1,.555.035.335.335,0,0,1,.269.217.286.286,0,0,1-.061.355.616.616,0,0,1-.269.122,1.36,1.36,0,0,1-.338.052c-.069,0-.188.006-.356.018s-.35.026-.546.043l-.564.053c-.18.018-.309.032-.39.043l-.139.035a.978.978,0,0,1-.122.277c-.058.094-.11.174-.156.244q-.209.451-.416.9a5.1,5.1,0,0,0-.33.954c.2-.034.39-.061.581-.078a2.568,2.568,0,0,1,.563.009.78.78,0,0,1,.46.19.587.587,0,0,1,.13.5,1.747,1.747,0,0,1-.243.763c-.138.23-.284.468-.434.711-.069.1-.153.237-.251.4s-.205.329-.321.5l-.347.52c-.116.174-.22.329-.312.469l-.209.347c-.081.138-.017.208.191.208.23,0,.436,0,.615-.008s.373-.009.582-.009a.569.569,0,0,1,.338.1.32.32,0,0,1,.13.311,2.3,2.3,0,0,1-.278.894q-.242.46-.45.824c-.151.254-.312.527-.486.816s-.341.567-.5.832a1.534,1.534,0,0,0,.538-.1,5.1,5.1,0,0,0,.616-.269q.321-.164.547-.268a3.226,3.226,0,0,1,.321-.138.712.712,0,0,1,.338-.053c.1.023.174.107.208.251a.392.392,0,0,1-.121.39,3.285,3.285,0,0,1-.416.286,7.268,7.268,0,0,1-.8.425,3.688,3.688,0,0,1-.7.26,4.717,4.717,0,0,1-.72.139.947.947,0,0,1-.658-.164.563.563,0,0,1-.244-.547,1.234,1.234,0,0,1,.1-.322,1.61,1.61,0,0,1,.182-.321c.2-.277.382-.561.555-.85s.359-.635.556-1.04c.023-.035.075-.133.156-.3a3.254,3.254,0,0,0,.174-.4c-.162,0-.336,0-.521.009s-.416.008-.694.008a1.606,1.606,0,0,1-.286-.026.635.635,0,0,1-.26-.1.4.4,0,0,1-.156-.216.648.648,0,0,1,.008-.348,2.8,2.8,0,0,1,.26-.6q.173-.3.364-.581.364-.538.634-.92t.563-.9c.069-.127.142-.249.217-.364a.592.592,0,0,0,.095-.382c0-.023-.018-.046-.052-.069a.175.175,0,0,0-.087-.035,1.792,1.792,0,0,0-.659.1,1.219,1.219,0,0,0-.347.13q-.173.1-.468.234a1.107,1.107,0,0,0-.226.131.487.487,0,0,1-.226.1.29.29,0,0,1-.346-.182.628.628,0,0,1-.035-.408.374.374,0,0,1,.122-.209.912.912,0,0,1,.156-.1,4.7,4.7,0,0,1,.641-.3.529.529,0,0,1,.018-.156,5.2,5.2,0,0,1,.3-1.2,10.782,10.782,0,0,1,.512-1.11q-.641.139-1.3.3a7.669,7.669,0,0,0-1.214.408,1.227,1.227,0,0,0-.286.173c-.087.069-.174.132-.26.191a1.481,1.481,0,0,1-.261.138.58.58,0,0,1-.286.034c-.081-.011-.138-.084-.174-.216A.567.567,0,0,1,200.6,145.7Zm.4-4.146c-.024-.357-.035-.67-.035-.937a7.039,7.039,0,0,1,.069-.919,2.9,2.9,0,0,1,.043-.313c.018-.081.038-.161.061-.242s.049-.166.078-.251.067-.2.113-.339a.8.8,0,0,1,.174-.321,1.264,1.264,0,0,1,.138-.112.372.372,0,0,1,.2-.061,1,1,0,0,1,.259.018.952.952,0,0,1,.235.078.208.208,0,0,1,.122.138v.088a.553.553,0,0,1-.035.216c-.024.052-.058.123-.1.216a5.9,5.9,0,0,0-.225.625,3.5,3.5,0,0,0-.122.6c-.023.2-.038.41-.043.624s-.009.449-.009.7c0,.093,0,.18.009.26s.008.157.008.226v.174a.289.289,0,0,1-.19.277.629.629,0,0,1-.269.026.385.385,0,0,1-.321-.2.79.79,0,0,1-.113-.294C201.027,141.733,201.013,141.641,201,141.559Zm1.509.8a.316.316,0,0,1,.121-.173,2.049,2.049,0,0,1,.234-.166c.088-.051.174-.1.26-.138l.2-.095a2.314,2.314,0,0,0,.209-.391,5.2,5.2,0,0,0,.26-.738,2.992,2.992,0,0,0,.1-.694c0-.046,0-.115-.01-.208s-.038-.145-.095-.156a.53.53,0,0,0-.312.026,2.066,2.066,0,0,0-.347.182c-.059.034-.113.069-.165.1a.5.5,0,0,1-.2.069.291.291,0,0,1-.312-.148.521.521,0,0,1-.087-.39.288.288,0,0,1,.087-.156,1.489,1.489,0,0,1,.5-.339c.1-.04.232-.082.382-.13a1.5,1.5,0,0,1,.546-.078,1.609,1.609,0,0,1,.529.1.547.547,0,0,1,.373.416,3.3,3.3,0,0,1,.044.5,2.953,2.953,0,0,1-.053.6c-.035.167-.081.362-.138.582a2.223,2.223,0,0,1-.1.268,2.044,2.044,0,0,1-.131.234c.127-.046.255-.087.382-.122a3.484,3.484,0,0,1,.451-.086q.242-.035.546-.069a4.409,4.409,0,0,1,.494-.035c.081,0,.156,0,.225.009a.731.731,0,0,1,.226.061.129.129,0,0,1,.078.086.337.337,0,0,1,.017.156.372.372,0,0,1-.06.166.291.291,0,0,1-.156.112c-.047.011-.117.026-.209.043l-.313.061c-.115.024-.234.046-.355.069s-.234.046-.338.07q-.556.138-.972.268a8.245,8.245,0,0,0-.781.287,1.947,1.947,0,0,0-.381.19,1.665,1.665,0,0,1-.469.191.233.233,0,0,1-.268-.138A.493.493,0,0,1,202.511,142.357Z" transform="translate(-169.362 -138.062)" fill="#84badd"/>
      <path id="패스_28" data-name="패스 28" d="M210.247,146.5a.411.411,0,0,1-.122-.3.587.587,0,0,1,.088-.321.8.8,0,0,1,.13-.139c.063-.057.13-.115.2-.173s.136-.113.2-.166.106-.089.13-.113a3.842,3.842,0,0,1,.676-.355c.22-.087.445-.17.676-.251a7.482,7.482,0,0,1,.928-.269q.443-.095.91-.165c.116,0,.252-.006.407-.018s.318-.02.486-.026.332-.005.494,0a3.615,3.615,0,0,1,.451.044.309.309,0,0,1,.2.113.279.279,0,0,1,.069.208.363.363,0,0,1-.1.217.473.473,0,0,1-.321.121l-.478.044c-.191.017-.39.038-.6.06s-.42.05-.633.078a3.407,3.407,0,0,0-.547.113c-.151.035-.283.069-.4.1a2.789,2.789,0,0,0-.347.13l-.365.165q-.191.087-.434.209l-.364.181a1.237,1.237,0,0,0-.329.235q-.209.191-.339.3a.476.476,0,0,1-.39.078A.463.463,0,0,1,210.247,146.5Zm1.735-4.18a5.773,5.773,0,0,1,.182-1.475q.181-.693.425-1.37a.523.523,0,0,1,.555-.33.737.737,0,0,1,.226.06.22.22,0,0,1,.156.217,3.385,3.385,0,0,1-.017.364,1.585,1.585,0,0,1-.1.382c-.034.127-.072.257-.113.391a3.162,3.162,0,0,1-.147.39,3.3,3.3,0,0,0-.243.928q-.053.477-.087.962c-.024.279-.046.52-.069.729s-.122.312-.3.312a.277.277,0,0,1-.19-.121.66.66,0,0,1-.139-.243,3.057,3.057,0,0,1-.113-.6C211.99,142.714,211.982,142.514,211.982,142.318Zm.018,7.008a2.844,2.844,0,0,1,.087-.564q.068-.269.174-.563c.034-.081.074-.18.121-.3a3.686,3.686,0,0,1,.156-.338c.058-.11.11-.214.157-.313a1.294,1.294,0,0,1,.121-.216c.069-.115.165-.272.286-.469a.866.866,0,0,1,.408-.38.4.4,0,0,1,.294,0,.593.593,0,0,1,.3.138c.074.069.084.185.026.346-.035.093-.07.188-.1.287s-.075.21-.122.337a.4.4,0,0,1,.122.1,1.456,1.456,0,0,0,.1.113,1.45,1.45,0,0,1,.286.477,1.286,1.286,0,0,1,.044.547,2.951,2.951,0,0,1-.278,1.075,1.993,1.993,0,0,1-.746.781.985.985,0,0,1-.382.121.713.713,0,0,1-.4-.035.866.866,0,0,1-.529-.485A1.464,1.464,0,0,1,212,149.326Zm.988-.035c0,.023,0,.073-.009.147a.34.34,0,0,0,.026.182.433.433,0,0,0,.156-.034.33.33,0,0,0,.139-.105,1.4,1.4,0,0,0,.311-.459,3.08,3.08,0,0,0,.122-.564.766.766,0,0,0,0-.329,1.025,1.025,0,0,0-.1-.259,2.247,2.247,0,0,0-.408.633A2.4,2.4,0,0,0,212.988,149.291Zm4.493-1.839v-.321c0-.133,0-.263.009-.391s.009-.243.009-.346v-.173c0-.116.005-.3.018-.546s.028-.515.052-.8.043-.549.06-.8a4.658,4.658,0,0,1,.061-.547q.087-.589.208-1.2a8.868,8.868,0,0,1,.313-1.162.2.2,0,0,1,.156-.113,1.478,1.478,0,0,1,.294-.025.477.477,0,0,1,.338.121.43.43,0,0,1,.131.329,1.782,1.782,0,0,1-.026.3q-.026.156-.06.294-.174.7-.287,1.371t-.165,1.387c-.024.186-.04.338-.052.46s-.02.24-.026.355-.015.235-.026.357-.023.274-.034.459v.59q.4-.173.668-.269t.512-.165q.277-.087.737-.216a4.791,4.791,0,0,1,.946-.166q.294-.034.347.113a.316.316,0,0,1-.035.287.284.284,0,0,1-.095.087.428.428,0,0,0-.1.069l-.416.191c-.128.058-.272.121-.435.191l-1.1.477a5.965,5.965,0,0,0-1.032.563c0,.059-.006.176-.018.356s-.017.3-.017.356v.625c0,.081,0,.165.009.251s.011.167.017.243.009.119.009.13c.011.07.025.147.043.235a1.224,1.224,0,0,1,.026.242.442.442,0,0,1-.044.2.214.214,0,0,1-.181.1.623.623,0,0,1-.322-.018.422.422,0,0,1-.269-.294,3.218,3.218,0,0,1-.138-.59c-.024-.162-.04-.323-.052-.486s-.018-.335-.018-.52v-.233c0-.134,0-.284-.009-.451s-.009-.336-.009-.5Z" transform="translate(-170.542 -138.196)" fill="#84badd"/>
      <path id="패스_29" data-name="패스 29" d="M223.25,147.182a.308.308,0,0,1,.1-.235.86.86,0,0,1,.174-.13,9.507,9.507,0,0,1,2.559-.668,22.649,22.649,0,0,1,2.715-.165h.919a8.873,8.873,0,0,1,1.015.052,5.833,5.833,0,0,1,.772.138,1.982,1.982,0,0,1,.547.217.316.316,0,0,1,.13.443.135.135,0,0,1-.112.078,1.434,1.434,0,0,1-.165.009q-.209,0-.616-.044l-.754-.078a9.507,9.507,0,0,0-.988-.052c-.336,0-.7.008-1.094.026s-.792.046-1.2.087-.8.092-1.179.155a8.887,8.887,0,0,0-1.04.235,5.074,5.074,0,0,0-.66.269,2.34,2.34,0,0,1-.624.217.36.36,0,0,1-.391-.157A.771.771,0,0,1,223.25,147.182Zm1.128-3.157a3.3,3.3,0,0,1,.087-.729q.087-.381.174-.659c.023-.069.067-.185.131-.346s.132-.333.208-.512.151-.348.226-.5.13-.27.165-.339a.339.339,0,0,1,.243-.165,1.794,1.794,0,0,1,.277-.026.422.422,0,0,1,.322.1.352.352,0,0,1,.1.244.593.593,0,0,1-.035.173l-.035.1q-.312.607-.59,1.284a4.4,4.4,0,0,0-.329,1.18c.151-.024.309-.053.478-.088l.494-.1c.3-.069.572-.137.815-.2s.486-.124.729-.182a.485.485,0,0,1,.4.053.433.433,0,0,1,.173.242.3.3,0,0,1-.043.27.971.971,0,0,1-.165.13c-.047.024-.113.052-.2.087l-.286.113c-.1.04-.205.078-.3.112s-.182.064-.251.087c-.347.1-.709.211-1.085.321a3.533,3.533,0,0,1-.962.165q-.486,0-.607-.234A1.244,1.244,0,0,1,224.378,144.025Zm2.082,6.713a3.074,3.074,0,0,1,.321-1.423q.321-.623.685-1.3a.563.563,0,0,1,.122-.122.4.4,0,0,1,.173-.086,1.333,1.333,0,0,1,.391-.018c.167.012.269.07.3.174a.392.392,0,0,1-.06.373c-.087.134-.159.246-.216.338a1.515,1.515,0,0,1-.122.173,1.1,1.1,0,0,0-.138.244c-.047.1-.1.22-.174.346a3.041,3.041,0,0,0-.191.434c-.035.093-.067.185-.1.278a.983.983,0,0,0-.044.3c0,.138.046.222.139.251a.822.822,0,0,0,.365.008,8.089,8.089,0,0,0,.824-.208c.26-.082.521-.165.781-.251s.52-.166.781-.235a5.96,5.96,0,0,1,.806-.155.222.222,0,0,1,.216.078.355.355,0,0,1,.079.234.446.446,0,0,1-.087.26.4.4,0,0,1-.243.156q-.156.034-.625.19c-.313.105-.642.22-.989.348s-.674.242-.98.346-.512.168-.616.191c-.046.012-.121.026-.225.044a1.61,1.61,0,0,1-.26.025h-.087a.707.707,0,0,1-.625-.3A1.186,1.186,0,0,1,226.46,150.738Z" transform="translate(-172.166 -138.394)" fill="#84badd"/>
      <path id="패스_30" data-name="패스 30" d="M238.473,148.02a.363.363,0,0,1,.156-.269,1.6,1.6,0,0,1,.3-.2,1.423,1.423,0,0,0,.556-.451,4.821,4.821,0,0,0,.468-.72q.208-.39.381-.789c.116-.266.22-.485.313-.659a6.947,6.947,0,0,0,.4-.876,6.354,6.354,0,0,0,.26-.946.245.245,0,0,1,.1-.147.347.347,0,0,1,.217-.061.487.487,0,0,1,.416.147.733.733,0,0,1,.086.461,2.461,2.461,0,0,1-.121.615c-.069.214-.151.431-.243.65q-.26.573-.451,1.041-.191.4-.347.772a4.758,4.758,0,0,1-.209.46q1.267-.192,2.247-.329a16.2,16.2,0,0,1,1.986-.157q1.04-.034,1.04.451a.312.312,0,0,1-.077.251.418.418,0,0,1-.2.079q-.643.051-1.084.095l-.789.078q-.347.034-.625.088c-.185.034-.381.069-.59.1-.162.035-.341.073-.538.113s-.387.083-.572.13-.358.087-.521.122-.289.063-.381.086a3.57,3.57,0,0,0-.685.251,1.652,1.652,0,0,1-.737.166,1.384,1.384,0,0,1-.547-.088C238.54,148.431,238.473,148.274,238.473,148.02Zm4.563-3.885a2.216,2.216,0,0,1,.06-.322c.029-.11.066-.227.112-.355q.139-.381.322-.841a2.645,2.645,0,0,0,.2-.824.65.65,0,0,0-.139-.417.613.613,0,0,0-.5-.173h-.477a4.545,4.545,0,0,0-.928.138c-.151.034-.342.084-.573.147a2.306,2.306,0,0,1-.59.095.589.589,0,0,1-.3-.086.426.426,0,0,1-.182-.329.6.6,0,0,1,.026-.269.282.282,0,0,1,.182-.182,9.936,9.936,0,0,1,1.335-.365,5.769,5.769,0,0,1,2.029-.052,1.247,1.247,0,0,1,1.145,1.8,3.634,3.634,0,0,1-.148.512c-.075.214-.141.385-.2.512-.047.093-.11.24-.191.442s-.151.361-.209.477a1.35,1.35,0,0,1-.26.407.484.484,0,0,1-.4.079.346.346,0,0,1-.234-.14A.336.336,0,0,1,243.036,144.135Zm-2,8.516a2.267,2.267,0,0,1,.061-.485,3.442,3.442,0,0,1,.294-.816c.075-.15.156-.307.243-.468s.167-.315.243-.46a2.586,2.586,0,0,1,.165-.287c.081-.116.165-.239.251-.373a3.765,3.765,0,0,1,.278-.372,1.52,1.52,0,0,1,.3-.278.562.562,0,0,1,.313-.1.5.5,0,0,1,.416.173.456.456,0,0,1,0,.486c-.011.023-.033.069-.061.138a2.468,2.468,0,0,1-.113.226.712.712,0,0,1,.347.381,1.633,1.633,0,0,1,.139.555,2.587,2.587,0,0,1-.165,1.111,2.67,2.67,0,0,1-.754.988,1.212,1.212,0,0,1-.234.173,2.211,2.211,0,0,1-.329.156,2,2,0,0,1-.4.1,1.443,1.443,0,0,1-.443,0,.56.56,0,0,1-.451-.329A1.4,1.4,0,0,1,241.04,152.651Zm1.943-2.081a.961.961,0,0,0-.277.321c-.117.181-.231.379-.347.6a5.664,5.664,0,0,0-.3.65,1.2,1.2,0,0,0-.1.5.867.867,0,0,0,.478-.182,1.616,1.616,0,0,0,.372-.4,2.308,2.308,0,0,0,.252-.5,1.441,1.441,0,0,0,.1-.5,1.376,1.376,0,0,0-.025-.27A.352.352,0,0,0,242.983,150.57Z" transform="translate(-174.05 -138.331)" fill="#84badd"/>
      <path id="패스_31" data-name="패스 31" d="M250.382,148.791a.343.343,0,0,1-.235-.105c-.075-.069-.1-.224-.06-.468a8.194,8.194,0,0,1,.19-.867q.139-.522.322-1.076t.364-1.066q.181-.511.286-.825a.9.9,0,0,0,.052-.208c.012-.081.024-.185.035-.313a.192.192,0,0,0-.069-.174.475.475,0,0,0-.329-.086,5.187,5.187,0,0,0-.685.052,3.7,3.7,0,0,0-.738.173q-.173.07-.381.139c-.138.046-.26.08-.365.1a.9.9,0,0,1-.459.044c-.11-.03-.182-.137-.217-.322a.667.667,0,0,1-.009-.286.291.291,0,0,1,.165-.217,4.771,4.771,0,0,1,1.518-.468,10.859,10.859,0,0,1,1.4-.1,1.889,1.889,0,0,1,.781.148.653.653,0,0,1,.381.563,2.384,2.384,0,0,1,.01.556,3.8,3.8,0,0,1-.113.694c-.046.1-.1.229-.148.373s-.1.292-.156.442-.107.3-.165.45-.11.284-.156.4c-.024.058-.06.164-.113.321s-.107.323-.165.5-.113.355-.165.528a3.9,3.9,0,0,1-.13.382q-.122.243-.26.477A.426.426,0,0,1,250.382,148.791Zm1.526,2.827a2.451,2.451,0,0,1,.1-.7,6.284,6.284,0,0,1,.251-.684,4.506,4.506,0,0,0,.2-.434,6.186,6.186,0,0,1,.3-.625,6.007,6.007,0,0,1,.347-.556.542.542,0,0,1,.329-.26,1.009,1.009,0,0,1,.408.061.316.316,0,0,1,.252.268.574.574,0,0,1-.148.392,4.252,4.252,0,0,0-.286.424q-.243.4-.4.719a3.123,3.123,0,0,0-.244.825.655.655,0,0,0-.018.156.166.166,0,0,0,.07.139.223.223,0,0,0,.165.052.947.947,0,0,0,.225-.026,1.68,1.68,0,0,0,.208-.06,1.34,1.34,0,0,0,.131-.052,12.815,12.815,0,0,1,1.5-.538,13.1,13.1,0,0,1,1.761-.382,1.438,1.438,0,0,1,.425-.034,1.285,1.285,0,0,1,.356.087c.034.012.06.049.078.113a.64.64,0,0,1-.035.415.182.182,0,0,1-.147.113,3.208,3.208,0,0,1-.425.087c-.214.035-.4.07-.563.1-.337.092-.7.2-1.1.321s-.806.269-1.222.443c-.255.1-.523.217-.807.338a2.012,2.012,0,0,1-1.066.1.662.662,0,0,1-.46-.278A.853.853,0,0,1,251.907,151.618Zm3.14-3.087a4.4,4.4,0,0,1-.034-.625q0-.4.018-.885t.052-1.014q.034-.53.069-1.015c.024-.324.049-.619.078-.885s.055-.468.079-.608q.068-.363.1-.572c.024-.138.046-.266.069-.381s.047-.243.069-.381.058-.33.1-.572a.422.422,0,0,1,.122-.26.148.148,0,0,1,.1-.053.912.912,0,0,1,.278.009.952.952,0,0,1,.287.095.511.511,0,0,1,.2.182.356.356,0,0,1,.034.269q-.121.764-.286,1.561a10.108,10.108,0,0,0-.181,1.856c.069-.023.159-.049.269-.077s.225-.055.347-.079.239-.046.355-.069.209-.04.278-.053a4.667,4.667,0,0,1,.719-.112c.237-.017.5-.032.789-.044a1.959,1.959,0,0,1,.625.061c.185.052.278.152.278.3,0,.116-.078.2-.234.251a2.624,2.624,0,0,1-.339.1q-.52.053-.928.13t-.91.217l-.381.112a3.568,3.568,0,0,0-.408.148,1.341,1.341,0,0,0-.347.216.545.545,0,0,0-.181.322c-.024.161-.044.341-.061.537s-.029.4-.034.6-.015.4-.026.59-.018.362-.018.512c0,.173-.116.266-.347.278s-.385-.037-.459-.182A1.436,1.436,0,0,1,255.047,148.531Z" transform="translate(-175.238 -138.459)" fill="#84badd"/>
    </g>
  </g>
</svg>
