<svg id="그룹_14" data-name="그룹 14" xmlns="http://www.w3.org/2000/svg" width="82.667" height="61.465" viewBox="0 0 82.667 61.465">
  <g id="그룹_10" data-name="그룹 10">
    <path id="패스_10" data-name="패스 10" d="M95.206,62.471a16.644,16.644,0,0,1,13.823-23.45,15.727,15.727,0,0,0-8.023,30.347A16.559,16.559,0,0,1,95.206,62.471Z" transform="translate(-74.125 -38.723)" fill="#f0a8a4"/>
    <path id="패스_11" data-name="패스 11" d="M59.51,143.007a20.039,20.039,0,0,0,13.733-29.755,18.934,18.934,0,0,1-24.535,28.742A19.934,19.934,0,0,0,59.51,143.007Z" transform="translate(-48.708 -84.304)" fill="#f0a8a4"/>
  </g>
  <g id="그룹_11" data-name="그룹 11" transform="translate(10.968 22.063)">
    <path id="패스_12" data-name="패스 12" d="M119.076,102.807s2.15.907,4.157-2.422,7.145-5.365,7.666-4.75-.538,2,.3,2.375,3.7,2.512,1.1,4.136-11.166,3.274-12.259,2.314S119.076,102.807,119.076,102.807Z" transform="translate(-102.709 -95.526)" fill="#84badd"/>
    <path id="패스_13" data-name="패스 13" d="M91.11,116.377s-4.893,1.9-4.5,4.7,1.008,5.048-1.454,6.2-6.253,2.692-5.416,4.855L82,134.343a3.274,3.274,0,0,1,2.759-4.052c3.6-.817,5.041-3.89,4.669-5.556s-.9-4.556,1.581-5.1S91.11,116.377,91.11,116.377Z" transform="translate(-78.579 -108.278)" fill="#84badd"/>
    <path id="패스_14" data-name="패스 14" d="M92.114,104.346s-2.026,1.387-4.767-1.97-8.438-4.726-8.848-3.95.959,2.13.174,2.7-3.293,3.447-.291,4.8,12.146,1.692,13.073.431S92.114,104.346,92.114,104.346Z" transform="translate(-76.944 -97.17)" fill="#84badd"/>
    <path id="패스_15" data-name="패스 15" d="M110.774,117.846s5.256-.129,6,2.6,1.06,5.037,3.779,5.149,6.821.078,6.9,2.392l-1.216,2.909a3.31,3.31,0,0,0-4.138-2.673c-3.637.63-6.175-1.647-6.489-3.324s-.967-4.543-3.464-4.087S110.774,117.846,110.774,117.846Z" transform="translate(-97.481 -109.176)" fill="#84badd"/>
  </g>
  <path id="패스_16" data-name="패스 16" d="M112.93,110.215a1.9,1.9,0,0,0-2.24.131,1.9,1.9,0,0,0-2.2-.449c-1.069.588-1.378,2.376-.691,3.993a2.774,2.774,0,0,0,5.229.374C113.947,112.763,113.9,110.95,112.93,110.215Z" transform="translate(-84.625 -82.137)" fill="#314263"/>
  <g id="그룹_12" data-name="그룹 12" transform="translate(42.792 19.889)">
    <path id="패스_17" data-name="패스 17" d="M158.878,104.211a2.047,2.047,0,0,1,.466-1.358A2.948,2.948,0,0,1,160.62,102a.1.1,0,0,1,.145.056.148.148,0,0,1-.021.167,1.368,1.368,0,0,0-.591.577,1.921,1.921,0,0,0-.218.949,2.063,2.063,0,0,0,.933,1.786,4.152,4.152,0,0,0,2.426.651,4.428,4.428,0,0,0,2.789-.688,2.219,2.219,0,0,0,.84-1.8,3.477,3.477,0,0,0-.477-1.832,12.757,12.757,0,0,0-1.047-1.488q-.57-.7-1.047-1.4a2.791,2.791,0,0,1-.477-1.6,2.1,2.1,0,0,1,.259-1,2.855,2.855,0,0,1,.726-.865,3.606,3.606,0,0,1,1.109-.6,4.276,4.276,0,0,1,1.41-.223,3.025,3.025,0,0,1,1.669.4,1.145,1.145,0,0,1,.612.958,1.5,1.5,0,0,1-.3.772,6.06,6.06,0,0,1-.612.791.125.125,0,0,1-.145-.019.12.12,0,0,1-.042-.13,1.449,1.449,0,0,0,.176-.363,1.471,1.471,0,0,0,.073-.474,1.183,1.183,0,0,0-.145-.567,1.381,1.381,0,0,0-.415-.465,2.362,2.362,0,0,0-.622-.316,2.294,2.294,0,0,0-.747-.121,2.164,2.164,0,0,0-1.514.447,1.508,1.508,0,0,0-.477,1.153,2.377,2.377,0,0,0,.239,1.051,6.7,6.7,0,0,0,.591.986q.352.493.757.986a12.523,12.523,0,0,1,.757,1.023,6.346,6.346,0,0,1,.591,1.116,3.351,3.351,0,0,1,.238,1.274,2.475,2.475,0,0,1-.4,1.358,3.826,3.826,0,0,1-1.11,1.107,5.789,5.789,0,0,1-1.638.744,7.218,7.218,0,0,1-2.012.27,5.387,5.387,0,0,1-3-.689A2.044,2.044,0,0,1,158.878,104.211Z" transform="translate(-158.878 -92.826)" fill="#f1968d"/>
    <path id="패스_18" data-name="패스 18" d="M194.074,89.927a.86.86,0,0,1,.508.139.7.7,0,0,1,.27.372,1.125,1.125,0,0,1,.021.53,1.659,1.659,0,0,1-.238.6.081.081,0,0,1-.1,0,.183.183,0,0,1-.083-.093.351.351,0,0,0-.176-.372,1.214,1.214,0,0,0-.674-.149,3.094,3.094,0,0,0-1.711.567,8.285,8.285,0,0,0-1.669,1.5,14,14,0,0,0-1.514,2.139,19.258,19.258,0,0,0-1.224,2.493,17.78,17.78,0,0,0-.819,2.548,10.055,10.055,0,0,0-.3,2.307q0,.558.353.558a.788.788,0,0,0,.487-.186,3.863,3.863,0,0,0,.549-.558.089.089,0,0,1,.114.009.111.111,0,0,1,.031.121,3.9,3.9,0,0,1-.975.93,1.886,1.886,0,0,1-1.016.372.649.649,0,0,1-.55-.2.835.835,0,0,1-.156-.521,7.535,7.535,0,0,1,.415-2.186,21.76,21.76,0,0,1,1.11-2.772,28.247,28.247,0,0,1,1.607-2.911,22.852,22.852,0,0,1,1.9-2.614,11.563,11.563,0,0,1,1.98-1.888A3.23,3.23,0,0,1,194.074,89.927Z" transform="translate(-174.975 -89.927)" fill="#f1968d"/>
    <path id="패스_19" data-name="패스 19" d="M197.5,114.181q0,1.06-3.131,1.451c-.014.124-.024.248-.031.372s-.01.254-.01.391a1.035,1.035,0,0,0,.249.744,1.048,1.048,0,0,0,.788.261,1.818,1.818,0,0,0,.809-.205,1.886,1.886,0,0,0,.664-.521.088.088,0,0,1,.124.028.169.169,0,0,1,.021.139,3.678,3.678,0,0,1-1.047.828,2.8,2.8,0,0,1-1.359.344,1.427,1.427,0,0,1-1.047-.326,1.254,1.254,0,0,1-.321-.921,3.015,3.015,0,0,1,.27-1.2,4.82,4.82,0,0,1,.695-1.144,3.66,3.66,0,0,1,.975-.847,2.158,2.158,0,0,1,1.109-.326,1.354,1.354,0,0,1,.9.288A.833.833,0,0,1,197.5,114.181Zm-1.8-.447a1.045,1.045,0,0,0-.819.4,2.452,2.452,0,0,0-.466,1.237,4.134,4.134,0,0,0,1.473-.344q.477-.251.477-.623a.66.66,0,0,0-.187-.475A.631.631,0,0,0,195.7,113.735Z" transform="translate(-179.873 -104.191)" fill="#f1968d"/>
    <path id="패스_20" data-name="패스 20" d="M210.153,114.181q0,1.06-3.131,1.451c-.014.124-.024.248-.031.372s-.01.254-.01.391a1.035,1.035,0,0,0,.249.744,1.047,1.047,0,0,0,.788.261,1.821,1.821,0,0,0,.809-.205,1.884,1.884,0,0,0,.663-.521.088.088,0,0,1,.124.028.166.166,0,0,1,.021.139,3.671,3.671,0,0,1-1.047.828,2.8,2.8,0,0,1-1.358.344,1.428,1.428,0,0,1-1.048-.326,1.254,1.254,0,0,1-.321-.921,3.015,3.015,0,0,1,.27-1.2,4.822,4.822,0,0,1,.695-1.144,3.665,3.665,0,0,1,.975-.847,2.159,2.159,0,0,1,1.109-.326,1.356,1.356,0,0,1,.9.288A.834.834,0,0,1,210.153,114.181Zm-1.8-.447a1.045,1.045,0,0,0-.819.4,2.449,2.449,0,0,0-.466,1.237,4.138,4.138,0,0,0,1.472-.344q.477-.251.477-.623a.661.661,0,0,0-.186-.475A.632.632,0,0,0,208.349,113.735Z" transform="translate(-187.611 -104.191)" fill="#f1968d"/>
    <path id="패스_21" data-name="패스 21" d="M220.7,112.46a.862.862,0,0,1,.736.4,1.6,1.6,0,0,1,.28.94,2.837,2.837,0,0,1-.342,1.386,3.633,3.633,0,0,1-.9,1.079,4.172,4.172,0,0,1-1.286.707,4.479,4.479,0,0,1-1.473.251,2.112,2.112,0,0,1-.6-.075,19.261,19.261,0,0,0-.633,1.953,7.493,7.493,0,0,0-.28,1.935q0,.428.456.335a1.413,1.413,0,0,0,.322-.075,1.5,1.5,0,0,0,.3-.149.082.082,0,0,1,.093.075.237.237,0,0,1-.031.149,2.671,2.671,0,0,1-.363.121q-.239.065-.508.131t-.54.1a3.4,3.4,0,0,1-.456.037.451.451,0,0,1-.27-.074.257.257,0,0,1-.1-.223,8.537,8.537,0,0,1,.342-2.2,23.468,23.468,0,0,1,.881-2.6.643.643,0,0,1-.145-.242q-.021-.074.311-.167.269-.669.581-1.339t.622-1.321a2.43,2.43,0,0,0,.363-.949q-.031-.185-.259-.074a2.642,2.642,0,0,0-.684.521c-.028.025-.059.016-.093-.028s-.045-.078-.031-.1a3.589,3.589,0,0,1,.373-.326,4.423,4.423,0,0,1,1-.576,1.17,1.17,0,0,1,.435-.1.291.291,0,0,1,.3.177.443.443,0,0,1-.031.381q-.269.651-.7,1.47a6.215,6.215,0,0,1,.477-.531,5.173,5.173,0,0,1,.57-.493,3.035,3.035,0,0,1,.633-.363A1.7,1.7,0,0,1,220.7,112.46Zm-2.468,4.39a2.462,2.462,0,0,0,.933-.177,2.107,2.107,0,0,0,.757-.521,2.612,2.612,0,0,0,.519-.856,3.274,3.274,0,0,0,.2-1.181,1.283,1.283,0,0,0-.186-.726.61.61,0,0,0-.539-.279q-.477,0-1.14.762a7.661,7.661,0,0,0-1.224,2.139q-.062.149-.124.307c-.042.106-.083.214-.125.326A1.777,1.777,0,0,0,218.228,116.851Z" transform="translate(-193.26 -103.401)" fill="#f1968d"/>
    <path id="패스_22" data-name="패스 22" d="M238.556,114.181q0,1.06-3.131,1.451c-.014.124-.024.248-.031.372s-.01.254-.01.391a1.033,1.033,0,0,0,.249.744,1.047,1.047,0,0,0,.788.261,1.818,1.818,0,0,0,.809-.205,1.885,1.885,0,0,0,.664-.521.088.088,0,0,1,.124.028.166.166,0,0,1,.021.139,3.672,3.672,0,0,1-1.047.828,2.8,2.8,0,0,1-1.358.344,1.428,1.428,0,0,1-1.048-.326,1.254,1.254,0,0,1-.321-.921,3.015,3.015,0,0,1,.27-1.2,4.822,4.822,0,0,1,.695-1.144,3.659,3.659,0,0,1,.975-.847,2.158,2.158,0,0,1,1.109-.326,1.356,1.356,0,0,1,.9.288A.833.833,0,0,1,238.556,114.181Zm-1.8-.447a1.044,1.044,0,0,0-.819.4,2.452,2.452,0,0,0-.467,1.237,4.134,4.134,0,0,0,1.473-.344q.477-.251.477-.623a.66.66,0,0,0-.187-.475A.631.631,0,0,0,236.752,113.735Z" transform="translate(-204.983 -104.191)" fill="#f1968d"/>
    <path id="패스_23" data-name="패스 23" d="M249.059,113.791a3.725,3.725,0,0,1-.062.633q-.062.353-.166.725a4.912,4.912,0,0,1,.912-1.4,1.5,1.5,0,0,1,1.079-.5.761.761,0,0,1,.477.13.409.409,0,0,1,.166.335,1.118,1.118,0,0,1-.156.484,2.018,2.018,0,0,1-.259.409.082.082,0,0,1-.083-.009.079.079,0,0,1-.041-.065.283.283,0,0,0-.114-.224.535.535,0,0,0-.342-.093,1.636,1.636,0,0,0-1.317.884,9.68,9.68,0,0,0-1.089,2.539.25.25,0,0,1-.145.158,1.553,1.553,0,0,1-.28.111,2.592,2.592,0,0,1-.321.074,1.783,1.783,0,0,1-.291.028q-.228,0-.124-.223.186-.39.363-.846t.322-.921c.1-.31.179-.611.249-.9s.125-.561.166-.809a2.185,2.185,0,0,0,.031-.428c-.007-.1-.066-.149-.176-.149a.73.73,0,0,0-.425.158,2.028,2.028,0,0,0-.4.4.131.131,0,0,1-.155.009.081.081,0,0,1-.031-.121,3.021,3.021,0,0,1,.3-.307,3.1,3.1,0,0,1,.394-.3,2.6,2.6,0,0,1,.456-.233,1.335,1.335,0,0,1,.488-.093.6.6,0,0,1,.456.139A.582.582,0,0,1,249.059,113.791Z" transform="translate(-212.664 -104.191)" fill="#f1968d"/>
  </g>
  <g id="그룹_13" data-name="그룹 13" transform="translate(45.151 38.585)">
    <path id="패스_24" data-name="패스 24" d="M167.074,143.222a.231.231,0,0,1-.077.15.226.226,0,0,1-.131.054.187.187,0,0,1-.123-.035.133.133,0,0,1-.054-.115q.038-.376.1-.707a4.925,4.925,0,0,1,.135-.585.458.458,0,0,1,.031-.092l-.246.031q-.177.031-.3.058c-.085.017-.158.036-.219.054s-.117.036-.165.054-.1.037-.142.057l-.15.058a1.108,1.108,0,0,0-.15.065,1.192,1.192,0,0,0-.2.142.328.328,0,0,1-.223.081q-.2,0-.2-.223a.212.212,0,0,1,.081-.158.888.888,0,0,1,.192-.13,1.661,1.661,0,0,1,.227-.1c.077-.025.136-.046.177-.061q.2-.061.353-.111c.1-.033.185-.057.246-.073.149-.036.279-.065.392-.089a3.253,3.253,0,0,1,.327-.05c.1-.01.21-.018.315-.023s.222-.008.35-.008h.261q.192,0,.4.011a2.1,2.1,0,0,1,.361.05c.1.026.158.062.158.108a.218.218,0,0,1-.038.131.125.125,0,0,1-.108.054h-.169q-.123,0-.258,0c-.09,0-.176,0-.258,0h-.169c-.056,0-.124,0-.2,0a2.07,2.07,0,0,0-.227.019,1.421,1.421,0,0,1-.027.15q-.02.081-.05.173a3.948,3.948,0,0,0-.1.45Q167.135,142.853,167.074,143.222Zm-1.069-2.369c.01-.1.02-.2.031-.3s.02-.193.031-.3a.562.562,0,0,0,0-.185.086.086,0,0,0-.092-.077.419.419,0,0,0-.254.092,3.31,3.31,0,0,1-.323.208.1.1,0,0,1-.1,0,.163.163,0,0,1-.069-.081.306.306,0,0,1-.023-.123.174.174,0,0,1,.038-.115.843.843,0,0,1,.231-.192,1.24,1.24,0,0,1,.292-.139,1.657,1.657,0,0,1,.165-.05.8.8,0,0,1,.181-.019.322.322,0,0,1,.3.138.587.587,0,0,1,.081.3,2.531,2.531,0,0,1-.027.392q-.027.169-.05.392a.93.93,0,0,0-.016.13.67.67,0,0,1-.023.146.166.166,0,0,1-.081.119.337.337,0,0,1-.142.027.132.132,0,0,1-.1-.038.194.194,0,0,1-.046-.1.472.472,0,0,1-.008-.123C166,140.929,166.005,140.889,166.005,140.853Zm-.261,4.445a1.4,1.4,0,0,1-.012-.319c.008-.12.022-.246.042-.377s.042-.259.065-.385.042-.24.058-.342a1.343,1.343,0,0,0,.007-.134.319.319,0,0,1,.019-.115.254.254,0,0,1,.058-.089.239.239,0,0,1,.131-.054.169.169,0,0,1,.181.046.387.387,0,0,1,.065.177.4.4,0,0,1,0,.157c-.01.054-.023.108-.038.162s-.034.108-.054.162a.609.609,0,0,0-.038.15c-.01.077-.021.164-.031.261s-.022.2-.035.3-.026.206-.038.3-.027.185-.042.261a.145.145,0,0,1-.054.081.211.211,0,0,1-.077.035.13.13,0,0,1-.158-.089A1.3,1.3,0,0,1,165.744,145.3Zm1.645-.985a.229.229,0,0,0-.008-.157.122.122,0,0,0-.123-.066,1.011,1.011,0,0,0-.25.031c-.08.021-.178.044-.3.07s-.192-.051-.192-.216a.146.146,0,0,1,.038-.108.292.292,0,0,1,.092-.061.553.553,0,0,1,.111-.035l.1-.019q.092-.015.239-.027t.23-.012a.536.536,0,0,1,.358.085.379.379,0,0,1,.119.292.982.982,0,0,1-.069.354,4,4,0,0,1-.169.415l.212-.027c.064-.007.127-.014.188-.019l.193-.016c.066,0,.141-.007.223-.007h.227c.044,0,.085,0,.123,0l.089,0a.2.2,0,0,1,.123.047.131.131,0,0,1,.042.084.128.128,0,0,1-.027.089.119.119,0,0,1-.077.05.671.671,0,0,1-.1.011c-.046,0-.1.007-.146.012l-.146.012-.1,0c-.1.01-.2.021-.28.031s-.167.023-.246.038-.162.035-.246.058-.178.049-.281.08a1.975,1.975,0,0,0-.3.111.875.875,0,0,1-.269.081.266.266,0,0,1-.108-.008.193.193,0,0,1-.092-.046.161.161,0,0,1-.042-.111.173.173,0,0,1,.042-.127c.01-.026.042-.047.1-.065a1.157,1.157,0,0,0,.142-.058l.169-.092a.476.476,0,0,0,.162-.138.932.932,0,0,0,.131-.238C167.315,144.519,167.353,144.416,167.389,144.313Zm.077-3.283a.11.11,0,0,1-.1-.08.179.179,0,0,1,0-.1c.031-.082.059-.158.085-.227s.051-.15.077-.242a1.866,1.866,0,0,0,.065-.3,2.384,2.384,0,0,0,.019-.3.534.534,0,0,0-.019-.15.105.105,0,0,0-.1-.073.229.229,0,0,0-.13.027.863.863,0,0,0-.135.085q-.065.05-.119.1a1.08,1.08,0,0,1-.085.073.187.187,0,0,1-.139.043.233.233,0,0,1-.1-.046.216.216,0,0,1-.061-.077.175.175,0,0,1-.019-.065.305.305,0,0,1,.07-.169,1.155,1.155,0,0,1,.323-.27.811.811,0,0,1,.415-.123.565.565,0,0,1,.423.15.53.53,0,0,1,.13.419c-.01.138-.024.274-.042.408a2.519,2.519,0,0,1-.088.4q-.039.131-.077.238a.646.646,0,0,1-.108.192.265.265,0,0,1-.111.089A.307.307,0,0,1,167.466,141.03Z" transform="translate(-164.952 -138.711)" fill="#84badd"/>
    <path id="패스_25" data-name="패스 25" d="M175.6,142a.145.145,0,0,1,.057-.1.563.563,0,0,1,.081-.054,4.725,4.725,0,0,1,.5-.157,3.839,3.839,0,0,1,.431-.085q.2-.027.373-.039t.334-.011a4.148,4.148,0,0,1,.45.008,2.749,2.749,0,0,1,.342.046.861.861,0,0,1,.242.1.14.14,0,0,1,.058.2.06.06,0,0,1-.05.035.721.721,0,0,1-.073,0c-.061,0-.153-.005-.273-.016s-.232-.015-.334-.015a5.625,5.625,0,0,0-.665.023,3.993,3.993,0,0,0-.681.131q-.123.038-.3.108a.986.986,0,0,1-.281.077.164.164,0,0,1-.169-.073A.345.345,0,0,1,175.6,142Zm.907,3.968a.4.4,0,0,1,.081-.181,1.767,1.767,0,0,1,.173-.207c.067-.069.139-.139.216-.211s.151-.138.223-.2.172-.148.269-.227l.284-.231c.092-.074.176-.143.25-.207a1.717,1.717,0,0,0,.165-.158q-.292.016-.546.012t-.538,0a.426.426,0,0,1-.261-.066.236.236,0,0,1-.1-.165.366.366,0,0,1,.038-.2.622.622,0,0,1,.142-.188c.026-.021.07-.061.131-.119s.128-.122.2-.188.14-.131.2-.193l.142-.138a1.217,1.217,0,0,1,.135-.115.181.181,0,0,0,.081-.1q-.292.016-.515.046c-.149.021-.277.042-.384.062-.087.015-.19.035-.308.061a2.943,2.943,0,0,1-.354.054.142.142,0,0,1-.154-.058.292.292,0,0,1-.046-.158.162.162,0,0,1,.065-.119.441.441,0,0,1,.181-.088,2.947,2.947,0,0,1,.4-.093q.227-.038.446-.061c.146-.015.279-.027.4-.035s.209-.011.265-.011a.581.581,0,0,1,.327.089.289.289,0,0,1,.135.258.412.412,0,0,1-.089.238,1.71,1.71,0,0,1-.219.246q-.131.123-.277.242t-.261.235a.49.49,0,0,1-.073.073c-.033.028-.071.063-.111.1.082.005.16.008.235.008h.346c.059,0,.12,0,.185,0s.123,0,.177,0h.089a.6.6,0,0,1,.311.062.2.2,0,0,1,.1.15.311.311,0,0,1-.057.192.766.766,0,0,1-.158.181c-.01.01-.046.044-.108.1s-.132.119-.211.188l-.227.2-.146.124a1.56,1.56,0,0,0-.15.127c-.064.059-.133.123-.208.192s-.149.139-.223.211-.137.131-.188.177a3.042,3.042,0,0,0,.331-.023c.133-.016.259-.031.377-.046.072-.01.155-.024.25-.042l.273-.05c.087-.016.165-.031.234-.046a.828.828,0,0,1,.142-.023.578.578,0,0,1,.119-.027,1.054,1.054,0,0,1,.15-.011.07.07,0,0,1,.062.038.122.122,0,0,1,.007.1.277.277,0,0,1-.077.119.453.453,0,0,1-.193.1q-.154.047-.4.1t-.5.1q-.253.046-.488.077c-.157.021-.283.033-.381.039a.474.474,0,0,1-.311-.077A.233.233,0,0,1,176.509,145.968Zm-.061-5.175a.981.981,0,0,1,.061-.338,1.811,1.811,0,0,1,.146-.312,2.011,2.011,0,0,1,.184-.261,1.452,1.452,0,0,1,.185-.188.143.143,0,0,1,.089-.038.3.3,0,0,0,.1-.023.477.477,0,0,0,.058-.035.173.173,0,0,1,.1-.019.309.309,0,0,1,.265.158.6.6,0,0,1,.1.335,1.125,1.125,0,0,1-.242.688.972.972,0,0,1-.292.246.847.847,0,0,1-.388.1.378.378,0,0,1-.261-.077A.285.285,0,0,1,176.448,140.793Zm.915-.868a.583.583,0,0,0-.15.131,1.448,1.448,0,0,0-.266.45.691.691,0,0,0-.046.234.318.318,0,0,0,.177-.061.658.658,0,0,0,.165-.162,1.082,1.082,0,0,0,.123-.219.587.587,0,0,0,.05-.227A.232.232,0,0,0,177.363,139.924Z" transform="translate(-171.465 -138.989)" fill="#84badd"/>
    <path id="패스_26" data-name="패스 26" d="M189.216,143.466c-.015.026-.041.08-.077.162s-.076.171-.12.265-.084.187-.123.277l-.081.188a.452.452,0,0,1-.127.169.264.264,0,0,1-.265.019c-.036-.018-.054-.076-.054-.173a.7.7,0,0,1,.061-.215c.041-.1.087-.211.139-.327s.1-.224.154-.327l.108-.215a5.485,5.485,0,0,1,.507-.742q.3-.373.569-.7a.218.218,0,0,1,.127-.092.487.487,0,0,1,.127-.023.232.232,0,0,1,.146.054.167.167,0,0,1,.07.138.226.226,0,0,1-.085.184l-.073.077-.108.115-.108.115-.066.07c-.072.087-.138.171-.2.253a1.561,1.561,0,0,0-.162.269,2.16,2.16,0,0,0,.089.381c.043.136.085.255.127.358q.038.1.1.254c.044.1.091.207.143.315s.1.213.146.315.082.188.108.254a.347.347,0,0,1,.027.138.173.173,0,0,1-.057.108.116.116,0,0,1-.073.035.218.218,0,0,1-.073,0c-.046-.01-.107-.074-.181-.192s-.151-.254-.23-.407-.155-.308-.227-.465-.126-.28-.162-.373c-.026-.066-.045-.115-.058-.146S189.231,143.513,189.216,143.466Zm2.83.992a.855.855,0,0,1-.031-.342q.016-.212.016-.388c0-.02,0-.056.007-.108s.01-.1.016-.157.01-.105.016-.154.008-.08.008-.1c.005-.036.01-.073.015-.111a.774.774,0,0,0,.008-.1c-.041.025-.1.065-.177.119s-.146.1-.208.142c-.087.056-.182.114-.284.173a2.567,2.567,0,0,1-.327.158,2.481,2.481,0,0,1-.35.111,1.429,1.429,0,0,1-.338.043.168.168,0,0,1-.142-.065.21.21,0,0,1-.05-.127.417.417,0,0,1,.023-.131.123.123,0,0,1,.1-.085c.061-.01.133-.021.215-.031a.95.95,0,0,0,.207-.046,3.7,3.7,0,0,0,.711-.342,6.42,6.42,0,0,0,.665-.473.35.35,0,0,0,.1-.127c.023-.049.044-.095.062-.138a.293.293,0,0,1,.073-.108.212.212,0,0,1,.146-.042c.128,0,.192.066.192.2a.412.412,0,0,1-.035.184c-.023.046-.047.1-.073.169a2.035,2.035,0,0,0-.138.457,4.173,4.173,0,0,0-.061.473q-.016.161-.023.312t-.007.319a.738.738,0,0,1-.039.242.176.176,0,0,1-.154.127.161.161,0,0,1-.084-.007A.093.093,0,0,1,192.046,144.458Zm-1.269,1.107a1.02,1.02,0,0,1,.046-.288,2.221,2.221,0,0,1,.119-.315,2.692,2.692,0,0,1,.165-.3,3.022,3.022,0,0,1,.177-.254.174.174,0,0,1,.138-.054.252.252,0,0,1,.158.05.177.177,0,0,1,.065.15.328.328,0,0,1-.1.212,1.149,1.149,0,0,0-.162.227c-.041.087-.078.172-.111.254a.706.706,0,0,0-.05.269c0,.1.038.149.115.139.133-.021.26-.047.381-.077l.358-.092q.177-.046.365-.081a2.211,2.211,0,0,1,.4-.035h.108c.046,0,.074.028.085.085s0,.092-.023.108a2.487,2.487,0,0,1-.3.127q-.146.05-.354.111-.269.085-.542.177a1.749,1.749,0,0,1-.566.092,1.09,1.09,0,0,1-.207-.023.309.309,0,0,1-.185-.108A.571.571,0,0,1,190.777,145.565Z" transform="translate(-179.274 -140.309)" fill="#84badd"/>
    <path id="패스_27" data-name="패스 27" d="M200.594,141.45a.241.241,0,0,1,.016-.069l.016-.046a.384.384,0,0,1,.107-.123,1.385,1.385,0,0,1,.162-.111,1.015,1.015,0,0,1,.169-.081l.131-.046q.093-.031.242-.069t.3-.073c.1-.023.2-.043.288-.061s.155-.032.2-.042a1.8,1.8,0,0,1,.254-.039l.327-.031.312-.027c.1-.008.167-.012.208-.012h.261a1.615,1.615,0,0,1,.246.016.149.149,0,0,1,.119.1.127.127,0,0,1-.027.157.273.273,0,0,1-.119.054.6.6,0,0,1-.15.023c-.031,0-.083,0-.158.008l-.242.019-.25.023c-.08.008-.137.014-.173.019l-.061.016a.435.435,0,0,1-.054.123c-.026.042-.049.077-.069.108l-.184.4a2.264,2.264,0,0,0-.146.423c.087-.015.173-.027.258-.035a1.139,1.139,0,0,1,.25,0,.346.346,0,0,1,.2.084.26.26,0,0,1,.057.223.774.774,0,0,1-.108.338c-.061.1-.126.207-.192.315q-.046.069-.111.177c-.044.072-.091.146-.142.223l-.154.23-.138.208-.092.154c-.036.061-.008.092.085.092s.193,0,.273,0,.165,0,.258,0a.252.252,0,0,1,.15.046.142.142,0,0,1,.057.138,1.021,1.021,0,0,1-.123.4q-.107.2-.2.365c-.067.113-.138.233-.216.362s-.151.251-.223.369a.68.68,0,0,0,.238-.046,2.258,2.258,0,0,0,.273-.119q.142-.073.242-.119a1.425,1.425,0,0,1,.142-.061.316.316,0,0,1,.15-.023c.046.01.077.047.092.111a.174.174,0,0,1-.054.173,1.458,1.458,0,0,1-.185.127,3.219,3.219,0,0,1-.354.188,1.635,1.635,0,0,1-.312.115,2.091,2.091,0,0,1-.319.061.419.419,0,0,1-.292-.073.25.25,0,0,1-.108-.242.545.545,0,0,1,.042-.143.712.712,0,0,1,.081-.142c.087-.123.169-.249.246-.377s.159-.282.246-.461c.01-.016.033-.059.069-.131a1.437,1.437,0,0,0,.077-.177c-.072,0-.149,0-.231,0s-.185,0-.308,0a.715.715,0,0,1-.127-.011.282.282,0,0,1-.115-.046.176.176,0,0,1-.069-.1.287.287,0,0,1,0-.154,1.245,1.245,0,0,1,.115-.265q.077-.135.162-.258.161-.238.281-.408t.25-.4c.031-.056.063-.11.1-.161a.263.263,0,0,0,.042-.169c0-.01-.008-.021-.023-.031a.078.078,0,0,0-.038-.016.794.794,0,0,0-.292.046.54.54,0,0,0-.154.057q-.077.043-.207.1a.491.491,0,0,0-.1.058.216.216,0,0,1-.1.042.129.129,0,0,1-.153-.081.278.278,0,0,1-.016-.181.166.166,0,0,1,.054-.092.406.406,0,0,1,.069-.046,2.084,2.084,0,0,1,.284-.131.234.234,0,0,1,.008-.069,2.3,2.3,0,0,1,.134-.531,4.78,4.78,0,0,1,.227-.492q-.284.062-.576.134a3.4,3.4,0,0,0-.538.181.544.544,0,0,0-.127.077c-.038.031-.077.059-.115.085a.655.655,0,0,1-.116.061.257.257,0,0,1-.127.015c-.036-.005-.061-.037-.077-.1A.252.252,0,0,1,200.594,141.45Zm.177-1.838c-.01-.158-.016-.3-.016-.415a3.115,3.115,0,0,1,.031-.407,1.276,1.276,0,0,1,.019-.139c.008-.036.017-.071.027-.107s.022-.073.035-.111l.05-.15a.354.354,0,0,1,.077-.142.562.562,0,0,1,.061-.05.165.165,0,0,1,.089-.027.441.441,0,0,1,.115.008.421.421,0,0,1,.1.035.092.092,0,0,1,.054.061v.039a.245.245,0,0,1-.016.1c-.01.023-.026.055-.046.1a2.611,2.611,0,0,0-.1.277,1.55,1.55,0,0,0-.054.265c-.01.09-.017.182-.019.277s0,.2,0,.312c0,.041,0,.08,0,.115s0,.07,0,.1v.077a.128.128,0,0,1-.084.123.278.278,0,0,1-.119.012.171.171,0,0,1-.142-.089.35.35,0,0,1-.05-.13C200.783,139.689,200.777,139.648,200.771,139.612Zm.669.354a.14.14,0,0,1,.054-.077.908.908,0,0,1,.1-.073c.039-.023.077-.043.115-.061l.089-.042a1.023,1.023,0,0,0,.092-.173,2.307,2.307,0,0,0,.115-.327,1.327,1.327,0,0,0,.046-.308c0-.02,0-.051,0-.092s-.017-.064-.042-.069a.235.235,0,0,0-.138.012.916.916,0,0,0-.154.081c-.026.015-.05.031-.073.046a.223.223,0,0,1-.089.031.129.129,0,0,1-.138-.066.231.231,0,0,1-.038-.173.128.128,0,0,1,.038-.069.662.662,0,0,1,.223-.15c.046-.018.1-.036.169-.058a.666.666,0,0,1,.242-.035.713.713,0,0,1,.235.042.243.243,0,0,1,.165.184,1.464,1.464,0,0,1,.019.223,1.31,1.31,0,0,1-.023.265c-.016.074-.036.16-.061.258a.99.99,0,0,1-.042.119.908.908,0,0,1-.058.1c.056-.02.113-.038.169-.054a1.545,1.545,0,0,1,.2-.038q.107-.016.242-.031a1.957,1.957,0,0,1,.219-.016c.036,0,.069,0,.1,0a.323.323,0,0,1,.1.027.057.057,0,0,1,.035.038.149.149,0,0,1,.008.069.165.165,0,0,1-.027.073.129.129,0,0,1-.069.05c-.021.005-.052.012-.092.019l-.139.027-.157.031-.15.031q-.246.061-.431.119a3.653,3.653,0,0,0-.346.127.864.864,0,0,0-.169.084.737.737,0,0,1-.208.085.1.1,0,0,1-.119-.061A.219.219,0,0,1,201.44,139.966Z" transform="translate(-186.746 -138.062)" fill="#84badd"/>
    <path id="패스_28" data-name="패스 28" d="M210.179,142.4a.182.182,0,0,1-.054-.134.26.26,0,0,1,.039-.142.356.356,0,0,1,.057-.062c.028-.025.057-.051.089-.077l.089-.073c.028-.023.047-.039.058-.05a1.7,1.7,0,0,1,.3-.157c.1-.038.2-.075.3-.111a3.317,3.317,0,0,1,.411-.119q.2-.042.4-.073c.051,0,.111,0,.181-.008s.141-.009.216-.012.147,0,.219,0a1.609,1.609,0,0,1,.2.019.137.137,0,0,1,.088.05.124.124,0,0,1,.031.092.161.161,0,0,1-.046.1.21.21,0,0,1-.142.054l-.212.019c-.085.007-.173.017-.265.027s-.186.022-.28.035a1.512,1.512,0,0,0-.242.05c-.067.016-.125.031-.177.046a1.236,1.236,0,0,0-.154.057l-.162.073q-.084.038-.192.092l-.161.08a.548.548,0,0,0-.146.1q-.093.084-.15.134a.211.211,0,0,1-.173.035A.205.205,0,0,1,210.179,142.4Zm.769-1.853a2.559,2.559,0,0,1,.081-.654q.08-.307.188-.607a.232.232,0,0,1,.246-.146.326.326,0,0,1,.1.027.1.1,0,0,1,.069.1,1.5,1.5,0,0,1-.008.161.7.7,0,0,1-.046.169c-.015.056-.032.114-.05.173a1.4,1.4,0,0,1-.065.173,1.462,1.462,0,0,0-.108.411q-.023.212-.038.426c-.01.124-.021.231-.031.323s-.054.138-.131.138a.123.123,0,0,1-.084-.054.293.293,0,0,1-.062-.108,1.354,1.354,0,0,1-.05-.266C210.952,140.726,210.948,140.637,210.948,140.55Zm.008,3.107a1.26,1.26,0,0,1,.038-.25q.03-.119.077-.25c.015-.036.033-.08.054-.131a1.632,1.632,0,0,1,.069-.15c.026-.049.049-.095.07-.139a.574.574,0,0,1,.054-.1l.127-.208a.384.384,0,0,1,.181-.169.177.177,0,0,1,.13,0,.263.263,0,0,1,.135.061c.033.031.037.082.012.153-.016.041-.031.084-.046.127l-.054.15a.178.178,0,0,1,.054.042.65.65,0,0,0,.046.05.643.643,0,0,1,.127.211.57.57,0,0,1,.019.242,1.309,1.309,0,0,1-.123.477.883.883,0,0,1-.331.346.436.436,0,0,1-.169.054.316.316,0,0,1-.177-.016.384.384,0,0,1-.235-.215A.649.649,0,0,1,210.956,143.657Zm.438-.016c0,.01,0,.032,0,.065a.151.151,0,0,0,.012.081.192.192,0,0,0,.069-.015.146.146,0,0,0,.062-.047.621.621,0,0,0,.138-.2,1.366,1.366,0,0,0,.054-.25.34.34,0,0,0,0-.146.455.455,0,0,0-.046-.115,1,1,0,0,0-.181.28A1.062,1.062,0,0,0,211.394,143.641Zm1.991-.815v-.142c0-.059,0-.117,0-.173s0-.108,0-.153v-.077c0-.051,0-.132.008-.242s.012-.228.023-.354.019-.244.027-.354a2.07,2.07,0,0,1,.027-.242q.038-.261.092-.531a3.92,3.92,0,0,1,.139-.515.088.088,0,0,1,.069-.05.655.655,0,0,1,.131-.011.212.212,0,0,1,.15.054.191.191,0,0,1,.058.146.79.79,0,0,1-.012.131q-.012.069-.027.131-.077.308-.127.608t-.073.615c-.01.082-.018.15-.023.2s-.009.106-.012.157-.007.1-.012.158-.01.122-.015.2v.261q.177-.077.3-.119t.227-.073q.123-.038.327-.1a2.124,2.124,0,0,1,.419-.073q.131-.015.154.05a.14.14,0,0,1-.016.127.126.126,0,0,1-.042.038.189.189,0,0,0-.042.031l-.184.085-.193.085-.488.211a2.645,2.645,0,0,0-.458.25c0,.026,0,.078-.008.158s-.008.132-.008.158v.277c0,.036,0,.073,0,.111s.005.074.008.108,0,.053,0,.057c.005.031.011.065.019.1a.542.542,0,0,1,.012.107.2.2,0,0,1-.019.089.1.1,0,0,1-.08.046.276.276,0,0,1-.143-.008.187.187,0,0,1-.119-.131,1.427,1.427,0,0,1-.061-.261c-.01-.072-.018-.143-.023-.216s-.008-.148-.008-.231v-.1c0-.059,0-.126,0-.2s0-.149,0-.223Z" transform="translate(-192.579 -138.723)" fill="#84badd"/>
    <path id="패스_29" data-name="패스 29" d="M223.25,143.6a.136.136,0,0,1,.046-.1.38.38,0,0,1,.077-.057,4.213,4.213,0,0,1,1.134-.3,10.039,10.039,0,0,1,1.2-.073h.407a3.935,3.935,0,0,1,.45.023,2.589,2.589,0,0,1,.342.061.88.88,0,0,1,.242.1.14.14,0,0,1,.057.2.06.06,0,0,1-.05.035.632.632,0,0,1-.073,0q-.093,0-.273-.019l-.334-.035a4.215,4.215,0,0,0-.438-.023c-.149,0-.31,0-.485.012s-.351.021-.531.038-.353.041-.523.069a3.943,3.943,0,0,0-.461.1,2.248,2.248,0,0,0-.292.119,1.038,1.038,0,0,1-.277.1.16.16,0,0,1-.173-.07A.342.342,0,0,1,223.25,143.6Zm.5-1.4a1.462,1.462,0,0,1,.038-.323q.038-.169.077-.292c.01-.031.03-.082.058-.153s.059-.148.092-.227.067-.154.1-.223.057-.12.073-.15a.15.15,0,0,1,.108-.073.794.794,0,0,1,.123-.012.187.187,0,0,1,.143.046.156.156,0,0,1,.042.108.263.263,0,0,1-.016.077l-.016.046q-.138.269-.261.569a1.949,1.949,0,0,0-.146.523c.067-.01.137-.023.212-.039l.219-.046c.133-.031.254-.061.361-.089s.216-.055.323-.081a.215.215,0,0,1,.177.023.192.192,0,0,1,.077.107.133.133,0,0,1-.019.12.432.432,0,0,1-.073.057c-.021.01-.05.023-.089.038l-.127.05-.134.05-.111.038-.481.142a1.566,1.566,0,0,1-.426.073q-.216,0-.269-.1A.552.552,0,0,1,223.75,142.2Zm.923,2.976a1.363,1.363,0,0,1,.142-.631q.142-.276.3-.576a.25.25,0,0,1,.054-.054.177.177,0,0,1,.077-.038.591.591,0,0,1,.173-.008c.074.005.119.031.134.077a.174.174,0,0,1-.027.165c-.038.059-.071.109-.1.15a.672.672,0,0,1-.054.077.486.486,0,0,0-.061.108c-.021.046-.046.1-.077.153a1.346,1.346,0,0,0-.085.192c-.016.041-.03.082-.042.123a.435.435,0,0,0-.019.131c0,.061.021.1.062.111a.365.365,0,0,0,.162,0,3.582,3.582,0,0,0,.365-.092q.173-.054.346-.111c.115-.039.23-.073.346-.1a2.644,2.644,0,0,1,.357-.069.1.1,0,0,1,.1.035.157.157,0,0,1,.035.1.2.2,0,0,1-.038.115.175.175,0,0,1-.108.069q-.069.015-.277.084c-.139.047-.285.1-.439.154s-.3.107-.434.153-.227.075-.273.085c-.021.005-.054.012-.1.019a.712.712,0,0,1-.115.011h-.038a.314.314,0,0,1-.277-.134A.526.526,0,0,1,224.673,145.175Z" transform="translate(-200.606 -139.703)" fill="#84badd"/>
    <path id="패스_30" data-name="패스 30" d="M238.473,143.686a.161.161,0,0,1,.069-.119.71.71,0,0,1,.131-.088.631.631,0,0,0,.246-.2,2.137,2.137,0,0,0,.207-.319q.092-.173.169-.35c.051-.118.1-.215.139-.292a3.074,3.074,0,0,0,.177-.388,2.812,2.812,0,0,0,.115-.419.109.109,0,0,1,.042-.065.154.154,0,0,1,.1-.027.216.216,0,0,1,.184.065.325.325,0,0,1,.038.2,1.091,1.091,0,0,1-.054.273c-.031.095-.067.191-.108.288q-.115.254-.2.461-.084.177-.154.342a2.111,2.111,0,0,1-.092.2q.562-.085,1-.146a7.184,7.184,0,0,1,.881-.07q.461-.015.461.2a.138.138,0,0,1-.034.111.186.186,0,0,1-.089.035q-.285.023-.48.042l-.35.035q-.154.015-.277.039c-.082.015-.169.031-.261.046l-.238.05c-.087.017-.172.037-.254.057s-.159.038-.231.054-.128.028-.169.038a1.585,1.585,0,0,0-.3.111.733.733,0,0,1-.327.073.614.614,0,0,1-.242-.039C238.5,143.868,238.473,143.8,238.473,143.686Zm2.022-1.722a.985.985,0,0,1,.027-.143c.013-.049.029-.1.05-.157q.062-.169.143-.373a1.173,1.173,0,0,0,.089-.365.288.288,0,0,0-.062-.185.272.272,0,0,0-.223-.077h-.211a2.014,2.014,0,0,0-.411.061c-.067.015-.151.037-.254.065a1.022,1.022,0,0,1-.261.042.261.261,0,0,1-.134-.038.189.189,0,0,1-.081-.146.264.264,0,0,1,.012-.119.125.125,0,0,1,.081-.081,4.4,4.4,0,0,1,.592-.162,2.557,2.557,0,0,1,.9-.023.553.553,0,0,1,.508.8,1.611,1.611,0,0,1-.066.227c-.033.095-.063.171-.088.227-.021.041-.049.106-.085.2s-.067.16-.092.211a.6.6,0,0,1-.115.181.215.215,0,0,1-.177.035.153.153,0,0,1-.1-.062A.149.149,0,0,1,240.5,141.964Zm-.884,3.775a1,1,0,0,1,.027-.215,1.526,1.526,0,0,1,.131-.362c.033-.066.069-.136.108-.207s.074-.14.108-.2a1.148,1.148,0,0,1,.073-.127c.036-.051.073-.106.111-.165a1.669,1.669,0,0,1,.123-.165.674.674,0,0,1,.134-.123.249.249,0,0,1,.139-.046.222.222,0,0,1,.185.077.2.2,0,0,1,0,.216c-.005.01-.014.031-.027.061a1.086,1.086,0,0,1-.05.1.316.316,0,0,1,.154.169.724.724,0,0,1,.061.246,1.147,1.147,0,0,1-.073.493,1.184,1.184,0,0,1-.334.438.538.538,0,0,1-.1.077.981.981,0,0,1-.146.069.886.886,0,0,1-.177.046.64.64,0,0,1-.2,0,.248.248,0,0,1-.2-.146A.619.619,0,0,1,239.611,145.739Zm.861-.922a.426.426,0,0,0-.123.142c-.052.08-.1.168-.154.265a2.5,2.5,0,0,0-.131.288.532.532,0,0,0-.046.219.384.384,0,0,0,.212-.081.717.717,0,0,0,.165-.177,1.024,1.024,0,0,0,.111-.219.638.638,0,0,0,.042-.223.609.609,0,0,0-.011-.12A.156.156,0,0,0,240.472,144.816Z" transform="translate(-209.916 -139.391)" fill="#84badd"/>
    <path id="패스_31" data-name="패스 31" d="M249.1,144.606a.152.152,0,0,1-.1-.047c-.033-.031-.042-.1-.027-.207a3.631,3.631,0,0,1,.084-.384q.062-.231.143-.477t.162-.473q.08-.227.127-.366a.4.4,0,0,0,.023-.092c.005-.036.011-.082.016-.139a.085.085,0,0,0-.031-.077.211.211,0,0,0-.146-.038,2.3,2.3,0,0,0-.3.023,1.639,1.639,0,0,0-.327.077q-.077.031-.169.062c-.061.02-.115.035-.162.046a.4.4,0,0,1-.2.019c-.049-.013-.081-.061-.1-.143a.3.3,0,0,1,0-.127.129.129,0,0,1,.073-.1,2.115,2.115,0,0,1,.673-.207,4.814,4.814,0,0,1,.619-.046.837.837,0,0,1,.346.066.289.289,0,0,1,.169.249,1.056,1.056,0,0,1,0,.246,1.684,1.684,0,0,1-.05.308c-.021.046-.042.1-.066.165l-.069.2c-.023.066-.047.133-.073.2s-.049.126-.069.177c-.01.026-.027.073-.05.142s-.047.143-.073.223-.05.157-.073.234a1.728,1.728,0,0,1-.057.169q-.054.108-.115.211A.189.189,0,0,1,249.1,144.606Zm.676,1.253a1.087,1.087,0,0,1,.042-.312,2.783,2.783,0,0,1,.111-.3,2,2,0,0,0,.089-.192,2.735,2.735,0,0,1,.134-.277,2.668,2.668,0,0,1,.154-.246.24.24,0,0,1,.146-.115.447.447,0,0,1,.181.027.14.14,0,0,1,.111.119.254.254,0,0,1-.066.174,1.882,1.882,0,0,0-.127.188q-.108.177-.177.319a1.385,1.385,0,0,0-.108.365.29.29,0,0,0-.008.069.073.073,0,0,0,.031.062.1.1,0,0,0,.073.023.42.42,0,0,0,.1-.012.746.746,0,0,0,.092-.027.6.6,0,0,0,.058-.023,5.671,5.671,0,0,1,.665-.238,5.8,5.8,0,0,1,.781-.169.637.637,0,0,1,.188-.015.569.569,0,0,1,.158.038c.015.005.027.022.035.05a.284.284,0,0,1-.016.184.081.081,0,0,1-.065.05,1.42,1.42,0,0,1-.188.038c-.095.016-.178.031-.25.046-.149.041-.312.089-.489.142s-.357.119-.542.2c-.113.046-.232.1-.358.15a.892.892,0,0,1-.473.042.293.293,0,0,1-.2-.123A.378.378,0,0,1,249.772,145.859Zm1.392-1.368a1.952,1.952,0,0,1-.015-.277q0-.177.008-.392t.023-.449q.015-.235.031-.45c.01-.144.022-.274.035-.392s.024-.207.035-.27q.03-.161.046-.254c.01-.061.02-.118.031-.169s.021-.108.031-.169.026-.146.046-.254a.187.187,0,0,1,.054-.115.066.066,0,0,1,.046-.023.4.4,0,0,1,.123,0,.422.422,0,0,1,.127.042.227.227,0,0,1,.089.081.158.158,0,0,1,.015.119q-.054.339-.127.692a4.48,4.48,0,0,0-.08.823c.031-.01.07-.022.119-.034s.1-.024.154-.035l.157-.031.123-.023a2.067,2.067,0,0,1,.319-.05c.105-.008.222-.014.35-.019a.869.869,0,0,1,.277.027c.082.023.123.068.123.134,0,.051-.035.089-.1.111a1.165,1.165,0,0,1-.15.042q-.231.023-.411.057t-.4.1l-.169.05a1.584,1.584,0,0,0-.181.066.594.594,0,0,0-.154.1.242.242,0,0,0-.08.143c-.01.071-.019.151-.027.238s-.013.176-.015.265-.007.177-.012.261-.008.16-.008.227-.051.118-.154.123-.171-.016-.2-.081A.636.636,0,0,1,251.163,144.49Z" transform="translate(-215.786 -140.026)" fill="#84badd"/>
  </g>
</svg>
