<svg xmlns="http://www.w3.org/2000/svg" width="866.812" height="328.617" viewBox="0 0 866.812 328.617">
  <g id="그룹_51" data-name="그룹 51" transform="translate(1002.654 -1588.722) rotate(-11)">
    <g id="그룹_42" data-name="그룹 42" transform="translate(-770.031 1483.27)">
      <path id="패스_126" data-name="패스 126" d="M-471.9,1619.989l.97,8.139-2.19-7.9a6.286,6.286,0,0,0-6.8-4.563l-8.139.969,7.9-2.189a6.287,6.287,0,0,0,4.563-6.8l-.97-8.139,2.19,7.9a6.287,6.287,0,0,0,6.8,4.563l8.139-.97-7.9,2.189A6.289,6.289,0,0,0-471.9,1619.989Z" transform="translate(642.544 -1501.134)"/>
      <path id="패스_127" data-name="패스 127" d="M-664.132,1558.851l.388,3.255-.876-3.159a2.515,2.515,0,0,0-2.721-1.825l-3.256.388,3.159-.876a2.516,2.516,0,0,0,1.826-2.721l-.388-3.256.876,3.159a2.515,2.515,0,0,0,2.721,1.826l3.255-.388-3.159.876A2.515,2.515,0,0,0-664.132,1558.851Z" transform="translate(670.596 -1493.626)"/>
      <path id="패스_128" data-name="패스 128" d="M-494.277,1523.083l.388,3.256-.876-3.159a2.516,2.516,0,0,0-2.721-1.826l-3.256.388,3.159-.876a2.515,2.515,0,0,0,1.825-2.721l-.388-3.255.876,3.159a2.515,2.515,0,0,0,2.72,1.825l3.256-.388-3.159.876A2.516,2.516,0,0,0-494.277,1523.083Z" transform="translate(644.492 -1488.129)"/>
      <path id="패스_129" data-name="패스 129" d="M-589.573,1491.463l.388,3.256-.876-3.159a2.515,2.515,0,0,0-2.721-1.826l-3.255.388,3.159-.876a2.515,2.515,0,0,0,1.826-2.721l-.388-3.255.876,3.159a2.516,2.516,0,0,0,2.721,1.825l3.256-.388-3.159.876A2.516,2.516,0,0,0-589.573,1491.463Z" transform="translate(659.137 -1483.27)"/>
      <path id="패스_130" data-name="패스 130" d="M-570.965,1597.236a5.157,5.157,0,0,1-1.409-7.156,5.157,5.157,0,0,1,7.156-1.409,5.157,5.157,0,0,1,1.409,7.156A5.157,5.157,0,0,1-570.965,1597.236Z" transform="translate(655.635 -1499.334)"/>
    </g>
    <g id="그룹_43" data-name="그룹 43" transform="translate(-649.404 1760.297)">
      <path id="패스_131" data-name="패스 131" d="M-489.636,1817.732l-4.046-7.129,5.078,6.435a6.287,6.287,0,0,0,8.038,1.573l7.128-4.046-6.434,5.078a6.288,6.288,0,0,0-1.573,8.039l4.046,7.128-5.078-6.433a6.287,6.287,0,0,0-8.038-1.573l-7.129,4.046,6.434-5.078A6.287,6.287,0,0,0-489.636,1817.732Z" transform="translate(523.389 -1810.603)"/>
      <path id="패스_132" data-name="패스 132" d="M-524.861,1869.045l-1.619-2.851,2.031,2.574a2.516,2.516,0,0,0,3.216.63l2.851-1.619-2.574,2.031a2.516,2.516,0,0,0-.63,3.216l1.619,2.851L-522,1873.3a2.515,2.515,0,0,0-3.216-.63l-2.851,1.619,2.574-2.031A2.516,2.516,0,0,0-524.861,1869.045Z" transform="translate(528.064 -1819.147)"/>
    </g>
    <g id="그룹_44" data-name="그룹 44" transform="translate(-1231.365 1557.591)">
      <path id="패스_133" data-name="패스 133" d="M-1159.076,1607.559l6.979-4.3-6.249,5.3a6.286,6.286,0,0,0-1.287,8.089l4.3,6.98-5.3-6.249a6.287,6.287,0,0,0-8.09-1.286l-6.979,4.3,6.249-5.3a6.287,6.287,0,0,0,1.286-8.089l-4.3-6.98,5.3,6.25A6.288,6.288,0,0,0-1159.076,1607.559Z" transform="translate(1209.558 -1575.534)"/>
      <path id="패스_134" data-name="패스 134" d="M-1209.052,1574.1l2.792-1.718-2.5,2.121a2.515,2.515,0,0,0-.514,3.235l1.718,2.792-2.121-2.5a2.515,2.515,0,0,0-3.236-.515l-2.792,1.718,2.5-2.121a2.515,2.515,0,0,0,.515-3.235l-1.719-2.792,2.122,2.5A2.514,2.514,0,0,0-1209.052,1574.1Z" transform="translate(1215.705 -1571.087)"/>
    </g>
    <g id="그룹_45" data-name="그룹 45" transform="translate(-1139.286 1505.055)">
      <path id="패스_135" data-name="패스 135" d="M-1100.252,1512.026l2.792-1.719-2.5,2.122a2.514,2.514,0,0,0-.515,3.235l1.719,2.792-2.122-2.5a2.514,2.514,0,0,0-3.235-.515l-2.792,1.719,2.5-2.121a2.515,2.515,0,0,0,.515-3.236l-1.719-2.792,2.122,2.5A2.514,2.514,0,0,0-1100.252,1512.026Z" transform="translate(1106.905 -1509.011)"/>
    </g>
    <g id="그룹_46" data-name="그룹 46" transform="translate(-1013.138 1625.843)">
      <path id="패스_136" data-name="패스 136" d="M-867.8,1654.584l-1.618-2.851,2.031,2.574a2.514,2.514,0,0,0,3.215.629l2.851-1.618-2.573,2.031a2.515,2.515,0,0,0-.629,3.216l1.618,2.851-2.031-2.574a2.515,2.515,0,0,0-3.215-.63l-2.851,1.619,2.574-2.031A2.516,2.516,0,0,0-867.8,1654.584Z" transform="translate(944.503 -1651.733)"/>
      <path id="패스_137" data-name="패스 137" d="M-910.446,1745.589l-1.618-2.851,2.031,2.574a2.515,2.515,0,0,0,3.215.629l2.851-1.618-2.574,2.031a2.515,2.515,0,0,0-.629,3.215l1.618,2.851-2.031-2.574a2.514,2.514,0,0,0-3.215-.629l-2.851,1.618,2.574-2.031A2.514,2.514,0,0,0-910.446,1745.589Z" transform="translate(951.057 -1665.719)"/>
      <circle id="타원_56" data-name="타원 56" cx="5.157" cy="5.157" r="5.157" transform="matrix(0.186, -0.982, 0.982, 0.186, 0, 34.737)"/>
    </g>
    <g id="그룹_47" data-name="그룹 47" transform="translate(-1317.601 1525.709)">
      <path id="패스_138" data-name="패스 138" d="M-1303.672,1547.265l150.011-7.2,98.2,108.748" transform="translate(1315.46 -1534.436)" fill="none" stroke="#000" stroke-linecap="round" stroke-linejoin="round" stroke-width="0.5" stroke-dasharray="0.2 2"/>
      <path id="패스_139" data-name="패스 139" d="M-1309.087,1550.753l-5.317,6.238,4.311-6.971a6.287,6.287,0,0,0-1.27-8.092l-6.239-5.317,6.971,4.311a6.287,6.287,0,0,0,8.092-1.269l5.316-6.238-4.31,6.971a6.286,6.286,0,0,0,1.27,8.092l6.238,5.317-6.971-4.311A6.285,6.285,0,0,0-1309.087,1550.753Z" transform="translate(1317.601 -1533.415)" fill="none" stroke="#000" stroke-miterlimit="10" stroke-width="1"/>
      <path id="패스_140" data-name="패스 140" d="M-1132.824,1539.922a5.157,5.157,0,0,1,4.295-5.895,5.158,5.158,0,0,1,5.895,4.3,5.157,5.157,0,0,1-4.3,5.894A5.156,5.156,0,0,1-1132.824,1539.922Z" transform="translate(1289.213 -1533.499)" fill="none" stroke="#000" stroke-miterlimit="10" stroke-width="1"/>
      <path id="패스_141" data-name="패스 141" d="M-1012.554,1668.334l-2.126,2.5,1.724-2.789a2.515,2.515,0,0,0-.508-3.237l-2.495-2.126,2.788,1.724a2.515,2.515,0,0,0,3.237-.508l2.127-2.5-1.725,2.789a2.515,2.515,0,0,0,.508,3.237l2.5,2.126-2.789-1.724A2.515,2.515,0,0,0-1012.554,1668.334Z" transform="translate(1271.243 -1553.084)" fill="none" stroke="#000" stroke-miterlimit="10" stroke-width="1"/>
    </g>
    <g id="그룹_48" data-name="그룹 48" transform="translate(-803.284 1640.168)">
      <path id="패스_142" data-name="패스 142" d="M-698.842,1711.983l53.51-38.395,66.725,92.041,10.964,40.306-9.188,21.819" transform="translate(708.19 -1669.417)" fill="none" stroke="#000" stroke-linecap="round" stroke-linejoin="round" stroke-width="0.5" stroke-dasharray="0.2 2"/>
      <path id="패스_143" data-name="패스 143" d="M-704.165,1720.057l-5.723,4.217,5.019-5.035a5.453,5.453,0,0,0,.528-7.085l-4.218-5.722,5.035,5.019a5.454,5.454,0,0,0,7.085.527l5.722-4.217-5.019,5.035a5.453,5.453,0,0,0-.527,7.084l4.217,5.723-5.035-5.019A5.452,5.452,0,0,0-704.165,1720.057Z" transform="translate(709.888 -1674.465)" fill="none" stroke="#000" stroke-miterlimit="10" stroke-width="1"/>
      <circle id="타원_57" data-name="타원 57" cx="4.306" cy="4.306" r="4.306" transform="matrix(0.758, -0.653, 0.653, 0.758, 122.692, 93.509)" fill="none" stroke="#000" stroke-miterlimit="10" stroke-width="1"/>
      <path id="패스_144" data-name="패스 144" d="M-636.94,1674.943l-2.64,1.946,2.315-2.322a2.515,2.515,0,0,0,.243-3.268l-1.945-2.639,2.322,2.315a2.514,2.514,0,0,0,3.267.243l2.64-1.945-2.315,2.321a2.515,2.515,0,0,0-.243,3.268l1.945,2.64-2.322-2.315A2.515,2.515,0,0,0-636.94,1674.943Z" transform="translate(699.083 -1668.66)" fill="none" stroke="#000" stroke-miterlimit="10" stroke-width="1"/>
      <path id="패스_145" data-name="패스 145" d="M-554.581,1849.726l-2.639,1.945,2.315-2.321a2.515,2.515,0,0,0,.243-3.268l-1.945-2.64,2.322,2.315a2.515,2.515,0,0,0,3.267.244l2.64-1.946-2.315,2.322a2.516,2.516,0,0,0-.244,3.268l1.946,2.639-2.322-2.314A2.514,2.514,0,0,0-554.581,1849.726Z" transform="translate(686.425 -1695.521)" fill="none" stroke="#000" stroke-miterlimit="10" stroke-width="1"/>
    </g>
    <g id="그룹_49" data-name="그룹 49" transform="translate(-1099.781 1507.277)">
      <path id="패스_146" data-name="패스 146" d="M-888.343,1528.513l-18.817,63.114-109.1-31.949-33.34-25.164-6.088-22.878" transform="translate(1059.529 -1511.636)" fill="none" stroke="#000" stroke-linecap="round" stroke-linejoin="round" stroke-width="0.5" stroke-dasharray="0.2 2"/>
      <path id="패스_147" data-name="패스 147" d="M-859.112,1524.886l1.945-6.838-.888,7.053a5.454,5.454,0,0,0,3.919,5.926l6.837,1.944-7.053-.887a5.451,5.451,0,0,0-5.925,3.919l-1.945,6.838.888-7.054a5.452,5.452,0,0,0-3.919-5.925l-6.837-1.945,7.053.888A5.452,5.452,0,0,0-859.112,1524.886Z" transform="translate(1031.312 -1512.622)" fill="none" stroke="#000" stroke-miterlimit="10" stroke-width="1"/>
      <path id="패스_148" data-name="패스 148" d="M-1003.344,1566.132a5.157,5.157,0,0,1-1.457,7.146,5.157,5.157,0,0,1-7.146-1.457,5.157,5.157,0,0,1,1.456-7.146A5.157,5.157,0,0,1-1003.344,1566.132Z" transform="translate(1052.938 -1519.656)" fill="none" stroke="#000" stroke-miterlimit="10" stroke-width="1"/>
      <path id="패스_149" data-name="패스 149" d="M-882.133,1603.088l.9-3.153-.409,3.253a2.514,2.514,0,0,0,1.807,2.733l3.153.9-3.252-.41a2.515,2.515,0,0,0-2.733,1.808l-.9,3.154.41-3.253a2.514,2.514,0,0,0-1.808-2.733l-3.153-.9,3.253.41A2.515,2.515,0,0,0-882.133,1603.088Z" transform="translate(1033.776 -1525.206)" fill="none" stroke="#000" stroke-miterlimit="10" stroke-width="1"/>
      <path id="패스_150" data-name="패스 150" d="M-1054.241,1515.275l.9-3.153-.41,3.252a2.515,2.515,0,0,0,1.808,2.733l3.153.9-3.252-.41a2.516,2.516,0,0,0-2.734,1.808l-.9,3.153.409-3.252a2.516,2.516,0,0,0-1.807-2.734l-3.153-.9,3.252.409A2.513,2.513,0,0,0-1054.241,1515.275Z" transform="translate(1060.226 -1511.711)" fill="none" stroke="#000" stroke-miterlimit="10" stroke-width="1"/>
    </g>
    <path id="패스_151" data-name="패스 151" d="M-541.565,1699.042l-4.611,5.411,3.739-6.046a5.452,5.452,0,0,0-1.1-7.018l-5.411-4.611,6.046,3.739a5.453,5.453,0,0,0,7.018-1.1l4.611-5.411-3.739,6.046a5.452,5.452,0,0,0,1.1,7.018l5.41,4.611-6.046-3.739A5.453,5.453,0,0,0-541.565,1699.042Z" transform="translate(-118.13 -30.85)"/>
    <path id="패스_152" data-name="패스 152" d="M-331.547,1660.846l-4.611,5.411,3.738-6.046a5.453,5.453,0,0,0-1.1-7.019l-5.41-4.611,6.046,3.739a5.452,5.452,0,0,0,7.018-1.1l4.611-5.411-3.739,6.046a5.451,5.451,0,0,0,1.1,7.018l5.411,4.611-6.046-3.738A5.451,5.451,0,0,0-331.547,1660.846Z" transform="translate(-150.407 -24.98)"/>
    <path id="패스_153" data-name="패스 153" d="M-342.9,1683.9a3.819,3.819,0,0,1,3.18-4.364,3.819,3.819,0,0,1,4.364,3.181,3.818,3.818,0,0,1-3.18,4.364A3.818,3.818,0,0,1-342.9,1683.9Z" transform="translate(-149.789 -30.156)"/>
    <path id="패스_154" data-name="패스 154" d="M-517.084,1700.453a2.825,2.825,0,0,1-.3-3.984,2.826,2.826,0,0,1,3.984-.3,2.825,2.825,0,0,1,.3,3.984A2.826,2.826,0,0,1-517.084,1700.453Z" transform="translate(-122.876 -32.614)"/>
    <circle id="타원_58" data-name="타원 58" cx="2.825" cy="2.825" r="2.825" transform="translate(-620.161 1715.455) rotate(-44.804)"/>
    <path id="패스_155" data-name="패스 155" d="M-443.653,1703.021l-2.127,2.495,1.725-2.788a2.515,2.515,0,0,0-.508-3.237l-2.5-2.127,2.789,1.725a2.515,2.515,0,0,0,3.237-.508l2.126-2.5-1.724,2.789a2.515,2.515,0,0,0,.508,3.237l2.495,2.126-2.789-1.724A2.514,2.514,0,0,0-443.653,1703.021Z" transform="translate(-133.789 -32.707)"/>
    <path id="패스_156" data-name="패스 156" d="M-482.034,1701.778l.16,2.575-.548-2.522a1.981,1.981,0,0,0-2.057-1.555l-2.575.16,2.522-.548a1.979,1.979,0,0,0,1.556-2.057l-.159-2.575.548,2.522a1.978,1.978,0,0,0,2.057,1.555l2.575-.159-2.522.547A1.981,1.981,0,0,0-482.034,1701.778Z" transform="translate(-127.642 -32.579)"/>
    <path id="패스_157" data-name="패스 157" d="M-412.105,1799.9l-2.127,2.5,1.725-2.789a2.514,2.514,0,0,0-.508-3.236l-2.5-2.127,2.789,1.725a2.515,2.515,0,0,0,3.237-.508l2.126-2.5-1.724,2.789a2.515,2.515,0,0,0,.508,3.237l2.495,2.126-2.789-1.724A2.514,2.514,0,0,0-412.105,1799.9Z" transform="translate(-138.638 -47.595)"/>
    <path id="패스_158" data-name="패스 158" d="M-359.718,1657.889l-9.683,23.835-52.388,80.94-7.945,15.145-68.278-34.511-42.7-53.132,20.111,2.731,28.8,1.49,34.511,1.738,88.848-16.754" transform="translate(-119.395 -26.836)" fill="none" stroke="#000" stroke-linecap="round" stroke-linejoin="round" stroke-width="0.5" stroke-dasharray="0.2 2"/>
    <g id="그룹_50" data-name="그룹 50" transform="translate(-901.987 1544.297)">
      <path id="패스_159" data-name="패스 159" d="M-719.616,1570.416l-4.611,5.411,3.739-6.046a5.454,5.454,0,0,0-1.1-7.018l-5.411-4.611,6.046,3.739a5.453,5.453,0,0,0,7.019-1.1l4.611-5.41-3.739,6.046a5.452,5.452,0,0,0,1.1,7.018l5.411,4.611-6.046-3.738A5.453,5.453,0,0,0-719.616,1570.416Z" transform="translate(811.221 -1555.379)" fill="none" stroke="#000" stroke-miterlimit="10" stroke-width="1"/>
      <path id="패스_160" data-name="패스 160" d="M-666.559,1609.229a2.826,2.826,0,0,1-.3-3.984,2.825,2.825,0,0,1,3.984-.3,2.825,2.825,0,0,1,.3,3.984A2.825,2.825,0,0,1-666.559,1609.229Z" transform="translate(802.083 -1562.891)" fill="none" stroke="#000" stroke-miterlimit="10" stroke-width="1"/>
      <path id="패스_161" data-name="패스 161" d="M-731.447,1613.226a1.993,1.993,0,0,1-1.815,2.157,1.994,1.994,0,0,1-2.158-1.815,2,2,0,0,1,1.816-2.158A1.993,1.993,0,0,1-731.447,1613.226Z" transform="translate(812.516 -1563.989)" fill="none" stroke="#000" stroke-miterlimit="10" stroke-width="1"/>
      <path id="패스_162" data-name="패스 162" d="M-795.584,1666.949a1.994,1.994,0,0,1-1.816,2.158,1.994,1.994,0,0,1-2.158-1.816,1.994,1.994,0,0,1,1.816-2.157A1.994,1.994,0,0,1-795.584,1666.949Z" transform="translate(822.373 -1572.246)" fill="none" stroke="#000" stroke-miterlimit="10" stroke-width="1"/>
      <path id="패스_163" data-name="패스 163" d="M-741.724,1571.19a1.33,1.33,0,0,1,.142,1.876,1.33,1.33,0,0,1-1.875.141,1.329,1.329,0,0,1-.142-1.875A1.331,1.331,0,0,1-741.724,1571.19Z" transform="translate(813.821 -1557.76)" fill="none" stroke="#000" stroke-miterlimit="10" stroke-width="1"/>
      <path id="패스_164" data-name="패스 164" d="M-768.026,1563.353a2.826,2.826,0,0,1-.3-3.984,2.826,2.826,0,0,1,3.984-.3,2.825,2.825,0,0,1,.3,3.984A2.825,2.825,0,0,1-768.026,1563.353Z" transform="translate(817.677 -1555.841)" fill="none" stroke="#000" stroke-miterlimit="10" stroke-width="1"/>
      <path id="패스_165" data-name="패스 165" d="M-723.594,1652.86l-2.127,2.5,1.725-2.789a2.515,2.515,0,0,0-.508-3.237l-2.5-2.126,2.789,1.724a2.515,2.515,0,0,0,3.237-.508l2.126-2.495-1.724,2.788a2.515,2.515,0,0,0,.508,3.237l2.495,2.127-2.788-1.725A2.515,2.515,0,0,0-723.594,1652.86Z" transform="translate(811.221 -1569.295)" fill="none" stroke="#000" stroke-miterlimit="10" stroke-width="1"/>
      <path id="패스_166" data-name="패스 166" d="M-823.237,1691.707l-3.278.062,3.231-.557a2.514,2.514,0,0,0,2.087-2.525l-.062-3.278.557,3.23a2.515,2.515,0,0,0,2.525,2.088l3.279-.062-3.231.557a2.514,2.514,0,0,0-2.087,2.525l.061,3.278-.557-3.23A2.515,2.515,0,0,0-823.237,1691.707Z" transform="translate(826.515 -1575.363)" fill="none" stroke="#000" stroke-miterlimit="10" stroke-width="1"/>
      <path id="패스_167" data-name="패스 167" d="M-749.942,1564.568l-1.12,1.314.908-1.469a1.326,1.326,0,0,0-.267-1.705l-1.314-1.12,1.468.908a1.324,1.324,0,0,0,1.705-.267l1.12-1.314-.908,1.469a1.324,1.324,0,0,0,.267,1.7l1.314,1.12-1.468-.909A1.326,1.326,0,0,0-749.942,1564.568Z" transform="translate(815.022 -1556.23)" fill="none" stroke="#000" stroke-miterlimit="10" stroke-width="1"/>
      <path id="패스_168" data-name="패스 168" d="M-794.41,1609.088l-1.121,1.314.909-1.469a1.325,1.325,0,0,0-.267-1.7l-1.315-1.12,1.469.909a1.325,1.325,0,0,0,1.7-.267l1.12-1.314-.908,1.469a1.323,1.323,0,0,0,.267,1.7l1.314,1.12-1.469-.908A1.323,1.323,0,0,0-794.41,1609.088Z" transform="translate(821.857 -1563.072)" fill="none" stroke="#000" stroke-miterlimit="10" stroke-width="1"/>
      <path id="패스_169" data-name="패스 169" d="M-595.238,1637.925l.159,2.575-.547-2.522a1.979,1.979,0,0,0-2.057-1.555l-2.575.159,2.522-.547a1.98,1.98,0,0,0,1.556-2.057l-.159-2.576.547,2.522a1.981,1.981,0,0,0,2.057,1.555l2.575-.159-2.522.547A1.98,1.98,0,0,0-595.238,1637.925Z" transform="translate(791.743 -1567.062)" fill="none" stroke="#000" stroke-miterlimit="10" stroke-width="1"/>
      <path id="패스_170" data-name="패스 170" d="M-630.957,1625.78l-57.105-25.231-39.477-33.612-27.311,4.221-4.717-7.945-14.4-1.49-23.587,38.484,4.717,33.518-7.7,16.883-19.118,21.6" transform="translate(825.46 -1556.354)" fill="none" stroke="#000" stroke-linecap="round" stroke-linejoin="round" stroke-width="0.5" stroke-dasharray="0.2 2"/>
      <path id="패스_171" data-name="패스 171" d="M-717.85,1570.817l-16.138,37.242,10.18,34.015" transform="translate(812.295 -1557.752)" fill="none" stroke="#000" stroke-linecap="round" stroke-linejoin="round" stroke-width="0.5" stroke-dasharray="0.2 2"/>
    </g>
  </g>
</svg>
