<svg xmlns="http://www.w3.org/2000/svg" width="108.126" height="411.114" viewBox="0 0 108.126 411.114">
  <path id="패스_222" data-name="패스 222" d="M473.877,444.374a69.775,69.775,0,1,1,0-134.128,74.856,74.856,0,0,0-81.664,124.165v16.133l-.595,3.607-1.829-1.313,1.312,1.83-6.667,1.1,6.667,1.1-1.312,1.83,1.829-1.312.595,3.607v70.937L388.194,544.8l4.019,12.873v49.585l-2.352-1.687,1.92,2.678-1.084.178,1.084.179-1.92,2.678,2.352-1.687v43.159l-2.1,6.725,2.675,8.569,2.676-8.569-2.109-6.752V609.693l2.218,1.59-1.92-2.678,1.084-.179-1.084-.179,1.92-2.677-2.218,1.59V557.7l4.028-12.9-4.028-12.9V460.172l.46-2.791,1.83,1.313-1.312-1.83,6.667-1.1-6.667-1.1,1.312-1.83-1.83,1.313-.46-2.792v-16a74.787,74.787,0,0,0,20.069,11.708v37.321l-3.537,11.33,3.537,11.33v80.57l-2.285-1.639,1.92,2.678-1.084.179,1.084.179-1.92,2.678,2.285-1.639v28.2h1.143v-28.2l2.285,1.639-1.92-2.678,1.084-.179-1.084-.179,1.92-2.678-2.285,1.639V506.594l3.394-10.873-3.394-10.873V447.5a74.369,74.369,0,0,0,14.995,3.843v76.268l-.527,3.2L427.2,529.5l1.312,1.831-6.667,1.1,6.667,1.1-1.312,1.83,1.83-1.312.527,3.2v65.862l-2.033,6.51,2.033,6.51v36.26H430.7v-35.8l2.175-6.967L430.7,602.65V537.244l.527-3.2,1.829,1.313-1.312-1.83,6.667-1.1-6.667-1.1,1.312-1.831-1.829,1.312-.527-3.2V451.507a75.62,75.62,0,0,0,9.9.652q3.046,0,6.035-.241V485.24l-2.113,6.769,2.113,6.768v16.461l-2.223-1.594,1.92,2.678-1.084.179,1.084.179-1.92,2.678,2.223-1.595v46.579l-6.531,20.921,6.531,20.92v88.673l-.862,5.236-2.493-1.787,1.788,2.493-9.08,1.5,9.08,1.5-1.788,2.493,2.493-1.787,1.5,9.08,1.5-9.08,2.493,1.787-1.787-2.493,9.08-1.5-9.08-1.5,1.787-2.493-2.493,1.787-.986-5.989V606.123l6.512-20.86L447.779,564.4V517.673l2.346,1.684-1.92-2.678,1.084-.179-1.084-.179,1.92-2.678-2.346,1.684V498.718l2.094-6.709-2.094-6.71V451.818A74.387,74.387,0,0,0,473.877,444.374Z" transform="translate(-365.751 -302.46)" fill="#fff"/>
</svg>
