<svg xmlns="http://www.w3.org/2000/svg" width="528.383" height="476.969" viewBox="0 0 528.383 476.969">
  <g id="그룹_841" data-name="그룹 841" transform="translate(289.558 -5169.241)">
    <g id="그룹_81" data-name="그룹 81" transform="translate(-793.128 6102.637) rotate(-108)">
      <g id="그룹_74" data-name="그룹 74" transform="translate(207.591 688.086)">
        <path id="패스_191" data-name="패스 191" d="M306.231,980.208l-14.641,1.663,14.221-3.859a11.3,11.3,0,0,0,8.27-12.184l-1.664-14.642,3.86,14.221a11.3,11.3,0,0,0,12.184,8.27l14.642-1.663-14.222,3.86a11.3,11.3,0,0,0-8.27,12.184l1.664,14.641-3.86-14.221A11.3,11.3,0,0,0,306.231,980.208Z" transform="translate(-180.152 -544.958)" fill="#fff"/>
        <path id="패스_192" data-name="패스 192" d="M239,707.243l-11.171-9.609,12.5,7.808a11.3,11.3,0,0,0,14.558-2.214l9.61-11.171-7.809,12.5a11.3,11.3,0,0,0,2.214,14.557l11.171,9.609-12.5-7.808a11.3,11.3,0,0,0-14.559,2.214L233.405,734.3l7.809-12.5A11.3,11.3,0,0,0,239,707.243Z" transform="translate(-200.285 -626.781)" fill="#fff"/>
        <path id="패스_193" data-name="패스 193" d="M546.94,851.889l-5.18,2.813,4.695-3.564a4.521,4.521,0,0,0,1.238-5.758l-2.812-5.18,3.563,4.695a4.523,4.523,0,0,0,5.759,1.24l5.18-2.813-4.695,3.564a4.519,4.519,0,0,0-1.24,5.758l2.813,5.18-3.564-4.695A4.522,4.522,0,0,0,546.94,851.889Z" transform="translate(-101.158 -580.003)" fill="#fff"/>
        <path id="패스_194" data-name="패스 194" d="M265.732,946.972l-5.856.666,5.688-1.543a4.521,4.521,0,0,0,3.308-4.874l-.666-5.856,1.545,5.688a4.522,4.522,0,0,0,4.874,3.308l5.857-.666-5.688,1.543a4.521,4.521,0,0,0-3.308,4.875l.664,5.856-1.543-5.689A4.523,4.523,0,0,0,265.732,946.972Z" transform="translate(-190.166 -549.954)" fill="#fff"/>
        <path id="패스_195" data-name="패스 195" d="M508.6,706.887l-8.462.962,8.22-2.232a6.532,6.532,0,0,0,4.779-7.042l-.961-8.462,2.23,8.218a6.532,6.532,0,0,0,7.042,4.78l8.463-.962-8.22,2.231a6.533,6.533,0,0,0-4.78,7.042l.962,8.463-2.232-8.22A6.531,6.531,0,0,0,508.6,706.887Z" transform="translate(-114.302 -627.394)" fill="#fff"/>
        <path id="패스_196" data-name="패스 196" d="M536.746,754.8l-5.856.666,5.688-1.545a4.52,4.52,0,0,0,3.308-4.874l-.664-5.856,1.543,5.688a4.522,4.522,0,0,0,4.874,3.309l5.857-.666-5.688,1.543a4.52,4.52,0,0,0-3.308,4.874l.666,5.856-1.545-5.688A4.519,4.519,0,0,0,536.746,754.8Z" transform="translate(-104.59 -610.635)" fill="#fff"/>
        <path id="패스_197" data-name="패스 197" d="M324.916,654.054l-5.856.666,5.688-1.545a4.518,4.518,0,0,0,3.308-4.874l-.666-5.855,1.545,5.688a4.522,4.522,0,0,0,4.874,3.308l5.856-.666-5.688,1.543a4.52,4.52,0,0,0-3.308,4.874l.664,5.858-1.543-5.689A4.523,4.523,0,0,0,324.916,654.054Z" transform="translate(-171.478 -642.446)" fill="#fff"/>
        <path id="패스_198" data-name="패스 198" d="M480.008,952.028l-5.674-1.6,5.85.72a4.521,4.521,0,0,0,4.9-3.263l1.6-5.674-.72,5.85a4.522,4.522,0,0,0,3.263,4.9l5.675,1.6-5.851-.72a4.522,4.522,0,0,0-4.9,3.263l-1.6,5.675.72-5.851A4.521,4.521,0,0,0,480.008,952.028Z" transform="translate(-122.448 -547.79)" fill="#fff"/>
        <path id="패스_199" data-name="패스 199" d="M501.465,926.618A9.271,9.271,0,1,1,503.93,939.5,9.272,9.272,0,0,1,501.465,926.618Z" transform="translate(-114.387 -553.999)" fill="#fff"/>
        <path id="패스_200" data-name="패스 200" d="M418.492,644.186a2.583,2.583,0,1,1,.687,3.588A2.583,2.583,0,0,1,418.492,644.186Z" transform="translate(-140.222 -642.254)" fill="#fff"/>
        <circle id="타원_64" data-name="타원 64" cx="6.549" cy="6.549" r="6.549" transform="translate(13.819 129.126) rotate(-15.474)" fill="#fff"/>
        <path id="패스_201" data-name="패스 201" d="M207.577,782.935a5.243,5.243,0,1,1,1.979,7.145A5.244,5.244,0,0,1,207.577,782.935Z" transform="translate(-206.895 -598.925)" fill="#fff"/>
        <path id="패스_202" data-name="패스 202" d="M225.089,885.4a2.583,2.583,0,1,1-1.8,3.177A2.582,2.582,0,0,1,225.089,885.4Z" transform="translate(-201.748 -565.762)" fill="#fff"/>
        <path id="패스_203" data-name="패스 203" d="M335.551,978.857a2.583,2.583,0,1,1,.687,3.588A2.583,2.583,0,0,1,335.551,978.857Z" transform="translate(-166.411 -536.578)" fill="#fff"/>
      </g>
    </g>
    <g id="그룹_286" data-name="그룹 286" transform="translate(368.935 6343.001) rotate(-175)">
      <g id="그룹_74-2" data-name="그룹 74" transform="translate(207.591 688.086)">
        <path id="패스_191-2" data-name="패스 191" d="M306.231,980.208l-14.641,1.663,14.221-3.859a11.3,11.3,0,0,0,8.27-12.184l-1.664-14.642,3.86,14.221a11.3,11.3,0,0,0,12.184,8.27l14.642-1.663-14.222,3.86a11.3,11.3,0,0,0-8.27,12.184l1.664,14.641-3.86-14.221A11.3,11.3,0,0,0,306.231,980.208Z" transform="translate(-180.152 -544.958)" fill="#fff"/>
        <path id="패스_192-2" data-name="패스 192" d="M239,707.243l-11.171-9.609,12.5,7.808a11.3,11.3,0,0,0,14.558-2.214l9.61-11.171-7.809,12.5a11.3,11.3,0,0,0,2.214,14.557l11.171,9.609-12.5-7.808a11.3,11.3,0,0,0-14.559,2.214L233.405,734.3l7.809-12.5A11.3,11.3,0,0,0,239,707.243Z" transform="translate(-200.285 -626.781)" fill="#fff"/>
        <path id="패스_193-2" data-name="패스 193" d="M546.94,851.889l-5.18,2.813,4.695-3.564a4.521,4.521,0,0,0,1.238-5.758l-2.812-5.18,3.563,4.695a4.523,4.523,0,0,0,5.759,1.24l5.18-2.813-4.695,3.564a4.519,4.519,0,0,0-1.24,5.758l2.813,5.18-3.564-4.695A4.522,4.522,0,0,0,546.94,851.889Z" transform="translate(-101.158 -580.003)" fill="#fff"/>
        <path id="패스_194-2" data-name="패스 194" d="M265.732,946.972l-5.856.666,5.688-1.543a4.521,4.521,0,0,0,3.308-4.874l-.666-5.856,1.545,5.688a4.522,4.522,0,0,0,4.874,3.308l5.857-.666-5.688,1.543a4.521,4.521,0,0,0-3.308,4.875l.664,5.856-1.543-5.689A4.523,4.523,0,0,0,265.732,946.972Z" transform="translate(-190.166 -549.954)" fill="#fff"/>
        <path id="패스_195-2" data-name="패스 195" d="M508.6,706.887l-8.462.962,8.22-2.232a6.532,6.532,0,0,0,4.779-7.042l-.961-8.462,2.23,8.218a6.532,6.532,0,0,0,7.042,4.78l8.463-.962-8.22,2.231a6.533,6.533,0,0,0-4.78,7.042l.962,8.463-2.232-8.22A6.531,6.531,0,0,0,508.6,706.887Z" transform="translate(-114.302 -627.394)" fill="#fff"/>
        <path id="패스_196-2" data-name="패스 196" d="M536.746,754.8l-5.856.666,5.688-1.545a4.52,4.52,0,0,0,3.308-4.874l-.664-5.856,1.543,5.688a4.522,4.522,0,0,0,4.874,3.309l5.857-.666-5.688,1.543a4.52,4.52,0,0,0-3.308,4.874l.666,5.856-1.545-5.688A4.519,4.519,0,0,0,536.746,754.8Z" transform="translate(-104.59 -610.635)" fill="#fff"/>
        <path id="패스_197-2" data-name="패스 197" d="M324.916,654.054l-5.856.666,5.688-1.545a4.518,4.518,0,0,0,3.308-4.874l-.666-5.855,1.545,5.688a4.522,4.522,0,0,0,4.874,3.308l5.856-.666-5.688,1.543a4.52,4.52,0,0,0-3.308,4.874l.664,5.858-1.543-5.689A4.523,4.523,0,0,0,324.916,654.054Z" transform="translate(-171.478 -642.446)" fill="#fff"/>
        <path id="패스_198-2" data-name="패스 198" d="M480.008,952.028l-5.674-1.6,5.85.72a4.521,4.521,0,0,0,4.9-3.263l1.6-5.674-.72,5.85a4.522,4.522,0,0,0,3.263,4.9l5.675,1.6-5.851-.72a4.522,4.522,0,0,0-4.9,3.263l-1.6,5.675.72-5.851A4.521,4.521,0,0,0,480.008,952.028Z" transform="translate(-122.448 -547.79)" fill="#fff"/>
        <path id="패스_199-2" data-name="패스 199" d="M501.465,926.618A9.271,9.271,0,1,1,503.93,939.5,9.272,9.272,0,0,1,501.465,926.618Z" transform="translate(-114.387 -553.999)" fill="#fff"/>
        <path id="패스_200-2" data-name="패스 200" d="M418.492,644.186a2.583,2.583,0,1,1,.687,3.588A2.583,2.583,0,0,1,418.492,644.186Z" transform="translate(-140.222 -642.254)" fill="#fff"/>
        <circle id="타원_64-2" data-name="타원 64" cx="6.549" cy="6.549" r="6.549" transform="translate(13.819 129.126) rotate(-15.474)" fill="#fff"/>
        <path id="패스_201-2" data-name="패스 201" d="M207.577,782.935a5.243,5.243,0,1,1,1.979,7.145A5.244,5.244,0,0,1,207.577,782.935Z" transform="translate(-206.895 -598.925)" fill="#fff"/>
        <path id="패스_202-2" data-name="패스 202" d="M225.089,885.4a2.583,2.583,0,1,1-1.8,3.177A2.582,2.582,0,0,1,225.089,885.4Z" transform="translate(-201.748 -565.762)" fill="#fff"/>
        <path id="패스_203-2" data-name="패스 203" d="M335.551,978.857a2.583,2.583,0,1,1,.687,3.588A2.583,2.583,0,0,1,335.551,978.857Z" transform="translate(-166.411 -536.578)" fill="#fff"/>
      </g>
    </g>
  </g>
</svg>
