<svg xmlns="http://www.w3.org/2000/svg" width="223.053" height="137.089" viewBox="0 0 223.053 137.089">
  <g id="그룹_368" data-name="그룹 368" transform="translate(-32.327 -3329.835)">
    <path id="패스_9085" data-name="패스 9085" d="M520.129,618.09l.081,2.979A13.618,13.618,0,0,0,533.4,634.312l2.979.093-2.979.081a13.618,13.618,0,0,0-13.244,13.188l-.093,2.978-.081-2.978a13.618,13.618,0,0,0-13.188-13.244l-2.979-.093,2.979-.081a13.618,13.618,0,0,0,13.244-13.188Z" transform="translate(-368.106 2755.798)" fill="#fff"/>
    <path id="패스_9086" data-name="패스 9086" d="M575.788,591.816c-14.131-5.614-32.242-1.016-44.28,11.08a13.9,13.9,0,0,1-19.626,0c-12.038-12.1-30.149-16.694-44.28-11.08-18.962,7.533-27.223,32.675-17.541,55.075,8.719,20.174,38.306,44.57,56.616,58.3a25.025,25.025,0,0,0,30.036,0c18.31-13.726,47.9-38.121,56.616-58.3C603.01,624.492,594.75,599.349,575.788,591.816Zm2.2,51.916C571.666,658.354,551.4,675.8,537,686.881a25.067,25.067,0,0,1-30.6,0c-14.4-11.084-34.67-28.528-40.989-43.15-7.607-17.6-1.117-37.36,13.784-43.279,10.5-4.171,23.789-1.17,33.2,7.2a14.006,14.006,0,0,0,18.61,0c9.413-8.37,22.7-11.37,33.2-7.2C579.1,606.372,585.593,626.129,577.985,643.732Z" transform="translate(-377.481 2751.154)" fill="#fff"/>
    <g id="그룹_361" data-name="그룹 361" transform="translate(114.381 3368.412)">
      <path id="패스_9087" data-name="패스 9087" d="M523.4,660.982a24.1,24.1,0,0,1-5.729-47.512c-.74-.055-1.486-.092-2.241-.092a29.967,29.967,0,1,0,29.7,33.948A24.105,24.105,0,0,1,523.4,660.982Z" transform="translate(-485.463 -613.378)" fill="#fff"/>
    </g>
    <path id="패스_9088" data-name="패스 9088" d="M28.121,42.386C19.513,48.591-3.632,65.3,4.35,77.243c11.087,12.5,47.179,7.447,62.688,5.023,37.162-6.552,73.82-18.43,106.885-36.738,9.408-5.164,21.064-13.246,27.462-21.544C208.936,14.194,208.2,4.208,184.058,0c31.33,2.473,28.639,21.095,7.728,37.9C154.611,66.992,95.462,85.6,48.655,89.188c-12.855.66-26.345.872-38.52-4.022C-2.113,79.954-2.759,69.627,5.5,60.069c6.239-7.39,14.4-12.829,22.617-17.683Z" transform="matrix(0.97, 0.242, -0.242, 0.97, 53.988, 3329.835)" fill="#fff"/>
  </g>
</svg>
